<svg width="270" height="47" viewBox="0 0 270 47" fill="none" xmlns="http://www.w3.org/2000/svg">
<path d="M66.8494 10.2594C67.307 9.60817 67.6062 8.81619 67.6062 7.91861C67.6062 5.73626 65.811 3.9763 63.6287 3.9763H60.408C60.0736 3.9763 59.88 4.1699 59.88 4.50429V16.472C59.88 16.8064 60.0736 17 60.408 17H63.9983C66.1806 17 67.9758 15.24 67.9758 13.0225C67.9758 11.9665 67.5358 10.9985 66.8494 10.2594ZM62.5903 6.82744H63.5055C64.1215 6.82744 64.6495 7.32022 64.6495 7.95381C64.6495 8.56979 64.1215 9.06258 63.5055 9.06258H62.5903V6.82744ZM63.8751 14.1489H62.5903V11.9137H63.8751C64.4911 11.9137 65.0015 12.4065 65.0015 13.0225C65.0015 13.6561 64.4911 14.1489 63.8751 14.1489ZM75.8066 3.8707C72.1635 3.8707 69.1892 6.82744 69.1892 10.4882C69.1892 14.1489 72.1635 17.1056 75.8066 17.1056C79.4674 17.1056 82.4241 14.1489 82.4241 10.4882C82.4241 6.82744 79.4674 3.8707 75.8066 3.8707ZM75.789 6.70424C77.8306 6.70424 79.573 8.429 79.573 10.4882C79.573 12.5473 77.8306 14.2721 75.789 14.2721C73.6947 14.2721 72.0403 12.5825 72.0403 10.4882C72.0403 8.3938 73.6947 6.70424 75.789 6.70424ZM91.3698 4.50429V11.6849L86.2835 4.31069C86.1251 4.0643 85.9315 3.9763 85.6499 3.9763H84.4355C84.1011 3.9763 83.9075 4.1699 83.9075 4.50429V16.472C83.9075 16.8064 84.1011 17 84.4355 17H86.2131C86.5651 17 86.7587 16.8064 86.7587 16.472V9.34418L91.7746 16.6656C91.933 16.912 92.1266 17 92.4082 17H93.6753C94.0097 17 94.2033 16.8064 94.2033 16.472V4.50429C94.2033 4.1699 94.0097 3.9763 93.6753 3.9763H91.9154C91.5634 3.9763 91.3698 4.1699 91.3698 4.50429ZM100.217 17.1056C97.8233 17.1056 95.8698 15.152 95.8698 12.7585V4.50429C95.8698 4.1699 96.0634 3.9763 96.3978 3.9763H98.1577C98.5097 3.9763 98.7033 4.1699 98.7033 4.50429V12.7585C98.7033 13.5857 99.3721 14.2545 100.217 14.2545C101.062 14.2545 101.748 13.5857 101.748 12.7585V4.50429C101.748 4.1699 101.942 3.9763 102.276 3.9763H104.036C104.37 3.9763 104.582 4.1699 104.582 4.50429V12.7585C104.582 15.152 102.61 17.1056 100.217 17.1056ZM110.106 17.1408C108.891 17.1408 107.694 16.6832 106.48 15.8208C106.128 15.5744 106.058 15.3104 106.216 14.9936L107.078 13.4449C107.272 13.1457 107.536 13.0753 107.835 13.2865C108.61 13.7793 109.349 14.0433 109.947 14.0433C110.686 14.0433 111.161 13.6737 111.161 13.0929C111.161 12.0721 109.736 11.7025 108.469 10.9985C106.867 10.101 106.075 8.85139 106.146 7.35542C106.251 5.19067 108.064 3.76511 110.387 3.8707C111.32 3.9059 112.217 4.2227 112.939 4.62749C113.238 4.80348 113.291 5.06748 113.115 5.36667L112.305 6.61624C112.112 6.91543 111.865 6.96823 111.566 6.80984C111.197 6.61624 110.757 6.45784 110.264 6.45784C109.49 6.45784 109.032 6.82744 109.032 7.35542C109.032 8.2002 110.176 8.5522 111.232 9.08018C112.27 9.59057 114.206 10.6993 114.206 13.1105C114.206 15.3808 112.481 17.1408 110.106 17.1408ZM132.814 9.27378H126.443C126.091 9.27378 125.897 9.46737 125.897 9.80177V11.2273C125.897 11.5793 126.091 11.7729 126.443 11.7729H130.297C129.822 13.2337 128.502 14.2721 126.918 14.2721C124.894 14.2721 123.292 12.6353 123.292 10.4882C123.292 8.4114 124.982 6.70424 127.059 6.70424C128.185 6.70424 129.012 7.19703 129.857 7.91861C130.121 8.1474 130.403 8.12981 130.614 7.86581L131.634 6.63384C131.846 6.36985 131.846 6.12345 131.599 5.87706C130.297 4.57469 128.836 3.8707 127.059 3.8707C123.398 3.8707 120.441 6.84503 120.441 10.4882C120.441 14.1137 123.204 17.1056 126.918 17.1056C130.385 17.1056 133.218 14.3601 133.359 10.7697V9.80177C133.359 9.46737 133.166 9.27378 132.814 9.27378ZM143.824 16.3664L141.008 11.5617C142.258 10.8753 143.103 9.53777 143.103 8.00661C143.103 5.78906 141.29 3.9763 139.055 3.9763H135.447C135.112 3.9763 134.919 4.1699 134.919 4.50429V16.472C134.919 16.8064 135.112 17 135.447 17H137.224C137.576 17 137.77 16.8064 137.77 16.472V12.0721H138.157L140.744 16.6304C140.885 16.8944 141.096 17 141.396 17H143.455C143.895 17 144.053 16.7184 143.824 16.3664ZM137.77 6.82744H139.055C139.724 6.82744 140.269 7.35542 140.269 8.00661C140.269 8.71059 139.724 9.22098 139.055 9.22098H137.77V6.82744ZM157.426 16.384L152.533 4.38109C152.427 4.0995 152.234 3.9763 151.935 3.9763H150.579C150.28 3.9763 150.087 4.0995 149.981 4.38109L145.211 16.384C145.071 16.7536 145.229 17 145.616 17H147.623C147.922 17 148.115 16.8768 148.221 16.5952L148.96 14.7649H153.694L154.416 16.5776C154.522 16.8592 154.715 16.9824 155.014 16.9824L157.003 17C157.39 17 157.566 16.7536 157.426 16.384ZM150.104 11.9313L151.336 8.81619L152.55 11.9313H150.104ZM166.46 4.50429V11.6849L161.374 4.31069C161.216 4.0643 161.022 3.9763 160.74 3.9763H159.526C159.192 3.9763 158.998 4.1699 158.998 4.50429V16.472C158.998 16.8064 159.192 17 159.526 17H161.304C161.656 17 161.849 16.8064 161.849 16.472V9.34418L166.865 16.6656C167.023 16.912 167.217 17 167.499 17H168.766C169.1 17 169.294 16.8064 169.294 16.472V4.50429C169.294 4.1699 169.1 3.9763 168.766 3.9763H167.006C166.654 3.9763 166.46 4.1699 166.46 4.50429ZM178.352 3.9763H171.048C170.714 3.9763 170.52 4.1699 170.52 4.50429V6.29945C170.52 6.63384 170.714 6.82744 171.048 6.82744H173.283V16.472C173.283 16.8064 173.477 17 173.811 17H175.589C175.923 17 176.117 16.8064 176.117 16.472V6.82744H178.352C178.686 6.82744 178.898 6.63384 178.898 6.29945V4.50429C178.898 4.1699 178.686 3.9763 178.352 3.9763ZM187.417 14.1489H183.299V11.7377H187.083C187.435 11.7377 187.628 11.5441 187.628 11.2097V9.76657C187.628 9.43218 187.435 9.23858 187.083 9.23858H183.299V6.82744H187.417C187.751 6.82744 187.945 6.63384 187.945 6.29945V4.50429C187.945 4.1699 187.751 3.9763 187.417 3.9763H180.975C180.641 3.9763 180.447 4.1699 180.447 4.50429V16.472C180.447 16.8064 180.641 17 180.975 17H187.417C187.751 17 187.945 16.8064 187.945 16.472V14.6769C187.945 14.3425 187.751 14.1489 187.417 14.1489ZM193.799 3.9763H190.033C189.699 3.9763 189.505 4.1699 189.505 4.50429V16.472C189.505 16.8064 189.699 17 190.033 17H193.799C197.39 17 200.311 14.0785 200.311 10.4882C200.311 6.89783 197.39 3.9763 193.799 3.9763ZM193.799 14.1489H192.356V6.82744H193.799C195.806 6.82744 197.443 8.4642 197.443 10.4882C197.443 12.5121 195.806 14.1489 193.799 14.1489ZM204.259 9.64337C204.259 10.453 203.608 11.1041 202.799 11.1041C202.007 11.1041 201.373 10.453 201.373 9.64337C201.373 8.83379 202.007 8.2002 202.799 8.2002C203.608 8.2002 204.259 8.83379 204.259 9.64337ZM204.259 15.5568C204.259 16.3664 203.608 17 202.799 17C202.007 17 201.373 16.3664 201.373 15.5568C201.373 14.7473 202.007 14.0961 202.799 14.0961C203.608 14.0961 204.259 14.7473 204.259 15.5568Z" fill="white"/>
<path d="M5.72772 42.0135C4.26397 42.0135 2.82143 41.4619 1.35768 40.4224C0.933407 40.1254 0.848552 39.8072 1.03948 39.4254L2.07895 37.5586C2.3123 37.1979 2.63051 37.1131 2.99115 37.3676C3.92455 37.9616 4.81553 38.2798 5.5368 38.2798C6.42778 38.2798 7.00055 37.8343 7.00055 37.1343C7.00055 35.9039 5.28224 35.4584 3.75484 34.6098C1.82439 33.5279 0.869766 32.0218 0.954621 30.2186C1.0819 27.6093 3.26692 25.891 6.06715 26.0183C7.19148 26.0607 8.27338 26.4425 9.14315 26.9305C9.50378 27.1426 9.56742 27.4608 9.35528 27.8214L8.37945 29.3276C8.1461 29.6882 7.8491 29.7519 7.48847 29.561C7.04298 29.3276 6.51264 29.1367 5.91865 29.1367C4.98524 29.1367 4.43368 29.5822 4.43368 30.2186C4.43368 31.2369 5.81258 31.6611 7.08541 32.2975C8.33702 32.9127 10.6705 34.2492 10.6705 37.1555C10.6705 39.8921 8.59159 42.0135 5.72772 42.0135ZM20.0276 41.971C15.6364 41.971 12.0513 38.3859 12.0513 33.9946C12.0513 29.6034 15.6364 26.0183 20.0064 26.0183C22.149 26.0183 24.0158 26.8668 25.6069 28.4578C25.9039 28.7336 25.9039 29.0306 25.6493 29.3488L24.4189 30.8338C24.1643 31.152 23.8249 31.1732 23.5067 30.8974C22.4672 30.0277 21.3641 29.4337 20.0276 29.4337C17.5032 29.4337 15.4667 31.4914 15.4667 33.9946C15.4667 36.4979 17.5032 38.5556 20.0276 38.5556C21.258 38.5556 22.5097 38.0465 23.5067 37.1555C23.8249 36.8797 24.1431 36.8797 24.3977 37.2191L25.6705 38.8738C25.9039 39.192 25.9039 39.489 25.6069 39.786C24.1643 41.1225 22.1702 41.971 20.0276 41.971ZM32.6184 30.7914C32.5123 30.7914 32.3638 30.8126 32.2577 30.8338L32.4274 29.5822H36.2884C36.6914 29.5822 36.946 29.3488 36.946 28.9458V26.782C36.946 26.3789 36.6914 26.1455 36.2884 26.1455H30.1576C29.7757 26.1455 29.5424 26.3365 29.4787 26.7395L28.6302 32.2551C28.5877 32.5309 28.6514 32.743 28.906 32.934L30.8576 34.3977C31.091 34.5674 31.3243 34.5674 31.6001 34.4189C31.8971 34.2916 32.2577 34.2068 32.5972 34.2068C33.7851 34.2068 34.6761 35.119 34.6761 36.3069C34.6761 37.4737 33.7851 38.3647 32.6184 38.3647C31.982 38.3647 31.4304 38.0889 31.0061 37.6858C30.7091 37.4101 30.4333 37.3464 30.1151 37.6222L28.418 39.0647C28.0998 39.3405 28.0574 39.6799 28.3544 39.9981C29.4363 41.1225 30.9425 41.971 32.6396 41.971C35.5671 41.971 38.0915 39.4466 38.0915 36.3282C38.0915 33.2734 35.6944 30.7914 32.6184 30.7914ZM43.2698 40.1042C43.2698 41.0801 42.4849 41.8438 41.5091 41.8438C40.5545 41.8438 39.7908 41.0801 39.7908 40.1042C39.7908 39.1284 40.5545 38.3435 41.5091 38.3435C42.4849 38.3435 43.2698 39.1284 43.2698 40.1042ZM50.2414 41.971C47.3563 41.971 44.9379 39.5951 44.9379 36.6888V31.3005C44.9379 28.3942 47.3563 26.0183 50.2414 26.0183C53.1689 26.0183 55.5236 28.3942 55.5236 31.3005V36.6888C55.5236 39.5951 53.1689 41.971 50.2414 41.971ZM48.3534 31.3005V36.6888C48.3534 37.7071 49.2019 38.5768 50.2414 38.5768C51.2809 38.5768 52.1082 37.7071 52.1082 36.6888V31.3005C52.1082 30.2822 51.2809 29.4125 50.2414 29.4125C49.2019 29.4125 48.3534 30.2822 48.3534 31.3005ZM62.92 41.971C60.0349 41.971 57.6165 39.5951 57.6165 36.6888V31.3005C57.6165 28.3942 60.0349 26.0183 62.92 26.0183C65.8475 26.0183 68.2022 28.3942 68.2022 31.3005V36.6888C68.2022 39.5951 65.8475 41.971 62.92 41.971ZM61.0319 31.3005V36.6888C61.0319 37.7071 61.8805 38.5768 62.92 38.5768C63.9594 38.5768 64.7868 37.7071 64.7868 36.6888V31.3005C64.7868 30.2822 63.9594 29.4125 62.92 29.4125C61.8805 29.4125 61.0319 30.2822 61.0319 31.3005ZM81.0118 42.0135C79.5481 42.0135 78.1055 41.4619 76.6418 40.4224C76.2175 40.1254 76.1327 39.8072 76.3236 39.4254L77.3631 37.5586C77.5964 37.1979 77.9146 37.1131 78.2753 37.3676C79.2087 37.9616 80.0996 38.2798 80.8209 38.2798C81.7119 38.2798 82.2847 37.8343 82.2847 37.1343C82.2847 35.9039 80.5663 35.4584 79.039 34.6098C77.1085 33.5279 76.1539 32.0218 76.2387 30.2186C76.366 27.6093 78.551 25.891 81.3513 26.0183C82.4756 26.0607 83.5575 26.4425 84.4273 26.9305C84.7879 27.1426 84.8515 27.4608 84.6394 27.8214L83.6636 29.3276C83.4302 29.6882 83.1332 29.7519 82.7726 29.561C82.3271 29.3276 81.7967 29.1367 81.2028 29.1367C80.2694 29.1367 79.7178 29.5822 79.7178 30.2186C79.7178 31.2369 81.0967 31.6611 82.3695 32.2975C83.6211 32.9127 85.9547 34.2492 85.9547 37.1555C85.9547 39.8921 83.8757 42.0135 81.0118 42.0135ZM104.598 26.1455H102.116C101.734 26.1455 101.5 26.294 101.394 26.6759L99.2729 34.3341L97.3001 26.888C97.2152 26.5698 97.0243 26.4425 96.7061 26.4425H95.3484C95.0302 26.4425 94.818 26.5698 94.7332 26.888L92.7815 34.3341L90.6177 26.6759C90.5116 26.294 90.2783 26.1455 89.9177 26.1455H87.4356C86.9901 26.1455 86.7568 26.4425 86.8841 26.8668L90.9359 41.3134C91.042 41.6953 91.2753 41.8438 91.636 41.8438H93.3119C93.6937 41.8438 93.9483 41.6528 94.0543 41.2922L96.006 33.7613L98.0001 41.2922C98.085 41.6528 98.3395 41.8438 98.7214 41.8438H100.397C100.779 41.8438 101.012 41.6953 101.119 41.3134L105.17 26.8668C105.298 26.4425 105.064 26.1455 104.598 26.1455ZM115.323 38.4071H110.359V35.5008H114.92C115.344 35.5008 115.578 35.2675 115.578 34.8644V33.1249C115.578 32.7218 115.344 32.4885 114.92 32.4885H110.359V29.5822H115.323C115.726 29.5822 115.96 29.3488 115.96 28.9458V26.782C115.96 26.3789 115.726 26.1455 115.323 26.1455H107.559C107.156 26.1455 106.922 26.3789 106.922 26.782V41.2073C106.922 41.6104 107.156 41.8438 107.559 41.8438H115.323C115.726 41.8438 115.96 41.6104 115.96 41.2073V39.0435C115.96 38.6405 115.726 38.4071 115.323 38.4071ZM126.241 38.4071H121.277V35.5008H125.838C126.262 35.5008 126.495 35.2675 126.495 34.8644V33.1249C126.495 32.7218 126.262 32.4885 125.838 32.4885H121.277V29.5822H126.241C126.644 29.5822 126.877 29.3488 126.877 28.9458V26.782C126.877 26.3789 126.644 26.1455 126.241 26.1455H118.477C118.073 26.1455 117.84 26.3789 117.84 26.782V41.2073C117.84 41.6104 118.073 41.8438 118.477 41.8438H126.241C126.644 41.8438 126.877 41.6104 126.877 41.2073V39.0435C126.877 38.6405 126.644 38.4071 126.241 38.4071ZM133.743 26.1455H129.394C128.991 26.1455 128.758 26.3789 128.758 26.782V41.2073C128.758 41.6104 128.991 41.8438 129.394 41.8438H131.537C131.961 41.8438 132.194 41.6104 132.194 41.2073V35.9039H133.743C136.437 35.9039 138.643 33.7189 138.643 31.0035C138.643 28.3306 136.437 26.1455 133.743 26.1455ZM133.743 32.4673H132.194V29.5822H133.743C134.549 29.5822 135.207 30.2186 135.207 31.0035C135.207 31.8521 134.549 32.4673 133.743 32.4673ZM144.778 42.0135C143.314 42.0135 141.871 41.4619 140.407 40.4224C139.983 40.1254 139.898 39.8072 140.089 39.4254L141.129 37.5586C141.362 37.1979 141.68 37.1131 142.041 37.3676C142.974 37.9616 143.865 38.2798 144.587 38.2798C145.478 38.2798 146.05 37.8343 146.05 37.1343C146.05 35.9039 144.332 35.4584 142.805 34.6098C140.874 33.5279 139.92 32.0218 140.004 30.2186C140.132 27.6093 142.317 25.891 145.117 26.0183C146.241 26.0607 147.323 26.4425 148.193 26.9305C148.554 27.1426 148.617 27.4608 148.405 27.8214L147.429 29.3276C147.196 29.6882 146.899 29.7519 146.538 29.561C146.093 29.3276 145.562 29.1367 144.968 29.1367C144.035 29.1367 143.483 29.5822 143.483 30.2186C143.483 31.2369 144.862 31.6611 146.135 32.2975C147.387 32.9127 149.72 34.2492 149.72 37.1555C149.72 39.8921 147.641 42.0135 144.778 42.0135ZM160.435 26.1455H151.631C151.228 26.1455 150.995 26.3789 150.995 26.782V28.9458C150.995 29.3488 151.228 29.5822 151.631 29.5822H154.326V41.2073C154.326 41.6104 154.559 41.8438 154.962 41.8438H157.105C157.508 41.8438 157.741 41.6104 157.741 41.2073V29.5822H160.435C160.838 29.5822 161.093 29.3488 161.093 28.9458V26.782C161.093 26.3789 160.838 26.1455 160.435 26.1455ZM174.946 41.1013L169.048 26.6335C168.921 26.294 168.688 26.1455 168.327 26.1455H166.694C166.333 26.1455 166.1 26.294 165.972 26.6335L160.223 41.1013C160.054 41.5468 160.245 41.8438 160.711 41.8438H163.13C163.49 41.8438 163.724 41.6953 163.851 41.3558L164.742 39.1496H170.448L171.318 41.3346C171.445 41.674 171.679 41.8225 172.039 41.8225L174.437 41.8438C174.903 41.8438 175.115 41.5468 174.946 41.1013ZM166.121 35.7342L167.606 31.9793L169.069 35.7342H166.121ZM187.83 41.0801L182.887 32.5097L186.939 26.9305C187.257 26.485 187.087 26.1455 186.536 26.1455H184.011C183.672 26.1455 183.417 26.2728 183.226 26.5486L180.256 30.6429V26.782C180.256 26.3789 180.023 26.1455 179.599 26.1455H177.477C177.074 26.1455 176.841 26.3789 176.841 26.782V41.2073C176.841 41.6104 177.074 41.8438 177.477 41.8438H179.599C180.023 41.8438 180.256 41.6104 180.256 41.2073V36.116L180.638 35.5857L183.863 41.3983C184.032 41.7165 184.308 41.8438 184.648 41.8438H187.384C187.893 41.8438 188.084 41.5043 187.83 41.0801ZM198.376 38.4071H193.412V35.5008H197.973C198.397 35.5008 198.631 35.2675 198.631 34.8644V33.1249C198.631 32.7218 198.397 32.4885 197.973 32.4885H193.412V29.5822H198.376C198.779 29.5822 199.012 29.3488 199.012 28.9458V26.782C199.012 26.3789 198.779 26.1455 198.376 26.1455H190.612C190.209 26.1455 189.975 26.3789 189.975 26.782V41.2073C189.975 41.6104 190.209 41.8438 190.612 41.8438H198.376C198.779 41.8438 199.012 41.6104 199.012 41.2073V39.0435C199.012 38.6405 198.779 38.4071 198.376 38.4071ZM214.474 41.971C210.082 41.971 206.497 38.3859 206.497 33.9946C206.497 29.6034 210.082 26.0183 214.452 26.0183C216.595 26.0183 218.462 26.8668 220.053 28.4578C220.35 28.7336 220.35 29.0306 220.095 29.3488L218.865 30.8338C218.61 31.152 218.271 31.1732 217.953 30.8974C216.913 30.0277 215.81 29.4337 214.474 29.4337C211.949 29.4337 209.913 31.4914 209.913 33.9946C209.913 36.4979 211.949 38.5556 214.474 38.5556C215.704 38.5556 216.956 38.0465 217.953 37.1555C218.271 36.8797 218.589 36.8797 218.844 37.2191L220.116 38.8738C220.35 39.192 220.35 39.489 220.053 39.786C218.61 41.1225 216.616 41.971 214.474 41.971ZM228.978 26.0183C224.586 26.0183 221.001 29.5822 221.001 33.9946C221.001 38.4071 224.586 41.971 228.978 41.971C233.39 41.971 236.954 38.4071 236.954 33.9946C236.954 29.5822 233.39 26.0183 228.978 26.0183ZM228.957 29.4337C231.417 29.4337 233.517 31.5126 233.517 33.9946C233.517 36.4767 231.417 38.5556 228.957 38.5556C226.432 38.5556 224.438 36.5191 224.438 33.9946C224.438 31.4702 226.432 29.4337 228.957 29.4337ZM238.742 41.2073V26.782C238.742 26.3789 238.976 26.1455 239.379 26.1455H241.479C241.903 26.1455 242.136 26.3789 242.136 26.782V41.2073C242.136 41.6104 241.903 41.8438 241.479 41.8438H239.379C238.976 41.8438 238.742 41.6104 238.742 41.2073ZM253.123 26.782V35.4372L246.992 26.5486C246.801 26.2516 246.568 26.1455 246.229 26.1455H244.765C244.362 26.1455 244.129 26.3789 244.129 26.782V41.2073C244.129 41.6104 244.362 41.8438 244.765 41.8438H246.908C247.332 41.8438 247.565 41.6104 247.565 41.2073V32.6157L253.611 41.4407C253.802 41.7377 254.035 41.8438 254.375 41.8438H255.902C256.305 41.8438 256.539 41.6104 256.539 41.2073V26.782C256.539 26.3789 256.305 26.1455 255.902 26.1455H253.781C253.357 26.1455 253.123 26.3789 253.123 26.782ZM263.214 42.0135C261.751 42.0135 260.308 41.4619 258.844 40.4224C258.42 40.1254 258.335 39.8072 258.526 39.4254L259.566 37.5586C259.799 37.1979 260.117 37.1131 260.478 37.3676C261.411 37.9616 262.302 38.2798 263.023 38.2798C263.914 38.2798 264.487 37.8343 264.487 37.1343C264.487 35.9039 262.769 35.4584 261.241 34.6098C259.311 33.5279 258.356 32.0218 258.441 30.2186C258.568 27.6093 260.753 25.891 263.554 26.0183C264.678 26.0607 265.76 26.4425 266.63 26.9305C266.99 27.1426 267.054 27.4608 266.842 27.8214L265.866 29.3276C265.633 29.6882 265.336 29.7519 264.975 29.561C264.53 29.3276 263.999 29.1367 263.405 29.1367C262.472 29.1367 261.92 29.5822 261.92 30.2186C261.92 31.2369 263.299 31.6611 264.572 32.2975C265.824 32.9127 268.157 34.2492 268.157 37.1555C268.157 39.8921 266.078 42.0135 263.214 42.0135Z" fill="white"/>
</svg>
