<svg width="268" height="90" viewBox="0 0 268 90" fill="none" xmlns="http://www.w3.org/2000/svg">
<path d="M31.146 61.2985C25.0493 61.2985 20.0718 66.2466 20.0718 72.3728C20.0718 78.4989 25.0493 83.447 31.146 83.447C37.2722 83.447 42.2202 78.4989 42.2202 72.3728C42.2202 66.2466 37.2722 61.2985 31.146 61.2985ZM31.1166 66.0404C34.5331 66.0404 37.4489 68.9268 37.4489 72.3728C37.4489 75.8187 34.5331 78.7051 31.1166 78.7051C27.6117 78.7051 24.8431 75.8776 24.8431 72.3728C24.8431 68.8679 27.6117 66.0404 31.1166 66.0404ZM57.1907 62.3588V74.3755L48.6789 62.0349C48.4138 61.6225 48.0898 61.4753 47.6186 61.4753H45.5864C45.0268 61.4753 44.7028 61.7992 44.7028 62.3588V82.3867C44.7028 82.9463 45.0268 83.2703 45.5864 83.2703H48.5611C49.1501 83.2703 49.4741 82.9463 49.4741 82.3867V70.4583L57.8681 82.7107C58.1332 83.123 58.4572 83.2703 58.9284 83.2703H61.049C61.6086 83.2703 61.9326 82.9463 61.9326 82.3867V62.3588C61.9326 61.7992 61.6086 61.4753 61.049 61.4753H58.1038C57.5147 61.4753 57.1907 61.7992 57.1907 62.3588ZM83.7237 61.2985C77.627 61.2985 72.6495 66.2466 72.6495 72.3728C72.6495 78.4989 77.627 83.447 83.7237 83.447C89.8499 83.447 94.7979 78.4989 94.7979 72.3728C94.7979 66.2466 89.8499 61.2985 83.7237 61.2985ZM83.6943 66.0404C87.1108 66.0404 90.0266 68.9268 90.0266 72.3728C90.0266 75.8187 87.1108 78.7051 83.6943 78.7051C80.1894 78.7051 77.4208 75.8776 77.4208 72.3728C77.4208 68.8679 80.1894 66.0404 83.6943 66.0404ZM104.555 83.447C100.55 83.447 97.2805 80.1777 97.2805 76.1722V62.3588C97.2805 61.7992 97.6045 61.4753 98.1641 61.4753H101.109C101.698 61.4753 102.022 61.7992 102.022 62.3588V76.1722C102.022 77.5564 103.142 78.6756 104.555 78.6756C105.969 78.6756 107.118 77.5564 107.118 76.1722V62.3588C107.118 61.7992 107.442 61.4753 108.001 61.4753H110.947C111.506 61.4753 111.86 61.7992 111.86 62.3588V76.1722C111.86 80.1777 108.561 83.447 104.555 83.447ZM129.527 82.21L124.815 74.1694C126.906 73.0207 128.32 70.7823 128.32 68.2199C128.32 64.5089 125.286 61.4753 121.546 61.4753H115.508C114.948 61.4753 114.624 61.7992 114.624 62.3588V82.3867C114.624 82.9463 114.948 83.2703 115.508 83.2703H118.483C119.072 83.2703 119.396 82.9463 119.396 82.3867V75.0235H120.044L124.373 82.6518C124.609 83.0935 124.962 83.2703 125.463 83.2703H128.909C129.645 83.2703 129.91 82.799 129.527 82.21ZM119.396 66.2466H121.546C122.665 66.2466 123.578 67.1302 123.578 68.2199C123.578 69.398 122.665 70.2522 121.546 70.2522H119.396V66.2466ZM164.664 61.4753H161.218C160.688 61.4753 160.364 61.6814 160.217 62.2116L157.272 72.844L154.533 62.5061C154.415 62.0643 154.15 61.8876 153.708 61.8876H151.823C151.381 61.8876 151.087 62.0643 150.969 62.5061L148.259 72.844L145.255 62.2116C145.108 61.6814 144.784 61.4753 144.283 61.4753H140.837C140.219 61.4753 139.895 61.8876 140.071 62.4766L145.697 82.5339C145.844 83.0641 146.168 83.2703 146.669 83.2703H148.996C149.526 83.2703 149.879 83.0052 150.026 82.5045L152.736 72.0488L155.505 82.5045C155.622 83.0052 155.976 83.2703 156.506 83.2703H158.833C159.363 83.2703 159.687 83.0641 159.834 82.5339L165.46 62.4766C165.636 61.8876 165.312 61.4753 164.664 61.4753ZM179.556 78.4989H172.664V74.4639H178.996C179.585 74.4639 179.909 74.1399 179.909 73.5803V71.1652C179.909 70.6056 179.585 70.2816 178.996 70.2816H172.664V66.2466H179.556C180.115 66.2466 180.439 65.9226 180.439 65.363V62.3588C180.439 61.7992 180.115 61.4753 179.556 61.4753H168.776C168.216 61.4753 167.892 61.7992 167.892 62.3588V82.3867C167.892 82.9463 168.216 83.2703 168.776 83.2703H179.556C180.115 83.2703 180.439 82.9463 180.439 82.3867V79.3825C180.439 78.8229 180.115 78.4989 179.556 78.4989ZM194.713 71.9899C195.479 70.9001 195.98 69.5747 195.98 68.0727C195.98 64.4205 192.976 61.4753 189.323 61.4753H183.934C183.374 61.4753 183.05 61.7992 183.05 62.3588V82.3867C183.05 82.9463 183.374 83.2703 183.934 83.2703H189.942C193.594 83.2703 196.598 80.325 196.598 76.6139C196.598 74.8468 195.862 73.2269 194.713 71.9899ZM187.586 66.2466H189.117C190.148 66.2466 191.032 67.0713 191.032 68.1316C191.032 69.1624 190.148 69.9871 189.117 69.9871H187.586V66.2466ZM189.736 78.4989H187.586V74.7584H189.736C190.767 74.7584 191.621 75.5831 191.621 76.6139C191.621 77.6742 190.767 78.4989 189.736 78.4989ZM205.55 83.5059C203.518 83.5059 201.515 82.7401 199.483 81.2969C198.894 80.8846 198.776 80.4428 199.041 79.9127L200.484 77.3208C200.808 76.8201 201.25 76.7023 201.751 77.0557C203.047 77.8804 204.284 78.3222 205.285 78.3222C206.522 78.3222 207.317 77.7037 207.317 76.7318C207.317 75.0235 204.932 74.405 202.811 73.2269C200.131 71.7248 198.806 69.6337 198.923 67.1302C199.1 63.5075 202.134 61.1218 206.022 61.2985C207.583 61.3574 209.085 61.8876 210.292 62.565C210.793 62.8595 210.881 63.3013 210.587 63.802L209.232 65.8932C208.908 66.3939 208.496 66.4822 207.995 66.2171C207.376 65.8932 206.64 65.6281 205.815 65.6281C204.519 65.6281 203.754 66.2466 203.754 67.1302C203.754 68.5439 205.668 69.133 207.435 70.0165C209.173 70.8707 212.413 72.7262 212.413 76.7612C212.413 80.5606 209.526 83.5059 205.55 83.5059ZM214.919 82.3867V62.3588C214.919 61.7992 215.243 61.4753 215.802 61.4753H218.718C219.307 61.4753 219.631 61.7992 219.631 62.3588V82.3867C219.631 82.9463 219.307 83.2703 218.718 83.2703H215.802C215.243 83.2703 214.919 82.9463 214.919 82.3867ZM234.767 61.4753H222.544C221.985 61.4753 221.661 61.7992 221.661 62.3588V65.363C221.661 65.9226 221.985 66.2466 222.544 66.2466H226.285V82.3867C226.285 82.9463 226.609 83.2703 227.168 83.2703H230.143C230.703 83.2703 231.027 82.9463 231.027 82.3867V66.2466H234.767C235.327 66.2466 235.68 65.9226 235.68 65.363V62.3588C235.68 61.7992 235.327 61.4753 234.767 61.4753ZM249.937 78.4989H243.045V74.4639H249.378C249.967 74.4639 250.291 74.1399 250.291 73.5803V71.1652C250.291 70.6056 249.967 70.2816 249.378 70.2816H243.045V66.2466H249.937C250.497 66.2466 250.821 65.9226 250.821 65.363V62.3588C250.821 61.7992 250.497 61.4753 249.937 61.4753H239.157C238.598 61.4753 238.274 61.7992 238.274 62.3588V82.3867C238.274 82.9463 238.598 83.2703 239.157 83.2703H249.937C250.497 83.2703 250.821 82.9463 250.821 82.3867V79.3825C250.821 78.8229 250.497 78.4989 249.937 78.4989Z" fill="white"/>
<path d="M28.9285 25.8106H25.0559C24.4601 25.8106 24.096 26.0423 23.9305 26.6381L20.6206 38.5868L17.5424 26.9691C17.41 26.4726 17.1121 26.274 16.6157 26.274H14.4973C14.0008 26.274 13.6699 26.4726 13.5375 26.9691L10.4924 38.5868L7.11627 26.6381C6.95077 26.0423 6.58669 25.8106 6.024 25.8106H2.15143C1.45635 25.8106 1.09226 26.274 1.29086 26.936L7.61275 49.4764C7.77825 50.0721 8.14233 50.3038 8.70502 50.3038H11.3198C11.9156 50.3038 12.3128 50.0059 12.4783 49.4433L15.5234 37.6931L18.6347 49.4433C18.7671 50.0059 19.1643 50.3038 19.7601 50.3038H22.3749C22.9706 50.3038 23.3347 50.0721 23.5002 49.4764L29.8221 26.936C30.0207 26.274 29.6566 25.8106 28.9285 25.8106ZM32.5559 49.3109V26.8036C32.5559 26.1747 32.92 25.8106 33.5489 25.8106H36.8257C37.4876 25.8106 37.8517 26.1747 37.8517 26.8036V49.3109C37.8517 49.9397 37.4876 50.3038 36.8257 50.3038H33.5489C32.92 50.3038 32.5559 49.9397 32.5559 49.3109ZM54.9939 26.8036V40.308L45.4283 26.4395C45.1304 25.9761 44.7663 25.8106 44.2367 25.8106H41.9529C41.324 25.8106 40.9599 26.1747 40.9599 26.8036V49.3109C40.9599 49.9397 41.324 50.3038 41.9529 50.3038H45.2959C45.9578 50.3038 46.3219 49.9397 46.3219 49.3109V35.9058L55.7551 49.675C56.053 50.1383 56.4171 50.3038 56.9467 50.3038H59.3298C59.9587 50.3038 60.3228 49.9397 60.3228 49.3109V26.8036C60.3228 26.1747 59.9587 25.8106 59.3298 25.8106H56.0199C55.3579 25.8106 54.9939 26.1747 54.9939 26.8036ZM84.6461 50.5024C77.7946 50.5024 72.2009 44.9087 72.2009 38.0572C72.2009 31.2058 77.7946 25.612 84.613 25.612C87.956 25.612 90.8687 26.936 93.3511 29.4184C93.8145 29.8487 93.8145 30.3121 93.4173 30.8086L91.4976 33.1255C91.1004 33.622 90.5708 33.6551 90.0743 33.2248C88.4525 31.8677 86.7313 30.941 84.6461 30.941C80.7073 30.941 77.5298 34.1516 77.5298 38.0572C77.5298 41.9629 80.7073 45.1735 84.6461 45.1735C86.5658 45.1735 88.5187 44.3791 90.0743 42.989C90.5708 42.5587 91.0673 42.5587 91.4645 43.0883L93.4504 45.67C93.8145 46.1665 93.8145 46.6299 93.3511 47.0932C91.1004 49.1785 87.9891 50.5024 84.6461 50.5024ZM118.39 49.1454L109.189 26.5719C108.99 26.0423 108.626 25.8106 108.064 25.8106H105.515C104.952 25.8106 104.588 26.0423 104.39 26.5719L95.4198 49.1454C95.155 49.8404 95.4529 50.3038 96.1811 50.3038H99.9543C100.517 50.3038 100.881 50.0721 101.08 49.5426L102.47 46.1003H111.373L112.731 49.5095C112.929 50.039 113.293 50.2707 113.856 50.2707L117.596 50.3038C118.324 50.3038 118.655 49.8404 118.39 49.1454ZM104.621 40.7713L106.938 34.9128L109.222 40.7713H104.621ZM128.145 50.5686C125.861 50.5686 123.61 49.7081 121.326 48.0862C120.664 47.6228 120.532 47.1263 120.83 46.5306L122.452 43.6179C122.816 43.0552 123.312 42.9228 123.875 43.32C125.331 44.2467 126.721 44.7432 127.847 44.7432C129.237 44.7432 130.13 44.0481 130.13 42.9559C130.13 41.0361 127.449 40.3411 125.066 39.0171C122.054 37.3291 120.565 34.979 120.697 32.1656C120.896 28.0945 124.305 25.4134 128.674 25.612C130.428 25.6782 132.116 26.274 133.473 27.0353C134.036 27.3663 134.135 27.8628 133.804 28.4254L132.282 30.7755C131.918 31.3382 131.454 31.4374 130.892 31.1396C130.197 30.7755 129.369 30.4776 128.442 30.4776C126.986 30.4776 126.125 31.1727 126.125 32.1656C126.125 33.7544 128.277 34.4164 130.263 35.4093C132.216 36.3692 135.857 38.4544 135.857 42.989C135.857 47.2587 132.613 50.5686 128.145 50.5686ZM151.019 26.8036V35.7072H143.969V26.8036C143.969 26.1747 143.605 25.8106 142.943 25.8106H139.666C139.037 25.8106 138.673 26.1747 138.673 26.8036V49.3109C138.673 49.9397 139.037 50.3038 139.666 50.3038H142.943C143.605 50.3038 143.969 49.9397 143.969 49.3109V40.4073H151.019V49.3109C151.019 49.9397 151.383 50.3038 152.045 50.3038H155.322C155.95 50.3038 156.315 49.9397 156.315 49.3109V26.8036C156.315 26.1747 155.95 25.8106 155.322 25.8106H152.045C151.383 25.8106 151.019 26.1747 151.019 26.8036ZM176.641 25.8106H169.856C169.227 25.8106 168.863 26.1747 168.863 26.8036V49.3109C168.863 49.9397 169.227 50.3038 169.856 50.3038H173.199C173.861 50.3038 174.225 49.9397 174.225 49.3109V41.0361H176.641C180.844 41.0361 184.287 37.6269 184.287 33.3903C184.287 29.2198 180.844 25.8106 176.641 25.8106ZM176.641 35.6741H174.225V31.1727H176.641C177.899 31.1727 178.925 32.1656 178.925 33.3903C178.925 34.7142 177.899 35.6741 176.641 35.6741ZM203.324 49.1123L198.028 40.0763C200.378 38.7854 201.967 36.2699 201.967 33.3903C201.967 29.2198 198.558 25.8106 194.354 25.8106H187.569C186.94 25.8106 186.576 26.1747 186.576 26.8036V49.3109C186.576 49.9397 186.94 50.3038 187.569 50.3038H190.912C191.574 50.3038 191.938 49.9397 191.938 49.3109V41.0361H192.666L197.531 49.6088C197.796 50.1052 198.193 50.3038 198.756 50.3038H202.629C203.456 50.3038 203.754 49.7743 203.324 49.1123ZM191.938 31.1727H194.354C195.612 31.1727 196.638 32.1656 196.638 33.3903C196.638 34.7142 195.612 35.6741 194.354 35.6741H191.938V31.1727ZM206.131 49.3109V26.8036C206.131 26.1747 206.495 25.8106 207.124 25.8106H210.401C211.063 25.8106 211.427 26.1747 211.427 26.8036V49.3109C211.427 49.9397 211.063 50.3038 210.401 50.3038H207.124C206.495 50.3038 206.131 49.9397 206.131 49.3109ZM230.754 44.9418H220.956L230.423 31.3713C230.688 30.9741 230.82 30.61 230.82 30.1466V26.8036C230.82 26.1747 230.456 25.8106 229.827 25.8106H214.866C214.237 25.8106 213.873 26.1747 213.873 26.8036V29.8156C213.873 30.4445 214.237 30.8086 214.866 30.8086H224.366L214.899 44.3791C214.635 44.7763 214.502 45.1404 214.502 45.6038V49.3109C214.502 49.9397 214.866 50.3038 215.495 50.3038H230.754C231.416 50.3038 231.78 49.9397 231.78 49.3109V45.9348C231.78 45.3059 231.416 44.9418 230.754 44.9418ZM247.327 44.9418H239.582V40.4073H246.698C247.36 40.4073 247.724 40.0432 247.724 39.4143V36.7002C247.724 36.0713 247.36 35.7072 246.698 35.7072H239.582V31.1727H247.327C247.956 31.1727 248.32 30.8086 248.32 30.1797V26.8036C248.32 26.1747 247.956 25.8106 247.327 25.8106H235.213C234.584 25.8106 234.22 26.1747 234.22 26.8036V49.3109C234.22 49.9397 234.584 50.3038 235.213 50.3038H247.327C247.956 50.3038 248.32 49.9397 248.32 49.3109V45.9348C248.32 45.3059 247.956 44.9418 247.327 44.9418ZM258.536 50.5686C256.252 50.5686 254.002 49.7081 251.718 48.0862C251.056 47.6228 250.923 47.1263 251.221 46.5306L252.843 43.6179C253.207 43.0552 253.704 42.9228 254.266 43.32C255.723 44.2467 257.113 44.7432 258.238 44.7432C259.628 44.7432 260.522 44.0481 260.522 42.9559C260.522 41.0361 257.841 40.3411 255.458 39.0171C252.446 37.3291 250.957 34.979 251.089 32.1656C251.288 28.0945 254.697 25.4134 259.066 25.612C260.82 25.6782 262.508 26.274 263.865 27.0353C264.428 27.3663 264.527 27.8628 264.196 28.4254L262.674 30.7755C262.309 31.3382 261.846 31.4374 261.283 31.1396C260.588 30.7755 259.761 30.4776 258.834 30.4776C257.378 30.4776 256.517 31.1727 256.517 32.1656C256.517 33.7544 258.669 34.4164 260.654 35.4093C262.607 36.3692 266.248 38.4544 266.248 42.989C266.248 47.2587 263.005 50.5686 258.536 50.5686Z" fill="white"/>
<path d="M12.0159 3.9763H8.40797C8.07358 3.9763 7.87998 4.1699 7.87998 4.50429V16.472C7.87998 16.8064 8.07358 17 8.40797 17H10.1855C10.5375 17 10.7311 16.8064 10.7311 16.472V12.0721H12.0159C14.251 12.0721 16.0814 10.2594 16.0814 8.00661C16.0814 5.78906 14.251 3.9763 12.0159 3.9763ZM12.0159 9.22098H10.7311V6.82744H12.0159C12.6847 6.82744 13.2303 7.35542 13.2303 8.00661C13.2303 8.71059 12.6847 9.22098 12.0159 9.22098ZM23.9864 17H17.8265C17.4921 17 17.2985 16.8064 17.2985 16.472V4.50429C17.2985 4.1699 17.4921 3.9763 17.8265 3.9763H19.6041C19.956 3.9763 20.1496 4.1699 20.1496 4.50429V14.1489H23.9864C24.3207 14.1489 24.5143 14.3425 24.5143 14.6769V16.472C24.5143 16.8064 24.3207 17 23.9864 17ZM37.9318 16.384L33.0391 4.38109C32.9335 4.0995 32.74 3.9763 32.4408 3.9763H31.0856C30.7864 3.9763 30.5928 4.0995 30.4872 4.38109L25.7177 16.384C25.5769 16.7536 25.7353 17 26.1225 17H28.1289C28.4281 17 28.6216 16.8768 28.7272 16.5952L29.4664 14.7649H34.2007L34.9223 16.5776C35.0279 16.8592 35.2215 16.9824 35.5207 16.9824L37.5094 17C37.8966 17 38.0726 16.7536 37.9318 16.384ZM30.6104 11.9313L31.8424 8.81619L33.0567 11.9313H30.6104ZM46.7546 3.9763H44.4666C44.1851 3.9763 43.9739 4.0995 43.8331 4.34589L41.8619 7.93621L39.8908 4.34589C39.75 4.0995 39.5388 3.9763 39.2572 3.9763H36.9868C36.5644 3.9763 36.406 4.25789 36.6172 4.60989L40.4539 11.2449V16.472C40.4539 16.8064 40.6475 17 40.9819 17H42.7595C43.0939 17 43.2875 16.8064 43.2875 16.472V11.2449L47.1242 4.60989C47.3354 4.25789 47.177 3.9763 46.7546 3.9763ZM68.3232 3.9763H66.264C65.9472 3.9763 65.7536 4.0995 65.6656 4.41629L63.9057 10.7697L62.2689 4.59229C62.1985 4.32829 62.0401 4.2227 61.7761 4.2227H60.6497C60.3858 4.2227 60.2098 4.32829 60.1394 4.59229L58.5202 10.7697L56.725 4.41629C56.637 4.0995 56.4434 3.9763 56.1442 3.9763H54.0851C53.7155 3.9763 53.5219 4.2227 53.6275 4.57469L56.989 16.56C57.077 16.8768 57.2706 17 57.5698 17H58.9602C59.277 17 59.4882 16.8416 59.5762 16.5424L61.1953 10.2946L62.8497 16.5424C62.9201 16.8416 63.1313 17 63.4481 17H64.8384C65.1552 17 65.3488 16.8768 65.4368 16.56L68.7984 4.57469C68.904 4.2227 68.7104 3.9763 68.3232 3.9763ZM70.252 16.472V4.50429C70.252 4.1699 70.4456 3.9763 70.78 3.9763H72.5223C72.8743 3.9763 73.0679 4.1699 73.0679 4.50429V16.472C73.0679 16.8064 72.8743 17 72.5223 17H70.78C70.4456 17 70.252 16.8064 70.252 16.472ZM82.1124 3.9763H74.8086C74.4742 3.9763 74.2806 4.1699 74.2806 4.50429V6.29945C74.2806 6.63384 74.4742 6.82744 74.8086 6.82744H77.0438V16.472C77.0438 16.8064 77.2374 17 77.5718 17H79.3493C79.6837 17 79.8773 16.8064 79.8773 16.472V6.82744H82.1124C82.4468 6.82744 82.658 6.63384 82.658 6.29945V4.50429C82.658 4.1699 82.4468 3.9763 82.1124 3.9763ZM90.7725 4.50429V9.23858H87.0238V4.50429C87.0238 4.1699 86.8302 3.9763 86.4782 3.9763H84.7359C84.4015 3.9763 84.2079 4.1699 84.2079 4.50429V16.472C84.2079 16.8064 84.4015 17 84.7359 17H86.4782C86.8302 17 87.0238 16.8064 87.0238 16.472V11.7377H90.7725V16.472C90.7725 16.8064 90.9661 17 91.3181 17H93.0605C93.3949 17 93.5885 16.8064 93.5885 16.472V4.50429C93.5885 4.1699 93.3949 3.9763 93.0605 3.9763H91.3181C90.9661 3.9763 90.7725 4.1699 90.7725 4.50429ZM104.133 17.1408C102.918 17.1408 101.721 16.6832 100.507 15.8208C100.155 15.5744 100.085 15.3104 100.243 14.9936L101.105 13.4449C101.299 13.1457 101.563 13.0753 101.862 13.2865C102.637 13.7793 103.376 14.0433 103.974 14.0433C104.713 14.0433 105.189 13.6737 105.189 13.0929C105.189 12.0721 103.763 11.7025 102.496 10.9985C100.894 10.101 100.102 8.85139 100.173 7.35542C100.278 5.19067 102.091 3.76511 104.414 3.8707C105.347 3.9059 106.245 4.2227 106.966 4.62749C107.265 4.80348 107.318 5.06748 107.142 5.36667L106.333 6.61624C106.139 6.91543 105.893 6.96823 105.593 6.80984C105.224 6.61624 104.784 6.45784 104.291 6.45784C103.517 6.45784 103.059 6.82744 103.059 7.35542C103.059 8.2002 104.203 8.5522 105.259 9.08018C106.297 9.59057 108.233 10.6993 108.233 13.1105C108.233 15.3808 106.509 17.1408 104.133 17.1408ZM123.7 3.9763H121.641C121.324 3.9763 121.13 4.0995 121.042 4.41629L119.283 10.7697L117.646 4.59229C117.575 4.32829 117.417 4.2227 117.153 4.2227H116.027C115.763 4.2227 115.587 4.32829 115.516 4.59229L113.897 10.7697L112.102 4.41629C112.014 4.0995 111.82 3.9763 111.521 3.9763H109.462C109.092 3.9763 108.899 4.2227 109.004 4.57469L112.366 16.56C112.454 16.8768 112.647 17 112.947 17H114.337C114.654 17 114.865 16.8416 114.953 16.5424L116.572 10.2946L118.227 16.5424C118.297 16.8416 118.508 17 118.825 17H120.215C120.532 17 120.726 16.8768 120.814 16.56L124.175 4.57469C124.281 4.2227 124.087 3.9763 123.7 3.9763ZM132.598 14.1489H128.48V11.7377H132.264C132.616 11.7377 132.809 11.5441 132.809 11.2097V9.76657C132.809 9.43218 132.616 9.23858 132.264 9.23858H128.48V6.82744H132.598C132.933 6.82744 133.126 6.63384 133.126 6.29945V4.50429C133.126 4.1699 132.933 3.9763 132.598 3.9763H126.157C125.822 3.9763 125.629 4.1699 125.629 4.50429V16.472C125.629 16.8064 125.822 17 126.157 17H132.598C132.933 17 133.126 16.8064 133.126 16.472V14.6769C133.126 14.3425 132.933 14.1489 132.598 14.1489ZM141.656 14.1489H137.538V11.7377H141.321C141.673 11.7377 141.867 11.5441 141.867 11.2097V9.76657C141.867 9.43218 141.673 9.23858 141.321 9.23858H137.538V6.82744H141.656C141.99 6.82744 142.184 6.63384 142.184 6.29945V4.50429C142.184 4.1699 141.99 3.9763 141.656 3.9763H135.214C134.88 3.9763 134.686 4.1699 134.686 4.50429V16.472C134.686 16.8064 134.88 17 135.214 17H141.656C141.99 17 142.184 16.8064 142.184 16.472V14.6769C142.184 14.3425 141.99 14.1489 141.656 14.1489ZM147.88 3.9763H144.272C143.938 3.9763 143.744 4.1699 143.744 4.50429V16.472C143.744 16.8064 143.938 17 144.272 17H146.05C146.402 17 146.595 16.8064 146.595 16.472V12.0721H147.88C150.115 12.0721 151.945 10.2594 151.945 8.00661C151.945 5.78906 150.115 3.9763 147.88 3.9763ZM147.88 9.22098H146.595V6.82744H147.88C148.549 6.82744 149.094 7.35542 149.094 8.00661C149.094 8.71059 148.549 9.22098 147.88 9.22098ZM157.034 17.1408C155.82 17.1408 154.623 16.6832 153.409 15.8208C153.057 15.5744 152.987 15.3104 153.145 14.9936L154.007 13.4449C154.201 13.1457 154.465 13.0753 154.764 13.2865C155.539 13.7793 156.278 14.0433 156.876 14.0433C157.615 14.0433 158.09 13.6737 158.09 13.0929C158.09 12.0721 156.665 11.7025 155.398 10.9985C153.796 10.101 153.004 8.85139 153.075 7.35542C153.18 5.19067 154.993 3.76511 157.316 3.8707C158.249 3.9059 159.146 4.2227 159.868 4.62749C160.167 4.80348 160.22 5.06748 160.044 5.36667L159.234 6.61624C159.041 6.91543 158.794 6.96823 158.495 6.80984C158.126 6.61624 157.686 6.45784 157.193 6.45784C156.418 6.45784 155.961 6.82744 155.961 7.35542C155.961 8.2002 157.105 8.5522 158.161 9.08018C159.199 9.59057 161.135 10.6993 161.135 13.1105C161.135 15.3808 159.41 17.1408 157.034 17.1408ZM170.024 3.9763H162.721C162.386 3.9763 162.193 4.1699 162.193 4.50429V6.29945C162.193 6.63384 162.386 6.82744 162.721 6.82744H164.956V16.472C164.956 16.8064 165.149 17 165.484 17H167.261C167.596 17 167.789 16.8064 167.789 16.472V6.82744H170.024C170.359 6.82744 170.57 6.63384 170.57 6.29945V4.50429C170.57 4.1699 170.359 3.9763 170.024 3.9763ZM182.063 16.384L177.17 4.38109C177.065 4.0995 176.871 3.9763 176.572 3.9763H175.217C174.917 3.9763 174.724 4.0995 174.618 4.38109L169.849 16.384C169.708 16.7536 169.866 17 170.254 17H172.26C172.559 17 172.753 16.8768 172.858 16.5952L173.597 14.7649H178.332L179.053 16.5776C179.159 16.8592 179.353 16.9824 179.652 16.9824L181.64 17C182.028 17 182.204 16.7536 182.063 16.384ZM174.741 11.9313L175.973 8.81619L177.188 11.9313H174.741ZM192.752 16.3664L188.651 9.25618L192.013 4.62749C192.277 4.25789 192.136 3.9763 191.678 3.9763H189.584C189.302 3.9763 189.091 4.0819 188.933 4.31069L186.469 7.70742V4.50429C186.469 4.1699 186.275 3.9763 185.923 3.9763H184.163C183.829 3.9763 183.635 4.1699 183.635 4.50429V16.472C183.635 16.8064 183.829 17 184.163 17H185.923C186.275 17 186.469 16.8064 186.469 16.472V12.2481L186.786 11.8081L189.461 16.6304C189.602 16.8944 189.83 17 190.112 17H192.382C192.805 17 192.963 16.7184 192.752 16.3664ZM201.501 14.1489H197.383V11.7377H201.167C201.519 11.7377 201.713 11.5441 201.713 11.2097V9.76657C201.713 9.43218 201.519 9.23858 201.167 9.23858H197.383V6.82744H201.501C201.836 6.82744 202.029 6.63384 202.029 6.29945V4.50429C202.029 4.1699 201.836 3.9763 201.501 3.9763H195.06C194.726 3.9763 194.532 4.1699 194.532 4.50429V16.472C194.532 16.8064 194.726 17 195.06 17H201.501C201.836 17 202.029 16.8064 202.029 16.472V14.6769C202.029 14.3425 201.836 14.1489 201.501 14.1489ZM214.856 17.1056C211.213 17.1056 208.239 14.1313 208.239 10.4882C208.239 6.84503 211.213 3.8707 214.839 3.8707C216.616 3.8707 218.165 4.57469 219.485 5.89466C219.732 6.12345 219.732 6.36985 219.52 6.63384L218.5 7.86581C218.288 8.12981 218.007 8.1474 217.743 7.91861C216.88 7.19703 215.965 6.70424 214.856 6.70424C212.762 6.70424 211.073 8.4114 211.073 10.4882C211.073 12.5649 212.762 14.2721 214.856 14.2721C215.877 14.2721 216.916 13.8497 217.743 13.1105C218.007 12.8817 218.271 12.8817 218.482 13.1633L219.538 14.5361C219.732 14.8001 219.732 15.0464 219.485 15.2928C218.288 16.4016 216.634 17.1056 214.856 17.1056ZM226.889 3.8707C223.246 3.8707 220.272 6.82744 220.272 10.4882C220.272 14.1489 223.246 17.1056 226.889 17.1056C230.55 17.1056 233.507 14.1489 233.507 10.4882C233.507 6.82744 230.55 3.8707 226.889 3.8707ZM226.872 6.70424C228.913 6.70424 230.656 8.429 230.656 10.4882C230.656 12.5473 228.913 14.2721 226.872 14.2721C224.777 14.2721 223.123 12.5825 223.123 10.4882C223.123 8.3938 224.777 6.70424 226.872 6.70424ZM234.99 16.472V4.50429C234.99 4.1699 235.184 3.9763 235.518 3.9763H237.261C237.613 3.9763 237.806 4.1699 237.806 4.50429V16.472C237.806 16.8064 237.613 17 237.261 17H235.518C235.184 17 234.99 16.8064 234.99 16.472ZM246.921 4.50429V11.6849L241.835 4.31069C241.677 4.0643 241.483 3.9763 241.201 3.9763H239.987C239.653 3.9763 239.459 4.1699 239.459 4.50429V16.472C239.459 16.8064 239.653 17 239.987 17H241.765C242.117 17 242.31 16.8064 242.31 16.472V9.34418L247.326 16.6656C247.484 16.912 247.678 17 247.96 17H249.227C249.561 17 249.755 16.8064 249.755 16.472V4.50429C249.755 4.1699 249.561 3.9763 249.227 3.9763H247.467C247.115 3.9763 246.921 4.1699 246.921 4.50429ZM255.293 17.1408C254.079 17.1408 252.882 16.6832 251.668 15.8208C251.316 15.5744 251.245 15.3104 251.404 14.9936L252.266 13.4449C252.46 13.1457 252.724 13.0753 253.023 13.2865C253.797 13.7793 254.536 14.0433 255.135 14.0433C255.874 14.0433 256.349 13.6737 256.349 13.0929C256.349 12.0721 254.924 11.7025 253.656 10.9985C252.055 10.101 251.263 8.85139 251.333 7.35542C251.439 5.19067 253.252 3.76511 255.575 3.8707C256.507 3.9059 257.405 4.2227 258.127 4.62749C258.426 4.80348 258.479 5.06748 258.303 5.36667L257.493 6.61624C257.299 6.91543 257.053 6.96823 256.754 6.80984C256.384 6.61624 255.944 6.45784 255.452 6.45784C254.677 6.45784 254.22 6.82744 254.22 7.35542C254.22 8.2002 255.364 8.5522 256.419 9.08018C257.458 9.59057 259.394 10.6993 259.394 13.1105C259.394 15.3808 257.669 17.1408 255.293 17.1408Z" fill="white"/>
</svg>
