<svg width="275" height="68" viewBox="0 0 275 68" fill="none" xmlns="http://www.w3.org/2000/svg">
<g filter="url(#filter0_d)">
<path d="M86.302 35.76H82.922C82.506 35.76 82.194 35.942 81.986 36.306L79.074 41.61L76.162 36.306C75.954 35.942 75.642 35.76 75.226 35.76H71.872C71.248 35.76 71.014 36.176 71.326 36.696L76.994 46.498V54.22C76.994 54.714 77.28 55 77.774 55H80.4C80.894 55 81.18 54.714 81.18 54.22V46.498L86.848 36.696C87.16 36.176 86.926 35.76 86.302 35.76ZM95.9821 35.604C90.6001 35.604 86.2061 39.972 86.2061 45.38C86.2061 50.788 90.6001 55.156 95.9821 55.156C101.39 55.156 105.758 50.788 105.758 45.38C105.758 39.972 101.39 35.604 95.9821 35.604ZM95.9561 39.79C98.9721 39.79 101.546 42.338 101.546 45.38C101.546 48.422 98.9721 50.97 95.9561 50.97C92.8621 50.97 90.4181 48.474 90.4181 45.38C90.4181 42.286 92.8621 39.79 95.9561 39.79ZM113.824 55.156C110.288 55.156 107.402 52.27 107.402 48.734V36.54C107.402 36.046 107.688 35.76 108.182 35.76H110.782C111.302 35.76 111.588 36.046 111.588 36.54V48.734C111.588 49.956 112.576 50.944 113.824 50.944C115.072 50.944 116.086 49.956 116.086 48.734V36.54C116.086 36.046 116.372 35.76 116.866 35.76H119.466C119.96 35.76 120.272 36.046 120.272 36.54V48.734C120.272 52.27 117.36 55.156 113.824 55.156ZM135.321 54.064L131.161 46.966C133.007 45.952 134.255 43.976 134.255 41.714C134.255 38.438 131.577 35.76 128.275 35.76H122.945C122.451 35.76 122.165 36.046 122.165 36.54V54.22C122.165 54.714 122.451 55 122.945 55H125.571C126.091 55 126.377 54.714 126.377 54.22V47.72H126.949L130.771 54.454C130.979 54.844 131.291 55 131.733 55H134.775C135.425 55 135.659 54.584 135.321 54.064ZM126.377 39.972H128.275C129.263 39.972 130.069 40.752 130.069 41.714C130.069 42.754 129.263 43.508 128.275 43.508H126.377V39.972ZM149.93 35.76H144.6C144.106 35.76 143.82 36.046 143.82 36.54V54.22C143.82 54.714 144.106 55 144.6 55H147.226C147.746 55 148.032 54.714 148.032 54.22V47.72H149.93C153.232 47.72 155.936 45.042 155.936 41.714C155.936 38.438 153.232 35.76 149.93 35.76ZM149.93 43.508H148.032V39.972H149.93C150.918 39.972 151.724 40.752 151.724 41.714C151.724 42.754 150.918 43.508 149.93 43.508ZM163.608 55.156C160.072 55.156 157.186 52.27 157.186 48.734V36.54C157.186 36.046 157.472 35.76 157.966 35.76H160.566C161.086 35.76 161.372 36.046 161.372 36.54V48.734C161.372 49.956 162.36 50.944 163.608 50.944C164.856 50.944 165.87 49.956 165.87 48.734V36.54C165.87 36.046 166.156 35.76 166.65 35.76H169.25C169.744 35.76 170.056 36.046 170.056 36.54V48.734C170.056 52.27 167.144 55.156 163.608 55.156ZM185.105 54.064L180.945 46.966C182.791 45.952 184.039 43.976 184.039 41.714C184.039 38.438 181.361 35.76 178.059 35.76H172.729C172.235 35.76 171.949 36.046 171.949 36.54V54.22C171.949 54.714 172.235 55 172.729 55H175.355C175.875 55 176.161 54.714 176.161 54.22V47.72H176.733L180.555 54.454C180.763 54.844 181.075 55 181.517 55H184.559C185.209 55 185.443 54.584 185.105 54.064ZM176.161 39.972H178.059C179.047 39.972 179.853 40.752 179.853 41.714C179.853 42.754 179.047 43.508 178.059 43.508H176.161V39.972ZM194.825 55.156C189.443 55.156 185.049 50.762 185.049 45.38C185.049 39.998 189.443 35.604 194.799 35.604C197.425 35.604 199.713 36.644 201.663 38.594C202.027 38.932 202.027 39.296 201.715 39.686L200.207 41.506C199.895 41.896 199.479 41.922 199.089 41.584C197.815 40.518 196.463 39.79 194.825 39.79C191.731 39.79 189.235 42.312 189.235 45.38C189.235 48.448 191.731 50.97 194.825 50.97C196.333 50.97 197.867 50.346 199.089 49.254C199.479 48.916 199.869 48.916 200.181 49.332L201.741 51.36C202.027 51.75 202.027 52.114 201.663 52.478C199.895 54.116 197.451 55.156 194.825 55.156ZM213.661 36.54V43.534H208.123V36.54C208.123 36.046 207.837 35.76 207.317 35.76H204.743C204.249 35.76 203.963 36.046 203.963 36.54V54.22C203.963 54.714 204.249 55 204.743 55H207.317C207.837 55 208.123 54.714 208.123 54.22V47.226H213.661V54.22C213.661 54.714 213.947 55 214.467 55H217.041C217.535 55 217.821 54.714 217.821 54.22V36.54C217.821 36.046 217.535 35.76 217.041 35.76H214.467C213.947 35.76 213.661 36.046 213.661 36.54ZM237.63 54.09L230.402 36.358C230.246 35.942 229.96 35.76 229.518 35.76H227.516C227.074 35.76 226.788 35.942 226.632 36.358L219.586 54.09C219.378 54.636 219.612 55 220.184 55H223.148C223.59 55 223.876 54.818 224.032 54.402L225.124 51.698H232.118L233.184 54.376C233.34 54.792 233.626 54.974 234.068 54.974L237.006 55C237.578 55 237.838 54.636 237.63 54.09ZM226.814 47.512L228.634 42.91L230.428 47.512H226.814ZM244.744 55.208C242.95 55.208 241.182 54.532 239.388 53.258C238.868 52.894 238.764 52.504 238.998 52.036L240.272 49.748C240.558 49.306 240.948 49.202 241.39 49.514C242.534 50.242 243.626 50.632 244.51 50.632C245.602 50.632 246.304 50.086 246.304 49.228C246.304 47.72 244.198 47.174 242.326 46.134C239.96 44.808 238.79 42.962 238.894 40.752C239.05 37.554 241.728 35.448 245.16 35.604C246.538 35.656 247.864 36.124 248.93 36.722C249.372 36.982 249.45 37.372 249.19 37.814L247.994 39.66C247.708 40.102 247.344 40.18 246.902 39.946C246.356 39.66 245.706 39.426 244.978 39.426C243.834 39.426 243.158 39.972 243.158 40.752C243.158 42 244.848 42.52 246.408 43.3C247.942 44.054 250.802 45.692 250.802 49.254C250.802 52.608 248.254 55.208 244.744 55.208ZM262.763 50.788H256.679V47.226H262.269C262.789 47.226 263.075 46.94 263.075 46.446V44.314C263.075 43.82 262.789 43.534 262.269 43.534H256.679V39.972H262.763C263.257 39.972 263.543 39.686 263.543 39.192V36.54C263.543 36.046 263.257 35.76 262.763 35.76H253.247C252.753 35.76 252.467 36.046 252.467 36.54V54.22C252.467 54.714 252.753 55 253.247 55H262.763C263.257 55 263.543 54.714 263.543 54.22V51.568C263.543 51.074 263.257 50.788 262.763 50.788Z" fill="white"/>
<path d="M82.22 7.76H71.43C70.936 7.76 70.65 8.046 70.65 8.54V11.192C70.65 11.686 70.936 11.972 71.43 11.972H74.732V26.22C74.732 26.714 75.018 27 75.512 27H78.138C78.632 27 78.918 26.714 78.918 26.22V11.972H82.22C82.714 11.972 83.026 11.686 83.026 11.192V8.54C83.026 8.046 82.714 7.76 82.22 7.76ZM95.0136 8.54V15.534H89.4756V8.54C89.4756 8.046 89.1896 7.76 88.6696 7.76H86.0956C85.6016 7.76 85.3156 8.046 85.3156 8.54V26.22C85.3156 26.714 85.6016 27 86.0956 27H88.6696C89.1896 27 89.4756 26.714 89.4756 26.22V19.226H95.0136V26.22C95.0136 26.714 95.2996 27 95.8196 27H98.3936C98.8876 27 99.1736 26.714 99.1736 26.22V8.54C99.1736 8.046 98.8876 7.76 98.3936 7.76H95.8196C95.2996 7.76 95.0136 8.046 95.0136 8.54ZM119.53 26.09L112.302 8.358C112.146 7.942 111.86 7.76 111.418 7.76H109.416C108.974 7.76 108.688 7.942 108.532 8.358L101.486 26.09C101.278 26.636 101.512 27 102.084 27H105.048C105.49 27 105.776 26.818 105.932 26.402L107.024 23.698H114.018L115.084 26.376C115.24 26.792 115.526 26.974 115.968 26.974L118.906 27C119.478 27 119.738 26.636 119.53 26.09ZM108.714 19.512L110.534 14.91L112.328 19.512H108.714ZM132.877 8.54V19.148L125.363 8.254C125.129 7.89 124.843 7.76 124.427 7.76H122.633C122.139 7.76 121.853 8.046 121.853 8.54V26.22C121.853 26.714 122.139 27 122.633 27H125.259C125.779 27 126.065 26.714 126.065 26.22V15.69L133.475 26.506C133.709 26.87 133.995 27 134.411 27H136.283C136.777 27 137.063 26.714 137.063 26.22V8.54C137.063 8.046 136.777 7.76 136.283 7.76H133.683C133.163 7.76 132.877 8.046 132.877 8.54ZM152.993 26.064L146.935 15.56L151.901 8.722C152.291 8.176 152.083 7.76 151.407 7.76H148.313C147.897 7.76 147.585 7.916 147.351 8.254L143.711 13.272V8.54C143.711 8.046 143.425 7.76 142.905 7.76H140.305C139.811 7.76 139.525 8.046 139.525 8.54V26.22C139.525 26.714 139.811 27 140.305 27H142.905C143.425 27 143.711 26.714 143.711 26.22V19.98L144.179 19.33L148.131 26.454C148.339 26.844 148.677 27 149.093 27H152.447C153.071 27 153.305 26.584 152.993 26.064ZM178.013 7.76H174.633C174.217 7.76 173.905 7.942 173.697 8.306L170.785 13.61L167.873 8.306C167.665 7.942 167.353 7.76 166.937 7.76H163.583C162.959 7.76 162.725 8.176 163.037 8.696L168.705 18.498V26.22C168.705 26.714 168.991 27 169.485 27H172.111C172.605 27 172.891 26.714 172.891 26.22V18.498L178.559 8.696C178.871 8.176 178.637 7.76 178.013 7.76ZM188.241 7.604C182.859 7.604 178.465 11.972 178.465 17.38C178.465 22.788 182.859 27.156 188.241 27.156C193.649 27.156 198.017 22.788 198.017 17.38C198.017 11.972 193.649 7.604 188.241 7.604ZM188.215 11.79C191.231 11.79 193.805 14.338 193.805 17.38C193.805 20.422 191.231 22.97 188.215 22.97C185.121 22.97 182.677 20.474 182.677 17.38C182.677 14.286 185.121 11.79 188.215 11.79ZM206.63 27.156C203.094 27.156 200.208 24.27 200.208 20.734V8.54C200.208 8.046 200.494 7.76 200.988 7.76H203.588C204.108 7.76 204.394 8.046 204.394 8.54V20.734C204.394 21.956 205.382 22.944 206.63 22.944C207.878 22.944 208.892 21.956 208.892 20.734V8.54C208.892 8.046 209.178 7.76 209.672 7.76H212.272C212.766 7.76 213.078 8.046 213.078 8.54V20.734C213.078 24.27 210.166 27.156 206.63 27.156ZM227.119 26.22V19.226H232.267C232.787 19.226 233.073 18.94 233.073 18.446V16.314C233.073 15.82 232.787 15.534 232.267 15.534H227.119V11.972H232.761C233.255 11.972 233.541 11.686 233.541 11.192V8.54C233.541 8.046 233.255 7.76 232.761 7.76H223.687C223.193 7.76 222.907 8.046 222.907 8.54V26.22C222.907 26.714 223.193 27 223.687 27H226.313C226.833 27 227.119 26.714 227.119 26.22ZM244.989 7.604C239.607 7.604 235.213 11.972 235.213 17.38C235.213 22.788 239.607 27.156 244.989 27.156C250.397 27.156 254.765 22.788 254.765 17.38C254.765 11.972 250.397 7.604 244.989 7.604ZM244.963 11.79C247.979 11.79 250.553 14.338 250.553 17.38C250.553 20.422 247.979 22.97 244.963 22.97C241.869 22.97 239.425 20.474 239.425 17.38C239.425 14.286 241.869 11.79 244.963 11.79ZM270.112 26.064L265.952 18.966C267.798 17.952 269.046 15.976 269.046 13.714C269.046 10.438 266.368 7.76 263.066 7.76H257.736C257.242 7.76 256.956 8.046 256.956 8.54V26.22C256.956 26.714 257.242 27 257.736 27H260.362C260.882 27 261.168 26.714 261.168 26.22V19.72H261.74L265.562 26.454C265.77 26.844 266.082 27 266.524 27H269.566C270.216 27 270.45 26.584 270.112 26.064ZM261.168 11.972H263.066C264.054 11.972 264.86 12.752 264.86 13.714C264.86 14.754 264.054 15.508 263.066 15.508H261.168V11.972Z" fill="white"/>
<path fill-rule="evenodd" clip-rule="evenodd" d="M34 5C20.2 5 9 16.2 9 30C9 43.8 20.2 55 34 55C47.8 55 59 43.8 59 30C59 16.2 47.8 5 34 5ZM29 42.5L16.5 30L20.025 26.475L29 35.425L47.975 16.45L51.5 20L29 42.5Z" fill="white"/>
</g>
<defs>
<filter id="filter0_d" x="0" y="0" width="274.266" height="68" filterUnits="userSpaceOnUse" color-interpolation-filters="sRGB">
<feFlood flood-opacity="0" result="BackgroundImageFix"/>
<feColorMatrix in="SourceAlpha" type="matrix" values="0 0 0 0 0 0 0 0 0 0 0 0 0 0 0 0 0 0 127 0"/>
<feOffset dy="4"/>
<feGaussianBlur stdDeviation="2"/>
<feColorMatrix type="matrix" values="0 0 0 0 0 0 0 0 0 0 0 0 0 0 0 0 0 0 0.25 0"/>
<feBlend mode="normal" in2="BackgroundImageFix" result="effect1_dropShadow"/>
<feBlend mode="normal" in="SourceGraphic" in2="effect1_dropShadow" result="shape"/>
</filter>
</defs>
</svg>
