<svg width="268" height="36" viewBox="0 0 268 36" fill="none" xmlns="http://www.w3.org/2000/svg">
<path d="M17.5025 35.187C8.06898 35.187 0.367183 27.4852 0.367183 18.0516C0.367183 8.61806 8.06898 0.916258 17.457 0.916258C22.0598 0.916258 26.0702 2.73917 29.4882 6.15713C30.1262 6.74957 30.1262 7.38759 29.5793 8.07118L26.9361 11.2613C26.3892 11.9449 25.6601 11.9904 24.9765 11.398C22.7434 9.52951 20.3736 8.25347 17.5025 8.25347C12.0794 8.25347 7.7044 12.674 7.7044 18.0516C7.7044 23.4292 12.0794 27.8498 17.5025 27.8498C20.1458 27.8498 22.8346 26.756 24.9765 24.842C25.6601 24.2495 26.3437 24.2495 26.8905 24.9787L29.6249 28.5334C30.1262 29.2169 30.1262 29.855 29.4882 30.493C26.3892 33.3641 22.1054 35.187 17.5025 35.187ZM63.964 33.3185L51.2947 2.23787C51.0213 1.5087 50.52 1.1897 49.7453 1.1897H46.2362C45.4614 1.1897 44.9601 1.5087 44.6867 2.23787L32.3365 33.3185C31.9719 34.2755 32.3821 34.9135 33.3847 34.9135H38.5799C39.3547 34.9135 39.856 34.5945 40.1294 33.8654L42.0435 29.1258H54.3026L56.171 33.8198C56.4445 34.549 56.9458 34.868 57.7205 34.868L62.8702 34.9135C63.8728 34.9135 64.3286 34.2755 63.964 33.3185ZM45.0057 21.7886L48.1958 13.7222L51.3403 21.7886H45.0057ZM77.3941 35.2781C74.2495 35.2781 71.1506 34.0932 68.0061 31.8602C67.0946 31.2221 66.9123 30.5386 67.3225 29.7182L69.5555 25.7078C70.0568 24.9331 70.7404 24.7508 71.5152 25.2977C73.5204 26.5737 75.4344 27.2573 76.9839 27.2573C78.898 27.2573 80.1284 26.3003 80.1284 24.7964C80.1284 22.1532 76.437 21.1961 73.1558 19.3732C69.0087 17.049 66.9579 13.8134 67.1402 9.93967C67.4136 4.33422 72.1076 0.642823 78.1232 0.916258C80.5386 1.00741 82.8628 1.82772 84.7313 2.87589C85.506 3.33162 85.6427 4.01521 85.187 4.78995L83.0907 8.02561C82.5894 8.80035 81.9513 8.93707 81.1766 8.52691C80.2196 8.02561 79.0802 7.61546 77.8042 7.61546C75.799 7.61546 74.6141 8.57248 74.6141 9.93967C74.6141 12.1272 77.5763 13.0386 80.3107 14.4058C82.9995 15.7274 88.0125 18.5985 88.0125 24.842C88.0125 30.7208 83.5464 35.2781 77.3941 35.2781ZM108.889 2.55688V14.816H99.1818V2.55688C99.1818 1.691 98.6805 1.1897 97.769 1.1897H93.2573C92.3914 1.1897 91.8901 1.691 91.8901 2.55688V33.5464C91.8901 34.4122 92.3914 34.9135 93.2573 34.9135H97.769C98.6805 34.9135 99.1818 34.4122 99.1818 33.5464V21.2873H108.889V33.5464C108.889 34.4122 109.39 34.9135 110.302 34.9135H114.813C115.679 34.9135 116.18 34.4122 116.18 33.5464V2.55688C116.18 1.691 115.679 1.1897 114.813 1.1897H110.302C109.39 1.1897 108.889 1.691 108.889 2.55688ZM144.167 1.1897H134.825C133.959 1.1897 133.457 1.691 133.457 2.55688V33.5464C133.457 34.4122 133.959 34.9135 134.825 34.9135H139.427C140.339 34.9135 140.84 34.4122 140.84 33.5464V22.1532H144.167C149.955 22.1532 154.694 17.4592 154.694 11.6259C154.694 5.88369 149.955 1.1897 144.167 1.1897ZM144.167 14.7704H140.84V8.57248H144.167C145.899 8.57248 147.312 9.93967 147.312 11.6259C147.312 13.4488 145.899 14.7704 144.167 14.7704ZM180.906 33.2729L173.614 20.8316C176.85 19.0542 179.037 15.5907 179.037 11.6259C179.037 5.88369 174.343 1.1897 168.556 1.1897H159.213C158.347 1.1897 157.846 1.691 157.846 2.55688V33.5464C157.846 34.4122 158.347 34.9135 159.213 34.9135H163.816C164.727 34.9135 165.229 34.4122 165.229 33.5464V22.1532H166.231L172.931 33.9565C173.295 34.6401 173.842 34.9135 174.617 34.9135H179.949C181.088 34.9135 181.498 34.1844 180.906 33.2729ZM165.229 8.57248H168.556C170.287 8.57248 171.7 9.93967 171.7 11.6259C171.7 13.4488 170.287 14.7704 168.556 14.7704H165.229V8.57248ZM184.771 33.5464V2.55688C184.771 1.691 185.273 1.1897 186.139 1.1897H190.65C191.562 1.1897 192.063 1.691 192.063 2.55688V33.5464C192.063 34.4122 191.562 34.9135 190.65 34.9135H186.139C185.273 34.9135 184.771 34.4122 184.771 33.5464ZM218.673 27.5308H205.184L218.217 8.84592C218.582 8.29905 218.764 7.79775 218.764 7.15973V2.55688C218.764 1.691 218.263 1.1897 217.397 1.1897H196.798C195.932 1.1897 195.431 1.691 195.431 2.55688V6.704C195.431 7.56988 195.932 8.07118 196.798 8.07118H209.878L196.844 26.756C196.479 27.3029 196.297 27.8042 196.297 28.4422V33.5464C196.297 34.4122 196.798 34.9135 197.664 34.9135H218.673C219.585 34.9135 220.086 34.4122 220.086 33.5464V28.8979C220.086 28.0321 219.585 27.5308 218.673 27.5308ZM241.493 27.5308H230.829V21.2873H240.627C241.538 21.2873 242.04 20.786 242.04 19.9201V16.1831C242.04 15.3173 241.538 14.816 240.627 14.816H230.829V8.57248H241.493C242.359 8.57248 242.86 8.07118 242.86 7.2053V2.55688C242.86 1.691 242.359 1.1897 241.493 1.1897H224.813C223.947 1.1897 223.446 1.691 223.446 2.55688V33.5464C223.446 34.4122 223.947 34.9135 224.813 34.9135H241.493C242.359 34.9135 242.86 34.4122 242.86 33.5464V28.8979C242.86 28.0321 242.359 27.5308 241.493 27.5308ZM256.926 35.2781C253.781 35.2781 250.682 34.0932 247.538 31.8602C246.626 31.2221 246.444 30.5386 246.854 29.7182L249.087 25.7078C249.589 24.9331 250.272 24.7508 251.047 25.2977C253.052 26.5737 254.966 27.2573 256.516 27.2573C258.43 27.2573 259.66 26.3003 259.66 24.7964C259.66 22.1532 255.969 21.1961 252.688 19.3732C248.54 17.049 246.49 13.8134 246.672 9.93967C246.945 4.33422 251.639 0.642823 257.655 0.916258C260.07 1.00741 262.395 1.82772 264.263 2.87589C265.038 3.33162 265.175 4.01521 264.719 4.78995L262.622 8.02561C262.121 8.80035 261.483 8.93707 260.708 8.52691C259.751 8.02561 258.612 7.61546 257.336 7.61546C255.331 7.61546 254.146 8.57248 254.146 9.93967C254.146 12.1272 257.108 13.0386 259.842 14.4058C262.531 15.7274 267.544 18.5985 267.544 24.842C267.544 30.7208 263.078 35.2781 256.926 35.2781Z" fill="white"/>
</svg>
