<svg width="271" height="102" viewBox="0 0 271 102" fill="none" xmlns="http://www.w3.org/2000/svg">
<path d="M31.146 73.2985C25.0493 73.2985 20.0718 78.2466 20.0718 84.3727C20.0718 90.4989 25.0493 95.4469 31.146 95.4469C37.2722 95.4469 42.2202 90.4989 42.2202 84.3727C42.2202 78.2466 37.2722 73.2985 31.146 73.2985ZM31.1166 78.0404C34.5331 78.0404 37.4489 80.9268 37.4489 84.3727C37.4489 87.8187 34.5331 90.7051 31.1166 90.7051C27.6117 90.7051 24.8431 87.8776 24.8431 84.3727C24.8431 80.8679 27.6117 78.0404 31.1166 78.0404ZM57.1907 74.3588V86.3755L48.6789 74.0348C48.4138 73.6225 48.0898 73.4752 47.6186 73.4752H45.5864C45.0268 73.4752 44.7028 73.7992 44.7028 74.3588V94.3867C44.7028 94.9463 45.0268 95.2702 45.5864 95.2702H48.5611C49.1501 95.2702 49.4741 94.9463 49.4741 94.3867V82.4583L57.8681 94.7106C58.1332 95.123 58.4572 95.2702 58.9284 95.2702H61.049C61.6086 95.2702 61.9326 94.9463 61.9326 94.3867V74.3588C61.9326 73.7992 61.6086 73.4752 61.049 73.4752H58.1038C57.5147 73.4752 57.1907 73.7992 57.1907 74.3588ZM83.7237 73.2985C77.627 73.2985 72.6495 78.2466 72.6495 84.3727C72.6495 90.4989 77.627 95.4469 83.7237 95.4469C89.8499 95.4469 94.7979 90.4989 94.7979 84.3727C94.7979 78.2466 89.8499 73.2985 83.7237 73.2985ZM83.6943 78.0404C87.1108 78.0404 90.0266 80.9268 90.0266 84.3727C90.0266 87.8187 87.1108 90.7051 83.6943 90.7051C80.1894 90.7051 77.4208 87.8776 77.4208 84.3727C77.4208 80.8679 80.1894 78.0404 83.6943 78.0404ZM104.555 95.4469C100.55 95.4469 97.2805 92.1777 97.2805 88.1721V74.3588C97.2805 73.7992 97.6045 73.4752 98.1641 73.4752H101.109C101.698 73.4752 102.022 73.7992 102.022 74.3588V88.1721C102.022 89.5564 103.142 90.6756 104.555 90.6756C105.969 90.6756 107.118 89.5564 107.118 88.1721V74.3588C107.118 73.7992 107.442 73.4752 108.001 73.4752H110.947C111.506 73.4752 111.86 73.7992 111.86 74.3588V88.1721C111.86 92.1777 108.561 95.4469 104.555 95.4469ZM129.527 94.2099L124.815 86.1693C126.906 85.0207 128.32 82.7823 128.32 80.2199C128.32 76.5088 125.286 73.4752 121.546 73.4752H115.508C114.948 73.4752 114.624 73.7992 114.624 74.3588V94.3867C114.624 94.9463 114.948 95.2702 115.508 95.2702H118.483C119.072 95.2702 119.396 94.9463 119.396 94.3867V87.0235H120.044L124.373 94.6517C124.609 95.0935 124.962 95.2702 125.463 95.2702H128.909C129.645 95.2702 129.91 94.799 129.527 94.2099ZM119.396 78.2466H121.546C122.665 78.2466 123.578 79.1301 123.578 80.2199C123.578 81.398 122.665 82.2521 121.546 82.2521H119.396V78.2466ZM164.664 73.4752H161.218C160.688 73.4752 160.364 73.6814 160.217 74.2115L157.272 84.844L154.533 74.5061C154.415 74.0643 154.15 73.8876 153.708 73.8876H151.823C151.381 73.8876 151.087 74.0643 150.969 74.5061L148.259 84.844L145.255 74.2115C145.108 73.6814 144.784 73.4752 144.283 73.4752H140.837C140.219 73.4752 139.895 73.8876 140.071 74.4766L145.697 94.5339C145.844 95.0641 146.168 95.2702 146.669 95.2702H148.996C149.526 95.2702 149.879 95.0052 150.026 94.5045L152.736 84.0487L155.505 94.5045C155.622 95.0052 155.976 95.2702 156.506 95.2702H158.833C159.363 95.2702 159.687 95.0641 159.834 94.5339L165.46 74.4766C165.636 73.8876 165.312 73.4752 164.664 73.4752ZM179.556 90.4989H172.664V86.4639H178.996C179.585 86.4639 179.909 86.1399 179.909 85.5803V83.1652C179.909 82.6056 179.585 82.2816 178.996 82.2816H172.664V78.2466H179.556C180.115 78.2466 180.439 77.9226 180.439 77.363V74.3588C180.439 73.7992 180.115 73.4752 179.556 73.4752H168.776C168.216 73.4752 167.892 73.7992 167.892 74.3588V94.3867C167.892 94.9463 168.216 95.2702 168.776 95.2702H179.556C180.115 95.2702 180.439 94.9463 180.439 94.3867V91.3825C180.439 90.8229 180.115 90.4989 179.556 90.4989ZM194.713 83.9898C195.479 82.9001 195.98 81.5747 195.98 80.0726C195.98 76.4205 192.976 73.4752 189.323 73.4752H183.934C183.374 73.4752 183.05 73.7992 183.05 74.3588V94.3867C183.05 94.9463 183.374 95.2702 183.934 95.2702H189.942C193.594 95.2702 196.598 92.325 196.598 88.6139C196.598 86.8468 195.862 85.2269 194.713 83.9898ZM187.586 78.2466H189.117C190.148 78.2466 191.032 79.0712 191.032 80.1315C191.032 81.1624 190.148 81.9871 189.117 81.9871H187.586V78.2466ZM189.736 90.4989H187.586V86.7584H189.736C190.767 86.7584 191.621 87.5831 191.621 88.6139C191.621 89.6742 190.767 90.4989 189.736 90.4989ZM205.55 95.5059C203.518 95.5059 201.515 94.7401 199.483 93.2969C198.894 92.8846 198.776 92.4428 199.041 91.9126L200.484 89.3208C200.808 88.8201 201.25 88.7023 201.751 89.0557C203.047 89.8804 204.284 90.3222 205.285 90.3222C206.522 90.3222 207.317 89.7037 207.317 88.7317C207.317 87.0235 204.932 86.405 202.811 85.2269C200.131 83.7248 198.806 81.6336 198.923 79.1301C199.1 75.5075 202.134 73.1218 206.022 73.2985C207.583 73.3574 209.085 73.8876 210.292 74.565C210.793 74.8595 210.881 75.3013 210.587 75.802L209.232 77.8931C208.908 78.3938 208.496 78.4822 207.995 78.2171C207.376 77.8931 206.64 77.6281 205.815 77.6281C204.519 77.6281 203.754 78.2466 203.754 79.1301C203.754 80.5439 205.668 81.1329 207.435 82.0165C209.173 82.8706 212.413 84.7262 212.413 88.7612C212.413 92.5606 209.526 95.5059 205.55 95.5059ZM214.919 94.3867V74.3588C214.919 73.7992 215.243 73.4752 215.802 73.4752H218.718C219.307 73.4752 219.631 73.7992 219.631 74.3588V94.3867C219.631 94.9463 219.307 95.2702 218.718 95.2702H215.802C215.243 95.2702 214.919 94.9463 214.919 94.3867ZM234.767 73.4752H222.544C221.985 73.4752 221.661 73.7992 221.661 74.3588V77.363C221.661 77.9226 221.985 78.2466 222.544 78.2466H226.285V94.3867C226.285 94.9463 226.609 95.2702 227.168 95.2702H230.143C230.703 95.2702 231.027 94.9463 231.027 94.3867V78.2466H234.767C235.327 78.2466 235.68 77.9226 235.68 77.363V74.3588C235.68 73.7992 235.327 73.4752 234.767 73.4752ZM249.937 90.4989H243.045V86.4639H249.378C249.967 86.4639 250.291 86.1399 250.291 85.5803V83.1652C250.291 82.6056 249.967 82.2816 249.378 82.2816H243.045V78.2466H249.937C250.497 78.2466 250.821 77.9226 250.821 77.363V74.3588C250.821 73.7992 250.497 73.4752 249.937 73.4752H239.157C238.598 73.4752 238.274 73.7992 238.274 74.3588V94.3867C238.274 94.9463 238.598 95.2702 239.157 95.2702H249.937C250.497 95.2702 250.821 94.9463 250.821 94.3867V91.3825C250.821 90.8229 250.497 90.4989 249.937 90.4989Z" fill="white"/>
<path d="M18.5025 63.187C9.06898 63.187 1.36718 55.4852 1.36718 46.0516C1.36718 36.6181 9.06898 28.9163 18.457 28.9163C23.0598 28.9163 27.0702 30.7392 30.4882 34.1571C31.1262 34.7496 31.1262 35.3876 30.5793 36.0712L27.9361 39.2613C27.3892 39.9449 26.6601 39.9904 25.9765 39.398C23.7434 37.5295 21.3736 36.2535 18.5025 36.2535C13.0794 36.2535 8.7044 40.674 8.7044 46.0516C8.7044 51.4292 13.0794 55.8498 18.5025 55.8498C21.1458 55.8498 23.8346 54.756 25.9765 52.842C26.6601 52.2495 27.3437 52.2495 27.8905 52.9787L30.6249 56.5334C31.1262 57.2169 31.1262 57.855 30.4882 58.493C27.3892 61.3641 23.1054 63.187 18.5025 63.187ZM64.964 61.3185L52.2947 30.2379C52.0213 29.5087 51.52 29.1897 50.7453 29.1897H47.2362C46.4614 29.1897 45.9601 29.5087 45.6867 30.2379L33.3365 61.3185C32.9719 62.2755 33.3821 62.9135 34.3847 62.9135H39.5799C40.3547 62.9135 40.856 62.5945 41.1294 61.8654L43.0435 57.1258H55.3026L57.171 61.8198C57.4445 62.549 57.9458 62.868 58.7205 62.868L63.8702 62.9135C64.8728 62.9135 65.3286 62.2755 64.964 61.3185ZM46.0057 49.7886L49.1958 41.7222L52.3403 49.7886H46.0057ZM78.3941 63.2781C75.2495 63.2781 72.1506 62.0932 69.0061 59.8602C68.0946 59.2221 67.9123 58.5386 68.3225 57.7182L70.5555 53.7078C71.0568 52.9331 71.7404 52.7508 72.5152 53.2977C74.5204 54.5737 76.4344 55.2573 77.9839 55.2573C79.898 55.2573 81.1284 54.3003 81.1284 52.7964C81.1284 50.1532 77.437 49.1961 74.1558 47.3732C70.0087 45.049 67.9579 41.8134 68.1402 37.9397C68.4136 32.3342 73.1076 28.6428 79.1232 28.9163C81.5386 29.0074 83.8628 29.8277 85.7313 30.8759C86.506 31.3316 86.6427 32.0152 86.187 32.7899L84.0907 36.0256C83.5894 36.8003 82.9513 36.9371 82.1766 36.5269C81.2196 36.0256 80.0802 35.6155 78.8042 35.6155C76.799 35.6155 75.6141 36.5725 75.6141 37.9397C75.6141 40.1272 78.5763 41.0386 81.3107 42.4058C83.9995 43.7274 89.0125 46.5985 89.0125 52.842C89.0125 58.7208 84.5464 63.2781 78.3941 63.2781ZM109.889 30.5569V42.816H100.182V30.5569C100.182 29.691 99.6805 29.1897 98.769 29.1897H94.2573C93.3914 29.1897 92.8901 29.691 92.8901 30.5569V61.5464C92.8901 62.4122 93.3914 62.9135 94.2573 62.9135H98.769C99.6805 62.9135 100.182 62.4122 100.182 61.5464V49.2873H109.889V61.5464C109.889 62.4122 110.39 62.9135 111.302 62.9135H115.813C116.679 62.9135 117.18 62.4122 117.18 61.5464V30.5569C117.18 29.691 116.679 29.1897 115.813 29.1897H111.302C110.39 29.1897 109.889 29.691 109.889 30.5569ZM145.167 29.1897H135.825C134.959 29.1897 134.457 29.691 134.457 30.5569V61.5464C134.457 62.4122 134.959 62.9135 135.825 62.9135H140.427C141.339 62.9135 141.84 62.4122 141.84 61.5464V50.1532H145.167C150.955 50.1532 155.694 45.4592 155.694 39.6259C155.694 33.8837 150.955 29.1897 145.167 29.1897ZM145.167 42.7704H141.84V36.5725H145.167C146.899 36.5725 148.312 37.9397 148.312 39.6259C148.312 41.4488 146.899 42.7704 145.167 42.7704ZM181.906 61.2729L174.614 48.8316C177.85 47.0542 180.037 43.5907 180.037 39.6259C180.037 33.8837 175.343 29.1897 169.556 29.1897H160.213C159.347 29.1897 158.846 29.691 158.846 30.5569V61.5464C158.846 62.4122 159.347 62.9135 160.213 62.9135H164.816C165.727 62.9135 166.229 62.4122 166.229 61.5464V50.1532H167.231L173.931 61.9565C174.295 62.6401 174.842 62.9135 175.617 62.9135H180.949C182.088 62.9135 182.498 62.1844 181.906 61.2729ZM166.229 36.5725H169.556C171.287 36.5725 172.7 37.9397 172.7 39.6259C172.7 41.4488 171.287 42.7704 169.556 42.7704H166.229V36.5725ZM185.771 61.5464V30.5569C185.771 29.691 186.273 29.1897 187.139 29.1897H191.65C192.562 29.1897 193.063 29.691 193.063 30.5569V61.5464C193.063 62.4122 192.562 62.9135 191.65 62.9135H187.139C186.273 62.9135 185.771 62.4122 185.771 61.5464ZM219.673 55.5308H206.184L219.217 36.8459C219.582 36.299 219.764 35.7977 219.764 35.1597V30.5569C219.764 29.691 219.263 29.1897 218.397 29.1897H197.798C196.932 29.1897 196.431 29.691 196.431 30.5569V34.704C196.431 35.5699 196.932 36.0712 197.798 36.0712H210.878L197.844 54.756C197.479 55.3029 197.297 55.8042 197.297 56.4422V61.5464C197.297 62.4122 197.798 62.9135 198.664 62.9135H219.673C220.585 62.9135 221.086 62.4122 221.086 61.5464V56.8979C221.086 56.0321 220.585 55.5308 219.673 55.5308ZM242.493 55.5308H231.829V49.2873H241.627C242.538 49.2873 243.04 48.786 243.04 47.9201V44.1831C243.04 43.3173 242.538 42.816 241.627 42.816H231.829V36.5725H242.493C243.359 36.5725 243.86 36.0712 243.86 35.2053V30.5569C243.86 29.691 243.359 29.1897 242.493 29.1897H225.813C224.947 29.1897 224.446 29.691 224.446 30.5569V61.5464C224.446 62.4122 224.947 62.9135 225.813 62.9135H242.493C243.359 62.9135 243.86 62.4122 243.86 61.5464V56.8979C243.86 56.0321 243.359 55.5308 242.493 55.5308ZM257.926 63.2781C254.781 63.2781 251.682 62.0932 248.538 59.8602C247.626 59.2221 247.444 58.5386 247.854 57.7182L250.087 53.7078C250.589 52.9331 251.272 52.7508 252.047 53.2977C254.052 54.5737 255.966 55.2573 257.516 55.2573C259.43 55.2573 260.66 54.3003 260.66 52.7964C260.66 50.1532 256.969 49.1961 253.688 47.3732C249.54 45.049 247.49 41.8134 247.672 37.9397C247.945 32.3342 252.639 28.6428 258.655 28.9163C261.07 29.0074 263.395 29.8277 265.263 30.8759C266.038 31.3316 266.175 32.0152 265.719 32.7899L263.622 36.0256C263.121 36.8003 262.483 36.9371 261.708 36.5269C260.751 36.0256 259.612 35.6155 258.336 35.6155C256.331 35.6155 255.146 36.5725 255.146 37.9397C255.146 40.1272 258.108 41.0386 260.842 42.4058C263.531 43.7274 268.544 46.5985 268.544 52.842C268.544 58.7208 264.078 63.2781 257.926 63.2781Z" fill="white"/>
<path d="M18.0159 4.94035H14.408C14.0736 4.94035 13.88 5.13395 13.88 5.46834V17.4361C13.88 17.7705 14.0736 17.9641 14.408 17.9641H16.1855C16.5375 17.9641 16.7311 17.7705 16.7311 17.4361V13.0362H18.0159C20.251 13.0362 22.0814 11.2234 22.0814 8.97066C22.0814 6.75311 20.251 4.94035 18.0159 4.94035ZM18.0159 10.185H16.7311V7.79149H18.0159C18.6847 7.79149 19.2303 8.31947 19.2303 8.97066C19.2303 9.67464 18.6847 10.185 18.0159 10.185ZM29.9864 17.9641H23.8265C23.4921 17.9641 23.2985 17.7705 23.2985 17.4361V5.46834C23.2985 5.13395 23.4921 4.94035 23.8265 4.94035H25.6041C25.956 4.94035 26.1496 5.13395 26.1496 5.46834V15.1129H29.9864C30.3207 15.1129 30.5143 15.3065 30.5143 15.6409V17.4361C30.5143 17.7705 30.3207 17.9641 29.9864 17.9641ZM43.9318 17.3481L39.0391 5.34514C38.9335 5.06355 38.74 4.94035 38.4408 4.94035H37.0856C36.7864 4.94035 36.5928 5.06355 36.4872 5.34514L31.7177 17.3481C31.5769 17.7177 31.7353 17.9641 32.1225 17.9641H34.1289C34.4281 17.9641 34.6216 17.8409 34.7272 17.5593L35.4664 15.7289H40.2007L40.9223 17.5417C41.0279 17.8233 41.2215 17.9465 41.5207 17.9465L43.5094 17.9641C43.8966 17.9641 44.0726 17.7177 43.9318 17.3481ZM36.6104 12.8954L37.8424 9.78024L39.0567 12.8954H36.6104ZM52.7546 4.94035H50.4666C50.1851 4.94035 49.9739 5.06355 49.8331 5.30994L47.8619 8.90026L45.8908 5.30994C45.75 5.06355 45.5388 4.94035 45.2572 4.94035H42.9868C42.5644 4.94035 42.406 5.22194 42.6172 5.57394L46.4539 12.209V17.4361C46.4539 17.7705 46.6475 17.9641 46.9819 17.9641H48.7595C49.0939 17.9641 49.2875 17.7705 49.2875 17.4361V12.209L53.1242 5.57394C53.3354 5.22194 53.177 4.94035 52.7546 4.94035ZM63.693 18.1048C62.4786 18.1048 61.2819 17.6473 60.0675 16.7849C59.7155 16.5385 59.6451 16.2745 59.8035 15.9577L60.6659 14.4089C60.8595 14.1097 61.1235 14.0393 61.4227 14.2505C62.197 14.7433 62.9362 15.0073 63.5346 15.0073C64.2738 15.0073 64.749 14.6377 64.749 14.0569C64.749 13.0362 63.3234 12.6666 62.0563 11.9626C60.4547 11.065 59.6627 9.81544 59.7331 8.31947C59.8387 6.15472 61.6515 4.72916 63.9746 4.83475C64.9074 4.86995 65.805 5.18675 66.5265 5.59154C66.8257 5.76753 66.8785 6.03153 66.7025 6.33072L65.893 7.58029C65.6994 7.87948 65.453 7.93228 65.1538 7.77389C64.7842 7.58029 64.3442 7.42189 63.8514 7.42189C63.077 7.42189 62.6194 7.79149 62.6194 8.31947C62.6194 9.16425 63.7634 9.51625 64.8194 10.0442C65.8578 10.5546 67.7937 11.6634 67.7937 14.0745C67.7937 16.3449 66.069 18.1048 63.693 18.1048ZM83.2605 4.94035H81.2013C80.8845 4.94035 80.6909 5.06355 80.6029 5.38034L78.843 11.7338L77.2062 5.55634C77.1358 5.29234 76.9774 5.18675 76.7134 5.18675H75.587C75.323 5.18675 75.147 5.29234 75.0767 5.55634L73.4575 11.7338L71.6623 5.38034C71.5743 5.06355 71.3807 4.94035 71.0815 4.94035H69.0224C68.6528 4.94035 68.4592 5.18675 68.5648 5.53874L71.9263 17.5241C72.0143 17.8409 72.2079 17.9641 72.5071 17.9641H73.8975C74.2143 17.9641 74.4255 17.8057 74.5135 17.5065L76.1326 11.2586L77.787 17.5065C77.8574 17.8057 78.0686 17.9641 78.3854 17.9641H79.7757C80.0925 17.9641 80.2861 17.8409 80.3741 17.5241L83.7357 5.53874C83.8412 5.18675 83.6477 4.94035 83.2605 4.94035ZM92.1587 15.1129H88.0404V12.7018H91.8243C92.1763 12.7018 92.3699 12.5082 92.3699 12.1738V10.7306C92.3699 10.3962 92.1763 10.2026 91.8243 10.2026H88.0404V7.79149H92.1587C92.4931 7.79149 92.6867 7.59789 92.6867 7.2635V5.46834C92.6867 5.13395 92.4931 4.94035 92.1587 4.94035H85.7173C85.3829 4.94035 85.1893 5.13395 85.1893 5.46834V17.4361C85.1893 17.7705 85.3829 17.9641 85.7173 17.9641H92.1587C92.4931 17.9641 92.6867 17.7705 92.6867 17.4361V15.6409C92.6867 15.3065 92.4931 15.1129 92.1587 15.1129ZM101.216 15.1129H97.098V12.7018H100.882C101.234 12.7018 101.428 12.5082 101.428 12.1738V10.7306C101.428 10.3962 101.234 10.2026 100.882 10.2026H97.098V7.79149H101.216C101.551 7.79149 101.744 7.59789 101.744 7.2635V5.46834C101.744 5.13395 101.551 4.94035 101.216 4.94035H94.7749C94.4405 4.94035 94.2469 5.13395 94.2469 5.46834V17.4361C94.2469 17.7705 94.4405 17.9641 94.7749 17.9641H101.216C101.551 17.9641 101.744 17.7705 101.744 17.4361V15.6409C101.744 15.3065 101.551 15.1129 101.216 15.1129ZM107.44 4.94035H103.832C103.498 4.94035 103.304 5.13395 103.304 5.46834V17.4361C103.304 17.7705 103.498 17.9641 103.832 17.9641H105.61C105.962 17.9641 106.156 17.7705 106.156 17.4361V13.0362H107.44C109.676 13.0362 111.506 11.2234 111.506 8.97066C111.506 6.75311 109.676 4.94035 107.44 4.94035ZM107.44 10.185H106.156V7.79149H107.44C108.109 7.79149 108.655 8.31947 108.655 8.97066C108.655 9.67464 108.109 10.185 107.44 10.185ZM116.595 18.1048C115.381 18.1048 114.184 17.6473 112.969 16.7849C112.617 16.5385 112.547 16.2745 112.705 15.9577L113.568 14.4089C113.761 14.1097 114.025 14.0393 114.325 14.2505C115.099 14.7433 115.838 15.0073 116.437 15.0073C117.176 15.0073 117.651 14.6377 117.651 14.0569C117.651 13.0362 116.225 12.6666 114.958 11.9626C113.357 11.065 112.565 9.81544 112.635 8.31947C112.741 6.15472 114.553 4.72916 116.877 4.83475C117.809 4.86995 118.707 5.18675 119.428 5.59154C119.728 5.76753 119.78 6.03153 119.604 6.33072L118.795 7.58029C118.601 7.87948 118.355 7.93228 118.056 7.77389C117.686 7.58029 117.246 7.42189 116.753 7.42189C115.979 7.42189 115.521 7.79149 115.521 8.31947C115.521 9.16425 116.665 9.51625 117.721 10.0442C118.76 10.5546 120.696 11.6634 120.696 14.0745C120.696 16.3449 118.971 18.1048 116.595 18.1048ZM129.585 4.94035H122.281C121.947 4.94035 121.753 5.13395 121.753 5.46834V7.2635C121.753 7.59789 121.947 7.79149 122.281 7.79149H124.516V17.4361C124.516 17.7705 124.71 17.9641 125.044 17.9641H126.822C127.156 17.9641 127.35 17.7705 127.35 17.4361V7.79149H129.585C129.919 7.79149 130.131 7.59789 130.131 7.2635V5.46834C130.131 5.13395 129.919 4.94035 129.585 4.94035ZM141.623 17.3481L136.731 5.34514C136.625 5.06355 136.431 4.94035 136.132 4.94035H134.777C134.478 4.94035 134.284 5.06355 134.179 5.34514L129.409 17.3481C129.268 17.7177 129.427 17.9641 129.814 17.9641H131.82C132.12 17.9641 132.313 17.8409 132.419 17.5593L133.158 15.7289H137.892L138.614 17.5417C138.719 17.8233 138.913 17.9465 139.212 17.9465L141.201 17.9641C141.588 17.9641 141.764 17.7177 141.623 17.3481ZM134.302 12.8954L135.534 9.78024L136.748 12.8954H134.302ZM152.312 17.3305L148.212 10.2202L151.573 5.59154C151.837 5.22194 151.696 4.94035 151.239 4.94035H149.144C148.863 4.94035 148.652 5.04595 148.493 5.27474L146.029 8.67147V5.46834C146.029 5.13395 145.836 4.94035 145.484 4.94035H143.724C143.389 4.94035 143.196 5.13395 143.196 5.46834V17.4361C143.196 17.7705 143.389 17.9641 143.724 17.9641H145.484C145.836 17.9641 146.029 17.7705 146.029 17.4361V13.2122L146.346 12.7722L149.021 17.5945C149.162 17.8585 149.391 17.9641 149.672 17.9641H151.943C152.365 17.9641 152.524 17.6825 152.312 17.3305ZM161.062 15.1129H156.943V12.7018H160.727C161.079 12.7018 161.273 12.5082 161.273 12.1738V10.7306C161.273 10.3962 161.079 10.2026 160.727 10.2026H156.943V7.79149H161.062C161.396 7.79149 161.59 7.59789 161.59 7.2635V5.46834C161.59 5.13395 161.396 4.94035 161.062 4.94035H154.62C154.286 4.94035 154.092 5.13395 154.092 5.46834V17.4361C154.092 17.7705 154.286 17.9641 154.62 17.9641H161.062C161.396 17.9641 161.59 17.7705 161.59 17.4361V15.6409C161.59 15.3065 161.396 15.1129 161.062 15.1129ZM174.417 18.0696C170.774 18.0696 167.799 15.0953 167.799 11.4522C167.799 7.80909 170.774 4.83475 174.399 4.83475C176.177 4.83475 177.726 5.53874 179.046 6.85871C179.292 7.0875 179.292 7.3339 179.081 7.59789L178.06 8.82986C177.849 9.09386 177.567 9.11146 177.303 8.88266C176.441 8.16108 175.526 7.66829 174.417 7.66829C172.323 7.66829 170.633 9.37545 170.633 11.4522C170.633 13.529 172.323 15.2361 174.417 15.2361C175.438 15.2361 176.476 14.8137 177.303 14.0745C177.567 13.8457 177.831 13.8457 178.042 14.1273L179.098 15.5001C179.292 15.7641 179.292 16.0105 179.046 16.2569C177.849 17.3657 176.194 18.0696 174.417 18.0696ZM186.45 4.83475C182.807 4.83475 179.832 7.79149 179.832 11.4522C179.832 15.1129 182.807 18.0696 186.45 18.0696C190.111 18.0696 193.067 15.1129 193.067 11.4522C193.067 7.79149 190.111 4.83475 186.45 4.83475ZM186.432 7.66829C188.474 7.66829 190.216 9.39305 190.216 11.4522C190.216 13.5114 188.474 15.2361 186.432 15.2361C184.338 15.2361 182.684 13.5466 182.684 11.4522C182.684 9.35785 184.338 7.66829 186.432 7.66829ZM194.551 17.4361V5.46834C194.551 5.13395 194.744 4.94035 195.079 4.94035H196.821C197.173 4.94035 197.367 5.13395 197.367 5.46834V17.4361C197.367 17.7705 197.173 17.9641 196.821 17.9641H195.079C194.744 17.9641 194.551 17.7705 194.551 17.4361ZM206.482 5.46834V12.649L201.395 5.27474C201.237 5.02835 201.043 4.94035 200.762 4.94035H199.547C199.213 4.94035 199.019 5.13395 199.019 5.46834V17.4361C199.019 17.7705 199.213 17.9641 199.547 17.9641H201.325C201.677 17.9641 201.871 17.7705 201.871 17.4361V10.3082L206.886 17.6297C207.045 17.8761 207.238 17.9641 207.52 17.9641H208.787C209.122 17.9641 209.315 17.7705 209.315 17.4361V5.46834C209.315 5.13395 209.122 4.94035 208.787 4.94035H207.027C206.675 4.94035 206.482 5.13395 206.482 5.46834ZM214.854 18.1048C213.639 18.1048 212.442 17.6473 211.228 16.7849C210.876 16.5385 210.806 16.2745 210.964 15.9577L211.826 14.4089C212.02 14.1097 212.284 14.0393 212.583 14.2505C213.358 14.7433 214.097 15.0073 214.695 15.0073C215.434 15.0073 215.91 14.6377 215.91 14.0569C215.91 13.0362 214.484 12.6666 213.217 11.9626C211.615 11.065 210.823 9.81544 210.894 8.31947C210.999 6.15472 212.812 4.72916 215.135 4.83475C216.068 4.86995 216.966 5.18675 217.687 5.59154C217.986 5.76753 218.039 6.03153 217.863 6.33072L217.054 7.58029C216.86 7.87948 216.614 7.93228 216.314 7.77389C215.945 7.58029 215.505 7.42189 215.012 7.42189C214.238 7.42189 213.78 7.79149 213.78 8.31947C213.78 9.16425 214.924 9.51625 215.98 10.0442C217.018 10.5546 218.954 11.6634 218.954 14.0745C218.954 16.3449 217.23 18.1048 214.854 18.1048ZM228.304 17.4361V12.7018H231.789C232.141 12.7018 232.335 12.5082 232.335 12.1738V10.7306C232.335 10.3962 232.141 10.2026 231.789 10.2026H228.304V7.79149H232.123C232.458 7.79149 232.651 7.59789 232.651 7.2635V5.46834C232.651 5.13395 232.458 4.94035 232.123 4.94035H225.981C225.647 4.94035 225.453 5.13395 225.453 5.46834V17.4361C225.453 17.7705 225.647 17.9641 225.981 17.9641H227.759C228.111 17.9641 228.304 17.7705 228.304 17.4361ZM240.4 4.83475C236.757 4.83475 233.783 7.79149 233.783 11.4522C233.783 15.1129 236.757 18.0696 240.4 18.0696C244.061 18.0696 247.018 15.1129 247.018 11.4522C247.018 7.79149 244.061 4.83475 240.4 4.83475ZM240.383 7.66829C242.424 7.66829 244.167 9.39305 244.167 11.4522C244.167 13.5114 242.424 15.2361 240.383 15.2361C238.288 15.2361 236.634 13.5466 236.634 11.4522C236.634 9.35785 238.288 7.66829 240.383 7.66829ZM257.406 17.3305L254.591 12.5258C255.84 11.8394 256.685 10.5018 256.685 8.97066C256.685 6.75311 254.872 4.94035 252.637 4.94035H249.029C248.695 4.94035 248.501 5.13395 248.501 5.46834V17.4361C248.501 17.7705 248.695 17.9641 249.029 17.9641H250.807C251.159 17.9641 251.352 17.7705 251.352 17.4361V13.0362H251.739L254.327 17.5945C254.467 17.8585 254.679 17.9641 254.978 17.9641H257.037C257.477 17.9641 257.635 17.6825 257.406 17.3305ZM251.352 7.79149H252.637C253.306 7.79149 253.851 8.31947 253.851 8.97066C253.851 9.67464 253.306 10.185 252.637 10.185H251.352V7.79149Z" fill="white"/>
</svg>
