<svg width="224" height="23" viewBox="0 0 224 23" fill="none" xmlns="http://www.w3.org/2000/svg">
<path d="M0.655375 21.3867V1.35883C0.655375 0.799229 0.979355 0.47525 1.53896 0.47525H4.45478C5.04383 0.47525 5.36781 0.799229 5.36781 1.35883V21.3867C5.36781 21.9463 5.04383 22.2703 4.45478 22.2703H1.53896C0.979355 22.2703 0.655375 21.9463 0.655375 21.3867ZM20.6216 1.35883V13.3755L12.1097 1.03485C11.8446 0.622514 11.5207 0.47525 11.0494 0.47525H9.01719C8.45758 0.47525 8.1336 0.799229 8.1336 1.35883V21.3867C8.1336 21.9463 8.45758 22.2703 9.01719 22.2703H11.9919C12.581 22.2703 12.9049 21.9463 12.9049 21.3867V9.45833L21.299 21.7107C21.564 22.123 21.888 22.2703 22.3593 22.2703H24.4799C25.0395 22.2703 25.3634 21.9463 25.3634 21.3867V1.35883C25.3634 0.799229 25.0395 0.47525 24.4799 0.47525H21.5346C20.9455 0.47525 20.6216 0.799229 20.6216 1.35883ZM47.1545 0.298533C41.0578 0.298533 36.0803 5.24659 36.0803 11.3728C36.0803 17.4989 41.0578 22.447 47.1545 22.447C53.2807 22.447 58.2288 17.4989 58.2288 11.3728C58.2288 5.24659 53.2807 0.298533 47.1545 0.298533ZM47.1251 5.04042C50.5416 5.04042 53.4574 7.92679 53.4574 11.3728C53.4574 14.8187 50.5416 17.7051 47.1251 17.7051C43.6202 17.7051 40.8517 14.8776 40.8517 11.3728C40.8517 7.86788 43.6202 5.04042 47.1251 5.04042ZM67.9861 22.447C63.9806 22.447 60.7113 19.1777 60.7113 15.1722V1.35883C60.7113 0.799229 61.0353 0.47525 61.5949 0.47525H64.5402C65.1292 0.47525 65.4532 0.799229 65.4532 1.35883V15.1722C65.4532 16.5564 66.5724 17.6756 67.9861 17.6756C69.3999 17.6756 70.5485 16.5564 70.5485 15.1722V1.35883C70.5485 0.799229 70.8725 0.47525 71.4321 0.47525H74.3774C74.937 0.47525 75.2904 0.799229 75.2904 1.35883V15.1722C75.2904 19.1777 71.9917 22.447 67.9861 22.447ZM92.9581 21.21L88.2457 13.1694C90.3368 12.0207 91.7506 9.78231 91.7506 7.21992C91.7506 3.50888 88.7169 0.47525 84.9764 0.47525H78.9386C78.379 0.47525 78.0551 0.799229 78.0551 1.35883V21.3867C78.0551 21.9463 78.379 22.2703 78.9386 22.2703H81.9134C82.5024 22.2703 82.8264 21.9463 82.8264 21.3867V14.0235H83.4744L87.8039 21.6518C88.0395 22.0935 88.393 22.2703 88.8937 22.2703H92.3396C93.0759 22.2703 93.341 21.799 92.9581 21.21ZM82.8264 5.24659H84.9764C86.0956 5.24659 87.0087 6.13017 87.0087 7.21992C87.0087 8.39803 86.0956 9.25216 84.9764 9.25216H82.8264V5.24659ZM128.095 0.47525H124.649C124.119 0.47525 123.795 0.681418 123.648 1.21157L120.703 11.844L117.963 1.50609C117.846 1.0643 117.581 0.887588 117.139 0.887588H115.254C114.812 0.887588 114.518 1.0643 114.4 1.50609L111.69 11.844L108.686 1.21157C108.539 0.681418 108.215 0.47525 107.714 0.47525H104.268C103.649 0.47525 103.325 0.887588 103.502 1.47664L109.128 21.5339C109.275 22.0641 109.599 22.2703 110.1 22.2703H112.426C112.957 22.2703 113.31 22.0052 113.457 21.5045L116.167 11.0488L118.935 21.5045C119.053 22.0052 119.407 22.2703 119.937 22.2703H122.264C122.794 22.2703 123.118 22.0641 123.265 21.5339L128.89 1.47664C129.067 0.887588 128.743 0.47525 128.095 0.47525ZM142.986 17.4989H136.094V13.4639H142.427C143.016 13.4639 143.34 13.1399 143.34 12.5803V10.1652C143.34 9.60559 143.016 9.28161 142.427 9.28161H136.094V5.24659H142.986C143.546 5.24659 143.87 4.92261 143.87 4.36301V1.35883C143.87 0.799229 143.546 0.47525 142.986 0.47525H132.207C131.647 0.47525 131.323 0.799229 131.323 1.35883V21.3867C131.323 21.9463 131.647 22.2703 132.207 22.2703H142.986C143.546 22.2703 143.87 21.9463 143.87 21.3867V18.3825C143.87 17.8229 143.546 17.4989 142.986 17.4989ZM158.144 10.9899C158.91 9.90012 159.411 8.57475 159.411 7.07266C159.411 3.42052 156.406 0.47525 152.754 0.47525H147.364C146.805 0.47525 146.481 0.799229 146.481 1.35883V21.3867C146.481 21.9463 146.805 22.2703 147.364 22.2703H153.373C157.025 22.2703 160.029 19.325 160.029 15.6139C160.029 13.8468 159.293 12.2269 158.144 10.9899ZM151.017 5.24659H152.548C153.579 5.24659 154.463 6.07127 154.463 7.13157C154.463 8.16241 153.579 8.98709 152.548 8.98709H151.017V5.24659ZM153.167 17.4989H151.017V13.7584H153.167C154.197 13.7584 155.052 14.5831 155.052 15.6139C155.052 16.6742 154.197 17.4989 153.167 17.4989ZM191.135 21.2394L182.947 1.15266C182.77 0.681418 182.446 0.47525 181.946 0.47525H179.678C179.177 0.47525 178.853 0.681418 178.676 1.15266L170.695 21.2394C170.459 21.8579 170.724 22.2703 171.372 22.2703H174.73C175.23 22.2703 175.554 22.0641 175.731 21.5929L176.968 18.5298H184.891L186.098 21.5634C186.275 22.0346 186.599 22.2408 187.1 22.2408L190.428 22.2703C191.076 22.2703 191.37 21.8579 191.135 21.2394ZM178.883 13.7879L180.944 8.57475L182.976 13.7879H178.883ZM200.688 0.47525H194.65C194.09 0.47525 193.766 0.799229 193.766 1.35883V21.3867C193.766 21.9463 194.09 22.2703 194.65 22.2703H197.625C198.214 22.2703 198.538 21.9463 198.538 21.3867V14.0235H200.688C204.428 14.0235 207.491 10.9899 207.491 7.21992C207.491 3.50888 204.428 0.47525 200.688 0.47525ZM200.688 9.25216H198.538V5.24659H200.688C201.807 5.24659 202.72 6.13017 202.72 7.21992C202.72 8.39803 201.807 9.25216 200.688 9.25216ZM216.449 0.47525H210.412C209.852 0.47525 209.528 0.799229 209.528 1.35883V21.3867C209.528 21.9463 209.852 22.2703 210.412 22.2703H213.386C213.975 22.2703 214.299 21.9463 214.299 21.3867V14.0235H216.449C220.19 14.0235 223.253 10.9899 223.253 7.21992C223.253 3.50888 220.19 0.47525 216.449 0.47525ZM216.449 9.25216H214.299V5.24659H216.449C217.569 5.24659 218.482 6.13017 218.482 7.21992C218.482 8.39803 217.569 9.25216 216.449 9.25216Z" fill="white"/>
</svg>
