<svg width="211" height="72" viewBox="0 0 211 72" fill="none" xmlns="http://www.w3.org/2000/svg">
<path d="M23.36 0.959969H3.68C1.856 0.959969 0.8 2.01597 0.8 3.83997V69.12C0.8 70.944 1.856 72 3.68 72H13.376C15.296 72 16.352 70.944 16.352 69.12V45.12H23.36C35.552 45.12 45.536 35.232 45.536 22.944C45.536 10.848 35.552 0.959969 23.36 0.959969ZM23.36 29.568H16.352V16.512H23.36C27.008 16.512 29.984 19.392 29.984 22.944C29.984 26.784 27.008 29.568 23.36 29.568ZM87.155 72H53.555C51.731 72 50.675 70.944 50.675 69.12V3.83997C50.675 2.01597 51.731 0.959969 53.555 0.959969H63.251C65.171 0.959969 66.227 2.01597 66.227 3.83997V56.448H87.155C88.979 56.448 90.035 57.504 90.035 59.328V69.12C90.035 70.944 88.979 72 87.155 72ZM161.723 68.64L135.035 3.16797C134.459 1.63197 133.403 0.959969 131.771 0.959969H124.379C122.747 0.959969 121.691 1.63197 121.115 3.16797L95.099 68.64C94.331 70.656 95.195 72 97.307 72H108.251C109.883 72 110.939 71.328 111.515 69.792L115.547 59.808H141.371L145.307 69.696C145.883 71.232 146.939 71.904 148.571 71.904L159.419 72C161.531 72 162.491 70.656 161.723 68.64ZM121.787 44.352L128.507 27.36L135.131 44.352H121.787ZM208.348 0.959969H195.868C194.332 0.959969 193.18 1.63197 192.412 2.97597L181.66 22.56L170.908 2.97597C170.14 1.63197 168.988 0.959969 167.452 0.959969H155.068C152.764 0.959969 151.9 2.49597 153.052 4.41596L173.98 40.608V69.12C173.98 70.944 175.036 72 176.86 72H186.556C188.38 72 189.436 70.944 189.436 69.12V40.608L210.364 4.41596C211.516 2.49597 210.652 0.959969 208.348 0.959969Z" fill="white"/>
</svg>
