<svg width="225" height="16" viewBox="0 0 225 16" fill="none" xmlns="http://www.w3.org/2000/svg">
<path d="M10.475 14.7814L7.17285 9.1471C8.63819 8.34219 9.62884 6.77367 9.62884 4.97811C9.62884 2.37766 7.50307 0.251894 4.88198 0.251894H0.651082C0.25895 0.251894 0.031926 0.478918 0.031926 0.871049V14.9052C0.031926 15.2974 0.25895 15.5244 0.651082 15.5244H2.73557C3.14834 15.5244 3.37537 15.2974 3.37537 14.9052V9.74561H3.82941L6.86328 15.091C7.02838 15.4006 7.27605 15.5244 7.6269 15.5244H10.0416C10.5576 15.5244 10.7433 15.1942 10.475 14.7814ZM3.37537 3.59533H4.88198C5.66624 3.59533 6.30604 4.21449 6.30604 4.97811C6.30604 5.80366 5.66624 6.40217 4.88198 6.40217H3.37537V3.59533ZM20.3984 12.181H15.569V9.35348H20.0063C20.4191 9.35348 20.6461 9.12646 20.6461 8.73433V7.04197C20.6461 6.64984 20.4191 6.42281 20.0063 6.42281H15.569V3.59533H20.3984C20.7906 3.59533 21.0176 3.36831 21.0176 2.97618V0.871049C21.0176 0.478918 20.7906 0.251894 20.3984 0.251894H12.8447C12.4526 0.251894 12.2256 0.478918 12.2256 0.871049V14.9052C12.2256 15.2974 12.4526 15.5244 12.8447 15.5244H20.3984C20.7906 15.5244 21.0176 15.2974 21.0176 14.9052V12.8001C21.0176 12.408 20.7906 12.181 20.3984 12.181ZM27.883 0.251894H23.4663C23.0742 0.251894 22.8472 0.478918 22.8472 0.871049V14.9052C22.8472 15.2974 23.0742 15.5244 23.4663 15.5244H27.883C32.0932 15.5244 35.5192 12.0984 35.5192 7.88815C35.5192 3.67789 32.0932 0.251894 27.883 0.251894ZM27.883 12.181H26.1906V3.59533H27.883C30.2358 3.59533 32.1551 5.51472 32.1551 7.88815C32.1551 10.2616 30.2358 12.181 27.883 12.181ZM45.3501 12.181H40.5207V9.35348H44.9579C45.3707 9.35348 45.5977 9.12646 45.5977 8.73433V7.04197C45.5977 6.64984 45.3707 6.42281 44.9579 6.42281H40.5207V3.59533H45.3501C45.7422 3.59533 45.9692 3.36831 45.9692 2.97618V0.871049C45.9692 0.478918 45.7422 0.251894 45.3501 0.251894H37.7964C37.4043 0.251894 37.1772 0.478918 37.1772 0.871049V14.9052C37.1772 15.2974 37.4043 15.5244 37.7964 15.5244H45.3501C45.7422 15.5244 45.9692 15.2974 45.9692 14.9052V12.8001C45.9692 12.408 45.7422 12.181 45.3501 12.181ZM55.9717 12.181H51.1423V9.35348H55.5795C55.9923 9.35348 56.2193 9.12646 56.2193 8.73433V7.04197C56.2193 6.64984 55.9923 6.42281 55.5795 6.42281H51.1423V3.59533H55.9717C56.3638 3.59533 56.5908 3.36831 56.5908 2.97618V0.871049C56.5908 0.478918 56.3638 0.251894 55.9717 0.251894H48.418C48.0258 0.251894 47.7988 0.478918 47.7988 0.871049V14.9052C47.7988 15.2974 48.0258 15.5244 48.418 15.5244H55.9717C56.3638 15.5244 56.5908 15.2974 56.5908 14.9052V12.8001C56.5908 12.408 56.3638 12.181 55.9717 12.181ZM73.0325 0.251894H71.402C71.0512 0.251894 70.8035 0.396363 70.659 0.705941L66.036 10.2203L61.413 0.705941C61.2479 0.396363 61.0002 0.251894 60.67 0.251894H59.0395C58.6474 0.251894 58.4204 0.478918 58.4204 0.871049V14.9052C58.4204 15.2974 58.6474 15.5244 59.0395 15.5244H61.124C61.5368 15.5244 61.7638 15.2974 61.7638 14.9052V8.13581L64.9422 14.6163C65.066 14.864 65.2517 14.9878 65.5407 14.9878H66.5107C66.7996 14.9878 66.9854 14.864 67.1092 14.6163L70.2875 8.13581V14.9052C70.2875 15.2974 70.5146 15.5244 70.9067 15.5244H73.0325C73.4246 15.5244 73.6516 15.2974 73.6516 14.9052V0.871049C73.6516 0.478918 73.4246 0.251894 73.0325 0.251894ZM98.4836 0.251894H96.0689C95.6974 0.251894 95.4704 0.396363 95.3672 0.767857L93.3034 8.21836L91.384 0.974242C91.3014 0.664664 91.1157 0.540834 90.8061 0.540834H89.4852C89.1757 0.540834 88.9693 0.664664 88.8867 0.974242L86.988 8.21836L84.8828 0.767857C84.7797 0.396363 84.5526 0.251894 84.2018 0.251894H81.7871C81.3537 0.251894 81.1266 0.540834 81.2505 0.953604L85.1924 15.0084C85.2956 15.3799 85.5226 15.5244 85.8735 15.5244H87.5039C87.8754 15.5244 88.1231 15.3387 88.2263 14.9878L90.125 7.66112L92.0651 14.9878C92.1476 15.3387 92.3953 15.5244 92.7668 15.5244H94.3972C94.7687 15.5244 94.9957 15.3799 95.0989 15.0084L99.0409 0.953604C99.1647 0.540834 98.9377 0.251894 98.4836 0.251894ZM100.745 14.9052V0.871049C100.745 0.478918 100.973 0.251894 101.365 0.251894H103.408C103.821 0.251894 104.048 0.478918 104.048 0.871049V14.9052C104.048 15.2974 103.821 15.5244 103.408 15.5244H101.365C100.973 15.5244 100.745 15.2974 100.745 14.9052ZM114.736 0.871049V9.29157L108.772 0.644026C108.586 0.355087 108.359 0.251894 108.029 0.251894H106.605C106.213 0.251894 105.986 0.478918 105.986 0.871049V14.9052C105.986 15.2974 106.213 15.5244 106.605 15.5244H108.689C109.102 15.5244 109.329 15.2974 109.329 14.9052V6.54664L115.211 15.1323C115.397 15.4212 115.624 15.5244 115.954 15.5244H117.44C117.832 15.5244 118.059 15.2974 118.059 14.9052V0.871049C118.059 0.478918 117.832 0.251894 117.44 0.251894H115.376C114.963 0.251894 114.736 0.478918 114.736 0.871049ZM128.764 0.871049V9.29157L122.8 0.644026C122.614 0.355087 122.387 0.251894 122.057 0.251894H120.633C120.24 0.251894 120.013 0.478918 120.013 0.871049V14.9052C120.013 15.2974 120.24 15.5244 120.633 15.5244H122.717C123.13 15.5244 123.357 15.2974 123.357 14.9052V6.54664L129.239 15.1323C129.425 15.4212 129.652 15.5244 129.982 15.5244H131.468C131.86 15.5244 132.087 15.2974 132.087 14.9052V0.871049C132.087 0.478918 131.86 0.251894 131.468 0.251894H129.404C128.991 0.251894 128.764 0.478918 128.764 0.871049ZM134.041 14.9052V0.871049C134.041 0.478918 134.268 0.251894 134.66 0.251894H136.704C137.116 0.251894 137.343 0.478918 137.343 0.871049V14.9052C137.343 15.2974 137.116 15.5244 136.704 15.5244H134.66C134.268 15.5244 134.041 15.2974 134.041 14.9052ZM148.032 0.871049V9.29157L142.068 0.644026C141.882 0.355087 141.655 0.251894 141.325 0.251894H139.901C139.508 0.251894 139.281 0.478918 139.281 0.871049V14.9052C139.281 15.2974 139.508 15.5244 139.901 15.5244H141.985C142.398 15.5244 142.625 15.2974 142.625 14.9052V6.54664L148.507 15.1323C148.693 15.4212 148.92 15.5244 149.25 15.5244H150.736C151.128 15.5244 151.355 15.2974 151.355 14.9052V0.871049C151.355 0.478918 151.128 0.251894 150.736 0.251894H148.672C148.259 0.251894 148.032 0.478918 148.032 0.871049ZM167.509 6.46409H160.037C159.625 6.46409 159.398 6.69111 159.398 7.08324V8.75496C159.398 9.16773 159.625 9.39476 160.037 9.39476H164.557C164 11.1078 162.452 12.3254 160.595 12.3254C158.221 12.3254 156.343 10.406 156.343 7.88815C156.343 5.4528 158.324 3.45086 160.76 3.45086C162.081 3.45086 163.051 4.02874 164.041 4.87492C164.351 5.14322 164.681 5.12258 164.929 4.81301L166.126 3.36831C166.373 3.05873 166.373 2.76979 166.084 2.48085C164.557 0.953604 162.844 0.128062 160.76 0.128062C156.467 0.128062 153 3.61597 153 7.88815C153 12.1397 156.24 15.6482 160.595 15.6482C164.66 15.6482 167.983 12.4286 168.148 8.21836V7.08324C168.148 6.69111 167.921 6.46409 167.509 6.46409ZM174.518 15.6895C173.094 15.6895 171.69 15.1529 170.266 14.1416C169.853 13.8527 169.771 13.5431 169.957 13.1716L170.968 11.3554C171.195 11.0046 171.504 10.922 171.855 11.1697C172.763 11.7475 173.63 12.0571 174.332 12.0571C175.199 12.0571 175.756 11.6237 175.756 10.9426C175.756 9.74561 174.084 9.3122 172.598 8.48666C170.72 7.4341 169.791 5.96876 169.874 4.21449C169.998 1.67595 172.124 0.0042316 174.848 0.128062C175.942 0.16934 176.994 0.540834 177.841 1.01552C178.191 1.2219 178.253 1.53148 178.047 1.88234L177.098 3.34767C176.871 3.69853 176.582 3.76044 176.231 3.57469C175.797 3.34767 175.281 3.16192 174.703 3.16192C173.795 3.16192 173.259 3.59533 173.259 4.21449C173.259 5.20514 174.6 5.61791 175.839 6.23706C177.056 6.83558 179.326 8.13581 179.326 10.9633C179.326 13.6257 177.304 15.6895 174.518 15.6895ZM190.291 14.9052V9.35348H194.377C194.79 9.35348 195.017 9.12646 195.017 8.73433V7.04197C195.017 6.64984 194.79 6.42281 194.377 6.42281H190.291V3.59533H194.77C195.162 3.59533 195.389 3.36831 195.389 2.97618V0.871049C195.389 0.478918 195.162 0.251894 194.77 0.251894H187.567C187.175 0.251894 186.948 0.478918 186.948 0.871049V14.9052C186.948 15.2974 187.175 15.5244 187.567 15.5244H189.651C190.064 15.5244 190.291 15.2974 190.291 14.9052ZM204.475 0.128062C200.203 0.128062 196.715 3.59533 196.715 7.88815C196.715 12.181 200.203 15.6482 204.475 15.6482C208.768 15.6482 212.236 12.181 212.236 7.88815C212.236 3.59533 208.768 0.128062 204.475 0.128062ZM204.455 3.45086C206.849 3.45086 208.892 5.47344 208.892 7.88815C208.892 10.3029 206.849 12.3254 204.455 12.3254C201.999 12.3254 200.059 10.3441 200.059 7.88815C200.059 5.43216 201.999 3.45086 204.455 3.45086ZM224.418 14.7814L221.116 9.1471C222.581 8.34219 223.572 6.77367 223.572 4.97811C223.572 2.37766 221.446 0.251894 218.825 0.251894H214.594C214.202 0.251894 213.975 0.478918 213.975 0.871049V14.9052C213.975 15.2974 214.202 15.5244 214.594 15.5244H216.679C217.092 15.5244 217.319 15.2974 217.319 14.9052V9.74561H217.773L220.807 15.091C220.972 15.4006 221.219 15.5244 221.57 15.5244H223.985C224.501 15.5244 224.687 15.1942 224.418 14.7814ZM217.319 3.59533H218.825C219.609 3.59533 220.249 4.21449 220.249 4.97811C220.249 5.80366 219.609 6.40217 218.825 6.40217H217.319V3.59533Z" fill="white"/>
</svg>
