<svg width="271" height="33" viewBox="0 0 271 33" fill="none" xmlns="http://www.w3.org/2000/svg">
<path d="M10.4903 32.3405C7.5539 32.3405 4.66004 31.234 1.72363 29.1487C0.872495 28.5529 0.702268 27.9146 1.08528 27.1485L3.17056 23.4035C3.63868 22.6801 4.27703 22.5099 5.0005 23.0205C6.87299 24.2121 8.66037 24.8505 10.1073 24.8505C11.8947 24.8505 13.0437 23.9568 13.0437 22.5524C13.0437 20.0841 9.59662 19.1904 6.53254 17.4882C2.65988 15.3178 0.744825 12.2962 0.915052 8.67893C1.17039 3.44445 5.55373 -0.00264109 11.1712 0.252698C13.4267 0.337813 15.5971 1.10383 17.3419 2.08264C18.0654 2.5082 18.1931 3.14655 17.7675 3.87002L15.8099 6.89154C15.3418 7.61501 14.746 7.74268 14.0225 7.35967C13.1288 6.89154 12.0649 6.50853 10.8733 6.50853C9.00083 6.50853 7.89435 7.40223 7.89435 8.67893C7.89435 10.7216 10.6605 11.5728 13.2139 12.8495C15.7248 14.0836 20.406 16.7647 20.406 22.595C20.406 28.0848 16.2355 32.3405 10.4903 32.3405ZM57.8054 0.50804H52.8262C52.0602 0.50804 51.5921 0.805936 51.3793 1.57196L47.1237 16.9349L43.1659 1.99752C42.9957 1.35917 42.6126 1.10383 41.9743 1.10383H39.2507C38.6123 1.10383 38.1867 1.35917 38.0165 1.99752L34.1013 16.9349L29.7605 1.57196C29.5477 0.805936 29.0796 0.50804 28.3561 0.50804H23.377C22.4833 0.50804 22.0152 1.10383 22.2705 1.95497L30.3989 30.9361C30.6117 31.7021 31.0798 32 31.8032 32H35.1652C35.9312 32 36.4419 31.617 36.6547 30.8935L40.5699 15.7859L44.5702 30.8935C44.7405 31.617 45.2512 32 46.0172 32H49.3792C50.1452 32 50.6133 31.7021 50.8261 30.9361L58.9544 1.95497C59.2098 1.10383 58.7416 0.50804 57.8054 0.50804ZM79.3218 25.1058H69.3635V19.2755H78.5132C79.3643 19.2755 79.8325 18.8074 79.8325 17.9988V14.5092C79.8325 13.7006 79.3643 13.2325 78.5132 13.2325H69.3635V7.40223H79.3218C80.1304 7.40223 80.5985 6.9341 80.5985 6.12552V1.78474C80.5985 0.976163 80.1304 0.50804 79.3218 0.50804H63.746C62.9375 0.50804 62.4693 0.976163 62.4693 1.78474V30.7233C62.4693 31.5319 62.9375 32 63.746 32H79.3218C80.1304 32 80.5985 31.5319 80.5985 30.7233V26.3825C80.5985 25.5739 80.1304 25.1058 79.3218 25.1058ZM101.224 25.1058H91.2653V19.2755H100.415C101.266 19.2755 101.734 18.8074 101.734 17.9988V14.5092C101.734 13.7006 101.266 13.2325 100.415 13.2325H91.2653V7.40223H101.224C102.032 7.40223 102.5 6.9341 102.5 6.12552V1.78474C102.5 0.976163 102.032 0.50804 101.224 0.50804H85.6478C84.8392 0.50804 84.3711 0.976163 84.3711 1.78474V30.7233C84.3711 31.5319 84.8392 32 85.6478 32H101.224C102.032 32 102.5 31.5319 102.5 30.7233V26.3825C102.5 25.5739 102.032 25.1058 101.224 25.1058ZM116.274 0.50804H107.55C106.741 0.50804 106.273 0.976163 106.273 1.78474V30.7233C106.273 31.5319 106.741 32 107.55 32H111.848C112.699 32 113.167 31.5319 113.167 30.7233V20.0841H116.274C121.678 20.0841 126.104 15.7008 126.104 10.2535C126.104 4.89138 121.678 0.50804 116.274 0.50804ZM116.274 13.1899H113.167V7.40223H116.274C117.891 7.40223 119.21 8.67893 119.21 10.2535C119.21 11.9558 117.891 13.1899 116.274 13.1899ZM138.41 32.3405C135.473 32.3405 132.579 31.234 129.643 29.1487C128.792 28.5529 128.622 27.9146 129.005 27.1485L131.09 23.4035C131.558 22.6801 132.196 22.5099 132.92 23.0205C134.792 24.2121 136.58 24.8505 138.027 24.8505C139.814 24.8505 140.963 23.9568 140.963 22.5524C140.963 20.0841 137.516 19.1904 134.452 17.4882C130.579 15.3178 128.664 12.2962 128.835 8.67893C129.09 3.44445 133.473 -0.00264109 139.091 0.252698C141.346 0.337813 143.517 1.10383 145.261 2.08264C145.985 2.5082 146.113 3.14655 145.687 3.87002L143.729 6.89154C143.261 7.61501 142.665 7.74268 141.942 7.35967C141.048 6.89154 139.984 6.50853 138.793 6.50853C136.92 6.50853 135.814 7.40223 135.814 8.67893C135.814 10.7216 138.58 11.5728 141.133 12.8495C143.644 14.0836 148.325 16.7647 148.325 22.595C148.325 28.0848 144.155 32.3405 138.41 32.3405ZM169.82 0.50804H152.159C151.351 0.50804 150.883 0.976163 150.883 1.78474V6.12552C150.883 6.9341 151.351 7.40223 152.159 7.40223H157.564V30.7233C157.564 31.5319 158.032 32 158.841 32H163.139C163.947 32 164.416 31.5319 164.416 30.7233V7.40223H169.82C170.629 7.40223 171.14 6.9341 171.14 6.12552V1.78474C171.14 0.976163 170.629 0.50804 169.82 0.50804ZM198.93 30.5105L187.099 1.48684C186.844 0.805936 186.375 0.50804 185.652 0.50804H182.375C181.652 0.50804 181.184 0.805936 180.928 1.48684L169.395 30.5105C169.055 31.4042 169.438 32 170.374 32H175.226C175.949 32 176.417 31.7021 176.673 31.0212L178.46 26.5953H189.908L191.653 30.9786C191.908 31.6595 192.376 31.9574 193.099 31.9574L197.908 32C198.845 32 199.27 31.4042 198.93 30.5105ZM181.226 19.7437L184.205 12.2111L187.142 19.7437H181.226ZM224.776 30.468L214.861 13.2751L222.989 2.08264C223.627 1.18895 223.287 0.50804 222.18 0.50804H217.116C216.435 0.50804 215.924 0.76338 215.541 1.31662L209.584 9.53006V1.78474C209.584 0.976163 209.115 0.50804 208.264 0.50804H204.009C203.2 0.50804 202.732 0.976163 202.732 1.78474V30.7233C202.732 31.5319 203.2 32 204.009 32H208.264C209.115 32 209.584 31.5319 209.584 30.7233V20.5097L210.35 19.4458L216.818 31.1063C217.159 31.7447 217.712 32 218.393 32H223.883C224.904 32 225.287 31.3191 224.776 30.468ZM245.933 25.1058H235.975V19.2755H245.124C245.975 19.2755 246.444 18.8074 246.444 17.9988V14.5092C246.444 13.7006 245.975 13.2325 245.124 13.2325H235.975V7.40223H245.933C246.742 7.40223 247.21 6.9341 247.21 6.12552V1.78474C247.21 0.976163 246.742 0.50804 245.933 0.50804H230.357C229.549 0.50804 229.08 0.976163 229.08 1.78474V30.7233C229.08 31.5319 229.549 32 230.357 32H245.933C246.742 32 247.21 31.5319 247.21 30.7233V26.3825C247.21 25.5739 246.742 25.1058 245.933 25.1058ZM260.345 32.3405C257.408 32.3405 254.514 31.234 251.578 29.1487C250.727 28.5529 250.557 27.9146 250.94 27.1485L253.025 23.4035C253.493 22.6801 254.131 22.5099 254.855 23.0205C256.727 24.2121 258.515 24.8505 259.962 24.8505C261.749 24.8505 262.898 23.9568 262.898 22.5524C262.898 20.0841 259.451 19.1904 256.387 17.4882C252.514 15.3178 250.599 12.2962 250.769 8.67893C251.025 3.44445 255.408 -0.00264109 261.026 0.252698C263.281 0.337813 265.451 1.10383 267.196 2.08264C267.92 2.5082 268.047 3.14655 267.622 3.87002L265.664 6.89154C265.196 7.61501 264.6 7.74268 263.877 7.35967C262.983 6.89154 261.919 6.50853 260.728 6.50853C258.855 6.50853 257.749 7.40223 257.749 8.67893C257.749 10.7216 260.515 11.5728 263.068 12.8495C265.579 14.0836 270.26 16.7647 270.26 22.595C270.26 28.0848 266.09 32.3405 260.345 32.3405Z" fill="white"/>
</svg>
