<svg width="259" height="107" viewBox="0 0 259 107" fill="none" xmlns="http://www.w3.org/2000/svg">
<path d="M60.6197 103.926C54.6954 103.926 49.8586 99.089 49.8586 93.1647C49.8586 87.2403 54.6954 82.4036 60.5911 82.4036C63.4817 82.4036 66.0003 83.5484 68.1468 85.6949C68.5475 86.0669 68.5475 86.4676 68.204 86.8969L66.5441 88.9003C66.2006 89.3296 65.7427 89.3582 65.3134 88.9862C63.911 87.8127 62.4228 87.0114 60.6197 87.0114C57.2139 87.0114 54.4664 89.7875 54.4664 93.1647C54.4664 96.5418 57.2139 99.318 60.6197 99.318C62.2797 99.318 63.9683 98.6311 65.3134 97.4291C65.7427 97.057 66.172 97.057 66.5154 97.5149L68.2326 99.7473C68.5475 100.177 68.5475 100.577 68.1468 100.978C66.2006 102.781 63.5103 103.926 60.6197 103.926ZM80.1875 82.4036C74.2632 82.4036 69.4264 87.2117 69.4264 93.1647C69.4264 99.1176 74.2632 103.926 80.1875 103.926C86.1405 103.926 90.9486 99.1176 90.9486 93.1647C90.9486 87.2117 86.1405 82.4036 80.1875 82.4036ZM80.1589 87.0114C83.4788 87.0114 86.3122 89.8161 86.3122 93.1647C86.3122 96.5132 83.4788 99.318 80.1589 99.318C76.7531 99.318 74.0628 96.5705 74.0628 93.1647C74.0628 89.7589 76.7531 87.0114 80.1589 87.0114ZM93.361 102.895V83.4339C93.361 82.8901 93.6758 82.5753 94.2196 82.5753H97.053C97.6254 82.5753 97.9402 82.8901 97.9402 83.4339V102.895C97.9402 103.439 97.6254 103.754 97.053 103.754H94.2196C93.6758 103.754 93.361 103.439 93.361 102.895ZM112.763 83.4339V95.1108L104.491 83.1191C104.234 82.7184 103.919 82.5753 103.461 82.5753H101.486C100.943 82.5753 100.628 82.8901 100.628 83.4339V102.895C100.628 103.439 100.943 103.754 101.486 103.754H104.377C104.949 103.754 105.264 103.439 105.264 102.895V91.3044L113.421 103.21C113.679 103.611 113.993 103.754 114.451 103.754H116.512C117.056 103.754 117.37 103.439 117.37 102.895V83.4339C117.37 82.8901 117.056 82.5753 116.512 82.5753H113.65C113.077 82.5753 112.763 82.8901 112.763 83.4339ZM126.377 103.983C124.402 103.983 122.456 103.239 120.481 101.837C119.909 101.436 119.794 101.007 120.052 100.491L121.454 97.9728C121.769 97.4863 122.198 97.3718 122.685 97.7153C123.944 98.5166 125.146 98.9459 126.119 98.9459C127.321 98.9459 128.094 98.3449 128.094 97.4004C128.094 95.7405 125.776 95.1395 123.715 93.9947C121.111 92.535 119.823 90.503 119.937 88.0703C120.109 84.5501 123.057 82.2318 126.835 82.4036C128.352 82.4608 129.811 82.976 130.985 83.6342C131.471 83.9204 131.557 84.3497 131.271 84.8363L129.954 86.8683C129.64 87.3548 129.239 87.4407 128.752 87.1831C128.151 86.8683 127.436 86.6107 126.634 86.6107C125.375 86.6107 124.631 87.2117 124.631 88.0703C124.631 89.4441 126.491 90.0165 128.209 90.8751C129.897 91.7051 133.045 93.5081 133.045 97.4291C133.045 101.121 130.241 103.983 126.377 103.983ZM155.749 83.4339V95.1108L147.477 83.1191C147.22 82.7184 146.905 82.5753 146.447 82.5753H144.472C143.929 82.5753 143.614 82.8901 143.614 83.4339V102.895C143.614 103.439 143.929 103.754 144.472 103.754H147.363C147.935 103.754 148.25 103.439 148.25 102.895V91.3044L156.407 103.21C156.664 103.611 156.979 103.754 157.437 103.754H159.498C160.042 103.754 160.356 103.439 160.356 102.895V83.4339C160.356 82.8901 160.042 82.5753 159.498 82.5753H156.636C156.063 82.5753 155.749 82.8901 155.749 83.4339ZM173.398 82.4036C167.474 82.4036 162.637 87.2117 162.637 93.1647C162.637 99.1176 167.474 103.926 173.398 103.926C179.351 103.926 184.159 99.1176 184.159 93.1647C184.159 87.2117 179.351 82.4036 173.398 82.4036ZM173.37 87.0114C176.689 87.0114 179.523 89.8161 179.523 93.1647C179.523 96.5132 176.689 99.318 173.37 99.318C169.964 99.318 167.273 96.5705 167.273 93.1647C167.273 89.7589 169.964 87.0114 173.37 87.0114ZM208.869 82.5753H205.52C205.005 82.5753 204.69 82.7756 204.547 83.2908L201.685 93.6226L199.024 83.577C198.909 83.1477 198.652 82.976 198.222 82.976H196.391C195.961 82.976 195.675 83.1477 195.561 83.577L192.928 93.6226L190.008 83.2908C189.865 82.7756 189.55 82.5753 189.064 82.5753H185.715C185.114 82.5753 184.799 82.976 184.971 83.5484L190.438 103.039C190.581 103.554 190.896 103.754 191.382 103.754H193.643C194.158 103.754 194.502 103.497 194.645 103.01L197.278 92.8499L199.968 103.01C200.083 103.497 200.426 103.754 200.941 103.754H203.202C203.717 103.754 204.032 103.554 204.175 103.039L209.642 83.5484C209.813 82.976 209.499 82.5753 208.869 82.5753Z" fill="white"/>
<path d="M28.1558 6.82348H22.2894C21.7456 6.82348 21.4308 7.13826 21.4308 7.68198V27.1415C21.4308 27.6852 21.7456 28 22.2894 28H25.1797C25.752 28 26.0668 27.6852 26.0668 27.1415V19.9873H28.1558C31.7902 19.9873 34.7663 17.0397 34.7663 13.3768C34.7663 9.77102 31.7902 6.82348 28.1558 6.82348ZM28.1558 15.3513H26.0668V11.4594H28.1558C29.2433 11.4594 30.1304 12.3179 30.1304 13.3768C30.1304 14.5214 29.2433 15.3513 28.1558 15.3513ZM47.6198 28H37.6039C37.0602 28 36.7454 27.6852 36.7454 27.1415V7.68198C36.7454 7.13826 37.0602 6.82348 37.6039 6.82348H40.4942C41.0665 6.82348 41.3813 7.13826 41.3813 7.68198V23.3641H47.6198C48.1635 23.3641 48.4783 23.6788 48.4783 24.2226V27.1415C48.4783 27.6852 48.1635 28 47.6198 28ZM70.2951 26.9984L62.3396 7.48167C62.1679 7.02379 61.8531 6.82348 61.3667 6.82348H59.1632C58.6767 6.82348 58.3619 7.02379 58.1902 7.48167L50.435 26.9984C50.2061 27.5994 50.4636 28 51.0932 28H54.3555C54.842 28 55.1568 27.7997 55.3285 27.3418L56.5304 24.3657H64.2284L65.4016 27.3132C65.5733 27.7711 65.8881 27.9714 66.3746 27.9714L69.6083 28C70.2379 28 70.5241 27.5994 70.2951 26.9984ZM58.3905 19.7583L60.3937 14.6931L62.3683 19.7583H58.3905ZM84.6409 6.82348H80.9207C80.4629 6.82348 80.1195 7.02379 79.8905 7.42443L76.6854 13.2623L73.4803 7.42443C73.2514 7.02379 72.908 6.82348 72.4501 6.82348H68.7585C68.0717 6.82348 67.8142 7.28135 68.1576 7.85368L74.3961 18.6423V27.1415C74.3961 27.6852 74.7109 28 75.2546 28H78.1449C78.6886 28 79.0034 27.6852 79.0034 27.1415V18.6423L85.2419 7.85368C85.5853 7.28135 85.3277 6.82348 84.6409 6.82348ZM112.643 6.82348H108.923C108.465 6.82348 108.122 7.02379 107.893 7.42443L104.688 13.2623L101.482 7.42443C101.254 7.02379 100.91 6.82348 100.452 6.82348H96.7607C96.0738 6.82348 95.8163 7.28135 96.1597 7.85368L102.398 18.6423V27.1415C102.398 27.6852 102.713 28 103.257 28H106.147C106.691 28 107.006 27.6852 107.006 27.1415V18.6423L113.244 7.85368C113.587 7.28135 113.33 6.82348 112.643 6.82348ZM123.9 6.65177C117.977 6.65177 113.14 11.4594 113.14 17.4117C113.14 23.3641 117.977 28.1717 123.9 28.1717C129.853 28.1717 134.66 23.3641 134.66 17.4117C134.66 11.4594 129.853 6.65177 123.9 6.65177ZM123.872 11.2591C127.191 11.2591 130.024 14.0636 130.024 17.4117C130.024 20.7599 127.191 23.5644 123.872 23.5644C120.466 23.5644 117.776 20.8172 117.776 17.4117C117.776 14.0063 120.466 11.2591 123.872 11.2591ZM144.141 28.1717C140.249 28.1717 137.072 24.9952 137.072 21.1033V7.68198C137.072 7.13826 137.387 6.82348 137.931 6.82348H140.792C141.365 6.82348 141.68 7.13826 141.68 7.68198V21.1033C141.68 22.4483 142.767 23.5358 144.141 23.5358C145.514 23.5358 146.63 22.4483 146.63 21.1033V7.68198C146.63 7.13826 146.945 6.82348 147.489 6.82348H150.351C150.894 6.82348 151.238 7.13826 151.238 7.68198V21.1033C151.238 24.9952 148.033 28.1717 144.141 28.1717ZM168.404 26.9698L163.825 19.1574C165.857 18.0413 167.231 15.8664 167.231 13.3768C167.231 9.77102 164.283 6.82348 160.649 6.82348H154.782C154.239 6.82348 153.924 7.13826 153.924 7.68198V27.1415C153.924 27.6852 154.239 28 154.782 28H157.673C158.245 28 158.56 27.6852 158.56 27.1415V19.9873H159.189L163.396 27.399C163.625 27.8283 163.968 28 164.455 28H167.803C168.518 28 168.776 27.5421 168.404 26.9698ZM158.56 11.4594H160.649C161.736 11.4594 162.623 12.3179 162.623 13.3768C162.623 14.5214 161.736 15.3513 160.649 15.3513H158.56V11.4594ZM183.6 27.1415V19.4435H189.266C189.838 19.4435 190.153 19.1288 190.153 18.585V16.2384C190.153 15.6947 189.838 15.3799 189.266 15.3799H183.6V11.4594H189.809C190.353 11.4594 190.668 11.1446 190.668 10.6009V7.68198C190.668 7.13826 190.353 6.82348 189.809 6.82348H179.822C179.278 6.82348 178.964 7.13826 178.964 7.68198V27.1415C178.964 27.6852 179.278 28 179.822 28H182.712C183.285 28 183.6 27.6852 183.6 27.1415ZM207.417 26.9698L202.838 19.1574C204.87 18.0413 206.244 15.8664 206.244 13.3768C206.244 9.77102 203.296 6.82348 199.662 6.82348H193.795C193.252 6.82348 192.937 7.13826 192.937 7.68198V27.1415C192.937 27.6852 193.252 28 193.795 28H196.686C197.258 28 197.573 27.6852 197.573 27.1415V19.9873H198.202L202.409 27.399C202.638 27.8283 202.981 28 203.468 28H206.816C207.531 28 207.789 27.5421 207.417 26.9698ZM197.573 11.4594H199.662C200.749 11.4594 201.636 12.3179 201.636 13.3768C201.636 14.5214 200.749 15.3513 199.662 15.3513H197.573V11.4594ZM221.177 23.3641H214.48V19.4435H220.633C221.205 19.4435 221.52 19.1288 221.52 18.585V16.2384C221.52 15.6947 221.205 15.3799 220.633 15.3799H214.48V11.4594H221.177C221.72 11.4594 222.035 11.1446 222.035 10.6009V7.68198C222.035 7.13826 221.72 6.82348 221.177 6.82348H210.703C210.159 6.82348 209.844 7.13826 209.844 7.68198V27.1415C209.844 27.6852 210.159 28 210.703 28H221.177C221.72 28 222.035 27.6852 222.035 27.1415V24.2226C222.035 23.6788 221.72 23.3641 221.177 23.3641ZM235.904 23.3641H229.208V19.4435H235.36C235.933 19.4435 236.248 19.1288 236.248 18.585V16.2384C236.248 15.6947 235.933 15.3799 235.36 15.3799H229.208V11.4594H235.904C236.448 11.4594 236.763 11.1446 236.763 10.6009V7.68198C236.763 7.13826 236.448 6.82348 235.904 6.82348H225.43C224.887 6.82348 224.572 7.13826 224.572 7.68198V27.1415C224.572 27.6852 224.887 28 225.43 28H235.904C236.448 28 236.763 27.6852 236.763 27.1415V24.2226C236.763 23.6788 236.448 23.3641 235.904 23.3641Z" fill="white"/>
<path d="M12.1772 72.1149C9.06524 72.1149 5.99839 70.9423 2.88644 68.7323C1.98443 68.1009 1.80403 67.4244 2.20993 66.6126L4.41987 62.6438C4.91597 61.877 5.59248 61.6966 6.3592 62.2378C8.34362 63.5007 10.2379 64.1772 11.7713 64.1772C13.6655 64.1772 14.8832 63.2301 14.8832 61.7417C14.8832 59.1259 11.2301 58.1788 7.98282 56.3748C3.87866 54.0746 1.84913 50.8725 2.02953 47.0389C2.30013 41.4915 6.9455 37.8384 12.8988 38.109C15.2891 38.1992 17.5893 39.011 19.4384 40.0483C20.2051 40.4993 20.3404 41.1758 19.8894 41.9425L17.8148 45.1447C17.3187 45.9114 16.6872 46.0467 15.9205 45.6408C14.9734 45.1447 13.8459 44.7388 12.5831 44.7388C10.5987 44.7388 9.42604 45.6859 9.42604 47.0389C9.42604 49.2038 12.3576 50.1058 15.0636 51.4588C17.7246 52.7667 22.6856 55.608 22.6856 61.7868C22.6856 67.6048 18.2658 72.1149 12.1772 72.1149ZM61.616 38.3796H56.3392C55.5274 38.3796 55.0313 38.6953 54.8058 39.5071L50.2957 55.7885L46.1013 39.9581C45.9209 39.2816 45.515 39.011 44.8385 39.011H41.9521C41.2756 39.011 40.8246 39.2816 40.6442 39.9581L36.4949 55.7885L31.8946 39.5071C31.6691 38.6953 31.173 38.3796 30.4063 38.3796H25.1295C24.1824 38.3796 23.6863 39.011 23.9569 39.913L32.5711 70.6266C32.7966 71.4384 33.2928 71.7541 34.0595 71.7541H37.6224C38.4342 71.7541 38.9754 71.3482 39.2009 70.5815L43.3502 54.5707L47.5897 70.5815C47.7701 71.3482 48.3113 71.7541 49.1231 71.7541H52.686C53.4979 71.7541 53.994 71.4384 54.2195 70.6266L62.8337 39.913C63.1043 39.011 62.6082 38.3796 61.616 38.3796ZM83.7139 64.4478H73.1603V58.269H82.857C83.759 58.269 84.2551 57.7729 84.2551 56.916V53.2177C84.2551 52.3608 83.759 51.8647 82.857 51.8647H73.1603V45.6859H83.7139C84.5708 45.6859 85.0669 45.1898 85.0669 44.3329V39.7326C85.0669 38.8757 84.5708 38.3796 83.7139 38.3796H67.207C66.3501 38.3796 65.854 38.8757 65.854 39.7326V70.4011C65.854 71.258 66.3501 71.7541 67.207 71.7541H83.7139C84.5708 71.7541 85.0669 71.258 85.0669 70.4011V65.8008C85.0669 64.9439 84.5708 64.4478 83.7139 64.4478ZM106.22 64.4478H95.6666V58.269H105.363C106.265 58.269 106.761 57.7729 106.761 56.916V53.2177C106.761 52.3608 106.265 51.8647 105.363 51.8647H95.6666V45.6859H106.22C107.077 45.6859 107.573 45.1898 107.573 44.3329V39.7326C107.573 38.8757 107.077 38.3796 106.22 38.3796H89.7133C88.8564 38.3796 88.3603 38.8757 88.3603 39.7326V70.4011C88.3603 71.258 88.8564 71.7541 89.7133 71.7541H106.22C107.077 71.7541 107.573 71.258 107.573 70.4011V65.8008C107.573 64.9439 107.077 64.4478 106.22 64.4478ZM121.465 38.3796H112.22C111.363 38.3796 110.867 38.8757 110.867 39.7326V70.4011C110.867 71.258 111.363 71.7541 112.22 71.7541H116.775C117.677 71.7541 118.173 71.258 118.173 70.4011V59.1259H121.465C127.193 59.1259 131.884 54.4805 131.884 48.7076C131.884 43.025 127.193 38.3796 121.465 38.3796ZM121.465 51.8196H118.173V45.6859H121.465C123.179 45.6859 124.577 47.0389 124.577 48.7076C124.577 50.5117 123.179 51.8196 121.465 51.8196ZM144.22 72.1149C141.108 72.1149 138.041 70.9423 134.929 68.7323C134.027 68.1009 133.847 67.4244 134.253 66.6126L136.463 62.6438C136.959 61.877 137.635 61.6966 138.402 62.2378C140.386 63.5007 142.281 64.1772 143.814 64.1772C145.708 64.1772 146.926 63.2301 146.926 61.7417C146.926 59.1259 143.273 58.1788 140.026 56.3748C135.921 54.0746 133.892 50.8725 134.072 47.0389C134.343 41.4915 138.988 37.8384 144.942 38.109C147.332 38.1992 149.632 39.011 151.481 40.0483C152.248 40.4993 152.383 41.1758 151.932 41.9425L149.858 45.1447C149.361 45.9114 148.73 46.0467 147.963 45.6408C147.016 45.1447 145.889 44.7388 144.626 44.7388C142.641 44.7388 141.469 45.6859 141.469 47.0389C141.469 49.2038 144.4 50.1058 147.106 51.4588C149.767 52.7667 154.728 55.608 154.728 61.7868C154.728 67.6048 150.309 72.1149 144.22 72.1149ZM176.803 38.3796H158.087C157.23 38.3796 156.734 38.8757 156.734 39.7326V44.3329C156.734 45.1898 157.23 45.6859 158.087 45.6859H163.814V70.4011C163.814 71.258 164.311 71.7541 165.167 71.7541H169.723C170.58 71.7541 171.076 71.258 171.076 70.4011V45.6859H176.803C177.66 45.6859 178.202 45.1898 178.202 44.3329V39.7326C178.202 38.8757 177.66 38.3796 176.803 38.3796ZM206.948 70.1756L194.41 39.4169C194.14 38.6953 193.644 38.3796 192.877 38.3796H189.404C188.637 38.3796 188.141 38.6953 187.871 39.4169L175.648 70.1756C175.288 71.1227 175.694 71.7541 176.686 71.7541H181.827C182.594 71.7541 183.09 71.4384 183.361 70.7168L185.255 66.0263H197.387L199.236 70.6717C199.507 71.3933 200.003 71.709 200.77 71.709L205.866 71.7541C206.858 71.7541 207.309 71.1227 206.948 70.1756ZM188.186 58.7651L191.343 50.7823L194.455 58.7651H188.186ZM233.635 70.1305L223.127 51.9098L231.741 40.0483C232.418 39.1012 232.057 38.3796 230.884 38.3796H225.517C224.796 38.3796 224.254 38.6502 223.848 39.2365L217.534 47.9409V39.7326C217.534 38.8757 217.038 38.3796 216.136 38.3796H211.626C210.769 38.3796 210.273 38.8757 210.273 39.7326V70.4011C210.273 71.258 210.769 71.7541 211.626 71.7541H216.136C217.038 71.7541 217.534 71.258 217.534 70.4011V59.5769L218.346 58.4494L225.201 70.807C225.562 71.4835 226.149 71.7541 226.87 71.7541H232.688C233.771 71.7541 234.176 71.0325 233.635 70.1305ZM255.352 64.4478H244.798V58.269H254.495C255.397 58.269 255.893 57.7729 255.893 56.916V53.2177C255.893 52.3608 255.397 51.8647 254.495 51.8647H244.798V45.6859H255.352C256.209 45.6859 256.705 45.1898 256.705 44.3329V39.7326C256.705 38.8757 256.209 38.3796 255.352 38.3796H238.845C237.988 38.3796 237.492 38.8757 237.492 39.7326V70.4011C237.492 71.258 237.988 71.7541 238.845 71.7541H255.352C256.209 71.7541 256.705 71.258 256.705 70.4011V65.8008C256.705 64.9439 256.209 64.4478 255.352 64.4478Z" fill="white"/>
</svg>
