<svg xmlns="http://www.w3.org/2000/svg" viewBox="0 0 170.36 194.09"><defs><style>.cls-1{fill:#ffc414;}.cls-2{fill:#edb013;}.cls-3{opacity:0.6;}.cls-4{fill:#ffd900;}.cls-5{fill:#ffe75e;}.cls-6{fill:#f7be13;}.cls-7{opacity:0.2;}.cls-8{fill:#fff;}.cls-9{fill:#db9b11;}</style></defs><title>Default Coin</title><g id="Layer_2" data-name="Layer 2"><g id="Layer_1-2" data-name="Layer 1"><g id="Layer_2-2" data-name="Layer 2"><g id="Layer_1-2-2" data-name="Layer 1-2"><g id="Coin_up2" data-name="Coin up2"><path class="cls-1" d="M0,97.09C0,43.48,31.07,0,69.38,0a50.29,50.29,0,0,1,9,.81,55.78,55.78,0,0,1,22.09,9.48A68.76,68.76,0,0,1,106,14.66a77,77,0,0,1,9.53,10q2.28,2.85,4.38,6a108.93,108.93,0,0,1,14.79,33.91c.79,3,1.45,6.16,2,9.33.6,3.44,1.08,7,1.41,10.54q.57,6.23.58,12.66a140.42,140.42,0,0,1-1.29,18.78,121.3,121.3,0,0,1-4.11,18.75c-9.4,31.25-30.11,54.15-54.95,58.65a50.4,50.4,0,0,1-18,0,53,53,0,0,1-7.54-2,58.14,58.14,0,0,1-6.68-2.79C37,184,28.79,176.88,21.9,167.82c-1.49-2-2.93-4-4.29-6.16a102.05,102.05,0,0,1-7.14-13.32c-1.12-2.51-2.17-5.1-3.12-7.77-.7-1.94-1.36-3.92-2-5.94a129.17,129.17,0,0,1-4.07-18.75q-.42-3.07-.71-6.21C.2,105.54,0,101.35,0,97.09Z"/><path class="cls-1" d="M0,97.09C0,43.48,31.07,0,69.38,0a50.29,50.29,0,0,1,9,.81,55.78,55.78,0,0,1,22.09,9.48A68.76,68.76,0,0,1,106,14.66a77,77,0,0,1,9.53,10q2.28,2.85,4.38,6a108.93,108.93,0,0,1,14.79,33.91c.79,3,1.45,6.16,2,9.33.6,3.44,1.08,7,1.41,10.54q.57,6.23.58,12.66a140.42,140.42,0,0,1-1.29,18.78,121.3,121.3,0,0,1-4.11,18.75c-9.4,31.25-30.11,54.15-54.95,58.65a50.4,50.4,0,0,1-18,0,53,53,0,0,1-7.54-2,58.14,58.14,0,0,1-6.68-2.79C37,184,28.79,176.88,21.9,167.82c-1.49-2-2.93-4-4.29-6.16a102.05,102.05,0,0,1-7.14-13.32c-1.12-2.51-2.17-5.1-3.12-7.77-.7-1.94-1.36-3.92-2-5.94a129.17,129.17,0,0,1-4.07-18.75q-.42-3.07-.71-6.21C.2,105.54,0,101.35,0,97.09Z"/><path class="cls-2" d="M0,97.09C0,43.48,31.07,0,69.38,0a50.29,50.29,0,0,1,9,.81,55.78,55.78,0,0,1,22.09,9.48A68.76,68.76,0,0,1,106,14.66a77,77,0,0,1,9.53,10,78.24,78.24,0,0,0-8.89-9.22,68.67,68.67,0,0,0-5.56-4.35A55.54,55.54,0,0,0,79,1.61a49.4,49.4,0,0,0-9-.82C31.7.79.63,44.27.63,97.89q0,6.35.58,12.56.28,3.14.7,6.2A127.77,127.77,0,0,0,6,135.41q.92,3,2,6c1,2.66,2,5.24,3.12,7.76a102.12,102.12,0,0,0,7.15,13.32c1.34,2.1,2.73,4.14,4.26,6.1.41.54.83,1.08,1.26,1.61-.64-.77-1.28-1.57-1.89-2.38-1.49-2-2.93-4-4.29-6.16a102.05,102.05,0,0,1-7.14-13.32c-1.12-2.51-2.17-5.1-3.12-7.77-.7-1.94-1.36-3.92-2-5.94a129.17,129.17,0,0,1-4.07-18.75q-.42-3.07-.71-6.21C.2,105.54,0,101.35,0,97.09Z"/><g class="cls-3"><path class="cls-4" d="M116.81,167.82l-98-137.16A109.68,109.68,0,0,0,4,64.57l88.6,124A71.15,71.15,0,0,0,116.81,167.82Z"/><path class="cls-4" d="M138.13,109.67,60.33.82a55.45,55.45,0,0,0-22.09,9.49l93.12,130.26c.69-1.94,1.35-3.92,2-5.94a129.26,129.26,0,0,0,4.1-18.75C137.71,113.83,137.94,111.76,138.13,109.67Z"/><path class="cls-4" d="M128.23,148.34,32.69,14.67a77.61,77.61,0,0,0-9.52,10l97.92,137A100.36,100.36,0,0,0,128.23,148.34Z"/><path class="cls-4" d="M85.9,191.3,2,73.9C1.4,77.34.93,80.9.59,84.44L78.36,193.27A50.36,50.36,0,0,0,85.9,191.3Z"/></g><path class="cls-5" d="M19.18,164C31.63,180.71,48.51,191,67.13,191c28.76,0,53.42-24.51,63.94-59.47a123.67,123.67,0,0,0,4.11-18.75A140.27,140.27,0,0,0,136.47,94c0-26-7.29-49.57-19.16-67,13.19,17.67,21.4,42.56,21.4,70.14a140.27,140.27,0,0,1-1.29,18.77,123.91,123.91,0,0,1-4.1,18.75c-10.52,35-35.18,59.47-63.94,59.47C49.61,194.09,31.81,182.56,19.18,164Z"/><path class="cls-6" d="M12.6,97.09c0-43.82,25.47-79.47,56.78-79.47q1.14,0,2.28.06a43.72,43.72,0,0,1,21.22,7.08,55.12,55.12,0,0,1,5.19,3.79,62.35,62.35,0,0,1,8.79,8.93c1.4,1.73,2.73,3.54,4,5.45a91.38,91.38,0,0,1,12.93,31.63q.93,4.38,1.49,9c.42,3.36.68,6.8.78,10.3v3.27A115.24,115.24,0,0,1,125,112.55a101.68,101.68,0,0,1-3.3,15.24c-8.9,29.57-29.43,48.67-52.32,48.67-.78,0-1.55,0-2.32-.07a41.62,41.62,0,0,1-7.36-1.08,43.63,43.63,0,0,1-6.41-2.09c-8.48-3.48-16.22-9.68-22.64-18.05-1.33-1.77-2.63-3.63-3.89-5.6a85.54,85.54,0,0,1-6.38-12.32c-1-2.34-1.88-4.77-2.69-7.28-.24-.72-.47-1.45-.69-2.18a104,104,0,0,1-3.35-15.31,111,111,0,0,1-1-12.22C12.61,99.21,12.6,98.15,12.6,97.09Z"/><path class="cls-6" d="M69.32,17.64c31.31,0,56.79,35.63,56.79,79.44v3.19A105.16,105.16,0,0,1,121,130q-1.23,3.73-2.71,7.26a84.91,84.91,0,0,1-6.38,12.31,65,65,0,0,1-3.9,5.59c-6.34,8.29-14,14.55-22.59,18.09A43.75,43.75,0,0,1,79,175.3a40.74,40.74,0,0,1-7.36,1.09c-.78,0-1.55.07-2.33.07a43,43,0,0,1-11-1.49,45.34,45.34,0,0,1-10.93-4.68c-21.13-12.45-34.78-41.2-34.78-73.2,0-1.08,0-2.16.05-3.24.1-3.49.36-6.92.77-10.31.37-3.05.86-6.05,1.49-9a91,91,0,0,1,12.9-31.66q1.9-2.85,4-5.45a61.26,61.26,0,0,1,8.8-8.91,55.3,55.3,0,0,1,5.21-3.78l1.55-1a45.79,45.79,0,0,1,11-4.65,42.47,42.47,0,0,1,8.74-1.4C67.81,17.66,68.57,17.64,69.32,17.64Z"/><g class="cls-7"><path class="cls-4" d="M27.76,43,108,155.19c-6.34,8.25-14,14.49-22.54,18-.4.16-.79.32-1.2.47L14.61,76.21,15,74.54A91.07,91.07,0,0,1,27.76,43Z"/><path class="cls-4" d="M69.18,17.64,126.11,97.3v3a105.61,105.61,0,0,1-4.72,28.61L46.63,24.31l.79-.48a45.71,45.71,0,0,1,10.9-4.74,42.47,42.47,0,0,1,8.74-1.4C67.77,17.66,68.48,17.64,69.18,17.64Z"/><path class="cls-4" d="M41.13,28.09,118.6,136.51l-.3.71a84.35,84.35,0,0,1-6.3,12.16L31.92,37.32a61.71,61.71,0,0,1,8.7-8.78Z"/><path class="cls-4" d="M13.17,85.77l64.25,89.88a41.39,41.39,0,0,1-5.77.74c-.7,0-1.41.06-2.12.07L12.6,96.81c0-1,0-2,.05-3C12.72,91.09,12.9,88.42,13.17,85.77Z"/></g><path class="cls-8" d="M35.29,74.47c-3.11,3.34-9.06,3.59-9.06,3.59s5.95.25,9.06,3.59,3.45,9.89,3.45,9.89.31-6.5,3.46-9.89,9-3.59,9-3.59-5.94-.25-9-3.59-3.46-9.88-3.46-9.88S38.43,71.09,35.29,74.47Z"/><path class="cls-9" d="M12.6,97.09c0-43.81,25.47-79.46,56.78-79.46q1.14,0,2.28.06a5,5,0,0,1,.55,0c-29.95,2.19-53.86,37-53.86,79.4v3.17a113.32,113.32,0,0,0,1,12.21,105.55,105.55,0,0,0,3.4,15.32c.22.73.45,1.46.7,2.18q1.22,3.76,2.69,7.28a83.88,83.88,0,0,0,6.37,12.31,65.15,65.15,0,0,0,3.89,5.61c6.42,8.37,14.16,14.56,22.63,18a41.45,41.45,0,0,0,6.42,2.08,40.86,40.86,0,0,0,6.78,1.05c-1,.07-1.9.1-2.85.1-.78,0-1.55,0-2.32-.06a40.84,40.84,0,0,1-7.37-1.09,41.33,41.33,0,0,1-6.41-2.08c-8.48-3.49-16.21-9.68-22.63-18q-2-2.66-3.9-5.61a84.8,84.8,0,0,1-6.36-12.31c-1-2.34-1.89-4.77-2.7-7.28-.24-.72-.47-1.45-.69-2.18a104,104,0,0,1-3.35-15.31,110.82,110.82,0,0,1-1-12.21C12.61,99.21,12.6,98.15,12.6,97.09Z"/><path class="cls-9" d="M78.37.82a50.29,50.29,0,0,0-9-.81H101a50.29,50.29,0,0,1,9,.81,55.84,55.84,0,0,1,22.09,9.48c1.89,1.35,3.75,2.8,5.54,4.37a77,77,0,0,1,9.53,10q2.28,2.85,4.39,6,1.53,2.3,3,4.73a111.85,111.85,0,0,1,11.83,29.18c.78,3,1.44,6.16,2,9.33.6,3.44,1.08,7,1.41,10.54s.53,7.19.57,10.87v1.77q0,6.33-.57,12.49c-.19,2.12-.43,4.21-.71,6.29A124,124,0,0,1,165,134.63,115.54,115.54,0,0,1,159.62,149c-7.24,15.83-17.62,28.55-29.88,36.38a62.69,62.69,0,0,1-5.52,3.14,57.77,57.77,0,0,1-5.9,2.52A50.87,50.87,0,0,1,101,194.09H69.38a50.29,50.29,0,0,0,9-.81A53.22,53.22,0,0,0,86.7,191a57.77,57.77,0,0,0,5.9-2.52,61.44,61.44,0,0,0,5.53-3.14c12.28-7.84,22.64-20.55,29.82-36.38a111.33,111.33,0,0,0,5.38-14.37,121.3,121.3,0,0,0,4.11-18.75c.29-2.08.52-4.17.72-6.29.37-4.11.57-8.27.57-12.49V95.31c0-3.68-.24-7.3-.57-10.87s-.81-7.1-1.41-10.54c-.56-3.17-1.22-6.29-2-9.33a111.48,111.48,0,0,0-11.82-29.18q-1.43-2.43-3-4.73-2.1-3.14-4.38-6a77,77,0,0,0-9.53-10,68.76,68.76,0,0,0-5.55-4.37A55.66,55.66,0,0,0,78.37.82Z"/><path class="cls-2" d="M92.58,188.52a61.44,61.44,0,0,0,5.53-3.14c12.28-7.84,22.64-20.55,29.82-36.38a111.33,111.33,0,0,0,5.38-14.37,121.3,121.3,0,0,0,4.11-18.75c.29-2.08.52-4.17.72-6.29.37-4.11.57-8.27.57-12.49V95.31h31.63v1.78q0,6.33-.57,12.49c-.19,2.12-.43,4.21-.71,6.29A123.92,123.92,0,0,1,165,134.63,115.54,115.54,0,0,1,159.62,149c-7.24,15.83-17.62,28.55-29.88,36.38a62.69,62.69,0,0,1-5.52,3.14Z"/><path class="cls-1" d="M135.26,181.41c9.87-7.86,18.23-19,24.31-32.41H127.93c-6.07,13.39-14.43,24.54-24.3,32.41Z"/><path class="cls-2" d="M69.38,0H101a50.29,50.29,0,0,1,9,.81,55.84,55.84,0,0,1,22.09,9.48c1.89,1.35,3.75,2.8,5.54,4.37a77,77,0,0,1,9.53,10q2.28,2.85,4.39,6,1.53,2.3,3,4.73H122.89q-1.42-2.43-3-4.73-2.1-3.14-4.38-6a77,77,0,0,0-9.53-10,68.76,68.76,0,0,0-5.55-4.37A55.78,55.78,0,0,0,78.34.82,49.93,49.93,0,0,0,69.38,0Z"/><path class="cls-8" d="M105.46,171.93c6,6,6.49,17.61,6.49,17.61s.45-11.57,6.49-17.61,17.84-6.73,17.84-6.73-11.72-.6-17.84-6.72S112,140.87,112,140.87s-.45,11.56-6.49,17.61-17.84,6.72-17.84,6.72S99.34,165.81,105.46,171.93Z"/></g></g></g></g></g></svg>