<svg width="226" height="29" viewBox="0 0 226 29" fill="none" xmlns="http://www.w3.org/2000/svg">
<path d="M26.6645 12.4195H13.1835C12.631 12.4195 12.2627 12.751 12.2627 13.3403V15.7345C12.2627 16.3238 12.631 16.6553 13.1835 16.6553H22.4655C21.6183 20.5228 18.2665 23.3958 14.1412 23.3958C9.27916 23.3958 5.44849 19.4915 5.44849 14.3717C5.44849 9.39917 9.50016 5.3475 14.4358 5.3475C16.83 5.3475 18.8927 6.37883 20.7712 7.92583C21.25 8.331 21.7657 8.29416 22.134 7.81533L23.7915 5.7895C24.1967 5.31066 24.1967 4.83183 23.7178 4.38983C20.9922 1.88516 17.8982 0.52233 14.4358 0.52233C6.81133 0.52233 0.623327 6.74716 0.623327 14.3717C0.623327 21.9593 6.36933 28.221 14.1412 28.221C21.4342 28.221 27.3275 22.4382 27.6222 14.961V13.3772C27.6222 12.7878 27.2907 12.4195 26.6645 12.4195ZM45.8159 23.1748H36.5339V16.4712H45.1529C45.7422 16.4712 46.1106 16.1397 46.1106 15.5503V13.1562C46.1106 12.5668 45.7422 12.2353 45.1529 12.2353H36.5339V5.5685H45.8159C46.4052 5.5685 46.7736 5.237 46.7736 4.61083V1.701C46.7736 1.11166 46.4052 0.743331 45.8159 0.743331H32.6664C32.0771 0.743331 31.7087 1.11166 31.7087 1.701V27.0423C31.7087 27.6317 32.0771 28 32.6664 28H45.8159C46.4052 28 46.7736 27.6317 46.7736 27.0423V24.1325C46.7736 23.5063 46.4052 23.1748 45.8159 23.1748ZM65.9776 0.743331H50.876C50.2866 0.743331 49.9183 1.11166 49.9183 1.701V4.61083C49.9183 5.237 50.2866 5.5685 50.876 5.5685H56.0326V27.0423C56.0326 27.6317 56.3641 28 56.9903 28H59.8633C60.4895 28 60.821 27.6317 60.821 27.0423V5.5685H65.9776C66.6038 5.5685 66.9353 5.237 66.9353 4.61083V1.701C66.9353 1.11166 66.6038 0.743331 65.9776 0.743331ZM103.131 0.743331H99.8164C99.3007 0.743331 98.9692 0.96433 98.7851 1.48L92.5234 19.0863L86.2249 1.48C86.0407 0.96433 85.7092 0.743331 85.1567 0.743331H81.9154C81.2156 0.743331 80.9577 1.1485 81.1787 1.8115L90.4607 27.2633C90.6449 27.779 91.0132 28 91.5289 28H93.5179C94.0336 28 94.4019 27.779 94.5861 27.2633L103.868 1.8115C104.089 1.1485 103.794 0.743331 103.131 0.743331ZM121.87 23.1748H112.588V16.4712H121.207C121.796 16.4712 122.165 16.1397 122.165 15.5503V13.1562C122.165 12.5668 121.796 12.2353 121.207 12.2353H112.588V5.5685H121.87C122.459 5.5685 122.828 5.237 122.828 4.61083V1.701C122.828 1.11166 122.459 0.743331 121.87 0.743331H108.72C108.131 0.743331 107.763 1.11166 107.763 1.701V27.0423C107.763 27.6317 108.131 28 108.72 28H121.87C122.459 28 122.828 27.6317 122.828 27.0423V24.1325C122.828 23.5063 122.459 23.1748 121.87 23.1748ZM144.536 26.895L138.422 16.508C141.405 15.2925 143.468 12.3458 143.468 8.92033C143.468 4.42666 139.822 0.743331 135.291 0.743331H127.851C127.225 0.743331 126.856 1.11166 126.856 1.701V27.0423C126.856 27.6317 127.225 28 127.851 28H130.761C131.35 28 131.718 27.6317 131.718 27.0423V17.1342H133.486L139.343 27.337C139.601 27.8158 139.969 28 140.448 28H143.91C144.647 28 144.905 27.5212 144.536 26.895ZM131.718 5.5685H135.291C137.17 5.5685 138.68 7.07866 138.68 8.92033C138.68 10.8357 137.17 12.309 135.291 12.309H131.718V5.5685ZM148.398 27.0423V1.701C148.398 1.11166 148.766 0.743331 149.355 0.743331H152.191C152.818 0.743331 153.149 1.11166 153.149 1.701V27.0423C153.149 27.6317 152.818 28 152.191 28H149.355C148.766 28 148.398 27.6317 148.398 27.0423ZM162.246 27.0423V16.4712H170.238C170.828 16.4712 171.196 16.1397 171.196 15.5503V13.1562C171.196 12.5668 170.828 12.2353 170.238 12.2353H162.246V5.5685H170.901C171.491 5.5685 171.859 5.237 171.859 4.61083V1.701C171.859 1.11166 171.491 0.743331 170.901 0.743331H158.378C157.789 0.743331 157.42 1.11166 157.42 1.701V27.0423C157.42 27.6317 157.789 28 158.378 28H161.288C161.877 28 162.246 27.6317 162.246 27.0423ZM175.58 27.0423V1.701C175.58 1.11166 175.948 0.743331 176.537 0.743331H179.373C180 0.743331 180.331 1.11166 180.331 1.701V27.0423C180.331 27.6317 180 28 179.373 28H176.537C175.948 28 175.58 27.6317 175.58 27.0423ZM198.71 23.1748H189.428V16.4712H198.047C198.636 16.4712 199.004 16.1397 199.004 15.5503V13.1562C199.004 12.5668 198.636 12.2353 198.047 12.2353H189.428V5.5685H198.71C199.299 5.5685 199.667 5.237 199.667 4.61083V1.701C199.667 1.11166 199.299 0.743331 198.71 0.743331H185.56C184.971 0.743331 184.602 1.11166 184.602 1.701V27.0423C184.602 27.6317 184.971 28 185.56 28H198.71C199.299 28 199.667 27.6317 199.667 27.0423V24.1325C199.667 23.5063 199.299 23.1748 198.71 23.1748ZM211.983 0.743331H204.69C204.101 0.743331 203.733 1.11166 203.733 1.701V27.0423C203.733 27.6317 204.101 28 204.69 28H211.983C219.497 28 225.612 21.8857 225.612 14.3717C225.612 6.85767 219.497 0.743331 211.983 0.743331ZM211.983 23.1748H208.558V5.5685H211.983C216.809 5.5685 220.75 9.50966 220.75 14.3717C220.75 19.2337 216.809 23.1748 211.983 23.1748Z" fill="url(#paint0_linear)"/>
<defs>
<linearGradient id="paint0_linear" x1="-1" y1="33" x2="226.971" y2="33.1707" gradientUnits="userSpaceOnUse">
<stop stop-color="#C71CB8"/>
<stop offset="1" stop-color="#FE139C"/>
</linearGradient>
</defs>
</svg>
