<svg width="122" height="120" viewBox="0 0 122 120" fill="none" xmlns="http://www.w3.org/2000/svg">
<rect x="1" width="120" height="120" rx="10" fill="url(#paint0_linear)"/>
<path d="M21.1626 41.2502C15.9215 41.2502 11.6401 45.5316 11.6401 50.7727C11.6401 56.0138 15.9215 60.2953 21.1626 60.2953C26.4037 60.2953 30.6852 56.0138 30.6852 50.7727C30.6852 45.5316 26.4037 41.2502 21.1626 41.2502ZM21.1626 46.1222C23.7462 46.1222 25.8132 48.1891 25.8132 50.7727C25.8132 53.3564 23.7462 55.4602 21.1626 55.4602C18.579 55.4602 16.4752 53.3564 16.4752 50.7727C16.4752 48.1891 18.579 46.1222 21.1626 46.1222ZM42.1247 41.2502C40.4638 41.2502 38.9505 41.7669 37.6218 42.7265V42.3944C37.6218 41.8407 37.3265 41.5455 36.8098 41.5455H34.7798C34.1892 41.5455 33.8201 41.9145 33.8201 42.5051V59.0404C33.8201 59.6309 34.1892 60 34.7798 60H37.6587C38.2492 60 38.6183 59.6309 38.6183 59.0404V49.2225C38.6183 47.4878 40.0578 46.0484 41.7925 46.0484C43.5641 46.0484 44.9667 47.4878 44.9667 49.2225V59.0404C44.9667 59.6309 45.3358 60 45.9263 60H48.8421C49.4327 60 49.8018 59.6309 49.8018 59.0404V49.2225C49.8018 44.8304 46.4061 41.2502 42.1247 41.2502ZM60.1894 55.1649H59.7834C58.713 55.1649 57.9748 54.4267 57.9748 53.1718V35.1233C57.9748 34.5327 57.6057 34.1636 57.0152 34.1636H54.0994C53.5088 34.1636 53.1397 34.5327 53.1397 35.1233V53.098C53.1397 57.9331 55.1697 60 59.6726 60H60.0048C60.5954 60 60.9645 59.6309 60.9645 59.0404V56.1245C60.9645 55.4971 60.743 55.1649 60.1894 55.1649ZM69.2344 37.4116C69.2344 39.1095 68.0902 40.2536 66.3924 40.2536C64.916 40.2536 63.5873 39.1095 63.5873 37.4116C63.5873 35.9722 64.916 34.6434 66.3924 34.6434C68.0902 34.6434 69.2344 35.9722 69.2344 37.4116ZM67.8318 60H64.9898C64.3993 60 64.0302 59.6309 64.0302 59.0404V42.5051C64.0302 41.9145 64.3993 41.5455 64.9898 41.5455H67.8318C68.4224 41.5455 68.7915 41.9145 68.7915 42.5051V59.0404C68.7915 59.6309 68.4224 60 67.8318 60ZM80.7999 41.2502C79.139 41.2502 77.6257 41.7669 76.297 42.7265V42.3944C76.297 41.8407 76.0017 41.5455 75.485 41.5455H73.455C72.8645 41.5455 72.4954 41.9145 72.4954 42.5051V59.0404C72.4954 59.6309 72.8645 60 73.455 60H76.3339C76.9245 60 77.2936 59.6309 77.2936 59.0404V49.2225C77.2936 47.4878 78.733 46.0484 80.4677 46.0484C82.2394 46.0484 83.6419 47.4878 83.6419 49.2225V59.0404C83.6419 59.6309 84.011 60 84.6016 60H87.5174C88.1079 60 88.477 59.6309 88.477 59.0404V49.2225C88.477 44.8304 85.0814 41.2502 80.7999 41.2502ZM110.159 51.3264C109.79 45.1256 105.914 41.2502 100.784 41.2502C95.469 41.2502 91.2983 45.3471 91.2983 50.5882C91.2983 55.8662 95.5059 60.2953 101.116 60.2953C103.294 60.2953 105.877 59.6309 108.24 57.7855C108.756 57.4164 108.793 56.9365 108.387 56.4198L106.763 54.5005C106.394 54.0207 105.951 53.9838 105.434 54.2791C104.327 55.0542 102.851 55.7555 101.19 55.7555C99.1968 55.7555 97.1299 54.6482 96.2441 52.286H109.199C109.827 52.286 110.196 51.9538 110.159 51.3264ZM96.281 48.5951C96.6501 46.6389 98.4586 45.2364 100.673 45.2364C102.962 45.2364 104.586 46.7865 104.955 48.5951H96.281ZM26.2899 82.1649H25.8839C24.8136 82.1649 24.0754 81.4267 24.0754 80.1718V62.1233C24.0754 61.5327 23.7063 61.1636 23.1158 61.1636H20.1999C19.6094 61.1636 19.2403 61.5327 19.2403 62.1233V80.098C19.2403 84.9331 21.2703 87 25.7732 87H26.1054C26.6959 87 27.065 86.6309 27.065 86.0404V83.1245C27.065 82.4971 26.8436 82.1649 26.2899 82.1649ZM38.5899 68.2502C33.3488 68.2502 29.0674 72.5316 29.0674 77.7727C29.0674 83.0138 33.3488 87.2953 38.5899 87.2953C43.831 87.2953 48.1124 83.0138 48.1124 77.7727C48.1124 72.5316 43.831 68.2502 38.5899 68.2502ZM38.5899 73.1222C41.1735 73.1222 43.2404 75.1891 43.2404 77.7727C43.2404 80.3564 41.1735 82.4602 38.5899 82.4602C36.0063 82.4602 33.9024 80.3564 33.9024 77.7727C33.9024 75.1891 36.0063 73.1222 38.5899 73.1222ZM60.6223 82.1649H58.3709C57.0421 82.1649 56.0825 81.1684 56.0825 79.8396V72.7531H60.8069C61.3974 72.7531 61.7296 72.4209 61.7296 71.8304V69.4682C61.7296 68.8776 61.3974 68.5455 60.8069 68.5455H56.0825V63.6365C56.0825 63.046 55.7134 62.6769 55.1229 62.6769H52.207C51.6165 62.6769 51.2474 63.046 51.2474 63.6365V79.8027C51.2474 84.564 53.9418 87 58.2232 87H60.6223C61.2498 87 61.582 86.6309 61.582 86.0404V83.1245C61.582 82.4971 61.2498 82.1649 60.6223 82.1649ZM73.8865 82.1649H71.6351C70.3063 82.1649 69.3467 81.1684 69.3467 79.8396V72.7531H74.0711C74.6616 72.7531 74.9938 72.4209 74.9938 71.8304V69.4682C74.9938 68.8776 74.6616 68.5455 74.0711 68.5455H69.3467V63.6365C69.3467 63.046 68.9776 62.6769 68.3871 62.6769H65.4713C64.8807 62.6769 64.5116 63.046 64.5116 63.6365V79.8027C64.5116 84.564 67.206 87 71.4874 87H73.8865C74.514 87 74.8462 86.6309 74.8462 86.0404V83.1245C74.8462 82.4971 74.514 82.1649 73.8865 82.1649ZM86.5645 68.2502C81.3234 68.2502 77.042 72.5316 77.042 77.7727C77.042 83.0138 81.3234 87.2953 86.5645 87.2953C91.8056 87.2953 96.0871 83.0138 96.0871 77.7727C96.0871 72.5316 91.8056 68.2502 86.5645 68.2502ZM86.5645 73.1222C89.1482 73.1222 91.2151 75.1891 91.2151 77.7727C91.2151 80.3564 89.1482 82.4602 86.5645 82.4602C83.9809 82.4602 81.8771 80.3564 81.8771 77.7727C81.8771 75.1891 83.9809 73.1222 86.5645 73.1222ZM103.152 84.4164C103.152 85.8189 101.971 87 100.531 87C99.1286 87 97.9475 85.8189 97.9475 84.4164C97.9475 82.9769 99.1286 81.8327 100.531 81.8327C101.971 81.8327 103.152 82.9769 103.152 84.4164Z" fill="white"/>
<defs>
<linearGradient id="paint0_linear" x1="1" y1="120" x2="120.985" y2="120.015" gradientUnits="userSpaceOnUse">
<stop stop-color="#C71CB8"/>
<stop offset="1" stop-color="#FE139C"/>
</linearGradient>
</defs>
</svg>
