<svg width="150" height="26" viewBox="0 0 150 26" fill="none" xmlns="http://www.w3.org/2000/svg">
<path d="M7.68753 0.284483H1.10284C0.570743 0.284483 0.238183 0.617043 0.238183 1.14914V24.0293C0.238183 24.5614 0.570743 24.8939 1.10284 24.8939H7.68753C14.4718 24.8939 19.9922 19.3734 19.9922 12.5892C19.9922 5.80498 14.4718 0.284483 7.68753 0.284483ZM7.68753 20.5374H4.59472V4.64102H7.68753C12.0441 4.64102 15.6025 8.19941 15.6025 12.5892C15.6025 16.979 12.0441 20.5374 7.68753 20.5374ZM36.0285 20.5374H27.648V14.4848H35.4299C35.962 14.4848 36.2945 14.1855 36.2945 13.6534V11.4918C36.2945 10.9597 35.962 10.6604 35.4299 10.6604H27.648V4.64102H36.0285C36.5606 4.64102 36.8931 4.34171 36.8931 3.77636V1.14914C36.8931 0.617043 36.5606 0.284483 36.0285 0.284483H24.1561C23.624 0.284483 23.2914 0.617043 23.2914 1.14914V24.0293C23.2914 24.5614 23.624 24.8939 24.1561 24.8939H36.0285C36.5606 24.8939 36.8931 24.5614 36.8931 24.0293V21.402C36.8931 20.8367 36.5606 20.5374 36.0285 20.5374ZM52.403 25.0935C45.4857 25.0935 39.8987 19.4732 39.8987 12.5892C39.8987 5.70521 45.519 0.0849456 52.3365 0.0849456C55.5623 0.0849456 58.4223 1.31542 60.8832 3.61008C61.3156 3.9759 61.3156 4.37497 60.983 4.84055L59.4865 6.66963C59.1207 7.10196 58.6883 7.13522 58.256 6.7694C56.5267 5.37265 54.6311 4.44148 52.3697 4.44148C47.9134 4.44148 44.222 8.09964 44.222 12.5892C44.222 17.0788 47.9134 20.7369 52.3697 20.7369C54.5313 20.7369 56.56 19.9055 58.256 18.5088C58.6883 18.1097 59.1207 18.143 59.4532 18.6085L61.0163 20.6372C61.3488 21.0695 61.3156 21.4686 60.8832 21.8344C58.5886 23.863 55.6288 25.0935 52.403 25.0935ZM77.3152 24.8939H66.0081C65.476 24.8939 65.1435 24.5614 65.1435 24.0293V1.14914C65.1435 0.617043 65.476 0.284483 66.0081 0.284483H68.6353C69.1674 0.284483 69.5 0.617043 69.5 1.14914V20.5374H77.3152C77.8805 20.5374 78.2131 20.8367 78.2131 21.402V24.0293C78.2131 24.5614 77.8805 24.8939 77.3152 24.8939ZM81.3442 24.0293V1.14914C81.3442 0.617043 81.6767 0.284483 82.2088 0.284483H84.7695C85.3349 0.284483 85.6342 0.617043 85.6342 1.14914V24.0293C85.6342 24.5614 85.3349 24.8939 84.7695 24.8939H82.2088C81.6767 24.8939 81.3442 24.5614 81.3442 24.0293ZM104.29 1.14914V16.7795L93.1821 0.816578C92.916 0.417505 92.5834 0.284483 92.1511 0.284483H90.3553C89.8232 0.284483 89.4906 0.617043 89.4906 1.14914V24.0293C89.4906 24.5614 89.8232 24.8939 90.3553 24.8939H92.9825C93.5146 24.8939 93.8472 24.5614 93.8472 24.0293V8.46546L104.888 24.3618C105.121 24.7609 105.454 24.8939 105.886 24.8939H107.748C108.314 24.8939 108.646 24.5614 108.646 24.0293V1.14914C108.646 0.617043 108.314 0.284483 107.748 0.284483H105.154C104.622 0.284483 104.29 0.617043 104.29 1.14914ZM125.183 20.5374H116.803V14.4848H124.585C125.117 14.4848 125.45 14.1855 125.45 13.6534V11.4918C125.45 10.9597 125.117 10.6604 124.585 10.6604H116.803V4.64102H125.183C125.716 4.64102 126.048 4.34171 126.048 3.77636V1.14914C126.048 0.617043 125.716 0.284483 125.183 0.284483H113.311C112.779 0.284483 112.446 0.617043 112.446 1.14914V24.0293C112.446 24.5614 112.779 24.8939 113.311 24.8939H125.183C125.716 24.8939 126.048 24.5614 126.048 24.0293V21.402C126.048 20.8367 125.716 20.5374 125.183 20.5374ZM137.168 0.284483H130.584C130.051 0.284483 129.719 0.617043 129.719 1.14914V24.0293C129.719 24.5614 130.051 24.8939 130.584 24.8939H137.168C143.952 24.8939 149.473 19.3734 149.473 12.5892C149.473 5.80498 143.952 0.284483 137.168 0.284483ZM137.168 20.5374H134.075V4.64102H137.168C141.525 4.64102 145.083 8.19941 145.083 12.5892C145.083 16.979 141.525 20.5374 137.168 20.5374Z" fill="url(#paint0_linear)"/>
<defs>
<linearGradient id="paint0_linear" x1="-51" y1="29.1062" x2="199.968" y2="29.3334" gradientUnits="userSpaceOnUse">
<stop stop-color="#C71CB8"/>
<stop offset="1" stop-color="#FE139C"/>
</linearGradient>
</defs>
</svg>
