<svg width="248" height="26" viewBox="0 0 248 26" fill="none" xmlns="http://www.w3.org/2000/svg">
<path d="M7.76383 0.284453H1.04611C0.514019 0.284453 0.181459 0.617012 0.181459 1.14911V24.0292C0.181459 24.5613 0.514019 24.8939 1.04611 24.8939H3.67334C4.20543 24.8939 4.53799 24.5613 4.53799 24.0292V15.1166H7.76383C11.8876 15.1166 15.2132 11.7578 15.2132 7.66728C15.2132 3.61005 11.8876 0.284453 7.76383 0.284453ZM7.76383 10.7268H4.53799V4.64099H7.76383C9.49314 4.64099 10.8234 6.00448 10.8234 7.66728C10.8234 9.3966 9.49314 10.7268 7.76383 10.7268ZM30.8373 1.14911V10.6603H22.5566V1.14911C22.5566 0.617012 22.224 0.284453 21.6919 0.284453H19.098C18.5659 0.284453 18.2333 0.617012 18.2333 1.14911V24.0292C18.2333 24.5613 18.5659 24.8939 19.098 24.8939H21.6919C22.224 24.8939 22.5566 24.5613 22.5566 24.0292V14.518H30.8373V24.0292C30.8373 24.5613 31.1699 24.8939 31.702 24.8939H34.296C34.828 24.8939 35.1606 24.5613 35.1606 24.0292V1.14911C35.1606 0.617012 34.828 0.284453 34.296 0.284453H31.702C31.1699 0.284453 30.8373 0.617012 30.8373 1.14911ZM51.0186 0.0849151C44.1346 0.0849151 38.5143 5.67192 38.5143 12.5892C38.5143 19.5064 44.1346 25.0934 51.0186 25.0934C57.9358 25.0934 63.5229 19.5064 63.5229 12.5892C63.5229 5.67192 57.9358 0.0849151 51.0186 0.0849151ZM50.9853 4.40819C55.4416 4.40819 59.1663 8.13287 59.1663 12.5892C59.1663 17.0455 55.4416 20.7369 50.9853 20.7369C46.4958 20.7369 42.8709 17.0787 42.8709 12.5892C42.8709 8.06635 46.4958 4.40819 50.9853 4.40819ZM81.8343 1.14911V16.7794L70.7267 0.816548C70.4607 0.417475 70.1281 0.284453 69.6958 0.284453H67.9C67.3679 0.284453 67.0353 0.617012 67.0353 1.14911V24.0292C67.0353 24.5613 67.3679 24.8939 67.9 24.8939H70.5272C71.0593 24.8939 71.3919 24.5613 71.3919 24.0292V8.46543L82.4329 24.3618C82.6657 24.7609 82.9982 24.8939 83.4305 24.8939H85.2929C85.8582 24.8939 86.1908 24.5613 86.1908 24.0292V1.14911C86.1908 0.617012 85.8582 0.284453 85.2929 0.284453H82.6989C82.1668 0.284453 81.8343 0.617012 81.8343 1.14911ZM102.728 20.5374H94.3477V14.4848H102.13C102.662 14.4848 102.994 14.1855 102.994 13.6534V11.4917C102.994 10.9596 102.662 10.6603 102.13 10.6603H94.3477V4.64099H102.728C103.26 4.64099 103.593 4.34168 103.593 3.77633V1.14911C103.593 0.617012 103.26 0.284453 102.728 0.284453H90.8558C90.3237 0.284453 89.9911 0.617012 89.9911 1.14911V24.0292C89.9911 24.5613 90.3237 24.8939 90.8558 24.8939H102.728C103.26 24.8939 103.593 24.5613 103.593 24.0292V21.402C103.593 20.8367 103.26 20.5374 102.728 20.5374ZM136.945 0.284453H133.952C133.486 0.284453 133.187 0.483988 133.021 0.949572L127.367 16.8459L121.68 0.949572C121.514 0.483988 121.215 0.284453 120.716 0.284453H117.789C117.158 0.284453 116.925 0.650268 117.124 1.24888L125.505 24.2288C125.671 24.6944 126.004 24.8939 126.469 24.8939H128.265C128.731 24.8939 129.063 24.6944 129.229 24.2288L137.61 1.24888C137.81 0.650268 137.543 0.284453 136.945 0.284453ZM153.863 20.5374H145.483V14.4848H153.265C153.797 14.4848 154.129 14.1855 154.129 13.6534V11.4917C154.129 10.9596 153.797 10.6603 153.265 10.6603H145.483V4.64099H153.863C154.395 4.64099 154.728 4.34168 154.728 3.77633V1.14911C154.728 0.617012 154.395 0.284453 153.863 0.284453H141.991C141.459 0.284453 141.126 0.617012 141.126 1.14911V24.0292C141.126 24.5613 141.459 24.8939 141.991 24.8939H153.863C154.395 24.8939 154.728 24.5613 154.728 24.0292V21.402C154.728 20.8367 154.395 20.5374 153.863 20.5374ZM174.328 23.8962L168.808 14.518C171.502 13.4206 173.364 10.7601 173.364 7.66728C173.364 3.61005 170.072 0.284453 165.981 0.284453H159.263C158.698 0.284453 158.366 0.617012 158.366 1.14911V24.0292C158.366 24.5613 158.698 24.8939 159.263 24.8939H161.891C162.423 24.8939 162.755 24.5613 162.755 24.0292V15.0834H164.352L169.639 24.2953C169.872 24.7276 170.205 24.8939 170.637 24.8939H173.763C174.428 24.8939 174.661 24.4616 174.328 23.8962ZM162.755 4.64099H165.981C167.677 4.64099 169.041 6.00448 169.041 7.66728C169.041 9.3966 167.677 10.7268 165.981 10.7268H162.755V4.64099ZM177.815 24.0292V1.14911C177.815 0.617012 178.147 0.284453 178.679 0.284453H181.24C181.805 0.284453 182.105 0.617012 182.105 1.14911V24.0292C182.105 24.5613 181.805 24.8939 181.24 24.8939H178.679C178.147 24.8939 177.815 24.5613 177.815 24.0292ZM190.318 24.0292V14.4848H197.534C198.066 14.4848 198.399 14.1855 198.399 13.6534V11.4917C198.399 10.9596 198.066 10.6603 197.534 10.6603H190.318V4.64099H198.133C198.665 4.64099 198.997 4.34168 198.997 3.77633V1.14911C198.997 0.617012 198.665 0.284453 198.133 0.284453H186.826C186.294 0.284453 185.961 0.617012 185.961 1.14911V24.0292C185.961 24.5613 186.294 24.8939 186.826 24.8939H189.453C189.985 24.8939 190.318 24.5613 190.318 24.0292ZM202.357 24.0292V1.14911C202.357 0.617012 202.689 0.284453 203.221 0.284453H205.782C206.347 0.284453 206.647 0.617012 206.647 1.14911V24.0292C206.647 24.5613 206.347 24.8939 205.782 24.8939H203.221C202.689 24.8939 202.357 24.5613 202.357 24.0292ZM223.24 20.5374H214.86V14.4848H222.642C223.174 14.4848 223.506 14.1855 223.506 13.6534V11.4917C223.506 10.9596 223.174 10.6603 222.642 10.6603H214.86V4.64099H223.24C223.772 4.64099 224.105 4.34168 224.105 3.77633V1.14911C224.105 0.617012 223.772 0.284453 223.24 0.284453H211.368C210.836 0.284453 210.503 0.617012 210.503 1.14911V24.0292C210.503 24.5613 210.836 24.8939 211.368 24.8939H223.24C223.772 24.8939 224.105 24.5613 224.105 24.0292V21.402C224.105 20.8367 223.772 20.5374 223.24 20.5374ZM235.225 0.284453H228.64C228.108 0.284453 227.776 0.617012 227.776 1.14911V24.0292C227.776 24.5613 228.108 24.8939 228.64 24.8939H235.225C242.009 24.8939 247.53 19.3734 247.53 12.5892C247.53 5.80495 242.009 0.284453 235.225 0.284453ZM235.225 20.5374H232.132V4.64099H235.225C239.581 4.64099 243.14 8.19938 243.14 12.5892C243.14 16.979 239.581 20.5374 235.225 20.5374Z" fill="url(#paint0_linear)"/>
<defs>
<linearGradient id="paint0_linear" x1="-2" y1="29.1061" x2="248.968" y2="29.3353" gradientUnits="userSpaceOnUse">
<stop stop-color="#C71CB8"/>
<stop offset="1" stop-color="#FE139C"/>
</linearGradient>
</defs>
</svg>
