<svg width="157" height="76" viewBox="0 0 157 76" fill="none" xmlns="http://www.w3.org/2000/svg">
<g filter="url(#filter0_d)">
<path d="M26.7916 0.743331H23.4766C22.9609 0.743331 22.6294 0.96433 22.4453 1.48L16.1836 19.0863L9.8851 1.48C9.70093 0.96433 9.36943 0.743331 8.81693 0.743331H5.5756C4.87577 0.743331 4.61793 1.1485 4.83893 1.8115L14.1209 27.2633C14.3051 27.779 14.6734 28 15.1891 28H17.1781C17.6938 28 18.0621 27.779 18.2463 27.2633L27.5283 1.8115C27.7493 1.1485 27.4546 0.743331 26.7916 0.743331ZM31.4229 27.0423V1.701C31.4229 1.11166 31.7912 0.743331 32.3806 0.743331H35.2167C35.8429 0.743331 36.1744 1.11166 36.1744 1.701V27.0423C36.1744 27.6317 35.8429 28 35.2167 28H32.3806C31.7912 28 31.4229 27.6317 31.4229 27.0423ZM48.8437 0.743331H41.4034C40.8141 0.743331 40.4457 1.11166 40.4457 1.701V27.0423C40.4457 27.6317 40.8141 28 41.4034 28H44.3132C44.9026 28 45.2709 27.6317 45.2709 27.0423V17.171H48.8437C53.4111 17.171 57.0944 13.4508 57.0944 8.92033C57.0944 4.42666 53.4111 0.743331 48.8437 0.743331ZM48.8437 12.309H45.2709V5.5685H48.8437C50.7591 5.5685 52.2324 7.07866 52.2324 8.92033C52.2324 10.8357 50.7591 12.309 48.8437 12.309ZM80.0904 0.743331H72.65C72.0607 0.743331 71.6924 1.11166 71.6924 1.701V27.0423C71.6924 27.6317 72.0607 28 72.65 28H75.5599C76.1492 28 76.5175 27.6317 76.5175 27.0423V17.171H80.0904C84.6577 17.171 88.341 13.4508 88.341 8.92033C88.341 4.42666 84.6577 0.743331 80.0904 0.743331ZM80.0904 12.309H76.5175V5.5685H80.0904C82.0057 5.5685 83.479 7.07866 83.479 8.92033C83.479 10.8357 82.0057 12.309 80.0904 12.309ZM113.231 26.9318L102.954 1.44316C102.77 0.96433 102.402 0.743331 101.886 0.743331H99.6023C99.0867 0.743331 98.7183 0.96433 98.5342 1.44316L88.405 26.9318C88.184 27.5948 88.4418 28 89.1417 28H92.4567C93.0092 28 93.3407 27.779 93.5248 27.2633L95.2192 23.1012H106.453L108.111 27.2633C108.295 27.7422 108.663 27.9632 109.179 27.9632L112.494 28C113.194 28 113.488 27.5948 113.231 26.9318ZM97.1345 18.276L100.855 8.95716L104.538 18.276H97.1345ZM124.451 28.2947C121.909 28.2947 119.441 27.3002 117.01 25.4953C116.421 25.0902 116.31 24.6113 116.605 24.0957L118.078 21.5173C118.41 20.9648 118.852 20.8543 119.404 21.2227C121.172 22.475 122.83 23.0643 124.193 23.0643C126.108 23.0643 127.471 21.8857 127.471 20.2282C127.471 17.7972 124.487 16.7658 121.725 15.3293C118.52 13.5982 116.237 11.3145 116.421 7.74166C116.642 3.32166 120.288 0.374996 124.856 0.52233C126.808 0.559162 128.65 1.22216 130.049 2.06933C130.565 2.364 130.675 2.84283 130.344 3.32166L128.944 5.458C128.613 5.93683 128.208 6.04733 127.655 5.7895C126.734 5.27383 125.703 4.94233 124.672 4.94233C122.756 4.94233 121.357 6.15783 121.357 7.81533C121.357 9.80433 123.603 10.6515 125.85 11.7565C128.244 12.8615 132.664 15.2188 132.664 20.265C132.664 24.7587 129.202 28.2947 124.451 28.2947ZM144.228 28.2947C141.687 28.2947 139.219 27.3002 136.788 25.4953C136.199 25.0902 136.088 24.6113 136.383 24.0957L137.856 21.5173C138.188 20.9648 138.63 20.8543 139.182 21.2227C140.95 22.475 142.608 23.0643 143.971 23.0643C145.886 23.0643 147.249 21.8857 147.249 20.2282C147.249 17.7972 144.265 16.7658 141.503 15.3293C138.298 13.5982 136.015 11.3145 136.199 7.74166C136.42 3.32166 140.066 0.374996 144.634 0.52233C146.586 0.559162 148.427 1.22216 149.827 2.06933C150.343 2.364 150.453 2.84283 150.122 3.32166L148.722 5.458C148.391 5.93683 147.985 6.04733 147.433 5.7895C146.512 5.27383 145.481 4.94233 144.449 4.94233C142.534 4.94233 141.134 6.15783 141.134 7.81533C141.134 9.80433 143.381 10.6515 145.628 11.7565C148.022 12.8615 152.442 15.2188 152.442 20.265C152.442 24.7587 148.98 28.2947 144.228 28.2947ZM19.1396 52.9665C20.3551 51.6037 21.1286 49.762 21.1286 47.7362C21.1286 43.3162 17.5558 39.7433 13.099 39.7433H6.50579C5.91645 39.7433 5.54812 40.1117 5.54812 40.701V66.0423C5.54812 66.6317 5.91645 67 6.50579 67H13.9093C18.3661 67 21.939 63.4272 21.939 58.9703C21.939 56.5762 20.834 54.403 19.1396 52.9665ZM10.1891 44.5685H12.9516C14.6828 44.5685 16.1561 46.005 16.1561 47.773C16.1561 49.5042 14.6828 50.9407 12.9516 50.9407H10.1891V44.5685ZM13.762 62.1748H10.1891V55.8027H13.762C15.4931 55.8027 16.9665 57.2392 16.9665 58.9703C16.9665 60.7383 15.4931 62.1748 13.762 62.1748ZM39.9367 62.1748H30.6547V55.4712H39.2737C39.8631 55.4712 40.2314 55.1397 40.2314 54.5503V52.1562C40.2314 51.5668 39.8631 51.2353 39.2737 51.2353H30.6547V44.5685H39.9367C40.5261 44.5685 40.8944 44.237 40.8944 43.6108V40.701C40.8944 40.1117 40.5261 39.7433 39.9367 39.7433H26.7872C26.1979 39.7433 25.8296 40.1117 25.8296 40.701V66.0423C25.8296 66.6317 26.1979 67 26.7872 67H39.9367C40.5261 67 40.8944 66.6317 40.8944 66.0423V63.1325C40.8944 62.5063 40.5261 62.1748 39.9367 62.1748ZM61.3508 40.701V58.0127L49.0485 40.3327C48.7538 39.8907 48.3855 39.7433 47.9066 39.7433H45.9176C45.3283 39.7433 44.96 40.1117 44.96 40.701V66.0423C44.96 66.6317 45.3283 67 45.9176 67H48.8275C49.4168 67 49.7851 66.6317 49.7851 66.0423V48.8043L62.0138 66.4107C62.2716 66.8527 62.64 67 63.1188 67H65.1815C65.8076 67 66.176 66.6317 66.176 66.0423V40.701C66.176 40.1117 65.8076 39.7433 65.1815 39.7433H62.3085C61.7191 39.7433 61.3508 40.1117 61.3508 40.701ZM84.4923 62.1748H75.2103V55.4712H83.8293C84.4186 55.4712 84.787 55.1397 84.787 54.5503V52.1562C84.787 51.5668 84.4186 51.2353 83.8293 51.2353H75.2103V44.5685H84.4923C85.0816 44.5685 85.45 44.237 85.45 43.6108V40.701C85.45 40.1117 85.0816 39.7433 84.4923 39.7433H71.3428C70.7535 39.7433 70.3851 40.1117 70.3851 40.701V66.0423C70.3851 66.6317 70.7535 67 71.3428 67H84.4923C85.0816 67 85.45 66.6317 85.45 66.0423V63.1325C85.45 62.5063 85.0816 62.1748 84.4923 62.1748ZM94.3407 66.0423V55.4712H102.334C102.923 55.4712 103.291 55.1397 103.291 54.5503V52.1562C103.291 51.5668 102.923 51.2353 102.334 51.2353H94.3407V44.5685H102.997C103.586 44.5685 103.954 44.237 103.954 43.6108V40.701C103.954 40.1117 103.586 39.7433 102.997 39.7433H90.4732C89.8838 39.7433 89.5155 40.1117 89.5155 40.701V66.0423C89.5155 66.6317 89.8838 67 90.4732 67H93.383C93.9723 67 94.3407 66.6317 94.3407 66.0423ZM107.675 66.0423V40.701C107.675 40.1117 108.043 39.7433 108.632 39.7433H111.469C112.095 39.7433 112.426 40.1117 112.426 40.701V66.0423C112.426 66.6317 112.095 67 111.469 67H108.632C108.043 67 107.675 66.6317 107.675 66.0423ZM131.836 39.7433H116.734C116.145 39.7433 115.777 40.1117 115.777 40.701V43.6108C115.777 44.237 116.145 44.5685 116.734 44.5685H121.891V66.0423C121.891 66.6317 122.223 67 122.849 67H125.722C126.348 67 126.679 66.6317 126.679 66.0423V44.5685H131.836C132.462 44.5685 132.794 44.237 132.794 43.6108V40.701C132.794 40.1117 132.462 39.7433 131.836 39.7433ZM143.851 67.2947C141.309 67.2947 138.841 66.3002 136.41 64.4953C135.821 64.0902 135.711 63.6113 136.005 63.0957L137.479 60.5173C137.81 59.9648 138.252 59.8543 138.805 60.2227C140.573 61.475 142.23 62.0643 143.593 62.0643C145.508 62.0643 146.871 60.8857 146.871 59.2282C146.871 56.7972 143.888 55.7658 141.125 54.3293C137.921 52.5982 135.637 50.3145 135.821 46.7417C136.042 42.3217 139.689 39.375 144.256 39.5223C146.208 39.5592 148.05 40.2222 149.449 41.0693C149.965 41.364 150.076 41.8428 149.744 42.3217L148.344 44.458C148.013 44.9368 147.608 45.0473 147.055 44.7895C146.134 44.2738 145.103 43.9423 144.072 43.9423C142.156 43.9423 140.757 45.1578 140.757 46.8153C140.757 48.8043 143.004 49.6515 145.25 50.7565C147.645 51.8615 152.065 54.2188 152.065 59.265C152.065 63.7587 148.602 67.2947 143.851 67.2947Z" fill="url(#paint0_linear)"/>
</g>
<defs>
<filter id="filter0_d" x="0.761963" y="0.517044" width="155.68" height="74.7776" filterUnits="userSpaceOnUse" color-interpolation-filters="sRGB">
<feFlood flood-opacity="0" result="BackgroundImageFix"/>
<feColorMatrix in="SourceAlpha" type="matrix" values="0 0 0 0 0 0 0 0 0 0 0 0 0 0 0 0 0 0 127 0"/>
<feOffset dy="4"/>
<feGaussianBlur stdDeviation="2"/>
<feColorMatrix type="matrix" values="0 0 0 0 0 0 0 0 0 0 0 0 0 0 0 0 0 0 0.25 0"/>
<feBlend mode="normal" in2="BackgroundImageFix" result="effect1_dropShadow"/>
<feBlend mode="normal" in="SourceGraphic" in2="effect1_dropShadow" result="shape"/>
</filter>
<linearGradient id="paint0_linear" x1="154" y1="-6" x2="-4.56562" y2="50.9263" gradientUnits="userSpaceOnUse">
<stop stop-color="#FFB300"/>
<stop offset="1" stop-color="#F57C00"/>
</linearGradient>
</defs>
</svg>
