<svg width="203" height="40" viewBox="0 0 203 40" fill="none" xmlns="http://www.w3.org/2000/svg">
<path d="M75.647 6.74333H72.332C71.8163 6.74333 71.4848 6.96433 71.3007 7.48L65.039 25.0863L58.7405 7.48C58.5563 6.96433 58.2248 6.74333 57.6723 6.74333H54.431C53.7312 6.74333 53.4733 7.1485 53.6943 7.8115L62.9763 33.2633C63.1605 33.779 63.5288 34 64.0445 34H66.0335C66.5492 34 66.9175 33.779 67.1017 33.2633L76.3837 7.8115C76.6047 7.1485 76.31 6.74333 75.647 6.74333ZM80.2783 33.0423V7.701C80.2783 7.11166 80.6466 6.74333 81.236 6.74333H84.0721C84.6983 6.74333 85.0298 7.11166 85.0298 7.701V33.0423C85.0298 33.6317 84.6983 34 84.0721 34H81.236C80.6466 34 80.2783 33.6317 80.2783 33.0423ZM97.6991 6.74333H90.2588C89.6695 6.74333 89.3011 7.11166 89.3011 7.701V33.0423C89.3011 33.6317 89.6695 34 90.2588 34H93.1686C93.758 34 94.1263 33.6317 94.1263 33.0423V23.171H97.6991C102.266 23.171 105.95 19.4508 105.95 14.9203C105.95 10.4267 102.266 6.74333 97.6991 6.74333ZM97.6991 18.309H94.1263V11.5685H97.6991C99.6145 11.5685 101.088 13.0787 101.088 14.9203C101.088 16.8357 99.6145 18.309 97.6991 18.309ZM128.946 6.74333H121.505C120.916 6.74333 120.548 7.11166 120.548 7.701V33.0423C120.548 33.6317 120.916 34 121.505 34H124.415C125.005 34 125.373 33.6317 125.373 33.0423V23.171H128.946C133.513 23.171 137.196 19.4508 137.196 14.9203C137.196 10.4267 133.513 6.74333 128.946 6.74333ZM128.946 18.309H125.373V11.5685H128.946C130.861 11.5685 132.334 13.0787 132.334 14.9203C132.334 16.8357 130.861 18.309 128.946 18.309ZM162.086 32.9318L151.81 7.44316C151.625 6.96433 151.257 6.74333 150.741 6.74333H148.458C147.942 6.74333 147.574 6.96433 147.39 7.44316L137.26 32.9318C137.039 33.5948 137.297 34 137.997 34H141.312C141.865 34 142.196 33.779 142.38 33.2633L144.075 29.1012H155.309L156.966 33.2633C157.15 33.7422 157.519 33.9632 158.034 33.9632L161.349 34C162.049 34 162.344 33.5948 162.086 32.9318ZM145.99 24.276L149.71 14.9572L153.393 24.276H145.99ZM173.306 34.2947C170.764 34.2947 168.297 33.3002 165.866 31.4953C165.276 31.0902 165.166 30.6113 165.46 30.0957L166.934 27.5173C167.265 26.9648 167.707 26.8543 168.26 27.2227C170.028 28.475 171.685 29.0643 173.048 29.0643C174.963 29.0643 176.326 27.8857 176.326 26.2282C176.326 23.7972 173.343 22.7658 170.58 21.3293C167.376 19.5982 165.092 17.3145 165.276 13.7417C165.497 9.32166 169.144 6.375 173.711 6.52233C175.663 6.55916 177.505 7.22216 178.905 8.06933C179.42 8.364 179.531 8.84283 179.199 9.32166L177.8 11.458C177.468 11.9368 177.063 12.0473 176.51 11.7895C175.59 11.2738 174.558 10.9423 173.527 10.9423C171.612 10.9423 170.212 12.1578 170.212 13.8153C170.212 15.8043 172.459 16.6515 174.706 17.7565C177.1 18.8615 181.52 21.2188 181.52 26.265C181.52 30.7587 178.057 34.2947 173.306 34.2947ZM193.084 34.2947C190.542 34.2947 188.074 33.3002 185.643 31.4953C185.054 31.0902 184.944 30.6113 185.238 30.0957L186.712 27.5173C187.043 26.9648 187.485 26.8543 188.038 27.2227C189.806 28.475 191.463 29.0643 192.826 29.0643C194.741 29.0643 196.104 27.8857 196.104 26.2282C196.104 23.7972 193.121 22.7658 190.358 21.3293C187.154 19.5982 184.87 17.3145 185.054 13.7417C185.275 9.32166 188.922 6.375 193.489 6.52233C195.441 6.55916 197.283 7.22216 198.682 8.06933C199.198 8.364 199.309 8.84283 198.977 9.32166L197.577 11.458C197.246 11.9368 196.841 12.0473 196.288 11.7895C195.367 11.2738 194.336 10.9423 193.305 10.9423C191.389 10.9423 189.99 12.1578 189.99 13.8153C189.99 15.8043 192.237 16.6515 194.483 17.7565C196.878 18.8615 201.298 21.2188 201.298 26.265C201.298 30.7587 197.835 34.2947 193.084 34.2947Z" fill="url(#paint0_linear)"/>
<path fill-rule="evenodd" clip-rule="evenodd" d="M27.6499 12.6333L16.6666 23.6167L10.6833 17.65L8.33325 20L16.6666 28.3333L29.9999 15L27.6499 12.6333ZM19.9999 3.33334C10.7999 3.33334 3.33325 10.8 3.33325 20C3.33325 29.2 10.7999 36.6667 19.9999 36.6667C29.1999 36.6667 36.6666 29.2 36.6666 20C36.6666 10.8 29.1999 3.33334 19.9999 3.33334ZM19.9999 33.3333C12.6333 33.3333 6.66659 27.3667 6.66659 20C6.66659 12.6333 12.6333 6.66668 19.9999 6.66668C27.3666 6.66668 33.3333 12.6333 33.3333 20C33.3333 27.3667 27.3666 33.3333 19.9999 33.3333Z" fill="url(#paint1_linear)"/>
<defs>
<linearGradient id="paint0_linear" x1="203" y1="-1.91934e-06" x2="84.8891" y2="84.8055" gradientUnits="userSpaceOnUse">
<stop stop-color="#FFB300"/>
<stop offset="1" stop-color="#F57C00"/>
</linearGradient>
<linearGradient id="paint1_linear" x1="36.6666" y1="3.33335" x2="-0.897774" y2="9.09855" gradientUnits="userSpaceOnUse">
<stop stop-color="#1BEE02"/>
<stop offset="1" stop-color="#00AD45"/>
</linearGradient>
</defs>
</svg>
