<svg width="346" height="149" fill="none" xmlns="http://www.w3.org/2000/svg"><path d="M346 0H0v149h346V0z" fill="url(#paint0_linear)"/><path d="M326 105H20a4 4 0 00-4 4v28a4 4 0 004 4h306a4 4 0 004-4v-28a4 4 0 00-4-4z" fill="#fff"/><path d="M112.582 126.257l2.844-8.21h1.435L113.17 128h-1.162l-3.685-9.953h1.429l2.83 8.21zm8.277 1.743h-1.312v-9.953h1.312V128zm6.589-4.437c-1.125-.323-1.946-.72-2.461-1.189a2.295 2.295 0 01-.765-1.75c0-.784.312-1.431.936-1.941.629-.515 1.445-.773 2.447-.773.684 0 1.292.132 1.826.397.537.264.952.629 1.244 1.093.296.465.444.973.444 1.525H129.8c0-.602-.192-1.073-.574-1.415-.383-.347-.923-.52-1.621-.52-.647 0-1.153.144-1.517.431-.36.282-.54.677-.54 1.183 0 .405.171.749.513 1.032.346.278.932.533 1.756.765.83.233 1.477.49 1.942.773.469.278.816.604 1.039.977.228.374.342.814.342 1.32 0 .806-.315 1.453-.944 1.941-.629.483-1.469.725-2.522.725-.684 0-1.322-.13-1.914-.39-.593-.264-1.051-.624-1.374-1.08a2.642 2.642 0 01-.479-1.552h1.32c0 .602.221 1.078.663 1.429.446.346 1.041.519 1.784.519.693 0 1.223-.141 1.593-.423.369-.283.553-.668.553-1.156 0-.487-.171-.863-.512-1.128-.342-.268-.962-.533-1.86-.793zm8.038 4.437h-1.312v-9.953h1.312V128zm10.328-8.873h-3.199V128h-1.305v-8.873h-3.193v-1.08h7.697v1.08zm13.78 0h-3.199V128h-1.306v-8.873h-3.193v-1.08h7.698v1.08zM169.97 128h-1.32v-4.601h-5.017V128h-1.313v-9.953h1.313v4.279h5.017v-4.279h1.32V128zm9.207-4.601h-4.314v3.528h5.011V128h-6.323v-9.953h6.255v1.08h-4.943v3.199h4.314v1.073zm11.236.164c-1.126-.323-1.946-.72-2.461-1.189a2.295 2.295 0 01-.765-1.75c0-.784.312-1.431.936-1.941.629-.515 1.445-.773 2.447-.773.684 0 1.292.132 1.826.397.537.264.952.629 1.244 1.093.296.465.444.973.444 1.525h-1.319c0-.602-.192-1.073-.575-1.415-.382-.347-.922-.52-1.62-.52-.647 0-1.153.144-1.517.431-.36.282-.54.677-.54 1.183 0 .405.171.749.512 1.032.347.278.932.533 1.757.765.83.233 1.477.49 1.942.773.469.278.815.604 1.039.977.228.374.341.814.341 1.32 0 .806-.314 1.453-.943 1.941-.629.483-1.47.725-2.522.725-.684 0-1.322-.13-1.914-.39-.593-.264-1.051-.624-1.374-1.08a2.642 2.642 0 01-.479-1.552h1.319c0 .602.221 1.078.663 1.429.447.346 1.042.519 1.785.519.692 0 1.223-.141 1.592-.423.37-.283.554-.668.554-1.156 0-.487-.171-.863-.513-1.128-.341-.268-.961-.533-1.859-.793zm13.507-4.436h-3.199V128h-1.306v-8.873h-3.192v-1.08h7.697v1.08zm10.191 4.218c0 .975-.164 1.827-.492 2.556-.328.725-.793 1.279-1.394 1.661-.602.383-1.304.575-2.106.575-.784 0-1.479-.192-2.085-.575-.606-.387-1.078-.936-1.415-1.647-.333-.715-.503-1.543-.513-2.481v-.718c0-.957.167-1.803.499-2.536.333-.734.803-1.295 1.409-1.682.61-.392 1.308-.588 2.091-.588.798 0 1.5.194 2.106.581.611.383 1.08.941 1.408 1.675.328.729.492 1.579.492 2.55v.629zm-1.305-.643c0-1.18-.237-2.085-.711-2.714-.474-.633-1.137-.95-1.99-.95-.829 0-1.483.317-1.961.95-.474.629-.718 1.504-.732 2.625v.732c0 1.144.239 2.044.718 2.7.483.652 1.146.977 1.989.977.848 0 1.504-.307 1.969-.922.465-.62.704-1.507.718-2.66v-.738zm8.174 1.272h-2.337V128h-1.32v-9.953h3.295c1.121 0 1.983.255 2.584.765.606.511.909 1.254.909 2.229 0 .62-.168 1.16-.506 1.62-.332.46-.797.804-1.394 1.032l2.338 4.225V128h-1.408l-2.161-4.026zm-2.337-1.074h2.016c.652 0 1.169-.168 1.552-.505.387-.338.581-.789.581-1.354 0-.615-.185-1.087-.554-1.415-.364-.328-.893-.494-1.586-.499h-2.009v3.773zm14.19.499h-4.313v3.528h5.01V128h-6.323v-9.953h6.255v1.08h-4.942v3.199h4.313v1.073zm4.798 1.791h-1.142l-.089-7.143h1.327l-.096 7.143zm-1.278 2.174c0-.205.061-.376.184-.512.128-.142.315-.212.561-.212.246 0 .433.07.56.212a.718.718 0 01.192.512.722.722 0 01-.192.513c-.127.132-.314.198-.56.198-.246 0-.433-.066-.561-.198a.739.739 0 01-.184-.513z" fill="url(#paint1_linear)"/><path d="M211.654 40.566h-9.18v-7.65h8.568c.442 0 .68-.272.68-.68V30.57c0-.408-.238-.68-.68-.68h-8.568v-7.616h9.18c.442 0 .748-.306.748-.748v-1.938c0-.476-.306-.748-.748-.748h-11.866c-.476 0-.748.272-.748.748v23.664c0 .476.272.748.748.748h11.866c.442 0 .748-.272.748-.748v-1.938c0-.442-.306-.748-.748-.748zm16.454-9.146l7.922-11.764c.306-.476.102-.816-.442-.816h-2.516c-.374 0-.68.17-.85.442l-6.188 9.146-6.222-9.146c-.204-.272-.476-.442-.85-.442h-2.516c-.544 0-.748.34-.442.816l7.922 11.764-7.956 11.764c-.306.476-.068.816.476.816h2.516c.374 0 .646-.136.85-.442l6.222-9.18 6.188 9.18c.17.306.476.442.85.442h2.516c.544 0 .782-.34.476-.816l-7.956-11.764zm25.407-12.58h-13.77c-.476 0-.748.272-.748.748v1.938c0 .442.272.748.748.748h5.168v20.978c0 .476.306.748.748.748h1.938c.442 0 .748-.272.748-.748V22.274h5.168c.476 0 .748-.306.748-.748v-1.938c0-.476-.272-.748-.748-.748zm19.629 24.344l-5.916-9.962a7.343 7.343 0 005.372-7.072c0-4.046-3.298-7.31-7.31-7.31h-6.8c-.442 0-.748.272-.748.748v23.664c0 .476.306.748.748.748h1.938c.476 0 .748-.272.748-.748v-9.758h2.482l5.814 10.03c.204.34.476.476.85.476h2.346c.578 0 .748-.34.476-.816zm-11.968-20.91h4.114c2.142 0 3.91 1.734 3.91 3.876a3.91 3.91 0 01-3.91 3.91h-4.114v-7.786zm37.289 20.944l-9.588-23.834c-.136-.374-.408-.544-.782-.544h-1.598c-.374 0-.646.17-.782.544l-9.486 23.834c-.204.476.034.782.51.782h2.311c.375 0 .681-.17.817-.544l1.7-4.216h11.56l1.7 4.216c.136.374.408.544.782.544h2.312c.476 0 .714-.306.544-.782zm-15.572-7.378l4.454-11.22 4.454 11.22h-8.908zM55.64 59.8H37.22l15.42-18.72c4.44-5.34 4.2-14.22-1.68-19.08-5.94-4.86-14.82-3.66-19.56 2.64-.42.54-.36 1.08.18 1.5l1.44 1.14c.54.42 1.08.42 1.5-.18 3.96-4.74 9.96-5.16 13.62-2.1 3.84 3.18 4.5 9.48 1.26 13.44L32.36 59.2c-.3.42-.48.84-.48 1.38v2.34c0 .66.42 1.08 1.08 1.08h22.68c.66 0 1.08-.42 1.08-1.08v-2.04c0-.66-.42-1.08-1.08-1.08zm23.435 4.56c-7.62 0-13.86-6.24-13.86-13.74V32.98c0-7.5 6.24-13.74 13.86-13.74 7.56 0 13.8 6.24 13.8 13.74v17.64c0 7.5-6.24 13.74-13.8 13.74zm-9.66-31.38v17.64c0 5.22 4.32 9.54 9.66 9.54 5.28 0 9.6-4.32 9.6-9.54V32.98c0-5.22-4.32-9.54-9.6-9.54-5.34 0-9.66 4.32-9.66 9.54zm45.84 31.38c-7.62 0-13.86-6.24-13.86-13.74V32.98c0-7.5 6.24-13.74 13.86-13.74 7.56 0 13.8 6.24 13.8 13.74v17.64c0 7.5-6.24 13.74-13.8 13.74zm-9.66-31.38v17.64c0 5.22 4.32 9.54 9.66 9.54 5.28 0 9.6-4.32 9.6-9.54V32.98c0-5.22-4.32-9.54-9.6-9.54-5.34 0-9.66 4.32-9.66 9.54zm40.079 5.7c-5.22 0-9.6-4.26-9.6-9.54 0-5.28 4.38-9.54 9.6-9.54 5.28 0 9.66 4.26 9.66 9.54 0 5.28-4.38 9.54-9.66 9.54zm.66 25.32h-2.46c-.84 0-1.14-.54-.78-1.26l22.2-42.36c.24-.54.72-.78 1.32-.78h2.46c.84 0 1.14.54.78 1.26l-22.2 42.36c-.24.54-.72.78-1.32.78zm-.66-40.14c-2.94 0-5.34 2.28-5.34 5.28 0 2.88 2.4 5.28 5.34 5.28 3 0 5.4-2.4 5.4-5.28 0-3-2.4-5.28-5.4-5.28zm21.42 40.26c-5.16 0-9.54-4.26-9.54-9.54 0-5.28 4.38-9.54 9.54-9.54 5.34 0 9.72 4.26 9.72 9.54 0 5.28-4.38 9.54-9.72 9.54zm0-14.82c-2.88 0-5.28 2.28-5.28 5.28 0 2.88 2.4 5.28 5.28 5.28 3.06 0 5.46-2.4 5.46-5.28 0-3-2.4-5.28-5.46-5.28zM59.192 81.72l-2.856 7.512-2.904-7.848c-.096-.288-.288-.384-.552-.384h-1.584c-.336 0-.504.216-.36.552l4.296 11.064c.096.264.288.384.552.384h.864c.264 0 .432-.12.528-.384l2.88-7.536 2.856 7.536c.096.264.288.384.552.384h.816c.288 0 .48-.12.576-.384l4.272-11.064c.144-.336-.024-.552-.384-.552h-1.512c-.264 0-.456.096-.552.384l-2.928 7.848-2.856-7.512c-.072-.216-.24-.312-.456-.312h-.792c-.216 0-.384.096-.456.312zm15.227-3.216c0 .864-.6 1.464-1.488 1.464-.768 0-1.464-.6-1.464-1.464 0-.768.696-1.464 1.464-1.464a1.46 1.46 0 011.488 1.464zM73.603 93h-1.32c-.336 0-.528-.192-.528-.528V81.528c0-.336.192-.528.528-.528h1.32c.336 0 .528.192.528.528v10.944c0 .336-.192.528-.528.528zm9.22-2.424h-1.512a1.834 1.834 0 01-1.848-1.848v-5.616h3.456c.288 0 .48-.168.48-.48V81.48c0-.288-.192-.48-.48-.48h-3.456v-3.288c0-.336-.216-.528-.552-.528h-1.344c-.336 0-.528.192-.528.528v10.992c0 2.664 1.704 4.296 4.224 4.296h1.56c.312 0 .528-.192.528-.528v-1.368a.504.504 0 00-.528-.528zm7.995-9.768c-1.056 0-2.016.36-2.76.96v-5.04c0-.336-.216-.528-.552-.528h-1.368c-.336 0-.528.192-.528.528v15.744c0 .336.192.528.528.528h1.368c.336 0 .552-.192.552-.528v-6.456a2.766 2.766 0 012.76-2.784 2.786 2.786 0 012.784 2.784v6.456c0 .336.216.528.528.528h1.368c.336 0 .528-.192.528-.528v-6.456a5.203 5.203 0 00-5.208-5.208zm25.396.192h-1.608c-.264 0-.48.12-.576.384l-3.024 7.44-3.048-7.44c-.096-.264-.288-.384-.552-.384h-1.608c-.336 0-.504.216-.384.552l4.296 10.464c-.672 1.848-1.68 3.024-3.36 3.648-.336.12-.432.336-.312.696l.432 1.152c.096.312.336.456.648.36 2.136-.72 3.696-2.28 4.584-4.44l4.896-11.88c.144-.336-.024-.552-.384-.552zm7.432-.192c-3.408 0-6.192 2.784-6.192 6.192 0 3.408 2.784 6.192 6.192 6.192 3.408 0 6.192-2.784 6.192-6.192 0-3.408-2.784-6.192-6.192-6.192zm0 2.424A3.76 3.76 0 01127.414 87a3.76 3.76 0 01-3.768 3.768A3.76 3.76 0 01119.878 87a3.76 3.76 0 013.768-3.768zm13.733 9.96a5.09 5.09 0 01-5.088-5.088v-6.576c0-.336.192-.528.528-.528h1.32c.336 0 .552.192.552.528v6.576c0 1.464 1.2 2.688 2.688 2.688a2.699 2.699 0 002.688-2.688v-6.576c0-.336.216-.528.552-.528h1.344c.312 0 .528.192.528.528v6.576c0 2.808-2.304 5.088-5.112 5.088zM151.008 81h-1.104c-1.152 0-2.184.336-2.832.984v-.504c0-.288-.192-.48-.504-.48h-.96c-.336 0-.528.192-.528.528v10.944c0 .336.192.528.528.528h1.344c.336 0 .528-.192.528-.528v-6.696c0-1.512 1.2-2.472 2.688-2.472h.84a.504.504 0 00.528-.528v-1.248c0-.336-.216-.528-.528-.528zm15.005-5.76h-4.488c-.312 0-.504.192-.504.48v1.128c0 .312.192.48.504.48h2.616v15.144c0 .336.192.528.528.528h1.344c.336 0 .528-.192.528-.528V75.768c0-.336-.192-.528-.528-.528zm10.87 7.08l-.504.864c-.168.288-.432.336-.72.168-.504-.264-1.176-.528-1.872-.528-.936 0-1.752.456-1.752 1.2 0 .816.936 1.128 2.136 1.56 1.896.672 3.576 1.968 3.576 3.936 0 1.992-1.704 3.672-4.152 3.672-1.272 0-2.568-.432-3.552-.96-.288-.168-.36-.408-.216-.72l.504-1.056c.144-.312.408-.384.696-.24.744.36 1.704.672 2.496.672 1.2 0 1.728-.72 1.728-1.416 0-.816-.744-1.272-2.4-1.92-1.2-.48-3.144-1.272-3.144-3.408 0-1.992 1.728-3.336 3.984-3.336 1.152 0 2.112.336 3 .816.288.144.36.408.192.696zm9.014 8.256h-1.512a1.834 1.834 0 01-1.848-1.848v-5.616h3.456c.288 0 .48-.168.48-.48V81.48c0-.288-.192-.48-.48-.48h-3.456v-3.288c0-.336-.216-.528-.552-.528h-1.344c-.336 0-.528.192-.528.528v10.992c0 2.664 1.704 4.296 4.224 4.296h1.56c.312 0 .528-.192.528-.528v-1.368a.504.504 0 00-.528-.528zm16.447-9.768a5.99 5.99 0 00-4.128 1.656v-.984c0-.288-.192-.48-.504-.48h-1.008c-.336 0-.528.192-.528.528v15.744c0 .336.192.528.528.528h1.32c.336 0 .552-.192.552-.528v-5.52c.96.888 2.328 1.44 3.768 1.44A6.176 6.176 0 00208.536 87a6.192 6.192 0 00-6.192-6.192zm-.024 9.96A3.774 3.774 0 01198.552 87c0-2.064 1.704-3.744 3.768-3.744s3.768 1.68 3.768 3.744a3.774 3.774 0 01-3.768 3.768zm13.772 2.424a5.09 5.09 0 01-5.088-5.088v-6.576c0-.336.192-.528.528-.528h1.32c.336 0 .552.192.552.528v6.576c0 1.464 1.2 2.688 2.688 2.688a2.699 2.699 0 002.688-2.688v-6.576c0-.336.216-.528.552-.528h1.344c.312 0 .528.192.528.528v6.576c0 2.808-2.304 5.088-5.112 5.088zM229.722 81h-1.104c-1.152 0-2.184.336-2.832.984v-.504c0-.288-.192-.48-.504-.48h-.96c-.336 0-.528.192-.528.528v10.944c0 .336.192.528.528.528h1.344c.336 0 .528-.192.528-.528v-6.696c0-1.512 1.2-2.472 2.688-2.472h.84a.504.504 0 00.528-.528v-1.248c0-.336-.216-.528-.528-.528zm8.031 12.192c-3.384 0-6.168-2.76-6.168-6.192 0-3.432 2.76-6.192 6.168-6.192 1.56 0 2.952.576 4.08 1.56.24.216.24.48.048.744l-.816.96c-.216.288-.456.288-.744.072-.816-.648-1.728-.936-2.544-.936a3.774 3.774 0 00-3.768 3.768c0 2.064 1.68 3.792 3.768 3.792.816 0 1.728-.288 2.568-.96.264-.24.528-.216.744.048l.792.984c.192.264.192.528-.048.744-1.128.96-2.472 1.608-4.08 1.608zm11.906-12.384c-1.056 0-2.016.36-2.76.96v-5.04c0-.336-.216-.528-.552-.528h-1.368c-.336 0-.528.192-.528.528v15.744c0 .336.192.528.528.528h1.368c.336 0 .552-.192.552-.528v-6.456a2.766 2.766 0 012.76-2.784 2.786 2.786 0 012.784 2.784v6.456c0 .336.216.528.528.528h1.368c.336 0 .528-.192.528-.528v-6.456a5.203 5.203 0 00-5.208-5.208zM268.69 81h-1.032c-.288 0-.48.192-.48.48v.984a5.956 5.956 0 00-4.104-1.656c-3.432 0-6.216 2.784-6.216 6.168a6.217 6.217 0 006.216 6.216c1.584 0 3.048-.648 4.128-1.68v1.008c0 .288.192.48.48.48h1.008c.312 0 .552-.216.552-.528V81.528c0-.312-.24-.528-.552-.528zm-5.592 9.768a3.764 3.764 0 01-3.768-3.792 3.774 3.774 0 013.768-3.768 3.774 3.774 0 013.768 3.768 3.764 3.764 0 01-3.768 3.792zm15.834-8.448l-.504.864c-.168.288-.432.336-.72.168-.504-.264-1.176-.528-1.872-.528-.936 0-1.752.456-1.752 1.2 0 .816.936 1.128 2.136 1.56 1.896.672 3.576 1.968 3.576 3.936 0 1.992-1.704 3.672-4.152 3.672-1.272 0-2.568-.432-3.552-.96-.288-.168-.36-.408-.216-.72l.504-1.056c.144-.312.408-.384.696-.24.744.36 1.704.672 2.496.672 1.2 0 1.728-.72 1.728-1.416 0-.816-.744-1.272-2.4-1.92-1.2-.48-3.144-1.272-3.144-3.408 0-1.992 1.728-3.336 3.984-3.336 1.152 0 2.112.336 3 .816.288.144.36.408.192.696zm15.11 4.92c-.216-3.912-2.76-6.432-6.096-6.432-3.384 0-6.072 2.592-6.072 6.024 0 3.384 2.64 6.36 6.288 6.36 1.512 0 3.216-.528 4.68-1.824.24-.216.264-.48.048-.744l-.768-.936c-.216-.264-.48-.288-.744-.072-.816.648-1.92 1.248-3.192 1.248-1.752 0-3.336-1.152-3.816-3.096h9.144c.337 0 .528-.192.528-.528zm-9.648-1.392c.288-1.8 1.824-2.952 3.528-2.952 1.8 0 3.24 1.32 3.528 2.952h-7.056zM213.12 55.86h-7.38c-.24 0-.4.16-.4.4v.96c0 .26.16.42.4.42h5.68c-.4 2.52-2.52 4.48-5.18 4.48-2.98 0-5.32-2.4-5.32-5.5 0-3.06 2.48-5.54 5.48-5.54 1.3 0 2.58.56 3.68 1.44.22.18.44.18.62-.06l.66-.82c.16-.22.16-.42-.06-.62-1.46-1.24-3.16-1.94-4.9-1.94-4.12 0-7.5 3.4-7.5 7.54 0 4.1 3.12 7.5 7.34 7.5 3.98 0 7.16-3.16 7.32-7.22v-.6c0-.28-.16-.44-.44-.44zm10.033-6.8c-4.161 0-7.541 3.38-7.541 7.52 0 4.16 3.38 7.54 7.541 7.54 4.139 0 7.52-3.38 7.52-7.54 0-4.14-3.381-7.52-7.52-7.52zm-.02 2.02c3.02 0 5.52 2.48 5.52 5.5 0 3.04-2.5 5.54-5.52 5.54-3.04 0-5.501-2.48-5.501-5.54a5.51 5.51 0 015.501-5.5zM239.958 64h-6.62c-.28 0-.44-.16-.44-.44V49.64c0-.28.16-.44.44-.44h1.12c.28 0 .46.16.46.44v12.34h5.04c.28 0 .44.18.44.44v1.14c0 .28-.16.44-.44.44zm6.545-14.8h-3.62c-.28 0-.44.16-.44.44v13.92c0 .28.16.44.44.44h3.62c4.08 0 7.4-3.32 7.4-7.4s-3.32-7.4-7.4-7.4zm0 12.78h-2.04V51.22h2.04c2.96 0 5.38 2.42 5.38 5.38s-2.42 5.38-5.38 5.38zm22.931 2.14c-4.18 0-7.54-3.38-7.54-7.52s3.4-7.52 7.48-7.52c1.86 0 3.54.7 5 1.96.2.18.22.38.04.6l-.64.8c-.16.24-.4.26-.62.06-1.08-.86-2.34-1.42-3.76-1.42-3 0-5.5 2.48-5.5 5.52 0 3.04 2.48 5.52 5.5 5.52 1.4 0 2.7-.52 3.76-1.4.22-.18.44-.16.62.06l.66.88c.18.24.14.44-.06.62-1.42 1.18-3.1 1.84-4.94 1.84zm14.058-15.06c-4.16 0-7.54 3.38-7.54 7.52 0 4.16 3.38 7.54 7.54 7.54 4.14 0 7.52-3.38 7.52-7.54 0-4.14-3.38-7.52-7.52-7.52zm-.02 2.02c3.02 0 5.52 2.48 5.52 5.5 0 3.04-2.5 5.54-5.52 5.54-3.04 0-5.5-2.48-5.5-5.54 0-3.02 2.46-5.5 5.5-5.5zm9.766 12.48V49.64c0-.28.16-.44.44-.44h1.1c.28 0 .44.16.44.44v13.92c0 .28-.16.44-.44.44h-1.1c-.28 0-.44-.16-.44-.44zm13.728-13.92v10.64l-7.58-10.84a.582.582 0 00-.5-.24h-.78c-.28 0-.44.16-.44.44v13.92c0 .28.16.44.44.44h1.12c.28 0 .46-.16.46-.44V52.94l7.56 10.82c.12.16.28.24.5.24h.8c.26 0 .44-.16.44-.44V49.64c0-.28-.18-.44-.44-.44h-1.12c-.28 0-.46.16-.46.44zm8.463 14.52c-1.38 0-2.72-.56-3.94-1.52-.24-.2-.28-.4-.16-.62l.62-1.04c.14-.22.34-.26.58-.1 1.06.78 2 1.14 2.8 1.14 1.26 0 2.2-.88 2.2-2 0-1.48-1.66-2.2-3.2-2.98-1.64-.82-3.22-1.92-3.12-4.08.12-2.34 2.04-3.92 4.36-3.88 1.06.02 2.02.38 2.74.8.22.16.24.34.1.56l-.6.88c-.14.2-.32.26-.54.14-.6-.32-1.2-.52-1.76-.52-1.2 0-2.22.92-2.22 2.1 0 1.22 1.16 1.72 2.38 2.3 1.42.64 4.02 1.92 4.02 4.7 0 2.3-1.78 4.12-4.26 4.12z" fill="#fff"/><defs><linearGradient id="paint0_linear" x1="346" y1="0" x2="0" y2="149" gradientUnits="userSpaceOnUse"><stop stop-color="#FFB300"/><stop offset="1" stop-color="#F57C00"/></linearGradient><linearGradient id="paint1_linear" x1="316" y1="115" x2="287.637" y2="208.691" gradientUnits="userSpaceOnUse"><stop stop-color="#FFB300"/><stop offset="1" stop-color="#F57C00"/></linearGradient></defs></svg>