<svg width="346" height="149" viewBox="0 0 346 149" fill="none" xmlns="http://www.w3.org/2000/svg">
<g clip-path="url(#clip0)">
<rect width="346" height="149" fill="white"/>
<rect width="346" height="149" fill="white"/>
<path d="M31.4901 43.795H28.7698C28.3513 43.795 28.0956 43.9577 27.9793 44.3762L25.6543 52.7695L23.4921 44.6087C23.3991 44.26 23.1898 44.1205 22.8411 44.1205H21.3531C21.0043 44.1205 20.7718 44.26 20.6788 44.6087L18.5398 52.7695L16.1683 44.3762C16.0521 43.9577 15.7963 43.795 15.4011 43.795H12.6808C12.1926 43.795 11.9368 44.1205 12.0763 44.5855L16.5171 60.4187C16.6333 60.8372 16.8891 61 17.2843 61H19.1211C19.5396 61 19.8186 60.7907 19.9348 60.3955L22.0738 52.1417L24.2593 60.3955C24.3523 60.7907 24.6313 61 25.0498 61H26.8866C27.3051 61 27.5608 60.8372 27.6771 60.4187L32.1178 44.5855C32.2573 44.1205 32.0016 43.795 31.4901 43.795ZM34.2706 60.3025V44.4925C34.2706 44.0507 34.5264 43.795 34.9681 43.795H37.2699C37.7349 43.795 37.9906 44.0507 37.9906 44.4925V60.3025C37.9906 60.7442 37.7349 61 37.2699 61H34.9681C34.5264 61 34.2706 60.7442 34.2706 60.3025ZM50.2644 44.4925V53.9785L43.5452 44.2367C43.3359 43.9112 43.0802 43.795 42.7082 43.795H41.1039C40.6622 43.795 40.4064 44.0507 40.4064 44.4925V60.3025C40.4064 60.7442 40.6622 61 41.1039 61H43.4522C43.9172 61 44.1729 60.7442 44.1729 60.3025V50.8862L50.7992 60.5582C51.0084 60.8837 51.2642 61 51.6362 61H53.3102C53.7519 61 54.0077 60.7442 54.0077 60.3025V44.4925C54.0077 44.0507 53.7519 43.795 53.3102 43.795H50.9852C50.5202 43.795 50.2644 44.0507 50.2644 44.4925ZM67.0478 60.3025V54.0482H71.6513C72.1163 54.0482 72.3721 53.7925 72.3721 53.3507V51.4442C72.3721 51.0025 72.1163 50.7467 71.6513 50.7467H67.0478V47.5615H72.0931C72.5348 47.5615 72.7906 47.3057 72.7906 46.864V44.4925C72.7906 44.0507 72.5348 43.795 72.0931 43.795H63.9788C63.5371 43.795 63.2813 44.0507 63.2813 44.4925V60.3025C63.2813 60.7442 63.5371 61 63.9788 61H66.3271C66.7921 61 67.0478 60.7442 67.0478 60.3025ZM86.6309 60.163L82.9109 53.8157C84.5616 52.909 85.6776 51.142 85.6776 49.1192C85.6776 46.1897 83.2829 43.795 80.3301 43.795H75.5639C75.1221 43.795 74.8664 44.0507 74.8664 44.4925V60.3025C74.8664 60.7442 75.1221 61 75.5639 61H77.9121C78.3771 61 78.6329 60.7442 78.6329 60.3025V54.49H79.1444L82.5621 60.5117C82.7481 60.8605 83.0271 61 83.4224 61H86.1426C86.7239 61 86.9331 60.628 86.6309 60.163ZM78.6329 47.5615H80.3301C81.2136 47.5615 81.9344 48.259 81.9344 49.1192C81.9344 50.0492 81.2136 50.7235 80.3301 50.7235H78.6329V47.5615ZM98.0425 57.2335H92.602V54.0482H97.6007C98.0657 54.0482 98.3215 53.7925 98.3215 53.3507V51.4442C98.3215 51.0025 98.0657 50.7467 97.6007 50.7467H92.602V47.5615H98.0425C98.4842 47.5615 98.74 47.3057 98.74 46.864V44.4925C98.74 44.0507 98.4842 43.795 98.0425 43.795H89.533C89.0912 43.795 88.8355 44.0507 88.8355 44.4925V60.3025C88.8355 60.7442 89.0912 61 89.533 61H98.0425C98.4842 61 98.74 60.7442 98.74 60.3025V57.931C98.74 57.4892 98.4842 57.2335 98.0425 57.2335ZM110.241 57.2335H104.8V54.0482H109.799C110.264 54.0482 110.52 53.7925 110.52 53.3507V51.4442C110.52 51.0025 110.264 50.7467 109.799 50.7467H104.8V47.5615H110.241C110.682 47.5615 110.938 47.3057 110.938 46.864V44.4925C110.938 44.0507 110.682 43.795 110.241 43.795H101.731C101.289 43.795 101.034 44.0507 101.034 44.4925V60.3025C101.034 60.7442 101.289 61 101.731 61H110.241C110.682 61 110.938 60.7442 110.938 60.3025V57.931C110.938 57.4892 110.682 57.2335 110.241 57.2335ZM125.186 61.186C123.582 61.186 122.001 60.5815 120.397 59.4422C119.932 59.1167 119.839 58.768 120.048 58.3495L121.187 56.3035C121.443 55.9082 121.792 55.8152 122.187 56.0942C123.21 56.7452 124.187 57.094 124.977 57.094C125.954 57.094 126.581 56.6057 126.581 55.8385C126.581 54.49 124.698 54.0017 123.024 53.0717C120.908 51.886 119.862 50.2352 119.955 48.259C120.095 45.3992 122.489 43.516 125.558 43.6555C126.791 43.702 127.976 44.1205 128.93 44.6552C129.325 44.8877 129.395 45.2365 129.162 45.6317L128.093 47.2825C127.837 47.6777 127.511 47.7475 127.116 47.5382C126.628 47.2825 126.047 47.0732 125.396 47.0732C124.373 47.0732 123.768 47.5615 123.768 48.259C123.768 49.375 125.279 49.84 126.674 50.5375C128.046 51.2117 130.604 52.6765 130.604 55.8617C130.604 58.861 128.325 61.186 125.186 61.186ZM151.268 43.795H148.548C148.13 43.795 147.874 43.9577 147.758 44.3762L145.433 52.7695L143.27 44.6087C143.177 44.26 142.968 44.1205 142.619 44.1205H141.131C140.783 44.1205 140.55 44.26 140.457 44.6087L138.318 52.7695L135.947 44.3762C135.83 43.9577 135.575 43.795 135.179 43.795H132.459C131.971 43.795 131.715 44.1205 131.855 44.5855L136.295 60.4187C136.412 60.8372 136.667 61 137.063 61H138.899C139.318 61 139.597 60.7907 139.713 60.3955L141.852 52.1417L144.038 60.3955C144.131 60.7907 144.41 61 144.828 61H146.665C147.083 61 147.339 60.8372 147.455 60.4187L151.896 44.5855C152.036 44.1205 151.78 43.795 151.268 43.795ZM163.256 57.2335H157.815V54.0482H162.814C163.279 54.0482 163.535 53.7925 163.535 53.3507V51.4442C163.535 51.0025 163.279 50.7467 162.814 50.7467H157.815V47.5615H163.256C163.698 47.5615 163.953 47.3057 163.953 46.864V44.4925C163.953 44.0507 163.698 43.795 163.256 43.795H154.746C154.305 43.795 154.049 44.0507 154.049 44.4925V60.3025C154.049 60.7442 154.305 61 154.746 61H163.256C163.698 61 163.953 60.7442 163.953 60.3025V57.931C163.953 57.4892 163.698 57.2335 163.256 57.2335ZM175.454 57.2335H170.014V54.0482H175.012C175.477 54.0482 175.733 53.7925 175.733 53.3507V51.4442C175.733 51.0025 175.477 50.7467 175.012 50.7467H170.014V47.5615H175.454C175.896 47.5615 176.152 47.3057 176.152 46.864V44.4925C176.152 44.0507 175.896 43.795 175.454 43.795H166.945C166.503 43.795 166.247 44.0507 166.247 44.4925V60.3025C166.247 60.7442 166.503 61 166.945 61H175.454C175.896 61 176.152 60.7442 176.152 60.3025V57.931C176.152 57.4892 175.896 57.2335 175.454 57.2335ZM183.909 43.795H179.143C178.701 43.795 178.445 44.0507 178.445 44.4925V60.3025C178.445 60.7442 178.701 61 179.143 61H181.491C181.956 61 182.212 60.7442 182.212 60.3025V54.49H183.909C186.862 54.49 189.28 52.0952 189.28 49.1192C189.28 46.1897 186.862 43.795 183.909 43.795ZM183.909 50.7235H182.212V47.5615H183.909C184.792 47.5615 185.513 48.259 185.513 49.1192C185.513 50.0492 184.792 50.7235 183.909 50.7235ZM196.235 61.186C194.631 61.186 193.05 60.5815 191.446 59.4422C190.981 59.1167 190.888 58.768 191.097 58.3495L192.236 56.3035C192.492 55.9082 192.841 55.8152 193.236 56.0942C194.259 56.7452 195.235 57.094 196.026 57.094C197.002 57.094 197.63 56.6057 197.63 55.8385C197.63 54.49 195.747 54.0017 194.073 53.0717C191.957 51.886 190.911 50.2352 191.004 48.259C191.143 45.3992 193.538 43.516 196.607 43.6555C197.839 43.702 199.025 44.1205 199.978 44.6552C200.374 44.8877 200.443 45.2365 200.211 45.6317L199.141 47.2825C198.886 47.6777 198.56 47.7475 198.165 47.5382C197.677 47.2825 197.095 47.0732 196.444 47.0732C195.421 47.0732 194.817 47.5615 194.817 48.259C194.817 49.375 196.328 49.84 197.723 50.5375C199.095 51.2117 201.652 52.6765 201.652 55.8617C201.652 58.861 199.374 61.186 196.235 61.186ZM213.628 43.795H203.979C203.538 43.795 203.282 44.0507 203.282 44.4925V46.864C203.282 47.3057 203.538 47.5615 203.979 47.5615H206.932V60.3025C206.932 60.7442 207.188 61 207.63 61H209.978C210.42 61 210.675 60.7442 210.675 60.3025V47.5615H213.628C214.07 47.5615 214.349 47.3057 214.349 46.864V44.4925C214.349 44.0507 214.07 43.795 213.628 43.795ZM229.764 60.1862L223.3 44.3297C223.161 43.9577 222.905 43.795 222.51 43.795H220.72C220.324 43.795 220.069 43.9577 219.929 44.3297L213.628 60.1862C213.442 60.6745 213.652 61 214.163 61H216.814C217.209 61 217.465 60.8372 217.604 60.4652L218.581 58.0472H224.835L225.788 60.442C225.928 60.814 226.183 60.9767 226.579 60.9767L229.206 61C229.717 61 229.95 60.6745 229.764 60.1862ZM220.092 54.304L221.719 50.1887L223.324 54.304H220.092ZM244.117 60.163L238.7 50.77L243.141 44.6552C243.489 44.167 243.303 43.795 242.699 43.795H239.932C239.56 43.795 239.281 43.9345 239.072 44.2367L235.817 48.724V44.4925C235.817 44.0507 235.561 43.795 235.096 43.795H232.771C232.329 43.795 232.074 44.0507 232.074 44.4925V60.3025C232.074 60.7442 232.329 61 232.771 61H235.096C235.561 61 235.817 60.7442 235.817 60.3025V54.7225L236.235 54.1412L239.769 60.5117C239.955 60.8605 240.258 61 240.63 61H243.629C244.187 61 244.396 60.628 244.117 60.163ZM255.908 57.2335H250.468V54.0482H255.466C255.931 54.0482 256.187 53.7925 256.187 53.3507V51.4442C256.187 51.0025 255.931 50.7467 255.466 50.7467H250.468V47.5615H255.908C256.35 47.5615 256.606 47.3057 256.606 46.864V44.4925C256.606 44.0507 256.35 43.795 255.908 43.795H247.399C246.957 43.795 246.701 44.0507 246.701 44.4925V60.3025C246.701 60.7442 246.957 61 247.399 61H255.908C256.35 61 256.606 60.7442 256.606 60.3025V57.931C256.606 57.4892 256.35 57.2335 255.908 57.2335ZM274.016 61.1395C269.203 61.1395 265.274 57.2102 265.274 52.3975C265.274 47.5847 269.203 43.6555 273.993 43.6555C276.341 43.6555 278.387 44.5855 280.131 46.3292C280.456 46.6315 280.456 46.957 280.177 47.3057L278.829 48.9332C278.55 49.282 278.178 49.3052 277.829 49.003C276.69 48.0497 275.481 47.3987 274.016 47.3987C271.249 47.3987 269.017 49.654 269.017 52.3975C269.017 55.141 271.249 57.3962 274.016 57.3962C275.364 57.3962 276.736 56.8382 277.829 55.8617C278.178 55.5595 278.526 55.5595 278.805 55.9315L280.2 57.745C280.456 58.0938 280.456 58.4192 280.131 58.7447C278.55 60.2095 276.364 61.1395 274.016 61.1395ZM290.145 43.6555C285.332 43.6555 281.403 47.5615 281.403 52.3975C281.403 57.2335 285.332 61.1395 290.145 61.1395C294.981 61.1395 298.887 57.2335 298.887 52.3975C298.887 47.5615 294.981 43.6555 290.145 43.6555ZM290.121 47.3987C292.818 47.3987 295.12 49.6772 295.12 52.3975C295.12 55.1177 292.818 57.3962 290.121 57.3962C287.355 57.3962 285.169 55.1642 285.169 52.3975C285.169 49.6307 287.355 47.3987 290.121 47.3987ZM301.079 60.3025V44.4925C301.079 44.0507 301.335 43.795 301.776 43.795H304.078C304.543 43.795 304.799 44.0507 304.799 44.4925V60.3025C304.799 60.7442 304.543 61 304.078 61H301.776C301.335 61 301.079 60.7442 301.079 60.3025ZM317.073 44.4925V53.9785L310.353 44.2367C310.144 43.9112 309.888 43.795 309.516 43.795H307.912C307.47 43.795 307.215 44.0507 307.215 44.4925V60.3025C307.215 60.7442 307.47 61 307.912 61H310.26C310.725 61 310.981 60.7442 310.981 60.3025V50.8862L317.607 60.5582C317.817 60.8837 318.072 61 318.444 61H320.118C320.56 61 320.816 60.7442 320.816 60.3025V44.4925C320.816 44.0507 320.56 43.795 320.118 43.795H317.793C317.328 43.795 317.073 44.0507 317.073 44.4925ZM328.365 61.186C326.761 61.186 325.18 60.5815 323.575 59.4422C323.11 59.1167 323.017 58.768 323.227 58.3495L324.366 56.3035C324.622 55.9082 324.97 55.8152 325.366 56.0942C326.389 56.7452 327.365 57.094 328.156 57.094C329.132 57.094 329.76 56.6057 329.76 55.8385C329.76 54.49 327.877 54.0017 326.203 53.0717C324.087 51.886 323.041 50.2352 323.134 48.259C323.273 45.3992 325.668 43.516 328.737 43.6555C329.969 43.702 331.155 44.1205 332.108 44.6552C332.503 44.8877 332.573 45.2365 332.341 45.6317L331.271 47.2825C331.015 47.6777 330.69 47.7475 330.295 47.5382C329.806 47.2825 329.225 47.0732 328.574 47.0732C327.551 47.0732 326.947 47.5615 326.947 48.259C326.947 49.375 328.458 49.84 329.853 50.5375C331.225 51.2117 333.782 52.6765 333.782 55.8617C333.782 58.861 331.504 61.186 328.365 61.186Z" fill="url(#paint0_linear)"/>
<rect x="16" y="103" width="314" height="36" rx="4" fill="url(#paint1_linear)"/>
<path d="M135.298 116.047L137.854 123.266L140.397 116.047H143.091V126H141.033V123.279L141.238 118.583L138.552 126H137.144L134.464 118.59L134.669 123.279V126H132.618V116.047H135.298ZM154.308 121.249C154.308 122.229 154.134 123.088 153.788 123.826C153.442 124.564 152.945 125.134 152.298 125.535C151.655 125.936 150.917 126.137 150.083 126.137C149.258 126.137 148.522 125.938 147.875 125.542C147.228 125.146 146.727 124.58 146.371 123.847C146.016 123.108 145.836 122.261 145.831 121.304V120.812C145.831 119.832 146.007 118.97 146.357 118.228C146.713 117.48 147.212 116.908 147.854 116.512C148.502 116.111 149.24 115.91 150.069 115.91C150.899 115.91 151.635 116.111 152.277 116.512C152.924 116.908 153.424 117.48 153.774 118.228C154.13 118.97 154.308 119.829 154.308 120.805V121.249ZM152.229 120.798C152.229 119.754 152.043 118.961 151.669 118.419C151.295 117.877 150.762 117.605 150.069 117.605C149.381 117.605 148.85 117.874 148.477 118.412C148.103 118.945 147.914 119.729 147.909 120.764V121.249C147.909 122.265 148.096 123.054 148.47 123.614C148.843 124.175 149.381 124.455 150.083 124.455C150.771 124.455 151.3 124.186 151.669 123.648C152.038 123.106 152.225 122.318 152.229 121.283V120.798ZM160.732 122.356H159.099V126H157.048V116.047H160.746C161.922 116.047 162.829 116.309 163.467 116.833C164.105 117.357 164.424 118.098 164.424 119.055C164.424 119.734 164.276 120.301 163.979 120.757C163.688 121.208 163.243 121.568 162.646 121.837L164.8 125.904V126H162.599L160.732 122.356ZM159.099 120.695H160.753C161.268 120.695 161.667 120.565 161.949 120.306C162.232 120.041 162.373 119.679 162.373 119.219C162.373 118.749 162.239 118.38 161.97 118.111C161.705 117.842 161.298 117.708 160.746 117.708H159.099V120.695ZM173.228 121.687H169.29V124.353H173.911V126H167.239V116.047H173.897V117.708H169.29V120.08H173.228V121.687ZM183.281 126H181.23V116.047H183.281V126ZM194.532 126H192.481L188.489 119.451V126H186.438V116.047H188.489L192.488 122.609V116.047H194.532V126ZM203.562 121.933H199.624V126H197.573V116.047H204.054V117.708H199.624V120.278H203.562V121.933ZM214.669 121.249C214.669 122.229 214.496 123.088 214.149 123.826C213.803 124.564 213.306 125.134 212.659 125.535C212.017 125.936 211.278 126.137 210.444 126.137C209.619 126.137 208.883 125.938 208.236 125.542C207.589 125.146 207.088 124.58 206.732 123.847C206.377 123.108 206.197 122.261 206.192 121.304V120.812C206.192 119.832 206.368 118.97 206.719 118.228C207.074 117.48 207.573 116.908 208.216 116.512C208.863 116.111 209.601 115.91 210.431 115.91C211.26 115.91 211.996 116.111 212.639 116.512C213.286 116.908 213.785 117.48 214.136 118.228C214.491 118.97 214.669 119.829 214.669 120.805V121.249ZM212.591 120.798C212.591 119.754 212.404 118.961 212.03 118.419C211.657 117.877 211.123 117.605 210.431 117.605C209.743 117.605 209.212 117.874 208.838 118.412C208.464 118.945 208.275 119.729 208.271 120.764V121.249C208.271 122.265 208.457 123.054 208.831 123.614C209.205 124.175 209.743 124.455 210.444 124.455C211.132 124.455 211.661 124.186 212.03 123.648C212.399 123.106 212.586 122.318 212.591 121.283V120.798Z" fill="white"/>
<path d="M53.0328 78.0004V86.1505L47.2266 77.8472C47.1347 77.7246 47.0121 77.6634 46.8436 77.6634H46.2461C46.0316 77.6634 45.9091 77.7859 45.9091 78.0004V88.663C45.9091 88.8774 46.0316 89 46.2461 89H47.104C47.3185 89 47.4564 88.8774 47.4564 88.663V80.5282L53.2472 88.8162C53.3392 88.9387 53.4617 89 53.6302 89H54.243C54.4422 89 54.5801 88.8774 54.5801 88.663V78.0004C54.5801 77.7859 54.4422 77.6634 54.243 77.6634H53.3851C53.1706 77.6634 53.0328 77.7859 53.0328 78.0004ZM60.136 81.2176C57.9606 81.2176 56.1835 82.9947 56.1835 85.1701C56.1835 87.3455 57.9606 89.1226 60.136 89.1226C62.3114 89.1226 64.0885 87.3455 64.0885 85.1701C64.0885 82.9947 62.3114 81.2176 60.136 81.2176ZM60.136 82.7649C61.4688 82.7649 62.5412 83.8372 62.5412 85.1701C62.5412 86.5029 61.4688 87.5753 60.136 87.5753C58.8032 87.5753 57.7308 86.5029 57.7308 85.1701C57.7308 83.8372 58.8032 82.7649 60.136 82.7649ZM73.991 77.6634H70.9271C70.7126 77.6634 70.5901 77.7859 70.5901 78.0004V88.663C70.5901 88.8774 70.7126 89 70.9271 89H71.785C71.9995 89 72.1374 88.8774 72.1374 88.663V84.2662H73.991C75.8141 84.2662 77.3001 82.7802 77.3001 80.9571C77.3001 79.1494 75.8141 77.6634 73.991 77.6634ZM73.991 82.7342H72.1374V79.2107H73.991C74.9715 79.2107 75.7528 79.992 75.7528 80.9571C75.7528 81.9529 74.9715 82.7342 73.991 82.7342ZM82.0082 89.1226C80.2158 89.1226 78.7604 87.6672 78.7604 85.8748V81.6772C78.7604 81.4627 78.883 81.3401 79.0974 81.3401H79.94C80.1545 81.3401 80.2924 81.4627 80.2924 81.6772V85.8748C80.2924 86.8093 81.0584 87.5906 82.0082 87.5906C82.958 87.5906 83.724 86.8093 83.724 85.8748V81.6772C83.724 81.4627 83.8619 81.3401 84.0764 81.3401H84.9343C85.1334 81.3401 85.2713 81.4627 85.2713 81.6772V85.8748C85.2713 87.6672 83.8006 89.1226 82.0082 89.1226ZM90.7464 81.3401H90.0417C89.3064 81.3401 88.6476 81.5546 88.234 81.9682V81.6465C88.234 81.4627 88.1114 81.3401 87.9123 81.3401H87.2995C87.085 81.3401 86.9625 81.4627 86.9625 81.6772V88.663C86.9625 88.8774 87.085 89 87.2995 89H88.1574C88.3719 89 88.4944 88.8774 88.4944 88.663V84.3887C88.4944 83.4236 89.2604 82.8108 90.2102 82.8108H90.7464C90.9456 82.8108 91.0835 82.6729 91.0835 82.4738V81.6772C91.0835 81.4627 90.9456 81.3401 90.7464 81.3401ZM95.9115 89.1226C93.7514 89.1226 91.9743 87.3608 91.9743 85.1701C91.9743 82.9793 93.7361 81.2176 95.9115 81.2176C96.9073 81.2176 97.7958 81.5852 98.5158 82.2133C98.669 82.3512 98.669 82.5197 98.5465 82.6883L98.0256 83.301C97.8877 83.4849 97.7345 83.4849 97.5507 83.347C97.0298 82.9334 96.4477 82.7495 95.9268 82.7495C94.594 82.7495 93.5216 83.8372 93.5216 85.1547C93.5216 86.4722 94.594 87.5753 95.9268 87.5753C96.4477 87.5753 97.0298 87.3914 97.566 86.9625C97.7345 86.8093 97.903 86.8246 98.0409 86.9931L98.5465 87.6212C98.669 87.7897 98.669 87.9583 98.5158 88.0961C97.7958 88.7089 96.9379 89.1226 95.9115 89.1226ZM103.549 81.2176C102.875 81.2176 102.262 81.4474 101.787 81.8303V78.6132C101.787 78.3987 101.65 78.2762 101.435 78.2762H100.562C100.347 78.2762 100.225 78.3987 100.225 78.6132V88.663C100.225 88.8774 100.347 89 100.562 89H101.435C101.65 89 101.787 88.8774 101.787 88.663V84.5419C101.787 83.5615 102.569 82.7649 103.549 82.7649C104.53 82.7649 105.326 83.5615 105.326 84.5419V88.663C105.326 88.8774 105.464 89 105.663 89H106.537C106.751 89 106.874 88.8774 106.874 88.663V84.5419C106.874 82.7036 105.388 81.2176 103.549 81.2176ZM115.736 81.3401H115.077C114.893 81.3401 114.771 81.4627 114.771 81.6465V82.2746C114.081 81.6159 113.147 81.2176 112.151 81.2176C109.96 81.2176 108.183 82.9947 108.183 85.1547C108.183 87.3455 109.96 89.1226 112.151 89.1226C113.162 89.1226 114.097 88.7089 114.786 88.0502V88.6936C114.786 88.8774 114.909 89 115.092 89H115.736C115.935 89 116.088 88.8621 116.088 88.663V81.6772C116.088 81.478 115.935 81.3401 115.736 81.3401ZM112.166 87.5753C110.834 87.5753 109.761 86.5029 109.761 85.1547C109.761 83.8372 110.834 82.7495 112.166 82.7495C113.499 82.7495 114.572 83.8372 114.572 85.1547C114.572 86.5029 113.499 87.5753 112.166 87.5753ZM122.312 82.1827L121.99 82.7342C121.883 82.9181 121.715 82.9487 121.531 82.8415C121.209 82.6729 120.78 82.5044 120.336 82.5044C119.738 82.5044 119.217 82.7955 119.217 83.2704C119.217 83.7913 119.815 83.9904 120.581 84.2662C121.791 84.6951 122.863 85.5224 122.863 86.7786C122.863 88.0502 121.776 89.1226 120.213 89.1226C119.401 89.1226 118.574 88.8468 117.946 88.5098C117.762 88.4025 117.716 88.2493 117.808 88.0502L118.13 87.3761C118.222 87.1769 118.39 87.131 118.574 87.2229C119.049 87.4527 119.662 87.6519 120.167 87.6519C120.933 87.6519 121.27 87.1923 121.27 86.748C121.27 86.2271 120.795 85.936 119.738 85.5224C118.972 85.216 117.731 84.7105 117.731 83.347C117.731 82.0755 118.834 81.2176 120.274 81.2176C121.01 81.2176 121.623 81.432 122.189 81.7384C122.373 81.8303 122.419 81.9989 122.312 82.1827ZM131.995 85.3233C131.858 82.8261 130.234 81.2176 128.104 81.2176C125.944 81.2176 124.228 82.8721 124.228 85.0628C124.228 87.2229 125.913 89.1226 128.242 89.1226C129.207 89.1226 130.295 88.7855 131.229 87.9583C131.383 87.8204 131.398 87.6519 131.26 87.4833L130.77 86.8859C130.632 86.7174 130.463 86.702 130.295 86.8399C129.774 87.2535 129.069 87.6365 128.257 87.6365C127.139 87.6365 126.128 86.9012 125.822 85.6603H131.658C131.873 85.6603 131.995 85.5377 131.995 85.3233ZM125.837 84.4347C126.021 83.2857 127.001 82.5504 128.089 82.5504C129.238 82.5504 130.157 83.393 130.341 84.4347H125.837ZM145.623 78.0004V86.1505L139.817 77.8472C139.725 77.7246 139.602 77.6634 139.434 77.6634H138.836C138.622 77.6634 138.499 77.7859 138.499 78.0004V88.663C138.499 88.8774 138.622 89 138.836 89H139.694C139.909 89 140.046 88.8774 140.046 88.663V80.5282L145.837 88.8162C145.929 88.9387 146.052 89 146.22 89H146.833C147.032 89 147.17 88.8774 147.17 88.663V78.0004C147.17 77.7859 147.032 77.6634 146.833 77.6634H145.975C145.761 77.6634 145.623 77.7859 145.623 78.0004ZM156.587 85.3233C156.449 82.8261 154.825 81.2176 152.695 81.2176C150.535 81.2176 148.819 82.8721 148.819 85.0628C148.819 87.2229 150.505 89.1226 152.833 89.1226C153.798 89.1226 154.886 88.7855 155.821 87.9583C155.974 87.8204 155.989 87.6519 155.851 87.4833L155.361 86.8859C155.223 86.7174 155.055 86.702 154.886 86.8399C154.365 87.2535 153.661 87.6365 152.849 87.6365C151.73 87.6365 150.719 86.9012 150.413 85.6603H156.25C156.464 85.6603 156.587 85.5377 156.587 85.3233ZM150.428 84.4347C150.612 83.2857 151.592 82.5504 152.68 82.5504C153.829 82.5504 154.748 83.393 154.932 84.4347H150.428ZM161.977 89.1226C159.817 89.1226 158.04 87.3608 158.04 85.1701C158.04 82.9793 159.801 81.2176 161.977 81.2176C162.973 81.2176 163.861 81.5852 164.581 82.2133C164.734 82.3512 164.734 82.5197 164.612 82.6883L164.091 83.301C163.953 83.4849 163.8 83.4849 163.616 83.347C163.095 82.9334 162.513 82.7495 161.992 82.7495C160.659 82.7495 159.587 83.8372 159.587 85.1547C159.587 86.4722 160.659 87.5753 161.992 87.5753C162.513 87.5753 163.095 87.3914 163.631 86.9625C163.8 86.8093 163.968 86.8246 164.106 86.9931L164.612 87.6212C164.734 87.7897 164.734 87.9583 164.581 88.0961C163.861 88.7089 163.003 89.1226 161.977 89.1226ZM173.634 85.3233C173.496 82.8261 171.872 81.2176 169.743 81.2176C167.583 81.2176 165.867 82.8721 165.867 85.0628C165.867 87.2229 167.552 89.1226 169.881 89.1226C170.846 89.1226 171.934 88.7855 172.868 87.9583C173.021 87.8204 173.037 87.6519 172.899 87.4833L172.408 86.8859C172.271 86.7174 172.102 86.702 171.934 86.8399C171.413 87.2535 170.708 87.6365 169.896 87.6365C168.778 87.6365 167.767 86.9012 167.46 85.6603H173.297C173.511 85.6603 173.634 85.5377 173.634 85.3233ZM167.475 84.4347C167.659 83.2857 168.64 82.5504 169.727 82.5504C170.876 82.5504 171.796 83.393 171.979 84.4347H167.475ZM179.622 82.1827L179.3 82.7342C179.193 82.9181 179.024 82.9487 178.84 82.8415C178.519 82.6729 178.09 82.5044 177.645 82.5044C177.048 82.5044 176.527 82.7955 176.527 83.2704C176.527 83.7913 177.125 83.9904 177.891 84.2662C179.101 84.6951 180.173 85.5224 180.173 86.7786C180.173 88.0502 179.085 89.1226 177.523 89.1226C176.711 89.1226 175.884 88.8468 175.256 88.5098C175.072 88.4025 175.026 88.2493 175.118 88.0502L175.439 87.3761C175.531 87.1769 175.7 87.131 175.884 87.2229C176.359 87.4527 176.971 87.6519 177.477 87.6519C178.243 87.6519 178.58 87.1923 178.58 86.748C178.58 86.2271 178.105 85.936 177.048 85.5224C176.282 85.216 175.041 84.7105 175.041 83.347C175.041 82.0755 176.144 81.2176 177.584 81.2176C178.32 81.2176 178.932 81.432 179.499 81.7384C179.683 81.8303 179.729 81.9989 179.622 82.1827ZM186.103 82.1827L185.782 82.7342C185.674 82.9181 185.506 82.9487 185.322 82.8415C185 82.6729 184.571 82.5044 184.127 82.5044C183.53 82.5044 183.009 82.7955 183.009 83.2704C183.009 83.7913 183.606 83.9904 184.372 84.2662C185.582 84.6951 186.655 85.5224 186.655 86.7786C186.655 88.0502 185.567 89.1226 184.004 89.1226C183.192 89.1226 182.365 88.8468 181.737 88.5098C181.553 88.4025 181.507 88.2493 181.599 88.0502L181.921 87.3761C182.013 87.1769 182.181 87.131 182.365 87.2229C182.84 87.4527 183.453 87.6519 183.958 87.6519C184.724 87.6519 185.062 87.1923 185.062 86.748C185.062 86.2271 184.587 85.936 183.53 85.5224C182.764 85.216 181.523 84.7105 181.523 83.347C181.523 82.0755 182.626 81.2176 184.066 81.2176C184.801 81.2176 185.414 81.432 185.981 81.7384C186.165 81.8303 186.21 81.9989 186.103 82.1827ZM195.572 81.3401H194.913C194.73 81.3401 194.607 81.4627 194.607 81.6465V82.2746C193.918 81.6159 192.983 81.2176 191.987 81.2176C189.797 81.2176 188.02 82.9947 188.02 85.1547C188.02 87.3455 189.797 89.1226 191.987 89.1226C192.998 89.1226 193.933 88.7089 194.622 88.0502V88.6936C194.622 88.8774 194.745 89 194.929 89H195.572C195.771 89 195.925 88.8621 195.925 88.663V81.6772C195.925 81.478 195.771 81.3401 195.572 81.3401ZM192.003 87.5753C190.67 87.5753 189.597 86.5029 189.597 85.1547C189.597 83.8372 190.67 82.7495 192.003 82.7495C193.336 82.7495 194.408 83.8372 194.408 85.1547C194.408 86.5029 193.336 87.5753 192.003 87.5753ZM201.551 81.3401H200.846C200.111 81.3401 199.452 81.5546 199.038 81.9682V81.6465C199.038 81.4627 198.916 81.3401 198.717 81.3401H198.104C197.889 81.3401 197.767 81.4627 197.767 81.6772V88.663C197.767 88.8774 197.889 89 198.104 89H198.962C199.176 89 199.299 88.8774 199.299 88.663V84.3887C199.299 83.4236 200.065 82.8108 201.015 82.8108H201.551C201.75 82.8108 201.888 82.6729 201.888 82.4738V81.6772C201.888 81.4627 201.75 81.3401 201.551 81.3401ZM210.134 81.3401H209.108C208.939 81.3401 208.801 81.4167 208.74 81.5852L206.81 86.3344L204.864 81.5852C204.803 81.4167 204.68 81.3401 204.512 81.3401H203.485C203.271 81.3401 203.164 81.478 203.24 81.6925L205.983 88.3719C205.554 89.5515 204.91 90.3022 203.838 90.7005C203.623 90.7771 203.562 90.915 203.639 91.1448L203.914 91.8801C203.976 92.0793 204.129 92.1712 204.328 92.1099C205.691 91.6503 206.687 90.6545 207.254 89.2758L210.379 81.6925C210.471 81.478 210.364 81.3401 210.134 81.3401ZM212.667 88.1268C212.667 88.5864 212.284 89 211.763 89C211.288 89 210.874 88.5864 210.874 88.1268C210.874 87.6212 211.288 87.2229 211.763 87.2229C212.284 87.2229 212.667 87.6212 212.667 88.1268ZM225.335 77.6634H219.131C218.916 77.6634 218.794 77.7859 218.794 78.0004V78.8736C218.794 79.0728 218.916 79.2107 219.131 79.2107H221.459V88.663C221.459 88.8774 221.597 89 221.797 89H222.67C222.869 89 223.007 88.8774 223.007 88.663V79.2107H225.335C225.55 79.2107 225.672 79.0728 225.672 78.8736V78.0004C225.672 77.7859 225.55 77.6634 225.335 77.6634ZM234.89 83.9292L234.155 83.5768C233.955 83.4849 233.787 83.5308 233.695 83.73L232.837 85.5531L231.014 83.4236C232.393 83.2091 233.465 81.9989 233.465 80.5282C233.465 78.9043 232.148 77.5715 230.508 77.5715C228.885 77.5715 227.552 78.9043 227.552 80.5435C227.552 81.4014 227.935 82.1674 228.456 82.6883C227.506 83.347 226.97 84.4041 226.97 85.5684C226.97 87.5446 228.563 89.1379 230.508 89.1379C231.474 89.1379 232.377 88.7396 233.021 88.0961L233.664 88.8621C233.802 89.0306 233.986 89.0306 234.155 88.9081L234.767 88.3719C234.936 88.2493 234.966 88.0655 234.813 87.897L233.879 86.794L235.043 84.3734C235.135 84.1896 235.074 84.0211 234.89 83.9292ZM230.508 79.0575C231.32 79.0575 231.979 79.7469 231.979 80.5435C231.979 81.3708 231.32 82.0295 230.508 82.0295C229.696 82.0295 229.038 81.3708 229.038 80.5435C229.038 79.7469 229.696 79.0575 230.508 79.0575ZM230.524 87.6519C229.421 87.6519 228.44 86.7786 228.44 85.599C228.44 84.8637 228.808 84.1896 229.421 83.8219L232.04 86.9625C231.657 87.3914 231.106 87.6519 230.524 87.6519ZM242.337 89.0919C239.135 89.0919 236.561 86.5029 236.561 83.3317C236.561 80.1605 239.166 77.5715 242.291 77.5715C243.716 77.5715 245.002 78.1076 246.121 79.0728C246.274 79.2107 246.289 79.3639 246.151 79.5324L245.661 80.1452C245.539 80.329 245.355 80.3443 245.186 80.1911C244.359 79.5324 243.394 79.1034 242.306 79.1034C240.008 79.1034 238.093 81.0031 238.093 83.3317C238.093 85.6603 239.993 87.5599 242.306 87.5599C243.378 87.5599 244.374 87.1616 245.186 86.4876C245.355 86.3497 245.523 86.365 245.661 86.5335L246.167 87.2076C246.305 87.3914 246.274 87.5446 246.121 87.6825C245.033 88.5864 243.746 89.0919 242.337 89.0919ZM252.397 82.1827L252.075 82.7342C251.968 82.9181 251.799 82.9487 251.615 82.8415C251.294 82.6729 250.865 82.5044 250.42 82.5044C249.823 82.5044 249.302 82.7955 249.302 83.2704C249.302 83.7913 249.899 83.9904 250.665 84.2662C251.876 84.6951 252.948 85.5224 252.948 86.7786C252.948 88.0502 251.86 89.1226 250.298 89.1226C249.486 89.1226 248.659 88.8468 248.03 88.5098C247.847 88.4025 247.801 88.2493 247.893 88.0502L248.214 87.3761C248.306 87.1769 248.475 87.131 248.659 87.2229C249.133 87.4527 249.746 87.6519 250.252 87.6519C251.018 87.6519 251.355 87.1923 251.355 86.748C251.355 86.2271 250.88 85.936 249.823 85.5224C249.057 85.216 247.816 84.7105 247.816 83.347C247.816 82.0755 248.919 81.2176 250.359 81.2176C251.094 81.2176 251.707 81.432 252.274 81.7384C252.458 81.8303 252.504 81.9989 252.397 82.1827ZM269.245 88.6476L264.925 77.9085C264.863 77.74 264.741 77.6634 264.572 77.6634H263.852C263.684 77.6634 263.561 77.74 263.5 77.9085L259.226 88.6476C259.134 88.8621 259.241 89 259.456 89H260.497C260.666 89 260.804 88.9234 260.865 88.7549L261.631 86.8552H266.84L267.606 88.7549C267.667 88.9234 267.789 89 267.958 89H269C269.214 89 269.321 88.8621 269.245 88.6476ZM262.228 85.3233L264.235 80.2677L266.242 85.3233H262.228ZM274.838 81.2176C273.812 81.2176 272.877 81.6312 272.203 82.2746V81.6465C272.203 81.4627 272.08 81.3401 271.881 81.3401H271.238C271.023 81.3401 270.901 81.4627 270.901 81.6772V91.7269C270.901 91.9414 271.023 92.064 271.238 92.064H272.08C272.295 92.064 272.433 91.9414 272.433 91.7269V88.2034C273.046 88.7702 273.919 89.1226 274.838 89.1226C277.029 89.1226 278.79 87.3608 278.79 85.1701C278.79 82.9947 277.029 81.2176 274.838 81.2176ZM274.823 87.5753C273.505 87.5753 272.417 86.5029 272.417 85.1701C272.417 83.8526 273.505 82.7802 274.823 82.7802C276.14 82.7802 277.228 83.8526 277.228 85.1701C277.228 86.5029 276.14 87.5753 274.823 87.5753ZM284.342 81.2176C283.315 81.2176 282.381 81.6312 281.707 82.2746V81.6465C281.707 81.4627 281.584 81.3401 281.385 81.3401H280.741C280.527 81.3401 280.404 81.4627 280.404 81.6772V91.7269C280.404 91.9414 280.527 92.064 280.741 92.064H281.584C281.799 92.064 281.936 91.9414 281.936 91.7269V88.2034C282.549 88.7702 283.422 89.1226 284.342 89.1226C286.532 89.1226 288.294 87.3608 288.294 85.1701C288.294 82.9947 286.532 81.2176 284.342 81.2176ZM284.326 87.5753C283.009 87.5753 281.921 86.5029 281.921 85.1701C281.921 83.8526 283.009 82.7802 284.326 82.7802C285.644 82.7802 286.732 83.8526 286.732 85.1701C286.732 86.5029 285.644 87.5753 284.326 87.5753ZM292.589 87.4527H292.405C291.854 87.4527 291.455 87.1157 291.455 86.3956V78.6132C291.455 78.3987 291.317 78.2762 291.103 78.2762H290.245C290.031 78.2762 289.908 78.3987 289.908 78.6132V86.3956C289.908 88.2493 290.797 89 292.375 89H292.512C292.727 89 292.849 88.8774 292.849 88.663V87.7897C292.849 87.5906 292.773 87.4527 292.589 87.4527ZM300.929 81.3401H299.903C299.734 81.3401 299.596 81.4167 299.535 81.5852L297.605 86.3344L295.659 81.5852C295.598 81.4167 295.475 81.3401 295.307 81.3401H294.28C294.066 81.3401 293.958 81.478 294.035 81.6925L296.777 88.3719C296.348 89.5515 295.705 90.3022 294.633 90.7005C294.418 90.7771 294.357 90.915 294.433 91.1448L294.709 91.8801C294.77 92.0793 294.924 92.1712 295.123 92.1099C296.486 91.6503 297.482 90.6545 298.049 89.2758L301.174 81.6925C301.266 81.478 301.159 81.3401 300.929 81.3401Z" fill="url(#paint2_linear)"/>
<path d="M42.4535 31.0218H37.1652V26.6148H42.101C42.3556 26.6148 42.4927 26.4582 42.4927 26.2231V25.2634C42.4927 25.0284 42.3556 24.8717 42.101 24.8717H37.1652V20.4843H42.4535C42.7082 20.4843 42.8844 20.308 42.8844 20.0534V18.937C42.8844 18.6628 42.7082 18.5061 42.4535 18.5061H35.6179C35.3437 18.5061 35.187 18.6628 35.187 18.937V32.5691C35.187 32.8433 35.3437 33 35.6179 33H42.4535C42.7082 33 42.8844 32.8433 42.8844 32.5691V31.4527C42.8844 31.1981 42.7082 31.0218 42.4535 31.0218ZM49.3666 23.0501C48.3873 23.0501 47.4667 23.4223 46.742 24.0294V23.5985C46.742 23.3635 46.5853 23.2068 46.3307 23.2068H45.5473C45.2731 23.2068 45.1164 23.3635 45.1164 23.6377V32.5691C45.1164 32.8433 45.2731 33 45.5473 33H46.6441C46.9183 33 47.075 32.8433 47.075 32.5691V27.2024C47.075 25.9881 48.0543 25.0088 49.2883 25.0088C50.483 25.0088 51.4819 25.9881 51.4819 27.2024V32.5691C51.4819 32.8433 51.6386 33 51.9128 33H53.0097C53.2839 33 53.4406 32.8433 53.4406 32.5691V27.2024C53.4406 24.9108 51.6386 23.0501 49.3666 23.0501ZM60.323 31.0218H59.0891C58.2469 31.0218 57.5809 30.3558 57.5809 29.5136V24.9304H60.4014C60.6364 24.9304 60.7931 24.7933 60.7931 24.5387V23.5985C60.7931 23.3635 60.6364 23.2068 60.4014 23.2068H57.5809V20.5235C57.5809 20.2493 57.4047 20.0926 57.1305 20.0926H56.0336C55.7594 20.0926 55.6027 20.2493 55.6027 20.5235V29.494C55.6027 31.6681 56.9933 33 59.0499 33H60.323C60.5777 33 60.7539 32.8433 60.7539 32.5691V31.4527C60.7539 31.1981 60.5777 31.0218 60.323 31.0218ZM72.1501 28.2993C71.9739 25.1067 69.8977 23.0501 67.1752 23.0501C64.4135 23.0501 62.2198 25.1655 62.2198 27.9663C62.2198 30.728 64.3743 33.1567 67.3515 33.1567C68.5854 33.1567 69.976 32.7258 71.1708 31.6681C71.3667 31.4918 71.3863 31.2764 71.21 31.0609L70.5832 30.2971C70.4069 30.0816 70.1915 30.062 69.976 30.2383C69.3101 30.7672 68.4091 31.2568 67.3711 31.2568C65.9413 31.2568 64.6486 30.3167 64.2568 28.7302H71.7192C71.9934 28.7302 72.1501 28.5735 72.1501 28.2993ZM64.2764 27.1633C64.5115 25.6943 65.765 24.7541 67.1556 24.7541C68.6246 24.7541 69.7998 25.8314 70.0348 27.1633H64.2764ZM79.0415 23.2068H78.1405C77.2004 23.2068 76.3581 23.481 75.8293 24.0099V23.5985C75.8293 23.3635 75.6726 23.2068 75.418 23.2068H74.6345C74.3603 23.2068 74.2036 23.3635 74.2036 23.6377V32.5691C74.2036 32.8433 74.3603 33 74.6345 33H75.7314C76.0056 33 76.1623 32.8433 76.1623 32.5691V27.1045C76.1623 25.8706 77.1416 25.0871 78.3559 25.0871H79.0415C79.2961 25.0871 79.4724 24.9108 79.4724 24.6562V23.6377C79.4724 23.3635 79.2961 23.2068 79.0415 23.2068ZM92.2467 23.0501C89.4654 23.0501 87.1934 25.3221 87.1934 28.1034C87.1934 30.8847 89.4654 33.1567 92.2467 33.1567C95.0279 33.1567 97.2999 30.8847 97.2999 28.1034C97.2999 25.3221 95.0279 23.0501 92.2467 23.0501ZM92.2467 25.0284C93.9507 25.0284 95.3217 26.3994 95.3217 28.1034C95.3217 29.8074 93.9507 31.1785 92.2467 31.1785C90.5426 31.1785 89.1716 29.8074 89.1716 28.1034C89.1716 26.3994 90.5426 25.0284 92.2467 25.0284ZM103.503 33.1567C101.211 33.1567 99.3507 31.296 99.3507 29.0044V23.6377C99.3507 23.3635 99.5074 23.2068 99.7816 23.2068H100.859C101.133 23.2068 101.309 23.3635 101.309 23.6377V29.0044C101.309 30.1991 102.289 31.1981 103.503 31.1981C104.717 31.1981 105.697 30.1991 105.697 29.0044V23.6377C105.697 23.3635 105.873 23.2068 106.147 23.2068H107.244C107.499 23.2068 107.675 23.3635 107.675 23.6377V29.0044C107.675 31.296 105.795 33.1567 103.503 33.1567ZM114.675 23.2068H113.774C112.834 23.2068 111.992 23.481 111.463 24.0099V23.5985C111.463 23.3635 111.306 23.2068 111.051 23.2068H110.268C109.994 23.2068 109.837 23.3635 109.837 23.6377V32.5691C109.837 32.8433 109.994 33 110.268 33H111.365C111.639 33 111.796 32.8433 111.796 32.5691V27.1045C111.796 25.8706 112.775 25.0871 113.989 25.0871H114.675C114.93 25.0871 115.106 24.9108 115.106 24.6562V23.6377C115.106 23.3635 114.93 23.2068 114.675 23.2068ZM132.816 28.2993C132.64 25.1067 130.563 23.0501 127.841 23.0501C125.079 23.0501 122.886 25.1655 122.886 27.9663C122.886 30.728 125.04 33.1567 128.017 33.1567C129.251 33.1567 130.642 32.7258 131.837 31.6681C132.032 31.4918 132.052 31.2764 131.876 31.0609L131.249 30.2971C131.073 30.0816 130.857 30.062 130.642 30.2383C129.976 30.7672 129.075 31.2568 128.037 31.2568C126.607 31.2568 125.314 30.3167 124.923 28.7302H132.385C132.659 28.7302 132.816 28.5735 132.816 28.2993ZM124.942 27.1633C125.177 25.6943 126.431 24.7541 127.821 24.7541C129.29 24.7541 130.465 25.8314 130.701 27.1633H124.942ZM145.407 23.0501C144.095 23.0501 142.939 23.6573 142.214 24.5974C141.47 23.6573 140.393 23.0501 139.1 23.0501C138.003 23.0501 137.083 23.5006 136.495 24.1274V23.5985C136.495 23.3635 136.358 23.2068 136.103 23.2068H135.3C135.026 23.2068 134.869 23.3635 134.869 23.6377V32.5691C134.869 32.8433 135.026 33 135.3 33H136.397C136.671 33 136.828 32.8433 136.828 32.5691V27.2024C136.828 25.9881 137.807 25.0088 139.041 25.0088C140.256 25.0088 141.235 25.9881 141.235 27.2024V32.5691C141.235 32.8433 141.392 33 141.666 33H142.763C143.037 33 143.194 32.8433 143.194 32.5691V27.2024C143.194 25.9881 144.173 25.0088 145.387 25.0088C146.602 25.0088 147.581 25.9881 147.581 27.2024V32.5691C147.581 32.8433 147.757 33 148.012 33H149.128C149.402 33 149.559 32.8433 149.559 32.5691V27.2024C149.559 24.9108 147.679 23.0501 145.407 23.0501ZM161.127 23.2068H160.285C160.05 23.2068 159.893 23.3635 159.893 23.5985V24.4016C159.012 23.5594 157.817 23.0501 156.544 23.0501C153.743 23.0501 151.471 25.3221 151.471 28.0838C151.471 30.8847 153.743 33.1567 156.544 33.1567C157.836 33.1567 159.031 32.6279 159.913 31.7856V32.6083C159.913 32.8433 160.069 33 160.304 33H161.127C161.382 33 161.577 32.8237 161.577 32.5691V23.6377C161.577 23.3831 161.382 23.2068 161.127 23.2068ZM156.563 31.1785C154.859 31.1785 153.488 29.8074 153.488 28.0838C153.488 26.3994 154.859 25.0088 156.563 25.0088C158.267 25.0088 159.638 26.3994 159.638 28.0838C159.638 29.8074 158.267 31.1785 156.563 31.1785ZM166.283 21.1698C166.283 21.8749 165.794 22.3646 165.069 22.3646C164.442 22.3646 163.874 21.8749 163.874 21.1698C163.874 20.5431 164.442 19.9751 165.069 19.9751C165.794 19.9751 166.283 20.5431 166.283 21.1698ZM165.617 33H164.54C164.266 33 164.109 32.8433 164.109 32.5691V23.6377C164.109 23.3635 164.266 23.2068 164.54 23.2068H165.617C165.892 23.2068 166.048 23.3635 166.048 23.6377V32.5691C166.048 32.8433 165.892 33 165.617 33ZM171.898 31.0218H171.663C170.958 31.0218 170.449 30.5909 170.449 29.6703V19.7204C170.449 19.4462 170.273 19.2895 169.998 19.2895H168.902C168.627 19.2895 168.471 19.4462 168.471 19.7204V29.6703C168.471 32.0403 169.607 33 171.624 33H171.8C172.075 33 172.231 32.8433 172.231 32.5691V31.4527C172.231 31.1981 172.133 31.0218 171.898 31.0218ZM185.062 33.1567C182.3 33.1567 180.028 30.9043 180.028 28.1034C180.028 25.3026 182.281 23.0501 185.062 23.0501C186.335 23.0501 187.471 23.5202 188.392 24.3232C188.587 24.4995 188.587 24.715 188.431 24.9304L187.765 25.7139C187.588 25.9489 187.393 25.9489 187.158 25.7726C186.492 25.2438 185.747 25.0088 185.081 25.0088C183.377 25.0088 182.006 26.3994 182.006 28.0838C182.006 29.7683 183.377 31.1785 185.081 31.1785C185.747 31.1785 186.492 30.9434 187.177 30.395C187.393 30.1991 187.608 30.2187 187.784 30.4342L188.431 31.2372C188.587 31.4527 188.587 31.6681 188.392 31.8444C187.471 32.6279 186.374 33.1567 185.062 33.1567ZM195.03 23.0501C192.249 23.0501 189.977 25.3221 189.977 28.1034C189.977 30.8847 192.249 33.1567 195.03 33.1567C197.811 33.1567 200.083 30.8847 200.083 28.1034C200.083 25.3221 197.811 23.0501 195.03 23.0501ZM195.03 25.0284C196.734 25.0284 198.105 26.3994 198.105 28.1034C198.105 29.8074 196.734 31.1785 195.03 31.1785C193.326 31.1785 191.955 29.8074 191.955 28.1034C191.955 26.3994 193.326 25.0284 195.03 25.0284ZM212.671 23.0501C211.359 23.0501 210.204 23.6573 209.479 24.5974C208.735 23.6573 207.657 23.0501 206.365 23.0501C205.268 23.0501 204.347 23.5006 203.76 24.1274V23.5985C203.76 23.3635 203.623 23.2068 203.368 23.2068H202.565C202.291 23.2068 202.134 23.3635 202.134 23.6377V32.5691C202.134 32.8433 202.291 33 202.565 33H203.662C203.936 33 204.093 32.8433 204.093 32.5691V27.2024C204.093 25.9881 205.072 25.0088 206.306 25.0088C207.52 25.0088 208.5 25.9881 208.5 27.2024V32.5691C208.5 32.8433 208.656 33 208.93 33H210.027C210.301 33 210.458 32.8433 210.458 32.5691V27.2024C210.458 25.9881 211.437 25.0088 212.652 25.0088C213.866 25.0088 214.846 25.9881 214.846 27.2024V32.5691C214.846 32.8433 215.022 33 215.276 33H216.393C216.667 33 216.824 32.8433 216.824 32.5691V27.2024C216.824 24.9108 214.943 23.0501 212.671 23.0501ZM224.004 23.0501C222.692 23.0501 221.497 23.579 220.635 24.4016V23.5985C220.635 23.3635 220.479 23.2068 220.224 23.2068H219.401C219.127 23.2068 218.971 23.3635 218.971 23.6377V36.4864C218.971 36.7606 219.127 36.9173 219.401 36.9173H220.479C220.753 36.9173 220.929 36.7606 220.929 36.4864V31.9815C221.713 32.7062 222.829 33.1567 224.004 33.1567C226.805 33.1567 229.058 30.9043 229.058 28.1034C229.058 25.3221 226.805 23.0501 224.004 23.0501ZM223.985 31.1785C222.3 31.1785 220.91 29.8074 220.91 28.1034C220.91 26.419 222.3 25.0479 223.985 25.0479C225.669 25.0479 227.06 26.419 227.06 28.1034C227.06 29.8074 225.669 31.1785 223.985 31.1785ZM240.816 28.2993C240.64 25.1067 238.564 23.0501 235.841 23.0501C233.08 23.0501 230.886 25.1655 230.886 27.9663C230.886 30.728 233.04 33.1567 236.018 33.1567C237.252 33.1567 238.642 32.7258 239.837 31.6681C240.033 31.4918 240.052 31.2764 239.876 31.0609L239.249 30.2971C239.073 30.0816 238.858 30.062 238.642 30.2383C237.976 30.7672 237.075 31.2568 236.037 31.2568C234.607 31.2568 233.315 30.3167 232.923 28.7302H240.385C240.66 28.7302 240.816 28.5735 240.816 28.2993ZM232.943 27.1633C233.178 25.6943 234.431 24.7541 235.822 24.7541C237.291 24.7541 238.466 25.8314 238.701 27.1633H232.943ZM247.59 31.0218H246.356C245.514 31.0218 244.848 30.3558 244.848 29.5136V24.9304H247.668C247.903 24.9304 248.06 24.7933 248.06 24.5387V23.5985C248.06 23.3635 247.903 23.2068 247.668 23.2068H244.848V20.5235C244.848 20.2493 244.672 20.0926 244.397 20.0926H243.301C243.026 20.0926 242.87 20.2493 242.87 20.5235V29.494C242.87 31.6681 244.26 33 246.317 33H247.59C247.845 33 248.021 32.8433 248.021 32.5691V31.4527C248.021 31.1981 247.845 31.0218 247.59 31.0218ZM252.264 21.1698C252.264 21.8749 251.774 22.3646 251.049 22.3646C250.422 22.3646 249.854 21.8749 249.854 21.1698C249.854 20.5431 250.422 19.9751 251.049 19.9751C251.774 19.9751 252.264 20.5431 252.264 21.1698ZM251.598 33H250.52C250.246 33 250.089 32.8433 250.089 32.5691V23.6377C250.089 23.3635 250.246 23.2068 250.52 23.2068H251.598C251.872 23.2068 252.029 23.3635 252.029 23.6377V32.5691C252.029 32.8433 251.872 33 251.598 33ZM259.171 31.0218H257.937C257.095 31.0218 256.429 30.3558 256.429 29.5136V24.9304H259.25C259.485 24.9304 259.641 24.7933 259.641 24.5387V23.5985C259.641 23.3635 259.485 23.2068 259.25 23.2068H256.429V20.5235C256.429 20.2493 256.253 20.0926 255.979 20.0926H254.882C254.608 20.0926 254.451 20.2493 254.451 20.5235V29.494C254.451 31.6681 255.842 33 257.898 33H259.171C259.426 33 259.602 32.8433 259.602 32.5691V31.4527C259.602 31.1981 259.426 31.0218 259.171 31.0218ZM263.845 21.1698C263.845 21.8749 263.355 22.3646 262.63 22.3646C262.004 22.3646 261.436 21.8749 261.436 21.1698C261.436 20.5431 262.004 19.9751 262.63 19.9751C263.355 19.9751 263.845 20.5431 263.845 21.1698ZM263.179 33H262.102C261.827 33 261.671 32.8433 261.671 32.5691V23.6377C261.671 23.3635 261.827 23.2068 262.102 23.2068H263.179C263.453 23.2068 263.61 23.3635 263.61 23.6377V32.5691C263.61 32.8433 263.453 33 263.179 33ZM270.792 23.0501C268.01 23.0501 265.738 25.3221 265.738 28.1034C265.738 30.8847 268.01 33.1567 270.792 33.1567C273.573 33.1567 275.845 30.8847 275.845 28.1034C275.845 25.3221 273.573 23.0501 270.792 23.0501ZM270.792 25.0284C272.496 25.0284 273.867 26.3994 273.867 28.1034C273.867 29.8074 272.496 31.1785 270.792 31.1785C269.088 31.1785 267.717 29.8074 267.717 28.1034C267.717 26.3994 269.088 25.0284 270.792 25.0284ZM282.146 23.0501C281.167 23.0501 280.246 23.4223 279.521 24.0294V23.5985C279.521 23.3635 279.365 23.2068 279.11 23.2068H278.327C278.052 23.2068 277.896 23.3635 277.896 23.6377V32.5691C277.896 32.8433 278.052 33 278.327 33H279.423C279.698 33 279.854 32.8433 279.854 32.5691V27.2024C279.854 25.9881 280.834 25.0088 282.068 25.0088C283.262 25.0088 284.261 25.9881 284.261 27.2024V32.5691C284.261 32.8433 284.418 33 284.692 33H285.789C286.063 33 286.22 32.8433 286.22 32.5691V27.2024C286.22 24.9108 284.418 23.0501 282.146 23.0501ZM299.266 31.0218H298.032C297.19 31.0218 296.524 30.3558 296.524 29.5136V24.9304H299.344C299.579 24.9304 299.736 24.7933 299.736 24.5387V23.5985C299.736 23.3635 299.579 23.2068 299.344 23.2068H296.524V20.5235C296.524 20.2493 296.348 20.0926 296.073 20.0926H294.977C294.702 20.0926 294.546 20.2493 294.546 20.5235V29.494C294.546 31.6681 295.936 33 297.993 33H299.266C299.521 33 299.697 32.8433 299.697 32.5691V31.4527C299.697 31.1981 299.521 31.0218 299.266 31.0218ZM306.157 23.0501C303.376 23.0501 301.104 25.3221 301.104 28.1034C301.104 30.8847 303.376 33.1567 306.157 33.1567C308.939 33.1567 311.211 30.8847 311.211 28.1034C311.211 25.3221 308.939 23.0501 306.157 23.0501ZM306.157 25.0284C307.861 25.0284 309.232 26.3994 309.232 28.1034C309.232 29.8074 307.861 31.1785 306.157 31.1785C304.453 31.1785 303.082 29.8074 303.082 28.1034C303.082 26.3994 304.453 25.0284 306.157 25.0284Z" fill="url(#paint3_linear)"/>
</g>
<defs>
<linearGradient id="paint0_linear" x1="11" y1="67" x2="334.958" y2="67.4339" gradientUnits="userSpaceOnUse">
<stop stop-color="#C71CB8"/>
<stop offset="1" stop-color="#FE139C"/>
</linearGradient>
<linearGradient id="paint1_linear" x1="16" y1="139" x2="329.959" y2="139.351" gradientUnits="userSpaceOnUse">
<stop stop-color="#C71CB8"/>
<stop offset="1" stop-color="#FE139C"/>
</linearGradient>
<linearGradient id="paint2_linear" x1="31" y1="93" x2="315.962" y2="93.5221" gradientUnits="userSpaceOnUse">
<stop stop-color="#C71CB8"/>
<stop offset="1" stop-color="#FE139C"/>
</linearGradient>
<linearGradient id="paint3_linear" x1="34" y1="38.1152" x2="311.964" y2="38.495" gradientUnits="userSpaceOnUse">
<stop stop-color="#C71CB8"/>
<stop offset="1" stop-color="#FE139C"/>
</linearGradient>
<clipPath id="clip0">
<rect width="346" height="149" fill="white"/>
</clipPath>
</defs>
</svg>
