<svg width="234" height="66" viewBox="0 0 234 66" fill="none" xmlns="http://www.w3.org/2000/svg">
<path d="M8.904 60.74V49.442H17.22C18.06 49.442 18.522 48.98 18.522 48.182V44.738C18.522 43.94 18.06 43.478 17.22 43.478H8.904V37.724H18.018C18.816 37.724 19.278 37.262 19.278 36.464V32.18C19.278 31.382 18.816 30.92 18.018 30.92H3.36C2.562 30.92 2.1 31.382 2.1 32.18V60.74C2.1 61.538 2.562 62 3.36 62H7.602C8.442 62 8.904 61.538 8.904 60.74ZM43.8598 60.488L37.1398 49.022C40.1218 47.384 42.1378 44.192 42.1378 40.538C42.1378 35.246 37.8118 30.92 32.4778 30.92H23.8678C23.0698 30.92 22.6078 31.382 22.6078 32.18V60.74C22.6078 61.538 23.0698 62 23.8678 62H28.1098C28.9498 62 29.4118 61.538 29.4118 60.74V50.24H30.3358L36.5098 61.118C36.8458 61.748 37.3498 62 38.0638 62H42.9778C44.0278 62 44.4058 61.328 43.8598 60.488ZM29.4118 37.724H32.4778C34.0738 37.724 35.3758 38.984 35.3758 40.538C35.3758 42.218 34.0738 43.436 32.4778 43.436H29.4118V37.724ZM64.0543 55.196H54.2263V49.442H63.2563C64.0963 49.442 64.5583 48.98 64.5583 48.182V44.738C64.5583 43.94 64.0963 43.478 63.2563 43.478H54.2263V37.724H64.0543C64.8523 37.724 65.3143 37.262 65.3143 36.464V32.18C65.3143 31.382 64.8523 30.92 64.0543 30.92H48.6823C47.8843 30.92 47.4223 31.382 47.4223 32.18V60.74C47.4223 61.538 47.8843 62 48.6823 62H64.0543C64.8523 62 65.3143 61.538 65.3143 60.74V56.456C65.3143 55.658 64.8523 55.196 64.0543 55.196ZM85.6695 55.196H75.8415V49.442H84.8715C85.7115 49.442 86.1735 48.98 86.1735 48.182V44.738C86.1735 43.94 85.7115 43.478 84.8715 43.478H75.8415V37.724H85.6695C86.4675 37.724 86.9295 37.262 86.9295 36.464V32.18C86.9295 31.382 86.4675 30.92 85.6695 30.92H70.2975C69.4995 30.92 69.0375 31.382 69.0375 32.18V60.74C69.0375 61.538 69.4995 62 70.2975 62H85.6695C86.4675 62 86.9295 61.538 86.9295 60.74V56.456C86.9295 55.658 86.4675 55.196 85.6695 55.196ZM119.22 45.914C120.312 44.36 121.026 42.47 121.026 40.328C121.026 35.12 116.742 30.92 111.534 30.92H103.848C103.05 30.92 102.588 31.382 102.588 32.18V60.74C102.588 61.538 103.05 62 103.848 62H112.416C117.624 62 121.908 57.8 121.908 52.508C121.908 49.988 120.858 47.678 119.22 45.914ZM109.056 37.724H111.24C112.71 37.724 113.97 38.9 113.97 40.412C113.97 41.882 112.71 43.058 111.24 43.058H109.056V37.724ZM112.122 55.196H109.056V49.862H112.122C113.592 49.862 114.81 51.038 114.81 52.508C114.81 54.02 113.592 55.196 112.122 55.196ZM140.596 30.668C131.902 30.668 124.804 37.724 124.804 46.46C124.804 55.196 131.902 62.252 140.596 62.252C149.332 62.252 156.388 55.196 156.388 46.46C156.388 37.724 149.332 30.668 140.596 30.668ZM140.554 37.43C145.426 37.43 149.584 41.546 149.584 46.46C149.584 51.374 145.426 55.49 140.554 55.49C135.556 55.49 131.608 51.458 131.608 46.46C131.608 41.462 135.556 37.43 140.554 37.43ZM177.736 32.18V49.316L165.598 31.718C165.22 31.13 164.758 30.92 164.086 30.92H161.188C160.39 30.92 159.928 31.382 159.928 32.18V60.74C159.928 61.538 160.39 62 161.188 62H165.43C166.27 62 166.732 61.538 166.732 60.74V43.73L178.702 61.202C179.08 61.79 179.542 62 180.214 62H183.238C184.036 62 184.498 61.538 184.498 60.74V32.18C184.498 31.382 184.036 30.92 183.238 30.92H179.038C178.198 30.92 177.736 31.382 177.736 32.18ZM198.849 62.252C193.137 62.252 188.475 57.59 188.475 51.878V32.18C188.475 31.382 188.937 30.92 189.735 30.92H193.935C194.775 30.92 195.237 31.382 195.237 32.18V51.878C195.237 53.852 196.833 55.448 198.849 55.448C200.865 55.448 202.503 53.852 202.503 51.878V32.18C202.503 31.382 202.965 30.92 203.763 30.92H207.963C208.761 30.92 209.265 31.382 209.265 32.18V51.878C209.265 57.59 204.561 62.252 198.849 62.252ZM222.447 62.336C219.549 62.336 216.693 61.244 213.795 59.186C212.955 58.598 212.787 57.968 213.165 57.212L215.223 53.516C215.685 52.802 216.315 52.634 217.029 53.138C218.877 54.314 220.641 54.944 222.069 54.944C223.833 54.944 224.967 54.062 224.967 52.676C224.967 50.24 221.565 49.358 218.541 47.678C214.719 45.536 212.829 42.554 212.997 38.984C213.249 33.818 217.575 30.416 223.119 30.668C225.345 30.752 227.487 31.508 229.209 32.474C229.923 32.894 230.049 33.524 229.629 34.238L227.697 37.22C227.235 37.934 226.647 38.06 225.933 37.682C225.051 37.22 224.001 36.842 222.825 36.842C220.977 36.842 219.885 37.724 219.885 38.984C219.885 41 222.615 41.84 225.135 43.1C227.613 44.318 232.233 46.964 232.233 52.718C232.233 58.136 228.117 62.336 222.447 62.336Z" fill="url(#paint0_linear)"/>
<path d="M7.312 4.24H2.968C2.632 4.24 2.44 4.432 2.44 4.768V21.472C2.44 21.808 2.632 22 2.968 22H7.312C12.208 22 16.192 18.016 16.192 13.12C16.192 8.224 12.208 4.24 7.312 4.24ZM7.312 19.576H4.864V6.664H7.312C10.864 6.664 13.768 9.568 13.768 13.12C13.768 16.672 10.864 19.576 7.312 19.576ZM32.2158 21.448L25.4478 4.624C25.3518 4.36 25.1598 4.24 24.8958 4.24H23.7678C23.5038 4.24 23.3118 4.36 23.2158 4.624L16.5198 21.448C16.3758 21.784 16.5438 22 16.8798 22H18.5117C18.7758 22 18.9918 21.88 19.0878 21.616L20.2878 18.64H28.4478L29.6478 21.616C29.7438 21.88 29.9358 22 30.1998 22H31.8318C32.1678 22 32.3358 21.784 32.2158 21.448ZM21.2238 16.24L24.3678 8.32L27.5118 16.24H21.2238ZM34.69 21.472V4.768C34.69 4.432 34.882 4.24 35.218 4.24H36.538C36.874 4.24 37.066 4.432 37.066 4.768V21.472C37.066 21.808 36.874 22 36.538 22H35.218C34.882 22 34.69 21.808 34.69 21.472ZM48.2948 22H40.3508C40.0148 22 39.8228 21.808 39.8228 21.472V4.768C39.8228 4.432 40.0148 4.24 40.3508 4.24H41.6948C42.0308 4.24 42.2468 4.432 42.2468 4.768V19.576H48.2948C48.6308 19.576 48.8228 19.792 48.8228 20.104V21.472C48.8228 21.808 48.6308 22 48.2948 22ZM61.7682 4.24H59.8962C59.6322 4.24 59.4402 4.336 59.3202 4.576L55.6722 10.84L52.0722 4.576C51.9282 4.336 51.7362 4.24 51.4962 4.24H49.6242C49.2402 4.24 49.0962 4.48 49.2882 4.816L54.4962 13.744V21.472C54.4962 21.808 54.6882 22 55.0242 22H56.3682C56.6802 22 56.8962 21.808 56.8962 21.472V13.744L62.0802 4.816C62.2722 4.48 62.1522 4.24 61.7682 4.24ZM80.4979 22H72.5539C72.2179 22 72.0259 21.808 72.0259 21.472V4.768C72.0259 4.432 72.2179 4.24 72.5539 4.24H73.8979C74.2339 4.24 74.4499 4.432 74.4499 4.768V19.576H80.4979C80.8339 19.576 81.0259 19.792 81.0259 20.104V21.472C81.0259 21.808 80.8339 22 80.4979 22ZM90.7218 4.072C85.7298 4.072 81.6738 8.128 81.6738 13.096C81.6738 18.088 85.7298 22.144 90.7218 22.144C95.6898 22.144 99.7458 18.088 99.7458 13.096C99.7458 8.128 95.6898 4.072 90.7218 4.072ZM90.6978 6.496C94.3218 6.496 97.3218 9.472 97.3218 13.096C97.3218 16.744 94.3218 19.744 90.6978 19.744C87.0498 19.744 84.0978 16.768 84.0978 13.096C84.0978 9.472 87.0498 6.496 90.6978 6.496ZM118.941 12.232H110.085C109.797 12.232 109.605 12.424 109.605 12.712V13.864C109.605 14.176 109.797 14.368 110.085 14.368H116.901C116.421 17.392 113.877 19.744 110.685 19.744C107.109 19.744 104.301 16.864 104.301 13.144C104.301 9.472 107.277 6.496 110.877 6.496C112.437 6.496 113.973 7.168 115.293 8.224C115.557 8.44 115.821 8.44 116.037 8.152L116.829 7.168C117.021 6.904 117.021 6.664 116.757 6.424C115.005 4.936 112.965 4.096 110.877 4.096C105.933 4.096 101.877 8.176 101.877 13.144C101.877 18.064 105.621 22.144 110.685 22.144C115.461 22.144 119.277 18.352 119.469 13.48V12.76C119.469 12.424 119.277 12.232 118.941 12.232ZM122.112 21.472V4.768C122.112 4.432 122.304 4.24 122.64 4.24H123.96C124.296 4.24 124.488 4.432 124.488 4.768V21.472C124.488 21.808 124.296 22 123.96 22H122.64C122.304 22 122.112 21.808 122.112 21.472ZM138.405 4.768V17.536L129.309 4.528C129.165 4.336 128.973 4.24 128.709 4.24H127.773C127.437 4.24 127.245 4.432 127.245 4.768V21.472C127.245 21.808 127.437 22 127.773 22H129.117C129.453 22 129.669 21.808 129.669 21.472V8.728L138.741 21.712C138.885 21.904 139.077 22 139.341 22H140.301C140.613 22 140.829 21.808 140.829 21.472V4.768C140.829 4.432 140.613 4.24 140.301 4.24H138.957C138.621 4.24 138.405 4.432 138.405 4.768ZM155.693 22.192C154.037 22.192 152.429 21.52 150.965 20.368C150.677 20.128 150.629 19.888 150.773 19.624L151.517 18.376C151.685 18.112 151.925 18.064 152.213 18.256C153.485 19.192 154.613 19.624 155.573 19.624C157.085 19.624 158.213 18.568 158.213 17.224C158.213 15.448 156.221 14.584 154.373 13.648C152.405 12.664 150.509 11.344 150.629 8.752C150.773 5.944 153.077 4.048 155.861 4.096C157.133 4.12 158.285 4.552 159.149 5.056C159.413 5.248 159.437 5.464 159.269 5.728L158.549 6.784C158.381 7.024 158.165 7.096 157.901 6.952C157.181 6.568 156.461 6.328 155.789 6.328C154.349 6.328 153.125 7.432 153.125 8.848C153.125 10.312 154.517 10.912 155.981 11.608C157.685 12.376 160.805 13.912 160.805 17.248C160.805 20.008 158.669 22.192 155.693 22.192ZM172.893 4.24H163.173C162.837 4.24 162.645 4.432 162.645 4.768V6.136C162.645 6.448 162.837 6.664 163.173 6.664H166.821V21.472C166.821 21.808 167.037 22 167.349 22H168.717C169.029 22 169.245 21.808 169.245 21.472V6.664H172.893C173.229 6.664 173.421 6.448 173.421 6.136V4.768C173.421 4.432 173.229 4.24 172.893 4.24ZM186.749 21.424L182.573 14.392C184.757 13.792 186.365 11.776 186.365 9.4C186.365 6.544 184.037 4.24 181.205 4.24H176.405C176.093 4.24 175.877 4.432 175.877 4.768V21.472C175.877 21.808 176.093 22 176.405 22H177.773C178.109 22 178.301 21.808 178.301 21.472V14.584H180.053L184.157 21.664C184.301 21.904 184.493 22 184.757 22H186.413C186.821 22 186.941 21.76 186.749 21.424ZM178.301 6.664H181.205C182.717 6.664 183.965 7.888 183.965 9.4C183.965 10.936 182.717 12.16 181.205 12.16H178.301V6.664ZM198.094 19.576H191.614V14.176H197.662C197.974 14.176 198.142 13.984 198.142 13.696V12.52C198.142 12.232 197.974 12.04 197.662 12.04H191.614V6.664H198.094C198.406 6.664 198.622 6.448 198.622 6.136V4.768C198.622 4.432 198.406 4.24 198.094 4.24H189.718C189.382 4.24 189.19 4.432 189.19 4.768V21.472C189.19 21.808 189.382 22 189.718 22H198.094C198.406 22 198.622 21.808 198.622 21.472V20.104C198.622 19.792 198.406 19.576 198.094 19.576ZM216.669 21.448L209.901 4.624C209.805 4.36 209.613 4.24 209.349 4.24H208.221C207.957 4.24 207.765 4.36 207.669 4.624L200.973 21.448C200.829 21.784 200.997 22 201.333 22H202.965C203.229 22 203.445 21.88 203.541 21.616L204.741 18.64H212.901L214.101 21.616C214.197 21.88 214.389 22 214.653 22H216.285C216.621 22 216.789 21.784 216.669 21.448ZM205.677 16.24L208.821 8.32L211.965 16.24H205.677ZM230.063 21.424L223.799 11.872L229.103 4.816C229.343 4.504 229.223 4.24 228.815 4.24H227.183C226.919 4.24 226.751 4.312 226.583 4.528L221.543 11.224V4.768C221.543 4.432 221.351 4.24 221.015 4.24H219.671C219.335 4.24 219.143 4.432 219.143 4.768V21.472C219.143 21.808 219.335 22 219.671 22H221.015C221.351 22 221.543 21.808 221.543 21.472V14.872L222.287 13.888L227.327 21.664C227.447 21.88 227.663 22 227.927 22H229.751C230.135 22 230.255 21.76 230.063 21.424Z" fill="url(#paint1_linear)"/>
<defs>
<linearGradient id="paint0_linear" x1="0" y1="66" x2="233.97" y2="66.167" gradientUnits="userSpaceOnUse">
<stop stop-color="#C71CB8"/>
<stop offset="1" stop-color="#FE139C"/>
</linearGradient>
<linearGradient id="paint1_linear" x1="1" y1="24" x2="231.97" y2="24.2848" gradientUnits="userSpaceOnUse">
<stop stop-color="#C71CB8"/>
<stop offset="1" stop-color="#FE139C"/>
</linearGradient>
</defs>
</svg>
