<svg width="346" height="149" viewBox="0 0 346 149" fill="none" xmlns="http://www.w3.org/2000/svg">
<rect width="346" height="149" fill="white"/>
<rect x="16" y="105" width="314" height="36" rx="4" fill="url(#paint0_linear)"/>
<path d="M135.698 124.685C135.621 125.756 135.224 126.599 134.509 127.214C133.798 127.829 132.859 128.137 131.692 128.137C130.416 128.137 129.411 127.708 128.678 126.852C127.949 125.99 127.584 124.81 127.584 123.311V122.702C127.584 121.745 127.753 120.902 128.09 120.173C128.427 119.444 128.908 118.885 129.532 118.498C130.161 118.106 130.89 117.91 131.72 117.91C132.868 117.91 133.793 118.218 134.495 118.833C135.197 119.448 135.603 120.312 135.712 121.424H133.661C133.611 120.781 133.431 120.316 133.121 120.029C132.816 119.738 132.349 119.592 131.72 119.592C131.036 119.592 130.523 119.838 130.182 120.33C129.844 120.818 129.671 121.576 129.662 122.606V123.358C129.662 124.434 129.824 125.22 130.147 125.717C130.476 126.214 130.991 126.462 131.692 126.462C132.326 126.462 132.798 126.318 133.107 126.031C133.422 125.74 133.602 125.291 133.647 124.685H135.698ZM140.346 126.353H144.7V128H138.295V118.047H140.346V126.353ZM152.889 125.949H149.293L148.609 128H146.429L150.134 118.047H152.034L155.76 128H153.579L152.889 125.949ZM149.847 124.288H152.335L151.084 120.562L149.847 124.288ZM160.12 128H158.069V118.047H160.12V128ZM165.957 118.047L168.514 125.266L171.057 118.047H173.75V128H171.692V125.279L171.897 120.583L169.211 128H167.803L165.123 120.59L165.328 125.279V128H163.277V118.047H165.957ZM189.621 128H187.57L183.578 121.451V128H181.527V118.047H183.578L187.577 124.609V118.047H189.621V128ZM200.838 123.249C200.838 124.229 200.665 125.088 200.318 125.826C199.972 126.564 199.475 127.134 198.828 127.535C198.186 127.936 197.447 128.137 196.613 128.137C195.788 128.137 195.052 127.938 194.405 127.542C193.758 127.146 193.257 126.58 192.901 125.847C192.546 125.108 192.366 124.261 192.361 123.304V122.812C192.361 121.832 192.537 120.97 192.888 120.228C193.243 119.48 193.742 118.908 194.385 118.512C195.032 118.111 195.77 117.91 196.6 117.91C197.429 117.91 198.165 118.111 198.808 118.512C199.455 118.908 199.954 119.48 200.305 120.228C200.66 120.97 200.838 121.829 200.838 122.805V123.249ZM198.76 122.798C198.76 121.754 198.573 120.961 198.199 120.419C197.826 119.877 197.292 119.605 196.6 119.605C195.911 119.605 195.381 119.874 195.007 120.412C194.633 120.945 194.444 121.729 194.439 122.764V123.249C194.439 124.265 194.626 125.054 195 125.614C195.374 126.175 195.911 126.455 196.613 126.455C197.301 126.455 197.83 126.186 198.199 125.648C198.568 125.106 198.755 124.318 198.76 123.283V122.798ZM211.33 125.129L212.67 118.047H214.714L212.506 128H210.441L208.821 121.342L207.201 128H205.137L202.929 118.047H204.973L206.319 125.115L207.96 118.047H209.696L211.33 125.129ZM218.958 124.944H217.317L217.085 118.047H219.19L218.958 124.944ZM218.138 126.024C218.47 126.024 218.737 126.122 218.938 126.318C219.143 126.514 219.245 126.765 219.245 127.07C219.245 127.371 219.143 127.619 218.938 127.815C218.737 128.011 218.47 128.109 218.138 128.109C217.81 128.109 217.543 128.011 217.338 127.815C217.137 127.619 217.037 127.371 217.037 127.07C217.037 126.77 217.137 126.521 217.338 126.325C217.543 126.125 217.81 126.024 218.138 126.024Z" fill="white"/>
<path d="M23.5853 71.8411V89.9592C23.5853 91.4019 22.3774 92.5762 20.9347 92.5762H18.9887C18.5189 92.5762 18.2505 92.8782 18.2505 93.3144V95.1933C18.2505 95.663 18.5189 95.9314 18.9887 95.9314H20.9347C24.5247 95.9314 26.9405 93.5157 26.9405 89.9256V71.8411C26.9405 71.3714 26.6385 71.1029 26.1688 71.1029H24.3234C23.8537 71.1029 23.5853 71.3714 23.5853 71.8411ZM38.7938 96.1327C34.4656 96.1327 30.9426 92.6098 30.9426 88.2816V71.8411C30.9426 71.3714 31.211 71.1029 31.6808 71.1029H33.5597C34.0294 71.1029 34.2978 71.3714 34.2978 71.8411V88.2816C34.2978 90.7309 36.3109 92.744 38.7938 92.744C41.2766 92.744 43.3233 90.7309 43.3233 88.2816V71.8411C43.3233 71.3714 43.5917 71.1029 44.0615 71.1029H45.9404C46.3765 71.1029 46.6785 71.3714 46.6785 71.8411V88.2816C46.6785 92.6098 43.1555 96.1327 38.7938 96.1327ZM57.2469 96.1998C54.9318 96.1998 52.6838 95.2604 50.6371 93.6499C50.2345 93.3144 50.1674 92.9788 50.3687 92.6098L51.4088 90.8651C51.6437 90.496 51.9792 90.4289 52.3818 90.6973C54.1601 92.0058 55.737 92.6098 57.0791 92.6098C59.1929 92.6098 60.7698 91.1335 60.7698 89.2546C60.7698 86.7717 57.985 85.5639 55.4015 84.2553C52.6502 82.8797 49.9996 81.0343 50.1674 77.4107C50.3687 73.4851 53.5897 70.8345 57.4817 70.9016C59.26 70.9352 60.8705 71.5391 62.0784 72.2437C62.4474 72.5121 62.481 72.8141 62.2461 73.1832L61.2396 74.6595C61.0047 74.995 60.7027 75.0956 60.3337 74.8943C59.3271 74.3575 58.3205 74.022 57.3811 74.022C55.368 74.022 53.6568 75.5654 53.6568 77.5449C53.6568 79.5916 55.6028 80.4304 57.6495 81.4034C60.0317 82.4771 64.3934 84.6244 64.3934 89.2881C64.3934 93.1466 61.4073 96.1998 57.2469 96.1998ZM81.2919 71.1029H67.7033C67.2336 71.1029 66.9652 71.3714 66.9652 71.8411V73.7535C66.9652 74.1897 67.2336 74.4917 67.7033 74.4917H72.8032V95.1933C72.8032 95.663 73.1052 95.9314 73.5414 95.9314H75.4538C75.89 95.9314 76.192 95.663 76.192 95.1933V74.4917H81.2919C81.7616 74.4917 82.03 74.1897 82.03 73.7535V71.8411C82.03 71.3714 81.7616 71.1029 81.2919 71.1029ZM107.24 96.1327C100.227 96.1327 94.5905 90.4624 94.5905 83.5172C94.5905 76.5719 100.294 70.9016 107.139 70.9016C110.259 70.9016 113.078 72.0759 115.527 74.1897C115.863 74.4917 115.896 74.8272 115.594 75.1963L114.52 76.5384C114.252 76.941 113.849 76.9745 113.48 76.639C111.668 75.1963 109.555 74.2568 107.173 74.2568C102.14 74.2568 97.9457 78.4173 97.9457 83.5172C97.9457 88.6171 102.106 92.7775 107.173 92.7775C109.521 92.7775 111.702 91.9052 113.48 90.4289C113.849 90.1269 114.218 90.1605 114.52 90.5296L115.628 92.0058C115.93 92.4085 115.863 92.744 115.527 93.046C113.145 95.0255 110.326 96.1327 107.24 96.1327ZM131.614 95.9314H120.508C120.039 95.9314 119.77 95.663 119.77 95.1933V71.8411C119.77 71.3714 120.039 71.1029 120.508 71.1029H122.387C122.857 71.1029 123.159 71.3714 123.159 71.8411V92.5427H131.614C132.084 92.5427 132.352 92.8446 132.352 93.2808V95.1933C132.352 95.663 132.084 95.9314 131.614 95.9314ZM135.531 95.1933V71.8411C135.531 71.3714 135.799 71.1029 136.269 71.1029H138.114C138.584 71.1029 138.852 71.3714 138.852 71.8411V95.1933C138.852 95.663 138.584 95.9314 138.114 95.9314H136.269C135.799 95.9314 135.531 95.663 135.531 95.1933ZM154.684 96.1327C147.672 96.1327 142.035 90.4624 142.035 83.5172C142.035 76.5719 147.739 70.9016 154.584 70.9016C157.704 70.9016 160.522 72.0759 162.972 74.1897C163.307 74.4917 163.341 74.8272 163.039 75.1963L161.965 76.5384C161.697 76.941 161.294 76.9745 160.925 76.639C159.113 75.1963 156.999 74.2568 154.617 74.2568C149.584 74.2568 145.39 78.4173 145.39 83.5172C145.39 88.6171 149.551 92.7775 154.617 92.7775C156.966 92.7775 159.147 91.9052 160.925 90.4289C161.294 90.1269 161.663 90.1605 161.965 90.5296L163.072 92.0058C163.374 92.4085 163.307 92.744 162.972 93.046C160.589 95.0255 157.771 96.1327 154.684 96.1327ZM182.481 95.1262L173.724 81.7725L181.139 71.9082C181.475 71.472 181.307 71.1029 180.736 71.1029H178.455C178.086 71.1029 177.851 71.2036 177.616 71.5056L170.57 80.8666V71.8411C170.57 71.3714 170.302 71.1029 169.832 71.1029H167.953C167.483 71.1029 167.215 71.3714 167.215 71.8411V95.1933C167.215 95.663 167.483 95.9314 167.953 95.9314H169.832C170.302 95.9314 170.57 95.663 170.57 95.1933V85.9665L171.61 84.5908L178.656 95.4617C178.824 95.7637 179.126 95.9314 179.495 95.9314H182.045C182.582 95.9314 182.749 95.5959 182.481 95.1262ZM198.251 77.3772H199.66C200.163 77.3772 200.431 77.0416 200.297 76.5384L199.123 71.7404C198.989 71.3042 198.72 71.1029 198.284 71.1029H196.908C196.405 71.1029 196.137 71.4049 196.271 71.9082L197.445 76.7061C197.546 77.1423 197.848 77.3772 198.251 77.3772ZM219.481 71.8411V89.6908L206.765 71.5056C206.564 71.2371 206.295 71.1029 205.926 71.1029H204.618C204.148 71.1029 203.88 71.3714 203.88 71.8411V95.1933C203.88 95.663 204.148 95.9314 204.618 95.9314H206.497C206.966 95.9314 207.268 95.663 207.268 95.1933V77.3772L219.951 95.5288C220.152 95.7972 220.421 95.9314 220.79 95.9314H222.132C222.568 95.9314 222.87 95.663 222.87 95.1933V71.8411C222.87 71.3714 222.568 71.1029 222.132 71.1029H220.253C219.783 71.1029 219.481 71.3714 219.481 71.8411ZM248.918 96.1327C241.906 96.1327 236.269 90.4624 236.269 83.5172C236.269 76.5719 241.973 70.9016 248.818 70.9016C251.938 70.9016 254.756 72.0759 257.206 74.1897C257.541 74.4917 257.575 74.8272 257.273 75.1963L256.199 76.5384C255.931 76.941 255.528 76.9745 255.159 76.639C253.347 75.1963 251.233 74.2568 248.851 74.2568C243.818 74.2568 239.624 78.4173 239.624 83.5172C239.624 88.6171 243.785 92.7775 248.851 92.7775C251.2 92.7775 253.381 91.9052 255.159 90.4289C255.528 90.1269 255.897 90.1605 256.199 90.5296L257.306 92.0058C257.608 92.4085 257.541 92.744 257.206 93.046C254.823 95.0255 252.005 96.1327 248.918 96.1327ZM267.153 92.5427H266.75C265.542 92.5427 264.67 91.8045 264.67 90.2276V73.1832C264.67 72.7134 264.368 72.445 263.898 72.445H262.019C261.55 72.445 261.281 72.7134 261.281 73.1832V90.2276C261.281 94.2874 263.227 95.9314 266.683 95.9314H266.985C267.455 95.9314 267.723 95.663 267.723 95.1933V93.2808C267.723 92.8446 267.555 92.5427 267.153 92.5427ZM292.263 95.1597L282.801 71.6398C282.667 71.2707 282.398 71.1029 282.029 71.1029H280.452C280.083 71.1029 279.815 71.2707 279.681 71.6398L270.32 95.1597C270.118 95.6295 270.353 95.9314 270.823 95.9314H273.105C273.474 95.9314 273.776 95.7637 273.91 95.3946L275.587 91.2341H286.995L288.673 95.3946C288.807 95.7637 289.075 95.9314 289.444 95.9314H291.726C292.196 95.9314 292.431 95.6295 292.263 95.1597ZM276.896 87.8789L281.291 76.8068L285.687 87.8789H276.896ZM295.722 95.1933V71.8411C295.722 71.3714 295.99 71.1029 296.46 71.1029H298.305C298.775 71.1029 299.043 71.3714 299.043 71.8411V95.1933C299.043 95.663 298.775 95.9314 298.305 95.9314H296.46C295.99 95.9314 295.722 95.663 295.722 95.1933ZM326.686 71.1029H325.176C324.807 71.1029 324.538 71.2707 324.371 71.6062L315.144 90.3618L305.917 71.6062C305.716 71.2707 305.481 71.1029 305.112 71.1029H303.636C303.166 71.1029 302.897 71.3714 302.897 71.8411V95.1933C302.897 95.663 303.166 95.9314 303.636 95.9314H305.514C305.984 95.9314 306.286 95.663 306.286 95.1933V78.9877L314.037 94.69C314.171 94.9584 314.372 95.0926 314.674 95.0926H315.614C315.916 95.0926 316.117 94.9584 316.251 94.69L324.035 78.9877V95.1933C324.035 95.663 324.304 95.9314 324.773 95.9314H326.686C327.122 95.9314 327.424 95.663 327.424 95.1933V71.8411C327.424 71.3714 327.122 71.1029 326.686 71.1029Z" fill="url(#paint1_linear)"/>
<path d="M30.1225 57.7405V42.181H41.5753C42.7321 42.181 43.3684 41.5447 43.3684 40.4457V35.7027C43.3684 34.6037 42.7321 33.9674 41.5753 33.9674H30.1225V26.043H42.6743C43.7733 26.043 44.4095 25.4068 44.4095 24.3078V18.4079C44.4095 17.3089 43.7733 16.6726 42.6743 16.6726H22.4874C21.3884 16.6726 20.7521 17.3089 20.7521 18.4079V57.7405C20.7521 58.8395 21.3884 59.4758 22.4874 59.4758H28.3294C29.4863 59.4758 30.1225 58.8395 30.1225 57.7405ZM78.2634 57.3935L69.0087 41.6026C73.1155 39.3467 75.8919 34.9507 75.8919 29.9184C75.8919 22.6303 69.9342 16.6726 62.5882 16.6726H50.7306C49.6316 16.6726 48.9953 17.3089 48.9953 18.4079V57.7405C48.9953 58.8395 49.6316 59.4758 50.7306 59.4758H56.5726C57.7295 59.4758 58.3657 58.8395 58.3657 57.7405V43.28H59.6383L68.1411 58.2611C68.6038 59.1287 69.2979 59.4758 70.2812 59.4758H77.0487C78.4948 59.4758 79.0154 58.5503 78.2634 57.3935ZM58.3657 26.043H62.5882C64.7862 26.043 66.5793 27.7783 66.5793 29.9184C66.5793 32.2321 64.7862 33.9096 62.5882 33.9096H58.3657V26.043ZM106.075 50.1053H92.54V42.181H104.976C106.133 42.181 106.769 41.5447 106.769 40.4457V35.7027C106.769 34.6037 106.133 33.9674 104.976 33.9674H92.54V26.043H106.075C107.174 26.043 107.81 25.4068 107.81 24.3078V18.4079C107.81 17.3089 107.174 16.6726 106.075 16.6726H84.9049C83.8059 16.6726 83.1696 17.3089 83.1696 18.4079V57.7405C83.1696 58.8395 83.8059 59.4758 84.9049 59.4758H106.075C107.174 59.4758 107.81 58.8395 107.81 57.7405V51.8406C107.81 50.7416 107.174 50.1053 106.075 50.1053ZM135.843 50.1053H122.308V42.181H134.744C135.901 42.181 136.538 41.5447 136.538 40.4457V35.7027C136.538 34.6037 135.901 33.9674 134.744 33.9674H122.308V26.043H135.843C136.942 26.043 137.579 25.4068 137.579 24.3078V18.4079C137.579 17.3089 136.942 16.6726 135.843 16.6726H114.673C113.574 16.6726 112.938 17.3089 112.938 18.4079V57.7405C112.938 58.8395 113.574 59.4758 114.673 59.4758H135.843C136.942 59.4758 137.579 58.8395 137.579 57.7405V51.8406C137.579 50.7416 136.942 50.1053 135.843 50.1053ZM179.736 59.8228C167.762 59.8228 157.987 50.0475 157.987 38.0742C157.987 26.1009 167.762 16.3256 179.678 16.3256C185.52 16.3256 190.61 18.6392 194.948 22.9774C195.758 23.7293 195.758 24.5391 195.064 25.4068L191.709 29.4557C191.015 30.3233 190.089 30.3812 189.222 29.6292C186.388 27.2577 183.38 25.6381 179.736 25.6381C172.852 25.6381 167.3 31.2488 167.3 38.0742C167.3 44.8996 172.852 50.5102 179.736 50.5102C183.091 50.5102 186.503 49.122 189.222 46.6927C190.089 45.9407 190.957 45.9407 191.651 46.8662L195.122 51.3779C195.758 52.2455 195.758 53.0553 194.948 53.8651C191.015 57.5091 185.578 59.8228 179.736 59.8228ZM219.283 16.3256C207.31 16.3256 197.534 26.043 197.534 38.0742C197.534 50.1053 207.31 59.8228 219.283 59.8228C231.314 59.8228 241.032 50.1053 241.032 38.0742C241.032 26.043 231.314 16.3256 219.283 16.3256ZM219.225 25.6381C225.935 25.6381 231.661 31.3067 231.661 38.0742C231.661 44.8417 225.935 50.5102 219.225 50.5102C212.342 50.5102 206.905 44.9574 206.905 38.0742C206.905 31.191 212.342 25.6381 219.225 25.6381ZM245.907 57.7405V18.4079C245.907 17.3089 246.543 16.6726 247.642 16.6726H253.369C254.526 16.6726 255.162 17.3089 255.162 18.4079V57.7405C255.162 58.8395 254.526 59.4758 253.369 59.4758H247.642C246.543 59.4758 245.907 58.8395 245.907 57.7405ZM285.119 18.4079V42.0075L268.402 17.7716C267.882 16.9618 267.245 16.6726 266.32 16.6726H262.329C261.23 16.6726 260.594 17.3089 260.594 18.4079V57.7405C260.594 58.8395 261.23 59.4758 262.329 59.4758H268.171C269.328 59.4758 269.964 58.8395 269.964 57.7405V34.3144L286.449 58.3768C286.97 59.1866 287.606 59.4758 288.531 59.4758H292.696C293.795 59.4758 294.431 58.8395 294.431 57.7405V18.4079C294.431 17.3089 293.795 16.6726 292.696 16.6726H286.912C285.755 16.6726 285.119 17.3089 285.119 18.4079ZM312.633 59.9385C308.642 59.9385 304.709 58.4346 300.718 55.6003C299.561 54.7906 299.33 53.9229 299.85 52.8818L302.685 47.7917C303.321 46.8083 304.188 46.577 305.172 47.2711C307.717 48.8907 310.146 49.7583 312.113 49.7583C314.542 49.7583 316.104 48.5436 316.104 46.6348C316.104 43.28 311.419 42.0653 307.254 39.7516C301.99 36.8017 299.388 32.6949 299.619 27.7783C299.966 20.6637 305.924 15.9785 313.559 16.3256C316.624 16.4412 319.574 17.4824 321.946 18.8128C322.929 19.3912 323.103 20.2588 322.524 21.2421L319.864 25.3489C319.227 26.3322 318.418 26.5058 317.434 25.9852C316.22 25.3489 314.774 24.8283 313.154 24.8283C310.609 24.8283 309.105 26.043 309.105 27.7783C309.105 30.5547 312.865 31.7116 316.335 33.4468C319.748 35.1242 326.111 38.7683 326.111 46.6927C326.111 54.1543 320.442 59.9385 312.633 59.9385Z" fill="url(#paint2_linear)"/>
<defs>
<linearGradient id="paint0_linear" x1="330" y1="105" x2="227.07" y2="271.49" gradientUnits="userSpaceOnUse">
<stop stop-color="#FFB300"/>
<stop offset="1" stop-color="#F57C00"/>
</linearGradient>
<linearGradient id="paint1_linear" x1="330" y1="65.9314" x2="234.54" y2="228.475" gradientUnits="userSpaceOnUse">
<stop stop-color="#FFB300"/>
<stop offset="1" stop-color="#F57C00"/>
</linearGradient>
<linearGradient id="paint2_linear" x1="330" y1="7.47577" x2="145.131" y2="193.587" gradientUnits="userSpaceOnUse">
<stop stop-color="#FFB300"/>
<stop offset="1" stop-color="#F57C00"/>
</linearGradient>
</defs>
</svg>
