<svg width="217" height="29" viewBox="0 0 217 29" fill="none" xmlns="http://www.w3.org/2000/svg">
<path d="M8.86867 0.743331H1.42834C0.839006 0.743331 0.470673 1.11166 0.470673 1.701V27.0423C0.470673 27.6317 0.839006 28 1.42834 28H4.33817C4.92751 28 5.29584 27.6317 5.29584 27.0423V17.171H8.86867C13.436 17.171 17.1193 13.4508 17.1193 8.92033C17.1193 4.42666 13.436 0.743331 8.86867 0.743331ZM8.86867 12.309H5.29584V5.5685H8.86867C10.784 5.5685 12.2573 7.07866 12.2573 8.92033C12.2573 10.8357 10.784 12.309 8.86867 12.309ZM33.9454 28H21.422C20.8327 28 20.4644 27.6317 20.4644 27.0423V1.701C20.4644 1.11166 20.8327 0.743331 21.422 0.743331H24.3319C24.9212 0.743331 25.2895 1.11166 25.2895 1.701V23.1748H33.9454C34.5715 23.1748 34.9399 23.5063 34.9399 24.1325V27.0423C34.9399 27.6317 34.5715 28 33.9454 28ZM62.9019 26.9318L52.6254 1.44316C52.4412 0.96433 52.0729 0.743331 51.5572 0.743331H49.2736C48.7579 0.743331 48.3896 0.96433 48.2054 1.44316L38.0762 26.9318C37.8552 27.5948 38.1131 28 38.8129 28H42.1279C42.6804 28 43.0119 27.779 43.1961 27.2633L44.8904 23.1012H56.1246L57.7821 27.2633C57.9662 27.7422 58.3346 27.9632 58.8502 27.9632L62.1652 28C62.8651 28 63.1597 27.5948 62.9019 26.9318ZM46.8057 18.276L50.5259 8.95716L54.2092 18.276H46.8057ZM80.8136 0.743331H76.983C76.5041 0.743331 76.1358 0.96433 75.878 1.3695L71.0528 9.95167L66.2276 1.3695C65.9698 0.96433 65.6015 0.743331 65.0858 0.743331H61.292C60.5553 0.743331 60.2975 1.22216 60.6658 1.84833L68.6586 15.624V27.0423C68.6586 27.6317 69.027 28 69.6163 28H72.4893C73.1155 28 73.447 27.6317 73.447 27.0423V15.624L81.4766 1.84833C81.845 1.22216 81.5503 0.743331 80.8136 0.743331ZM96.878 27.0423V1.701C96.878 1.11166 97.2464 0.743331 97.8357 0.743331H100.672C101.298 0.743331 101.63 1.11166 101.63 1.701V27.0423C101.63 27.6317 101.298 28 100.672 28H97.8357C97.2464 28 96.878 27.6317 96.878 27.0423ZM121.039 0.743331H105.938C105.348 0.743331 104.98 1.11166 104.98 1.701V4.61083C104.98 5.237 105.348 5.5685 105.938 5.5685H111.094V27.0423C111.094 27.6317 111.426 28 112.052 28H114.925C115.551 28 115.883 27.6317 115.883 27.0423V5.5685H121.039C121.666 5.5685 121.997 5.237 121.997 4.61083V1.701C121.997 1.11166 121.666 0.743331 121.039 0.743331ZM144.307 28.2947C141.765 28.2947 139.298 27.3002 136.867 25.4953C136.277 25.0902 136.167 24.6113 136.461 24.0957L137.935 21.5173C138.266 20.9648 138.708 20.8543 139.261 21.2227C141.029 22.475 142.686 23.0643 144.049 23.0643C145.964 23.0643 147.327 21.8857 147.327 20.2282C147.327 17.7972 144.344 16.7658 141.581 15.3293C138.377 13.5982 136.093 11.3145 136.277 7.74166C136.498 3.32166 140.145 0.374996 144.712 0.52233C146.664 0.559162 148.506 1.22216 149.906 2.06933C150.421 2.364 150.532 2.84283 150.2 3.32166L148.801 5.458C148.469 5.93683 148.064 6.04733 147.511 5.7895C146.591 5.27383 145.559 4.94233 144.528 4.94233C142.613 4.94233 141.213 6.15783 141.213 7.81533C141.213 9.80433 143.46 10.6515 145.707 11.7565C148.101 12.8615 152.521 15.2188 152.521 20.265C152.521 24.7587 149.058 28.2947 144.307 28.2947ZM179.729 26.9318L169.452 1.44316C169.268 0.96433 168.9 0.743331 168.384 0.743331H166.101C165.585 0.743331 165.217 0.96433 165.032 1.44316L154.903 26.9318C154.682 27.5948 154.94 28 155.64 28H158.955C159.507 28 159.839 27.779 160.023 27.2633L161.717 23.1012H172.952L174.609 27.2633C174.793 27.7422 175.162 27.9632 175.677 27.9632L178.992 28C179.692 28 179.987 27.5948 179.729 26.9318ZM163.633 18.276L167.353 8.95716L171.036 18.276H163.633ZM188.507 27.0423V16.4712H196.499C197.089 16.4712 197.457 16.1397 197.457 15.5503V13.1562C197.457 12.5668 197.089 12.2353 196.499 12.2353H188.507V5.5685H197.162C197.752 5.5685 198.12 5.237 198.12 4.61083V1.701C198.12 1.11166 197.752 0.743331 197.162 0.743331H184.639C184.05 0.743331 183.681 1.11166 183.681 1.701V27.0423C183.681 27.6317 184.05 28 184.639 28H187.549C188.138 28 188.507 27.6317 188.507 27.0423ZM215.948 23.1748H206.666V16.4712H215.285C215.874 16.4712 216.242 16.1397 216.242 15.5503V13.1562C216.242 12.5668 215.874 12.2353 215.285 12.2353H206.666V5.5685H215.948C216.537 5.5685 216.905 5.237 216.905 4.61083V1.701C216.905 1.11166 216.537 0.743331 215.948 0.743331H202.798C202.209 0.743331 201.841 1.11166 201.841 1.701V27.0423C201.841 27.6317 202.209 28 202.798 28H215.948C216.537 28 216.905 27.6317 216.905 27.0423V24.1325C216.905 23.5063 216.537 23.1748 215.948 23.1748Z" fill="url(#paint0_linear)"/>
<defs>
<linearGradient id="paint0_linear" x1="-2" y1="33" x2="218.972" y2="33.1604" gradientUnits="userSpaceOnUse">
<stop stop-color="#C71CB8"/>
<stop offset="1" stop-color="#FE139C"/>
</linearGradient>
</defs>
</svg>
