<svg width="346" height="149" fill="none" xmlns="http://www.w3.org/2000/svg"><g clip-path="url(#clip0)"><path fill="#fff" d="M0 0h346v149H0z"/><path fill="url(#paint0_linear)" d="M0 0h346v149H0z"/><path d="M29.231 32.489V16.307c0-.326.186-.512.512-.512h1.278c.326 0 .512.186.512.511V32.49c0 .325-.186.511-.512.511h-1.278c-.326 0-.512-.186-.512-.511zm10.692-1.837h-1.465c-1 0-1.79-.79-1.79-1.79V23.42h3.348c.279 0 .465-.163.465-.465V21.84c0-.279-.186-.465-.465-.465h-3.348V18.19c0-.326-.21-.512-.535-.512h-1.302c-.325 0-.511.186-.511.512v10.648c0 2.581 1.65 4.162 4.092 4.162h1.511c.302 0 .511-.186.511-.511v-1.326a.488.488 0 00-.511-.511zm4.548-10.974l.814-3.325c.07-.349-.116-.558-.465-.558h-.93c-.303 0-.512.14-.581.442l-.837 3.325c-.07.348.116.58.465.58h.953c.302 0 .511-.162.581-.464zm10.155 2.976l-.488.837c-.163.279-.419.325-.698.163-.488-.256-1.14-.512-1.813-.512-.907 0-1.698.442-1.698 1.163 0 .79.907 1.092 2.07 1.51 1.836.652 3.464 1.907 3.464 3.814 0 1.93-1.65 3.557-4.022 3.557-1.233 0-2.488-.419-3.441-.93-.28-.163-.35-.395-.21-.698l.489-1.023c.14-.302.395-.372.674-.232.72.349 1.65.651 2.418.651 1.162 0 1.674-.698 1.674-1.372 0-.79-.72-1.232-2.325-1.86-1.163-.465-3.046-1.232-3.046-3.301 0-1.93 1.674-3.232 3.86-3.232 1.116 0 2.046.326 2.906.79.279.14.349.396.186.675zm21.152-1.279h-1.837a.583.583 0 00-.58.535 6.047 6.047 0 00-2.837-.721 5.973 5.973 0 00-5.976 5.975c0 3.325 2.674 6.022 5.976 6.022 1.07 0 2-.302 2.883-.744a.57.57 0 00.58.558h1.791c.395 0 .744-.325.744-.72V22.095c0-.395-.349-.721-.744-.721zm-5.161 8.044c-1.233 0-2.21-1-2.21-2.255 0-1.232.977-2.232 2.21-2.232 1.232 0 2.232 1 2.232 2.232 0 1.256-1 2.255-2.232 2.255zm13.017-.186h-.21c-.558 0-.837-.372-.837-.906V17.422c0-.441-.255-.697-.72-.697h-2.349c-.441 0-.697.256-.697.697V28.28c0 3.278 1.186 4.72 4.487 4.72h.21c.441 0 .697-.256.697-.697V29.93c0-.442-.14-.698-.581-.698zm8.985-6.998l-1.836 4.441-1.814-4.743c-.14-.395-.395-.558-.79-.558h-2.535c-.511 0-.72.326-.534.814l4.045 10.253c.14.372.395.558.79.558h1.303c.395 0 .65-.186.79-.558l1.837-4.65 1.767 4.65c.14.395.418.558.814.558h1.302c.418 0 .674-.186.813-.558l4.023-10.253c.186-.488-.024-.814-.558-.814h-2.488c-.395 0-.651.163-.79.558l-1.837 4.743-1.814-4.417c-.116-.303-.349-.442-.674-.442l-1.14-.023c-.325 0-.557.139-.674.441zm21.979-.86h-1.837a.582.582 0 00-.581.535 6.05 6.05 0 00-2.837-.721 5.973 5.973 0 00-5.975 5.975c0 3.325 2.674 6.022 5.975 6.022 1.07 0 2-.302 2.883-.744 0 .302.256.558.581.558h1.791c.395 0 .744-.325.744-.72V22.095c0-.395-.349-.721-.744-.721zm-5.162 8.044c-1.232 0-2.209-1-2.209-2.255 0-1.232.977-2.232 2.209-2.232 1.232 0 2.232 1 2.232 2.232 0 1.256-1 2.255-2.232 2.255zm18.855-8.044h-2.673c-.396 0-.651.163-.791.535l-1.79 4.37-1.767-4.37c-.14-.372-.419-.535-.814-.535h-2.627c-.512 0-.744.326-.558.814l3.766 9.16c-.511 1.581-1.72 2.674-3.115 3.046-.442.116-.628.372-.465.86l.697 2c.14.418.419.581.837.488 2.325-.535 4.325-2.162 5.511-5.092l4.347-10.462c.186-.488-.046-.814-.558-.814zm9.162 1.535l-.814 1.441c-.209.372-.558.488-.953.279-.535-.232-.977-.395-1.325-.395-.326 0-.489.14-.489.349 0 .302.349.395 1.512.837 1.743.65 3.301 1.883 3.301 3.882 0 2.046-1.651 3.883-4.487 3.883-1.535 0-2.744-.535-3.581-1.046-.372-.21-.441-.558-.255-.954l.79-1.65c.209-.442.535-.512.953-.349.651.279 1.535.581 2.116.581.419 0 .628-.14.628-.372 0-.349-.419-.511-1.651-1.046-.814-.349-2.999-1.256-2.999-3.65 0-2.14 1.79-3.511 4.022-3.511.977 0 1.93.256 2.953.767.418.186.511.558.279.954zm14.647-2.86h1.14c.441 0 .697-.256.697-.721v-1.907c0-.441-.256-.697-.697-.697h-1.14c-2.952 0-4.859 1.534-4.859 4.627v10.95c0 .442.256.698.698.698h2.301c.442 0 .698-.233.698-.697l.023-7.65h2.255c.465 0 .721-.255.721-.72v-1.86c0-.442-.256-.698-.721-.698h-2.255v-.21c0-.627.465-1.115 1.139-1.115zm9.636 1.325h-.977c-.72 0-1.418.116-2.092.535-.023-.349-.233-.535-.581-.535h-1.605c-.441 0-.697.256-.697.698v10.23c0 .441.256.697.697.697h2.302c.465 0 .721-.256.721-.697v-5.999a1.38 1.38 0 011.395-1.372h.837c.442 0 .697-.255.697-.697v-2.162c0-.442-.255-.698-.697-.698zm14.056 6.254c-.256-4.022-2.697-6.44-5.929-6.44-3.371 0-6.022 2.65-6.022 5.929 0 3.348 2.744 6.068 6.278 6.068 1.279 0 2.836-.349 4.441-1.372.395-.302.441-.65.139-1.023l-1.302-1.534c-.279-.349-.581-.372-.976-.163-.628.349-1.395.628-2.232.628-.837 0-1.884-.28-2.558-1.349h7.487c.441 0 .697-.279.674-.744zm-8.114-2.092c.162-.698.93-1.372 2.092-1.372 1.139 0 1.814.698 2 1.372h-4.092zm21.697 2.092c-.256-4.022-2.697-6.44-5.929-6.44-3.371 0-6.022 2.65-6.022 5.929 0 3.348 2.744 6.068 6.278 6.068 1.279 0 2.836-.349 4.441-1.372.395-.302.441-.65.139-1.023l-1.302-1.534c-.279-.349-.581-.372-.976-.163-.628.349-1.395.628-2.232.628-.837 0-1.884-.28-2.558-1.349h7.487c.441 0 .697-.279.674-.744zm-8.114-2.092c.162-.698.93-1.372 2.092-1.372 1.139 0 1.814.698 2 1.372h-4.092zm23.248 5.115h-1.465c-1 0-1.79-.79-1.79-1.79V23.42h3.348c.279 0 .465-.163.465-.465V21.84c0-.279-.186-.465-.465-.465h-3.348V18.19c0-.326-.21-.512-.535-.512h-1.302c-.326 0-.512.186-.512.512v10.648c0 2.581 1.651 4.162 4.092 4.162h1.512c.302 0 .511-.186.511-.511v-1.326a.488.488 0 00-.511-.511zm8.18-9.463c-3.302 0-5.999 2.697-5.999 5.998 0 3.302 2.697 5.999 5.999 5.999 3.301 0 5.998-2.697 5.998-5.998 0-3.302-2.697-5.999-5.998-5.999zm0 2.348a3.641 3.641 0 013.65 3.65 3.641 3.641 0 01-3.65 3.65 3.641 3.641 0 01-3.65-3.65 3.641 3.641 0 013.65-3.65zm21.724-2.348a5.804 5.804 0 00-3.999 1.604v-.953c0-.279-.186-.465-.488-.465h-.976c-.326 0-.512.186-.512.512v15.252c0 .325.186.511.512.511h1.278c.326 0 .535-.186.535-.511V31.79c.93.86 2.255 1.395 3.65 1.395a5.984 5.984 0 005.999-5.998 5.998 5.998 0 00-5.999-5.999zm-.023 9.649a3.657 3.657 0 01-3.65-3.65c0-2 1.651-3.627 3.65-3.627 2 0 3.65 1.627 3.65 3.627 0 2.022-1.65 3.65-3.65 3.65zm12.54-.186h-.279c-.837 0-1.441-.512-1.441-1.605v-11.81c0-.326-.21-.512-.535-.512h-1.302c-.326 0-.512.186-.512.511v11.811c0 2.814 1.349 3.953 3.744 3.953h.209c.325 0 .511-.186.511-.511v-1.326c0-.302-.116-.511-.395-.511zm13.387-9.277h-1c-.279 0-.465.186-.465.465v.953a5.77 5.77 0 00-3.976-1.604c-3.325 0-6.022 2.697-6.022 5.975a6.023 6.023 0 006.022 6.022c1.535 0 2.953-.628 3.999-1.628v.977c0 .279.186.465.465.465h.977c.302 0 .534-.21.534-.511V21.887c0-.303-.232-.512-.534-.512zm-5.418 9.463a3.647 3.647 0 01-3.65-3.674c0-2 1.628-3.65 3.65-3.65a3.657 3.657 0 013.651 3.65 3.647 3.647 0 01-3.651 3.674zm18.635-9.463h-1.558c-.256 0-.465.116-.558.372l-2.93 7.207-2.952-7.207c-.093-.256-.279-.372-.535-.372h-1.558c-.325 0-.488.21-.372.535l4.162 10.137c-.651 1.79-1.628 2.93-3.255 3.534-.326.116-.419.325-.302.674l.418 1.116c.093.302.326.442.628.349 2.069-.698 3.58-2.209 4.441-4.301l4.743-11.51c.139-.325-.024-.534-.372-.534zm16.118-.186c-3.302 0-5.999 2.697-5.999 5.998 0 3.302 2.697 5.999 5.999 5.999 3.301 0 5.998-2.697 5.998-5.998 0-3.302-2.697-5.999-5.998-5.999zm0 2.348a3.641 3.641 0 013.65 3.65 3.641 3.641 0 01-3.65 3.65 3.641 3.641 0 01-3.65-3.65 3.641 3.641 0 013.65-3.65zm13.362 9.649a4.931 4.931 0 01-4.929-4.929v-6.37c0-.326.186-.512.511-.512h1.279c.325 0 .535.186.535.512v6.37a2.614 2.614 0 002.604 2.604 2.615 2.615 0 002.604-2.604v-6.37c0-.326.209-.512.534-.512h1.302c.303 0 .512.186.512.512v6.37c0 2.72-2.232 4.929-4.952 4.929zm13.261-11.811h-1.069c-1.116 0-2.116.326-2.744.953v-.488c0-.279-.186-.465-.488-.465h-.93c-.325 0-.511.186-.511.512v10.602c0 .325.186.511.511.511h1.302c.326 0 .512-.186.512-.511v-6.487c0-1.465 1.162-2.395 2.604-2.395h.813c.303 0 .512-.21.512-.511v-1.21c0-.325-.209-.511-.512-.511zM28.127 64.186c-1.604 0-3.185-.605-4.79-1.744-.464-.325-.557-.674-.348-1.093l1.14-2.045c.255-.396.604-.489.999-.21 1.023.651 2 1 2.79 1 .977 0 1.604-.488 1.604-1.255 0-1.349-1.883-1.837-3.557-2.767-2.116-1.186-3.162-2.837-3.069-4.813.14-2.86 2.534-4.743 5.603-4.603 1.233.046 2.418.465 3.372 1 .395.232.465.58.232.976l-1.07 1.65c-.255.396-.58.466-.976.256-.488-.255-1.07-.465-1.72-.465-1.023 0-1.628.489-1.628 1.186 0 1.116 1.511 1.581 2.906 2.279 1.372.674 3.93 2.139 3.93 5.324 0 2.999-2.279 5.324-5.418 5.324zM54.21 46.795h-2.72c-.418 0-.674.163-.79.581l-2.325 8.394-2.163-8.161c-.093-.349-.302-.489-.65-.489h-1.489c-.348 0-.58.14-.674.489l-2.139 8.16-2.371-8.393c-.117-.418-.372-.581-.768-.581H35.4c-.488 0-.744.325-.604.79l4.44 15.834c.117.418.372.581.768.581h1.836c.419 0 .698-.21.814-.605l2.14-8.253 2.185 8.253c.093.396.372.605.79.605h1.837c.418 0 .674-.163.79-.581l4.441-15.833c.14-.465-.116-.791-.628-.791zm11.988 13.438h-5.44v-3.185h4.998c.465 0 .72-.256.72-.697v-1.907c0-.442-.255-.697-.72-.697h-4.999v-3.185h5.44c.443 0 .698-.256.698-.698v-2.371c0-.442-.255-.698-.697-.698h-8.51c-.441 0-.697.256-.697.697v15.81c0 .442.256.698.697.698h8.51c.442 0 .697-.256.697-.697V60.93c0-.442-.255-.697-.697-.697zm12.198 0h-5.44v-3.185h4.998c.465 0 .721-.256.721-.697v-1.907c0-.442-.256-.697-.72-.697h-5v-3.185h5.441c.442 0 .698-.256.698-.698v-2.371c0-.442-.256-.698-.698-.698h-8.51c-.441 0-.697.256-.697.697v15.81c0 .442.256.698.697.698h8.51c.442 0 .698-.256.698-.697V60.93c0-.442-.256-.697-.698-.697zm8.455-13.438h-4.766c-.442 0-.698.256-.698.697v15.81c0 .442.256.698.698.698h2.348c.465 0 .72-.256.72-.697V57.49h1.698a5.373 5.373 0 005.37-5.37c0-2.93-2.417-5.325-5.37-5.325zm0 6.928h-1.697v-3.161h1.697c.883 0 1.604.697 1.604 1.557 0 .93-.72 1.605-1.604 1.605zm12.326 10.463c-1.604 0-3.185-.605-4.79-1.744-.465-.325-.558-.674-.348-1.093l1.139-2.045c.256-.396.604-.489 1-.21 1.023.651 2 1 2.79 1 .976 0 1.604-.488 1.604-1.255 0-1.349-1.883-1.837-3.557-2.767-2.116-1.186-3.162-2.837-3.07-4.813.14-2.86 2.535-4.743 5.604-4.603 1.232.046 2.418.465 3.371 1 .395.232.465.58.233.976l-1.07 1.65c-.256.396-.581.466-.976.256-.489-.255-1.07-.465-1.72-.465-1.024 0-1.628.489-1.628 1.186 0 1.116 1.51 1.581 2.906 2.279 1.372.674 3.929 2.139 3.929 5.324 0 2.999-2.278 5.324-5.417 5.324zm17.393-17.391h-9.649c-.442 0-.697.256-.697.697v2.372c0 .442.255.698.697.698h2.953v12.74c0 .442.256.698.697.698h2.349c.441 0 .697-.256.697-.697V50.562h2.953c.442 0 .721-.256.721-.698v-2.371c0-.442-.279-.698-.721-.698zm16.136 16.391l-6.464-15.856c-.139-.372-.395-.535-.79-.535h-1.79c-.396 0-.651.163-.791.535l-6.301 15.856c-.186.489.024.814.535.814h2.651c.395 0 .651-.163.79-.535l.977-2.418h6.254l.953 2.395c.14.372.395.535.791.535l2.627.023c.511 0 .744-.325.558-.814zm-9.672-5.882l1.627-4.115 1.605 4.115h-3.232zm24.025 5.859l-5.417-9.393 4.441-6.115c.348-.488.162-.86-.442-.86h-2.767c-.372 0-.651.14-.86.442l-3.255 4.487v-4.231c0-.442-.256-.698-.721-.698h-2.325c-.442 0-.697.256-.697.697v15.81c0 .442.255.698.697.698h2.325c.465 0 .721-.256.721-.697v-5.58l.418-.582 3.534 6.37c.186.35.489.489.861.489h2.999c.558 0 .767-.372.488-.837zm11.791-2.93h-5.44v-3.185h4.998c.465 0 .721-.256.721-.697v-1.907c0-.442-.256-.697-.721-.697h-4.998v-3.185h5.44c.442 0 .698-.256.698-.698v-2.371c0-.442-.256-.698-.698-.698h-8.509c-.442 0-.698.256-.698.697v15.81c0 .442.256.698.698.698h8.509c.442 0 .698-.256.698-.697V60.93c0-.442-.256-.697-.698-.697zm18.108 3.907c-4.813 0-8.742-3.93-8.742-8.742 0-4.813 3.929-8.742 8.719-8.742 2.348 0 4.394.93 6.138 2.673.325.303.325.628.046.977l-1.348 1.627c-.279.349-.651.372-1 .07-1.139-.953-2.348-1.604-3.813-1.604a5.006 5.006 0 00-4.999 4.998 5.006 5.006 0 004.999 5c1.348 0 2.72-.559 3.813-1.535.349-.303.697-.303.976.07l1.395 1.813c.256.349.256.674-.069 1a9.051 9.051 0 01-6.115 2.395zm16.129-17.484c-4.813 0-8.742 3.906-8.742 8.742 0 4.835 3.929 8.741 8.742 8.741a8.732 8.732 0 008.742-8.741 8.732 8.732 0 00-8.742-8.742zm-.024 3.743c2.697 0 4.999 2.278 4.999 4.998s-2.302 5-4.999 5c-2.766 0-4.952-2.233-4.952-5 0-2.766 2.186-4.998 4.952-4.998zm10.958 12.904v-15.81c0-.442.256-.698.697-.698h2.302c.465 0 .721.256.721.697v15.81c0 .442-.256.698-.721.698h-2.302c-.441 0-.697-.256-.697-.697zm15.994-15.81v9.485l-6.72-9.741c-.209-.326-.465-.442-.837-.442h-1.604c-.442 0-.697.256-.697.697v15.81c0 .442.255.698.697.698h2.348c.465 0 .721-.256.721-.697v-9.417l6.626 9.672c.21.326.465.442.837.442h1.674c.442 0 .698-.256.698-.697v-15.81c0-.442-.256-.698-.698-.698h-2.325c-.465 0-.72.256-.72.697zm11.292 16.693c-1.604 0-3.185-.605-4.79-1.744-.465-.325-.558-.674-.348-1.093l1.139-2.045c.256-.396.604-.489 1-.21 1.023.651 1.999 1 2.79 1 .976 0 1.604-.488 1.604-1.255 0-1.349-1.883-1.837-3.557-2.767-2.116-1.186-3.162-2.837-3.069-4.813.139-2.86 2.534-4.743 5.603-4.603 1.232.046 2.418.465 3.371 1 .395.232.465.58.233.976l-1.07 1.65c-.256.396-.581.466-.976.256-.489-.255-1.07-.465-1.721-.465-1.023 0-1.627.489-1.627 1.186 0 1.116 1.511 1.581 2.906 2.279 1.372.674 3.929 2.139 3.929 5.324 0 2.999-2.278 5.324-5.417 5.324zm30.882-9.649h-8.579c-.279 0-.465.186-.465.465v1.116c0 .302.186.488.465.488h6.603c-.465 2.93-2.93 5.209-6.022 5.209-3.464 0-6.184-2.79-6.184-6.394 0-3.557 2.883-6.44 6.37-6.44 1.511 0 2.999.65 4.278 1.673.256.21.512.21.721-.07l.767-.953c.186-.255.186-.488-.07-.72-1.697-1.442-3.673-2.255-5.696-2.255-4.789 0-8.719 3.952-8.719 8.765 0 4.766 3.627 8.718 8.533 8.718 4.627 0 8.324-3.673 8.51-8.393v-.697c0-.326-.186-.512-.512-.512zm16.506 8.928l-6.557-16.298c-.093-.256-.279-.372-.534-.372h-1.093c-.256 0-.442.116-.535.372l-6.487 16.298c-.139.326.024.535.349.535h1.581c.256 0 .465-.116.558-.372l1.163-2.883h7.905l1.162 2.883c.093.256.279.372.535.372h1.581c.325 0 .488-.21.372-.535zm-10.649-5.045l3.046-7.672 3.046 7.672h-6.092zm29.763-11.625h-1.047a.585.585 0 00-.558.349L289.81 60.14l-6.394-12.997c-.14-.233-.302-.349-.558-.349h-1.023c-.326 0-.512.186-.512.511V63.49c0 .325.186.511.512.511h1.302c.325 0 .535-.186.535-.511v-11.23l5.37 10.88a.457.457 0 00.442.28h.651a.457.457 0 00.442-.28l5.394-10.88v11.23c0 .325.186.511.511.511h1.326c.302 0 .511-.186.511-.511V47.306c0-.326-.209-.512-.511-.512zm12.036 14.857h-6.277V56.42h5.859c.302 0 .465-.186.465-.465v-1.139c0-.279-.163-.465-.465-.465h-5.859v-5.208h6.277c.302 0 .512-.209.512-.511v-1.325c0-.326-.21-.512-.512-.512h-8.114c-.326 0-.512.186-.512.511V63.49c0 .325.186.511.512.511h8.114c.302 0 .512-.186.512-.511v-1.326a.489.489 0 00-.512-.511zm7.927 2.534c-1.604 0-3.162-.651-4.58-1.767-.279-.232-.325-.465-.186-.72l.721-1.21c.163-.255.395-.302.674-.116 1.232.907 2.325 1.325 3.255 1.325 1.465 0 2.558-1.023 2.558-2.325 0-1.72-1.93-2.557-3.72-3.464-1.907-.953-3.744-2.232-3.627-4.743.139-2.72 2.371-4.557 5.068-4.51 1.232.023 2.348.441 3.185.93.256.186.279.395.117.65l-.698 1.024c-.163.232-.372.302-.628.162-.697-.372-1.395-.604-2.046-.604-1.395 0-2.58 1.07-2.58 2.441 0 1.418 1.348 2 2.766 2.674 1.651.744 4.674 2.232 4.674 5.464 0 2.673-2.07 4.789-4.953 4.789z" fill="#fff"/><rect x="16" y="103" width="314" height="36" rx="4" fill="#fff"/><path d="M121.074 121.933h-3.937V126h-2.051v-9.953h6.48v1.661h-4.429v2.57h3.937v1.655zm5.113 4.067h-2.051v-9.953h2.051V126zm11.251 0h-2.051l-3.992-6.549V126h-2.051v-9.953h2.051l3.999 6.562v-6.562h2.044V126zm3.041 0v-9.953h3.062c.875 0 1.657.198 2.345.595a4.097 4.097 0 011.62 1.681c.387.725.581 1.55.581 2.475v.458c0 .925-.191 1.748-.574 2.468a4.065 4.065 0 01-1.607 1.674c-.692.397-1.474.597-2.344.602h-3.083zm2.05-8.292v6.645h.992c.802 0 1.415-.263 1.838-.787.424-.524.641-1.273.65-2.249v-.526c0-1.012-.21-1.777-.629-2.297-.419-.524-1.032-.786-1.839-.786h-1.012zm21.217 3.541c0 .98-.173 1.839-.519 2.577-.347.738-.844 1.308-1.491 1.709-.642.401-1.381.602-2.215.602-.824 0-1.56-.199-2.208-.595-.647-.396-1.148-.962-1.503-1.695-.356-.739-.536-1.586-.54-2.543v-.492c0-.98.175-1.842.526-2.584.355-.748.854-1.32 1.497-1.716.647-.401 1.385-.602 2.215-.602.829 0 1.565.201 2.208.602.647.396 1.146.968 1.497 1.716.355.742.533 1.601.533 2.577v.444zm-2.078-.451c0-1.044-.187-1.837-.561-2.379-.373-.542-.906-.814-1.599-.814-.688 0-1.219.269-1.593.807-.374.533-.563 1.317-.567 2.352v.485c0 1.016.187 1.805.56 2.365.374.561.912.841 1.613.841.689 0 1.217-.269 1.586-.807.37-.542.556-1.33.561-2.365v-.485zm12.352-4.751v6.556c0 1.089-.342 1.95-1.026 2.584-.679.633-1.609.95-2.789.95-1.162 0-2.085-.308-2.768-.923-.684-.615-1.033-1.461-1.046-2.536v-6.631h2.05v6.569c0 .652.155 1.128.465 1.429.315.296.748.444 1.299.444 1.153 0 1.739-.606 1.757-1.818v-6.624h2.058zm10.423 1.661h-3.048V126h-2.051v-8.292h-3.008v-1.661h8.107v1.661zm9.432-1.661l2.557 7.219 2.543-7.219h2.693V126h-2.058v-2.721l.205-4.696-2.686 7.417h-1.408l-2.68-7.41.205 4.689V126h-2.051v-9.953h2.68zm19.01 5.202c0 .98-.173 1.839-.52 2.577-.346.738-.843 1.308-1.49 1.709-.643.401-1.381.602-2.215.602-.825 0-1.561-.199-2.208-.595-.647-.396-1.148-.962-1.504-1.695-.355-.739-.535-1.586-.54-2.543v-.492c0-.98.176-1.842.527-2.584.355-.748.854-1.32 1.497-1.716.647-.401 1.385-.602 2.214-.602.83 0 1.566.201 2.208.602.648.396 1.147.968 1.498 1.716.355.742.533 1.601.533 2.577v.444zm-2.078-.451c0-1.044-.187-1.837-.561-2.379-.374-.542-.907-.814-1.6-.814-.688 0-1.219.269-1.592.807-.374.533-.563 1.317-.568 2.352v.485c0 1.016.187 1.805.561 2.365.374.561.911.841 1.613.841.688 0 1.217-.269 1.586-.807.369-.542.556-1.33.561-2.365v-.485zm8.503 1.558h-1.634V126h-2.051v-9.953h3.698c1.176 0 2.083.262 2.721.786.638.524.957 1.265.957 2.222 0 .679-.148 1.246-.444 1.702-.292.451-.736.811-1.333 1.08l2.153 4.067V126h-2.201l-1.866-3.644zm-1.634-1.661h1.654c.515 0 .914-.13 1.196-.389.283-.265.424-.627.424-1.087 0-.47-.134-.839-.403-1.108-.264-.269-.672-.403-1.224-.403h-1.647v2.987zm14.129.992h-3.938v2.666h4.621V126h-6.672v-9.953h6.659v1.661h-4.608v2.372h3.938v1.607z" fill="url(#paint1_linear)"/><path d="M96.2 80v8.15l-5.806-8.303a.445.445 0 00-.383-.184h-.597c-.215 0-.337.123-.337.337v10.663c0 .214.122.337.337.337h.858c.214 0 .352-.123.352-.337v-8.135l5.79 8.288a.445.445 0 00.384.184h.613c.199 0 .337-.123.337-.337V80c0-.214-.138-.337-.337-.337h-.858c-.215 0-.353.123-.353.337zm7.104 3.218a3.962 3.962 0 00-3.953 3.952 3.962 3.962 0 003.953 3.953 3.962 3.962 0 003.952-3.953 3.962 3.962 0 00-3.952-3.952zm0 1.547a2.4 2.4 0 012.405 2.405 2.4 2.4 0 01-2.405 2.405 2.4 2.4 0 01-2.406-2.405 2.4 2.4 0 012.406-2.405zm13.855-5.102h-3.064c-.215 0-.337.123-.337.337v10.663c0 .214.122.337.337.337h.858c.214 0 .352-.123.352-.337v-4.397h1.854a3.315 3.315 0 003.309-3.309c0-1.808-1.486-3.294-3.309-3.294zm0 5.071h-1.854v-3.523h1.854c.98 0 1.761.781 1.761 1.746 0 .996-.781 1.777-1.761 1.777zm8.017 6.389a3.25 3.25 0 01-3.248-3.248v-4.198c0-.214.123-.337.337-.337h.843c.214 0 .352.123.352.337v4.198c0 .934.766 1.716 1.716 1.716s1.716-.782 1.716-1.716v-4.198c0-.214.138-.337.352-.337h.858c.199 0 .337.123.337.337v4.198c0 1.792-1.471 3.248-3.263 3.248zm8.738-7.783h-.705c-.735 0-1.394.215-1.807.628v-.322c0-.183-.123-.306-.322-.306h-.613c-.214 0-.337.123-.337.337v6.986c0 .214.123.337.337.337h.858c.215 0 .337-.123.337-.337v-4.274c0-.965.766-1.578 1.716-1.578h.536a.322.322 0 00.337-.337v-.797c0-.214-.138-.337-.337-.337zm5.165 7.783a3.949 3.949 0 01-3.937-3.953 3.94 3.94 0 013.937-3.952c.996 0 1.884.367 2.604.995.154.138.154.307.031.475l-.521.613c-.138.184-.291.184-.475.046-.521-.414-1.103-.597-1.624-.597a2.41 2.41 0 00-2.405 2.405c0 1.317 1.073 2.42 2.405 2.42.521 0 1.103-.184 1.64-.612.168-.154.337-.138.475.03l.505.628c.123.169.123.337-.031.475-.72.613-1.577 1.027-2.604 1.027zm7.638-7.905c-.674 0-1.287.23-1.762.612v-3.217c0-.214-.138-.337-.352-.337h-.874c-.214 0-.337.123-.337.337v10.05c0 .214.123.337.337.337h.874c.214 0 .352-.123.352-.337v-4.121c0-.98.781-1.777 1.762-1.777.98 0 1.777.796 1.777 1.777v4.121c0 .214.138.337.337.337h.873c.215 0 .337-.123.337-.337v-4.121a3.321 3.321 0 00-3.324-3.324zm12.186.122h-.658c-.184 0-.307.123-.307.306v.629a3.801 3.801 0 00-2.619-1.057c-2.191 0-3.968 1.777-3.968 3.937a3.969 3.969 0 003.968 3.968 3.826 3.826 0 002.635-1.073v.644c0 .183.122.306.306.306h.643c.2 0 .353-.138.353-.337v-6.986c0-.199-.153-.337-.353-.337zm-3.569 6.235a2.403 2.403 0 01-2.405-2.42 2.409 2.409 0 012.405-2.406 2.409 2.409 0 012.405 2.406 2.403 2.403 0 01-2.405 2.42zm10.146-5.392l-.322.551c-.107.184-.276.215-.46.108-.321-.17-.75-.338-1.195-.338-.597 0-1.118.291-1.118.766 0 .521.597.72 1.363.996 1.211.43 2.283 1.256 2.283 2.513 0 1.271-1.088 2.344-2.65 2.344-.812 0-1.639-.276-2.268-.613-.183-.108-.229-.26-.137-.46l.321-.674c.092-.2.261-.245.445-.153.474.23 1.087.429 1.593.429.766 0 1.103-.46 1.103-.904 0-.52-.475-.812-1.532-1.226-.766-.306-2.007-.812-2.007-2.175 0-1.271 1.103-2.13 2.543-2.13.735 0 1.348.215 1.915.521.184.092.23.26.123.445zm9.683 3.14c-.138-2.497-1.762-4.105-3.891-4.105-2.16 0-3.876 1.654-3.876 3.845 0 2.16 1.685 4.06 4.014 4.06.965 0 2.053-.338 2.987-1.165.153-.138.169-.306.031-.475l-.491-.597c-.137-.169-.306-.184-.474-.046-.521.413-1.226.796-2.038.796-1.118 0-2.129-.735-2.436-1.976h5.837c.214 0 .337-.122.337-.337zm-6.159-.888c.184-1.15 1.165-1.885 2.252-1.885 1.149 0 2.069.843 2.252 1.885h-4.504zM188.79 80v8.15l-5.806-8.303a.445.445 0 00-.383-.184h-.597c-.215 0-.337.123-.337.337v10.663c0 .214.122.337.337.337h.858c.214 0 .352-.123.352-.337v-8.135l5.791 8.288a.445.445 0 00.383.184h.613c.199 0 .337-.123.337-.337V80c0-.214-.138-.337-.337-.337h-.858c-.215 0-.353.123-.353.337zm10.964 7.323c-.138-2.497-1.762-4.105-3.891-4.105-2.16 0-3.876 1.654-3.876 3.845 0 2.16 1.685 4.06 4.014 4.06.965 0 2.053-.338 2.987-1.165.153-.138.169-.306.031-.475l-.49-.597c-.138-.169-.307-.184-.475-.046-.521.413-1.226.796-2.038.796-1.118 0-2.129-.735-2.436-1.976h5.837c.215 0 .337-.122.337-.337zm-6.158-.888c.184-1.15 1.164-1.885 2.252-1.885 1.149 0 2.068.843 2.252 1.885h-4.504zm11.548 4.688a3.949 3.949 0 01-3.937-3.953 3.94 3.94 0 013.937-3.952c.996 0 1.885.367 2.605.995.153.138.153.307.03.475l-.52.613c-.138.184-.292.184-.475.046-.521-.414-1.103-.597-1.624-.597a2.409 2.409 0 00-2.405 2.405c0 1.317 1.072 2.42 2.405 2.42.521 0 1.103-.184 1.639-.612.168-.154.337-.138.475.03l.505.628c.123.169.123.337-.03.475-.72.613-1.578 1.027-2.605 1.027zm11.658-3.8c-.138-2.497-1.762-4.105-3.892-4.105-2.16 0-3.875 1.654-3.875 3.845 0 2.16 1.685 4.06 4.013 4.06.965 0 2.053-.338 2.988-1.165.153-.138.168-.306.03-.475l-.49-.597c-.138-.169-.306-.184-.475-.046-.521.413-1.225.796-2.037.796-1.119 0-2.13-.735-2.436-1.976h5.837c.214 0 .337-.122.337-.337zm-6.159-.888c.184-1.15 1.164-1.885 2.252-1.885 1.149 0 2.068.843 2.252 1.885h-4.504zm12.146-2.252l-.321.551c-.108.184-.276.215-.46.108-.322-.17-.751-.338-1.195-.338-.597 0-1.118.291-1.118.766 0 .521.597.72 1.363.996 1.21.43 2.283 1.256 2.283 2.513 0 1.271-1.088 2.344-2.65 2.344-.812 0-1.64-.276-2.268-.613-.184-.108-.23-.26-.138-.46l.322-.674c.092-.2.26-.245.444-.153.475.23 1.088.429 1.594.429.766 0 1.103-.46 1.103-.904 0-.52-.475-.812-1.532-1.226-.766-.306-2.007-.812-2.007-2.175 0-1.271 1.103-2.13 2.543-2.13.735 0 1.348.215 1.915.521.184.092.23.26.122.445zm6.482 0l-.322.551c-.107.184-.276.215-.459.108-.322-.17-.751-.338-1.195-.338-.598 0-1.119.291-1.119.766 0 .521.598.72 1.364.996 1.21.43 2.282 1.256 2.282 2.513 0 1.271-1.087 2.344-2.65 2.344-.812 0-1.639-.276-2.267-.613-.184-.108-.23-.26-.138-.46l.322-.674c.092-.2.26-.245.444-.153.475.23 1.088.429 1.593.429.766 0 1.103-.46 1.103-.904 0-.52-.475-.812-1.532-1.226-.766-.306-2.007-.812-2.007-2.175 0-1.271 1.103-2.13 2.543-2.13.736 0 1.348.215 1.915.521.184.092.23.26.123.445zm9.469-.843h-.659c-.184 0-.306.123-.306.306v.629a3.804 3.804 0 00-2.62-1.057c-2.191 0-3.968 1.777-3.968 3.937a3.969 3.969 0 003.968 3.968 3.825 3.825 0 002.635-1.073v.644c0 .183.123.306.306.306h.644c.199 0 .352-.138.352-.337v-6.986c0-.199-.153-.337-.352-.337zm-3.57 6.235a2.403 2.403 0 01-2.405-2.42 2.409 2.409 0 012.405-2.406 2.41 2.41 0 012.406 2.406 2.403 2.403 0 01-2.406 2.42zm9.548-6.235h-.704c-.736 0-1.394.215-1.808.628v-.322c0-.183-.123-.306-.322-.306h-.612c-.215 0-.338.123-.338.337v6.986c0 .214.123.337.338.337h.857c.215 0 .337-.123.337-.337v-4.274c0-.965.766-1.578 1.716-1.578h.536c.2 0 .337-.138.337-.337v-.797c0-.214-.137-.337-.337-.337zm8.584 0h-1.027c-.168 0-.306.077-.367.245l-1.931 4.75-1.945-4.75c-.061-.168-.184-.245-.353-.245h-1.026c-.214 0-.322.138-.245.352l2.742 6.68c-.429 1.18-1.072 1.93-2.145 2.329-.214.076-.275.214-.199.444l.276.735c.061.2.215.291.414.23 1.363-.46 2.359-1.456 2.926-2.834l3.125-7.584c.092-.214-.015-.352-.245-.352zm2.46 5.24h.842c.215 0 .353-.123.353-.338V80c0-.214-.138-.337-.353-.337h-.842c-.199 0-.337.123-.337.337v8.242c0 .215.138.337.337.337zm.429 2.42a.902.902 0 00.888-.904.876.876 0 00-.888-.873c-.491 0-.889.368-.889.873 0 .506.398.904.889.904z" fill="#fff"/></g><defs><linearGradient id="paint0_linear" x1="346" y1="0" x2="-8.123" y2="126.207" gradientUnits="userSpaceOnUse"><stop stop-color="#1BEE02"/><stop offset="1" stop-color="#00AD45"/></linearGradient><linearGradient id="paint1_linear" x1="316" y1="113" x2="277.204" y2="219.06" gradientUnits="userSpaceOnUse"><stop stop-color="#1BEE02"/><stop offset="1" stop-color="#00AD45"/></linearGradient><clipPath id="clip0"><path fill="#fff" d="M0 0h346v149H0z"/></clipPath></defs></svg>