<svg width="346" height="149" viewBox="0 0 346 149" fill="none" xmlns="http://www.w3.org/2000/svg">
<rect width="346" height="149" fill="white"/>
<rect x="16" y="105" width="314" height="36" rx="4" fill="url(#paint0_linear)"/>
<path d="M135.698 124.685C135.621 125.756 135.224 126.599 134.509 127.214C133.798 127.829 132.859 128.137 131.692 128.137C130.416 128.137 129.411 127.708 128.678 126.852C127.949 125.99 127.584 124.81 127.584 123.311V122.702C127.584 121.745 127.753 120.902 128.09 120.173C128.427 119.444 128.908 118.885 129.532 118.498C130.161 118.106 130.89 117.91 131.72 117.91C132.868 117.91 133.793 118.218 134.495 118.833C135.197 119.448 135.603 120.312 135.712 121.424H133.661C133.611 120.781 133.431 120.316 133.121 120.029C132.816 119.738 132.349 119.592 131.72 119.592C131.036 119.592 130.523 119.838 130.182 120.33C129.844 120.818 129.671 121.576 129.662 122.606V123.358C129.662 124.434 129.824 125.22 130.147 125.717C130.476 126.214 130.991 126.462 131.692 126.462C132.326 126.462 132.798 126.318 133.107 126.031C133.422 125.74 133.602 125.291 133.647 124.685H135.698ZM140.346 126.353H144.7V128H138.295V118.047H140.346V126.353ZM152.889 125.949H149.293L148.609 128H146.429L150.134 118.047H152.034L155.76 128H153.579L152.889 125.949ZM149.847 124.288H152.335L151.084 120.562L149.847 124.288ZM160.12 128H158.069V118.047H160.12V128ZM165.957 118.047L168.514 125.266L171.057 118.047H173.75V128H171.692V125.279L171.897 120.583L169.211 128H167.803L165.123 120.59L165.328 125.279V128H163.277V118.047H165.957ZM189.621 128H187.57L183.578 121.451V128H181.527V118.047H183.578L187.577 124.609V118.047H189.621V128ZM200.838 123.249C200.838 124.229 200.665 125.088 200.318 125.826C199.972 126.564 199.475 127.134 198.828 127.535C198.186 127.936 197.447 128.137 196.613 128.137C195.788 128.137 195.052 127.938 194.405 127.542C193.758 127.146 193.257 126.58 192.901 125.847C192.546 125.108 192.366 124.261 192.361 123.304V122.812C192.361 121.832 192.537 120.97 192.888 120.228C193.243 119.48 193.742 118.908 194.385 118.512C195.032 118.111 195.77 117.91 196.6 117.91C197.429 117.91 198.165 118.111 198.808 118.512C199.455 118.908 199.954 119.48 200.305 120.228C200.66 120.97 200.838 121.829 200.838 122.805V123.249ZM198.76 122.798C198.76 121.754 198.573 120.961 198.199 120.419C197.826 119.877 197.292 119.605 196.6 119.605C195.911 119.605 195.381 119.874 195.007 120.412C194.633 120.945 194.444 121.729 194.439 122.764V123.249C194.439 124.265 194.626 125.054 195 125.614C195.374 126.175 195.911 126.455 196.613 126.455C197.301 126.455 197.83 126.186 198.199 125.648C198.568 125.106 198.755 124.318 198.76 123.283V122.798ZM211.33 125.129L212.67 118.047H214.714L212.506 128H210.441L208.821 121.342L207.201 128H205.137L202.929 118.047H204.973L206.319 125.115L207.96 118.047H209.696L211.33 125.129ZM218.958 124.944H217.317L217.085 118.047H219.19L218.958 124.944ZM218.138 126.024C218.47 126.024 218.737 126.122 218.938 126.318C219.143 126.514 219.245 126.765 219.245 127.07C219.245 127.371 219.143 127.619 218.938 127.815C218.737 128.011 218.47 128.109 218.138 128.109C217.81 128.109 217.543 128.011 217.338 127.815C217.137 127.619 217.037 127.371 217.037 127.07C217.037 126.77 217.137 126.521 217.338 126.325C217.543 126.125 217.81 126.024 218.138 126.024Z" fill="white"/>
<path d="M23.5853 67.2109V85.329C23.5853 86.7717 22.3774 87.9461 20.9347 87.9461H18.9887C18.5189 87.9461 18.2505 88.248 18.2505 88.6842V90.5631C18.2505 91.0329 18.5189 91.3013 18.9887 91.3013H20.9347C24.5248 91.3013 26.9405 88.8855 26.9405 85.2955V67.2109C26.9405 66.7412 26.6385 66.4728 26.1688 66.4728H24.3234C23.8537 66.4728 23.5853 66.7412 23.5853 67.2109ZM38.7938 91.5026C34.4656 91.5026 30.9426 87.9796 30.9426 83.6514V67.2109C30.9426 66.7412 31.211 66.4728 31.6808 66.4728H33.5597C34.0294 66.4728 34.2978 66.7412 34.2978 67.2109V83.6514C34.2978 86.1007 36.311 88.1138 38.7938 88.1138C41.2766 88.1138 43.3233 86.1007 43.3233 83.6514V67.2109C43.3233 66.7412 43.5917 66.4728 44.0615 66.4728H45.9404C46.3766 66.4728 46.6785 66.7412 46.6785 67.2109V83.6514C46.6785 87.9796 43.1556 91.5026 38.7938 91.5026ZM57.2469 91.5697C54.9318 91.5697 52.6838 90.6302 50.6371 89.0197C50.2345 88.6842 50.1674 88.3487 50.3687 87.9796L51.4088 86.2349C51.6437 85.8658 51.9792 85.7987 52.3818 86.0672C54.1601 87.3757 55.737 87.9796 57.0791 87.9796C59.1929 87.9796 60.7698 86.5033 60.7698 84.6244C60.7698 82.1416 57.985 80.9337 55.4015 79.6252C52.6503 78.2495 49.9996 76.4042 50.1674 72.7806C50.3687 68.855 53.5897 66.2044 57.4817 66.2715C59.26 66.305 60.8705 66.909 62.0784 67.6135C62.4474 67.882 62.481 68.1839 62.2461 68.553L61.2396 70.0293C61.0047 70.3648 60.7027 70.4655 60.3337 70.2642C59.3271 69.7273 58.3205 69.3918 57.3811 69.3918C55.368 69.3918 53.6568 70.9352 53.6568 72.9148C53.6568 74.9614 55.6028 75.8002 57.6495 76.7732C60.0317 77.8469 64.3935 79.9942 64.3935 84.658C64.3935 88.5165 61.4073 91.5697 57.2469 91.5697ZM81.2919 66.4728H67.7033C67.2336 66.4728 66.9652 66.7412 66.9652 67.2109V69.1234C66.9652 69.5596 67.2336 69.8615 67.7033 69.8615H72.8032V90.5631C72.8032 91.0329 73.1052 91.3013 73.5414 91.3013H75.4538C75.89 91.3013 76.192 91.0329 76.192 90.5631V69.8615H81.2919C81.7616 69.8615 82.03 69.5596 82.03 69.1234V67.2109C82.03 66.7412 81.7616 66.4728 81.2919 66.4728ZM107.24 91.5026C100.227 91.5026 94.5905 85.8323 94.5905 78.887C94.5905 71.9418 100.294 66.2715 107.139 66.2715C110.259 66.2715 113.078 67.4458 115.527 69.5596C115.862 69.8615 115.896 70.1971 115.594 70.5661L114.52 71.9082C114.252 72.3108 113.849 72.3444 113.48 72.0089C111.668 70.5661 109.555 69.6267 107.173 69.6267C102.14 69.6267 97.9457 73.7871 97.9457 78.887C97.9457 83.9869 102.106 88.1474 107.173 88.1474C109.521 88.1474 111.702 87.275 113.48 85.7987C113.849 85.4968 114.218 85.5303 114.52 85.8994L115.628 87.3757C115.93 87.7783 115.862 88.1138 115.527 88.4158C113.145 90.3954 110.326 91.5026 107.24 91.5026ZM131.614 91.3013H120.508C120.039 91.3013 119.77 91.0329 119.77 90.5631V67.2109C119.77 66.7412 120.039 66.4728 120.508 66.4728H122.387C122.857 66.4728 123.159 66.7412 123.159 67.2109V87.9125H131.614C132.084 87.9125 132.352 88.2145 132.352 88.6507V90.5631C132.352 91.0329 132.084 91.3013 131.614 91.3013ZM135.531 90.5631V67.2109C135.531 66.7412 135.799 66.4728 136.269 66.4728H138.114C138.584 66.4728 138.852 66.7412 138.852 67.2109V90.5631C138.852 91.0329 138.584 91.3013 138.114 91.3013H136.269C135.799 91.3013 135.531 91.0329 135.531 90.5631ZM154.684 91.5026C147.672 91.5026 142.035 85.8323 142.035 78.887C142.035 71.9418 147.739 66.2715 154.584 66.2715C157.704 66.2715 160.522 67.4458 162.972 69.5596C163.307 69.8615 163.341 70.1971 163.039 70.5661L161.965 71.9082C161.697 72.3108 161.294 72.3444 160.925 72.0089C159.113 70.5661 156.999 69.6267 154.617 69.6267C149.584 69.6267 145.39 73.7871 145.39 78.887C145.39 83.9869 149.551 88.1474 154.617 88.1474C156.966 88.1474 159.147 87.275 160.925 85.7987C161.294 85.4968 161.663 85.5303 161.965 85.8994L163.072 87.3757C163.374 87.7783 163.307 88.1138 162.972 88.4158C160.589 90.3954 157.771 91.5026 154.684 91.5026ZM182.481 90.496L173.724 77.1423L181.139 67.278C181.475 66.8419 181.307 66.4728 180.736 66.4728H178.455C178.086 66.4728 177.851 66.5734 177.616 66.8754L170.57 76.2364V67.2109C170.57 66.7412 170.302 66.4728 169.832 66.4728H167.953C167.483 66.4728 167.215 66.7412 167.215 67.2109V90.5631C167.215 91.0329 167.483 91.3013 167.953 91.3013H169.832C170.302 91.3013 170.57 91.0329 170.57 90.5631V81.3363L171.61 79.9607L178.656 90.8315C178.824 91.1335 179.126 91.3013 179.495 91.3013H182.045C182.582 91.3013 182.749 90.9657 182.481 90.496ZM198.251 72.747H199.66C200.163 72.747 200.431 72.4115 200.297 71.9082L199.123 67.1103C198.989 66.6741 198.72 66.4728 198.284 66.4728H196.908C196.405 66.4728 196.137 66.7748 196.271 67.278L197.445 72.076C197.546 72.5121 197.848 72.747 198.251 72.747ZM219.481 67.2109V85.0606L206.765 66.8754C206.564 66.607 206.295 66.4728 205.926 66.4728H204.618C204.148 66.4728 203.88 66.7412 203.88 67.2109V90.5631C203.88 91.0329 204.148 91.3013 204.618 91.3013H206.497C206.966 91.3013 207.268 91.0329 207.268 90.5631V72.747L219.951 90.8986C220.152 91.1671 220.421 91.3013 220.79 91.3013H222.132C222.568 91.3013 222.87 91.0329 222.87 90.5631V67.2109C222.87 66.7412 222.568 66.4728 222.132 66.4728H220.253C219.783 66.4728 219.481 66.7412 219.481 67.2109ZM248.918 91.5026C241.906 91.5026 236.269 85.8323 236.269 78.887C236.269 71.9418 241.973 66.2715 248.818 66.2715C251.938 66.2715 254.756 67.4458 257.206 69.5596C257.541 69.8615 257.575 70.1971 257.273 70.5661L256.199 71.9082C255.931 72.3108 255.528 72.3444 255.159 72.0089C253.347 70.5661 251.233 69.6267 248.851 69.6267C243.818 69.6267 239.624 73.7871 239.624 78.887C239.624 83.9869 243.785 88.1474 248.851 88.1474C251.2 88.1474 253.381 87.275 255.159 85.7987C255.528 85.4968 255.897 85.5303 256.199 85.8994L257.306 87.3757C257.608 87.7783 257.541 88.1138 257.206 88.4158C254.823 90.3954 252.005 91.5026 248.918 91.5026ZM267.153 87.9125H266.75C265.542 87.9125 264.67 87.1744 264.67 85.5974V68.553C264.67 68.0833 264.368 67.8149 263.898 67.8149H262.019C261.55 67.8149 261.281 68.0833 261.281 68.553V85.5974C261.281 89.6572 263.227 91.3013 266.683 91.3013H266.985C267.455 91.3013 267.723 91.0329 267.723 90.5631V88.6507C267.723 88.2145 267.555 87.9125 267.153 87.9125ZM292.263 90.5296L282.801 67.0096C282.667 66.6405 282.398 66.4728 282.029 66.4728H280.452C280.083 66.4728 279.815 66.6405 279.681 67.0096L270.32 90.5296C270.118 90.9993 270.353 91.3013 270.823 91.3013H273.105C273.474 91.3013 273.776 91.1335 273.91 90.7644L275.587 86.604H286.995L288.673 90.7644C288.807 91.1335 289.075 91.3013 289.444 91.3013H291.726C292.196 91.3013 292.43 90.9993 292.263 90.5296ZM276.896 83.2488L281.291 72.1766L285.687 83.2488H276.896ZM295.722 90.5631V67.2109C295.722 66.7412 295.99 66.4728 296.46 66.4728H298.305C298.775 66.4728 299.043 66.7412 299.043 67.2109V90.5631C299.043 91.0329 298.775 91.3013 298.305 91.3013H296.46C295.99 91.3013 295.722 91.0329 295.722 90.5631ZM326.686 66.4728H325.176C324.807 66.4728 324.538 66.6405 324.371 66.9761L315.144 85.7316L305.917 66.9761C305.716 66.6405 305.481 66.4728 305.112 66.4728H303.636C303.166 66.4728 302.897 66.7412 302.897 67.2109V90.5631C302.897 91.0329 303.166 91.3013 303.636 91.3013H305.514C305.984 91.3013 306.286 91.0329 306.286 90.5631V74.3575L314.037 90.0598C314.171 90.3283 314.372 90.4625 314.674 90.4625H315.614C315.916 90.4625 316.117 90.3283 316.251 90.0598L324.035 74.3575V90.5631C324.035 91.0329 324.304 91.3013 324.773 91.3013H326.686C327.122 91.3013 327.424 91.0329 327.424 90.5631V67.2109C327.424 66.7412 327.122 66.4728 326.686 66.4728Z" fill="url(#paint1_linear)"/>
<path d="M27.6017 54.0102V39.8199H38.0466C39.1016 39.8199 39.6819 39.2397 39.6819 38.2374V33.9117C39.6819 32.9094 39.1016 32.3291 38.0466 32.3291H27.6017V25.1021H39.0489C40.0512 25.1021 40.6315 24.5218 40.6315 23.5196V18.1389C40.6315 17.1366 40.0512 16.5563 39.0489 16.5563H20.6384C19.6362 16.5563 19.0559 17.1366 19.0559 18.1389V54.0102C19.0559 55.0125 19.6362 55.5928 20.6384 55.5928H25.9664C27.0214 55.5928 27.6017 55.0125 27.6017 54.0102ZM71.5062 53.6937L63.0659 39.2924C66.8113 37.2351 69.3434 33.2259 69.3434 28.6365C69.3434 21.9898 63.9099 16.5563 57.2104 16.5563H46.3963C45.394 16.5563 44.8137 17.1366 44.8137 18.1389V54.0102C44.8137 55.0125 45.394 55.5928 46.3963 55.5928H51.7242C52.7792 55.5928 53.3595 55.0125 53.3595 54.0102V40.8222H54.5201L62.2746 54.485C62.6966 55.2763 63.3296 55.5928 64.2264 55.5928H70.3984C71.7172 55.5928 72.192 54.7487 71.5062 53.6937ZM53.3595 25.1021H57.2104C59.215 25.1021 60.8503 26.6847 60.8503 28.6365C60.8503 30.7466 59.215 32.2764 57.2104 32.2764H53.3595V25.1021ZM96.8704 47.047H84.5265V39.8199H95.8681C96.9232 39.8199 97.5035 39.2397 97.5035 38.2374V33.9117C97.5035 32.9094 96.9232 32.3291 95.8681 32.3291H84.5265V25.1021H96.8704C97.8727 25.1021 98.453 24.5218 98.453 23.5196V18.1389C98.453 17.1366 97.8727 16.5563 96.8704 16.5563H77.5632C76.5609 16.5563 75.9806 17.1366 75.9806 18.1389V54.0102C75.9806 55.0125 76.5609 55.5928 77.5632 55.5928H96.8704C97.8727 55.5928 98.453 55.0125 98.453 54.0102V48.6295C98.453 47.6272 97.8727 47.047 96.8704 47.047ZM124.019 47.047H111.675V39.8199H123.017C124.072 39.8199 124.652 39.2397 124.652 38.2374V33.9117C124.652 32.9094 124.072 32.3291 123.017 32.3291H111.675V25.1021H124.019C125.021 25.1021 125.602 24.5218 125.602 23.5196V18.1389C125.602 17.1366 125.021 16.5563 124.019 16.5563H104.712C103.71 16.5563 103.129 17.1366 103.129 18.1389V54.0102C103.129 55.0125 103.71 55.5928 104.712 55.5928H124.019C125.021 55.5928 125.602 55.0125 125.602 54.0102V48.6295C125.602 47.6272 125.021 47.047 124.019 47.047ZM156.875 56.0148C153.235 56.0148 149.648 54.6432 146.008 52.0584C144.953 51.3199 144.742 50.5286 145.216 49.579L147.801 44.9369C148.382 44.0401 149.173 43.8291 150.07 44.4621C152.391 45.9392 154.606 46.7304 156.4 46.7304C158.615 46.7304 160.04 45.6226 160.04 43.8818C160.04 40.8222 155.767 39.7144 151.969 37.6043C147.168 34.914 144.794 31.1686 145.005 26.6847C145.322 20.1962 150.755 15.9233 157.719 16.2398C160.514 16.3453 163.205 17.2948 165.368 18.5081C166.264 19.0356 166.423 19.8269 165.895 20.7237L163.469 24.4691C162.888 25.3659 162.15 25.5241 161.253 25.0494C160.145 24.4691 158.826 23.9943 157.349 23.9943C155.028 23.9943 153.657 25.1021 153.657 26.6847C153.657 29.2168 157.086 30.2718 160.251 31.8544C163.363 33.3842 169.166 36.7076 169.166 43.9346C169.166 50.7396 163.996 56.0148 156.875 56.0148ZM215.525 16.5563H209.353C208.403 16.5563 207.823 16.9256 207.559 17.8751L202.284 36.9186L197.378 18.4026C197.167 17.6113 196.692 17.2948 195.901 17.2948H192.525C191.734 17.2948 191.206 17.6113 190.995 18.4026L186.142 36.9186L180.761 17.8751C180.498 16.9256 179.917 16.5563 179.021 16.5563H172.849C171.741 16.5563 171.16 17.2948 171.477 18.3499L181.553 54.274C181.816 55.2235 182.397 55.5928 183.293 55.5928H187.461C188.41 55.5928 189.043 55.118 189.307 54.2212L194.16 35.4943L199.119 54.2212C199.33 55.118 199.963 55.5928 200.913 55.5928H205.08C206.03 55.5928 206.61 55.2235 206.874 54.274L216.949 18.3499C217.266 17.2948 216.685 16.5563 215.525 16.5563ZM242.196 47.047H229.852V39.8199H241.194C242.249 39.8199 242.829 39.2397 242.829 38.2374V33.9117C242.829 32.9094 242.249 32.3291 241.194 32.3291H229.852V25.1021H242.196C243.198 25.1021 243.779 24.5218 243.779 23.5196V18.1389C243.779 17.1366 243.198 16.5563 242.196 16.5563H222.889C221.886 16.5563 221.306 17.1366 221.306 18.1389V54.0102C221.306 55.0125 221.886 55.5928 222.889 55.5928H242.196C243.198 55.5928 243.779 55.0125 243.779 54.0102V48.6295C243.779 47.6272 243.198 47.047 242.196 47.047ZM269.345 47.047H257.001V39.8199H268.342C269.397 39.8199 269.978 39.2397 269.978 38.2374V33.9117C269.978 32.9094 269.397 32.3291 268.342 32.3291H257.001V25.1021H269.345C270.347 25.1021 270.927 24.5218 270.927 23.5196V18.1389C270.927 17.1366 270.347 16.5563 269.345 16.5563H250.037C249.035 16.5563 248.455 17.1366 248.455 18.1389V54.0102C248.455 55.0125 249.035 55.5928 250.037 55.5928H269.345C270.347 55.5928 270.927 55.0125 270.927 54.0102V48.6295C270.927 47.6272 270.347 47.047 269.345 47.047ZM288 16.5563H277.186C276.184 16.5563 275.604 17.1366 275.604 18.1389V54.0102C275.604 55.0125 276.184 55.5928 277.186 55.5928H282.514C283.569 55.5928 284.149 55.0125 284.149 54.0102V40.8222H288C294.7 40.8222 300.186 35.3888 300.186 28.6365C300.186 21.9898 294.7 16.5563 288 16.5563ZM288 32.2764H284.149V25.1021H288C290.005 25.1021 291.64 26.6847 291.64 28.6365C291.64 30.7466 290.005 32.2764 288 32.2764ZM315.44 56.0148C311.8 56.0148 308.213 54.6432 304.573 52.0584C303.518 51.3199 303.307 50.5286 303.781 49.579L306.366 44.9369C306.947 44.0401 307.738 43.8291 308.635 44.4621C310.956 45.9392 313.171 46.7304 314.965 46.7304C317.18 46.7304 318.605 45.6226 318.605 43.8818C318.605 40.8222 314.332 39.7144 310.534 37.6043C305.733 34.914 303.359 31.1686 303.57 26.6847C303.887 20.1962 309.32 15.9233 316.284 16.2398C319.08 16.3453 321.77 17.2948 323.933 18.5081C324.829 19.0356 324.988 19.8269 324.46 20.7237L322.034 24.4691C321.453 25.3659 320.715 25.5241 319.818 25.0494C318.71 24.4691 317.391 23.9943 315.914 23.9943C313.593 23.9943 312.222 25.1021 312.222 26.6847C312.222 29.2168 315.651 30.2718 318.816 31.8544C321.928 33.3842 327.731 36.7076 327.731 43.9346C327.731 50.7396 322.561 56.0148 315.44 56.0148Z" fill="url(#paint2_linear)"/>
<defs>
<linearGradient id="paint0_linear" x1="330" y1="105" x2="200.274" y2="278.657" gradientUnits="userSpaceOnUse">
<stop stop-color="#1BEE02"/>
<stop offset="1" stop-color="#00AD45"/>
</linearGradient>
<linearGradient id="paint1_linear" x1="330" y1="61.3013" x2="208.695" y2="232.242" gradientUnits="userSpaceOnUse">
<stop stop-color="#1BEE02"/>
<stop offset="1" stop-color="#00AD45"/>
</linearGradient>
<linearGradient id="paint2_linear" x1="330" y1="8.59278" x2="132.573" y2="188.951" gradientUnits="userSpaceOnUse">
<stop stop-color="#1BEE02"/>
<stop offset="1" stop-color="#00AD45"/>
</linearGradient>
</defs>
</svg>
