<svg width="234" height="29" viewBox="0 0 234 29" fill="none" xmlns="http://www.w3.org/2000/svg">
<path d="M8.89733 28.2947C6.35583 28.2947 3.888 27.3002 1.457 25.4953C0.867664 25.0902 0.757164 24.6113 1.05183 24.0957L2.52516 21.5173C2.85666 20.9648 3.29866 20.8543 3.85116 21.2227C5.61917 22.475 7.27667 23.0643 8.6395 23.0643C10.5548 23.0643 11.9177 21.8857 11.9177 20.2282C11.9177 17.7972 8.93416 16.7658 6.17167 15.3293C2.96716 13.5982 0.683498 11.3145 0.867664 7.74166C1.08866 3.32166 4.73516 0.374996 9.3025 0.52233C11.2547 0.559162 13.0963 1.22216 14.496 2.06933C15.0117 2.364 15.1222 2.84283 14.7907 3.32166L13.391 5.458C13.0595 5.93683 12.6543 6.04733 12.1018 5.7895C11.181 5.27383 10.1497 4.94233 9.11833 4.94233C7.203 4.94233 5.80333 6.15783 5.80333 7.81533C5.80333 9.80433 8.05017 10.6515 10.297 11.7565C12.6912 12.8615 17.1112 15.2188 17.1112 20.265C17.1112 24.7587 13.6488 28.2947 8.89733 28.2947ZM49.8083 0.743331H46.3828C45.8672 0.743331 45.4988 0.96433 45.3515 1.51683L40.8947 17.4657L36.7693 1.77466C36.622 1.33266 36.3641 1.1485 35.8853 1.1485H34.0437C33.5648 1.1485 33.2702 1.33266 33.1597 1.77466L29.0343 17.4657L24.5406 1.51683C24.3933 0.96433 24.025 0.743331 23.5093 0.743331H20.1206C19.4945 0.743331 19.1261 1.1485 19.3471 1.8115L26.456 27.2265C26.6033 27.779 26.9348 28 27.4873 28H29.7342C30.3235 28 30.655 27.7053 30.8023 27.1897L34.9277 11.3882L39.1267 27.1897C39.2372 27.7053 39.6055 28 40.158 28H42.4417C42.9573 28 43.3257 27.779 43.473 27.2265L50.5818 1.8115C50.766 1.1485 50.4345 0.743331 49.8083 0.743331ZM68.4938 23.1748H59.2118V16.4712H67.8308C68.4202 16.4712 68.7885 16.1397 68.7885 15.5503V13.1562C68.7885 12.5668 68.4202 12.2353 67.8308 12.2353H59.2118V5.5685H68.4938C69.0832 5.5685 69.4515 5.237 69.4515 4.61083V1.701C69.4515 1.11166 69.0832 0.743331 68.4938 0.743331H55.3443C54.755 0.743331 54.3867 1.11166 54.3867 1.701V27.0423C54.3867 27.6317 54.755 28 55.3443 28H68.4938C69.0832 28 69.4515 27.6317 69.4515 27.0423V24.1325C69.4515 23.5063 69.0832 23.1748 68.4938 23.1748ZM87.6242 23.1748H78.3422V16.4712H86.9612C87.5506 16.4712 87.9189 16.1397 87.9189 15.5503V13.1562C87.9189 12.5668 87.5506 12.2353 86.9612 12.2353H78.3422V5.5685H87.6242C88.2136 5.5685 88.5819 5.237 88.5819 4.61083V1.701C88.5819 1.11166 88.2136 0.743331 87.6242 0.743331H74.4747C73.8854 0.743331 73.5171 1.11166 73.5171 1.701V27.0423C73.5171 27.6317 73.8854 28 74.4747 28H87.6242C88.2136 28 88.5819 27.6317 88.5819 27.0423V24.1325C88.5819 23.5063 88.2136 23.1748 87.6242 23.1748ZM101.045 0.743331H93.6051C93.0158 0.743331 92.6475 1.11166 92.6475 1.701V27.0423C92.6475 27.6317 93.0158 28 93.6051 28H96.515C97.1043 28 97.4726 27.6317 97.4726 27.0423V17.171H101.045C105.613 17.171 109.296 13.4508 109.296 8.92033C109.296 4.42666 105.613 0.743331 101.045 0.743331ZM101.045 12.309H97.4726V5.5685H101.045C102.961 5.5685 104.434 7.07866 104.434 8.92033C104.434 10.8357 102.961 12.309 101.045 12.309ZM120.376 28.2947C117.835 28.2947 115.367 27.3002 112.936 25.4953C112.346 25.0902 112.236 24.6113 112.531 24.0957L114.004 21.5173C114.335 20.9648 114.777 20.8543 115.33 21.2227C117.098 22.475 118.755 23.0643 120.118 23.0643C122.034 23.0643 123.396 21.8857 123.396 20.2282C123.396 17.7972 120.413 16.7658 117.65 15.3293C114.446 13.5982 112.162 11.3145 112.346 7.74166C112.567 3.32166 116.214 0.374996 120.781 0.52233C122.733 0.559162 124.575 1.22216 125.975 2.06933C126.49 2.364 126.601 2.84283 126.269 3.32166L124.87 5.458C124.538 5.93683 124.133 6.04733 123.581 5.7895C122.66 5.27383 121.628 4.94233 120.597 4.94233C118.682 4.94233 117.282 6.15783 117.282 7.81533C117.282 9.80433 119.529 10.6515 121.776 11.7565C124.17 12.8615 128.59 15.2188 128.59 20.265C128.59 24.7587 125.128 28.2947 120.376 28.2947ZM147.558 0.743331H132.456C131.867 0.743331 131.498 1.11166 131.498 1.701V4.61083C131.498 5.237 131.867 5.5685 132.456 5.5685H137.613V27.0423C137.613 27.6317 137.944 28 138.57 28H141.443C142.069 28 142.401 27.6317 142.401 27.0423V5.5685H147.558C148.184 5.5685 148.515 5.237 148.515 4.61083V1.701C148.515 1.11166 148.184 0.743331 147.558 0.743331ZM172.159 26.9318L161.882 1.44316C161.698 0.96433 161.33 0.743331 160.814 0.743331H158.53C158.015 0.743331 157.646 0.96433 157.462 1.44316L147.333 26.9318C147.112 27.5948 147.37 28 148.07 28H151.385C151.937 28 152.269 27.779 152.453 27.2633L154.147 23.1012H165.381L167.039 27.2633C167.223 27.7422 167.591 27.9632 168.107 27.9632L171.422 28C172.122 28 172.417 27.5948 172.159 26.9318ZM156.063 18.276L159.783 8.95716L163.466 18.276H156.063ZM194.012 26.895L184.951 12.1248L192.502 1.88516C192.981 1.22216 192.723 0.743331 191.95 0.743331H188.487C188.008 0.743331 187.677 0.927498 187.382 1.33266L180.9 10.0253V1.701C180.9 1.11166 180.568 0.743331 179.942 0.743331H177.069C176.48 0.743331 176.111 1.11166 176.111 1.701V27.0423C176.111 27.6317 176.48 28 177.069 28H179.942C180.568 28 180.9 27.6317 180.9 27.0423V17.5762L181.82 16.3607L188.487 27.337C188.745 27.8158 189.113 28 189.629 28H193.386C194.123 28 194.417 27.5212 194.012 26.895ZM212.478 23.1748H203.196V16.4712H211.815C212.405 16.4712 212.773 16.1397 212.773 15.5503V13.1562C212.773 12.5668 212.405 12.2353 211.815 12.2353H203.196V5.5685H212.478C213.068 5.5685 213.436 5.237 213.436 4.61083V1.701C213.436 1.11166 213.068 0.743331 212.478 0.743331H199.329C198.739 0.743331 198.371 1.11166 198.371 1.701V27.0423C198.371 27.6317 198.739 28 199.329 28H212.478C213.068 28 213.436 27.6317 213.436 27.0423V24.1325C213.436 23.5063 213.068 23.1748 212.478 23.1748ZM225.236 28.2947C222.695 28.2947 220.227 27.3002 217.796 25.4953C217.207 25.0902 217.096 24.6113 217.391 24.0957L218.864 21.5173C219.196 20.9648 219.638 20.8543 220.19 21.2227C221.958 22.475 223.616 23.0643 224.979 23.0643C226.894 23.0643 228.257 21.8857 228.257 20.2282C228.257 17.7972 225.273 16.7658 222.511 15.3293C219.306 13.5982 217.023 11.3145 217.207 7.74166C217.428 3.32166 221.074 0.374996 225.642 0.52233C227.594 0.559162 229.435 1.22216 230.835 2.06933C231.351 2.364 231.461 2.84283 231.13 3.32166L229.73 5.458C229.399 5.93683 228.993 6.04733 228.441 5.7895C227.52 5.27383 226.489 4.94233 225.457 4.94233C223.542 4.94233 222.142 6.15783 222.142 7.81533C222.142 9.80433 224.389 10.6515 226.636 11.7565C229.03 12.8615 233.45 15.2188 233.45 20.265C233.45 24.7587 229.988 28.2947 225.236 28.2947Z" fill="url(#paint0_linear)"/>
<defs>
<linearGradient id="paint0_linear" x1="-1" y1="33" x2="234.97" y2="33.1829" gradientUnits="userSpaceOnUse">
<stop stop-color="#C71CB8"/>
<stop offset="1" stop-color="#FE139C"/>
</linearGradient>
</defs>
</svg>
