<svg width="346" height="149" fill="none" xmlns="http://www.w3.org/2000/svg"><path fill="#fff" d="M0 0h346v149H0z"/><path fill="url(#paint0_linear)" d="M0 0h346v149H0z"/><path d="M58.045 61.743H54.62c-.516 0-.884.221-1.032.774l-4.457 15.949-4.125-15.691c-.147-.442-.405-.627-.884-.627H42.28c-.479 0-.773.185-.884.627l-4.125 15.69-4.494-15.948c-.147-.553-.515-.774-1.031-.774h-3.389c-.626 0-.994.405-.773 1.069l7.109 25.415c.147.552.479.773 1.031.773h2.247c.59 0 .92-.295 1.068-.81l4.125-15.802 4.2 15.802c.11.515.478.81 1.03.81h2.284c.516 0 .884-.221 1.032-.773l7.108-25.416c.185-.663-.147-1.068-.773-1.068zm18.686 22.432h-9.282V77.47h8.618c.59 0 .958-.331.958-.92v-2.395c0-.59-.368-.92-.958-.92H67.45v-6.668h9.282c.589 0 .957-.331.957-.957V62.7c0-.59-.368-.958-.957-.958H63.58c-.59 0-.958.369-.958.958v25.341c0 .59.369.958.958.958h13.15c.589 0 .957-.368.957-.958v-2.91c0-.626-.368-.957-.957-.957zM95.235 89H82.71c-.589 0-.957-.368-.957-.958V62.701c0-.59.368-.958.957-.958h2.91c.59 0 .958.369.958.958v21.474h8.656c.626 0 .994.331.994.957v2.91c0 .59-.368.958-.994.958zm16.064.221c-7.661 0-13.85-6.225-13.85-13.85 0-7.624 6.226-13.849 13.776-13.849 3.573 0 6.741 1.363 9.467 3.905.478.405.478.847.11 1.362l-1.657 2.026c-.406.48-.884.516-1.363.11-1.916-1.546-4.015-2.578-6.52-2.578-4.935 0-9.024 4.052-9.024 9.025 0 4.972 4.089 9.024 9.024 9.024 2.394 0 4.641-.921 6.52-2.468.479-.442.957-.405 1.326.11l1.731 2.247c.368.48.331.921-.147 1.326-2.542 2.247-5.82 3.61-9.393 3.61zm25.753-27.699c-7.624 0-13.849 6.188-13.849 13.85 0 7.661 6.225 13.849 13.849 13.849 7.662 0 13.85-6.188 13.85-13.85 0-7.66-6.188-13.849-13.85-13.849zm-.037 4.789c4.936 0 9.061 4.125 9.061 9.06 0 4.936-4.125 9.025-9.061 9.025-4.972 0-8.987-4.052-8.987-9.024 0-5.01 4.015-9.061 8.987-9.061zm43.855-4.568h-2.284c-.479 0-.847.221-1.068.663l-9.208 18.785-9.209-18.785c-.221-.442-.589-.663-1.068-.663h-2.283c-.59 0-.958.369-.958.958v25.341c0 .59.368.958.958.958h2.909c.59 0 .958-.368.958-.958V73.125l7.109 14.365c.184.405.479.59.884.59h1.4c.405 0 .699-.185.884-.59l7.072-14.365v14.917c0 .59.368.958.957.958h2.947c.626 0 .958-.368.958-.958V62.701c0-.59-.332-.958-.958-.958zm19.317 22.432h-9.282V77.47h8.619c.59 0 .958-.331.958-.92v-2.395c0-.59-.368-.92-.958-.92h-8.619v-6.668h9.282c.59 0 .958-.331.958-.957V62.7c0-.59-.368-.958-.958-.958h-13.149c-.589 0-.958.369-.958.958v25.341c0 .59.369.958.958.958h13.149c.59 0 .958-.368.958-.958v-2.91c0-.626-.368-.957-.958-.957zm29.868-9.209a7.859 7.859 0 001.989-5.23c0-4.42-3.573-7.993-8.03-7.993h-6.593c-.589 0-.957.369-.957.958v25.341c0 .59.368.958.957.958h7.404a8 8 0 008.029-8.03c0-2.394-1.105-4.567-2.799-6.004zm-8.95-8.397h2.762c1.731 0 3.205 1.436 3.205 3.204 0 1.731-1.474 3.168-3.205 3.168h-2.762v-6.373zm3.572 17.606h-3.572v-6.372h3.572c1.732 0 3.205 1.436 3.205 3.167 0 1.768-1.473 3.205-3.205 3.205zm36.562 3.757l-10.276-25.489c-.185-.479-.553-.7-1.069-.7h-2.283c-.516 0-.884.221-1.068.7l-10.13 25.489c-.221.663.037 1.068.737 1.068h3.315c.553 0 .884-.221 1.068-.737l1.695-4.162h11.234l1.657 4.162c.184.48.553.7 1.068.7l3.315.037c.7 0 .995-.405.737-1.068zm-16.096-8.656l3.72-9.319 3.683 9.319h-7.403zm30.751 9.945c-7.661 0-13.849-6.225-13.849-13.85 0-7.624 6.225-13.849 13.776-13.849 3.572 0 6.74 1.363 9.466 3.905.479.405.479.847.11 1.362l-1.657 2.026c-.405.48-.884.516-1.363.11-1.915-1.546-4.015-2.578-6.52-2.578-4.935 0-9.024 4.052-9.024 9.025 0 4.972 4.089 9.024 9.024 9.024 2.395 0 4.641-.921 6.52-2.468.479-.442.958-.405 1.326.11l1.731 2.247c.368.48.332.921-.147 1.326-2.542 2.247-5.82 3.61-9.393 3.61zm32.012-1.326l-9.061-14.77 7.551-10.24c.479-.663.221-1.142-.552-1.142h-3.463c-.479 0-.81.184-1.105.59l-6.482 8.692v-8.324c0-.59-.332-.958-.958-.958h-2.873c-.589 0-.958.369-.958.958v25.341c0 .59.369.958.958.958h2.873c.626 0 .958-.368.958-.958v-9.466l.92-1.215 6.667 10.976c.258.479.626.663 1.142.663h3.757c.737 0 1.031-.479.626-1.105zm5.169-5.304h2.837c.589 0 .957-.368.957-.958V62.701c0-.59-.368-.958-.957-.958h-2.837c-.626 0-.994.369-.994.958v18.932c0 .59.368.958.994.958zm1.4 6.409c1.437 0 2.578-1.179 2.578-2.615 0-1.437-1.141-2.542-2.578-2.542-1.4 0-2.578 1.105-2.578 2.542 0 1.436 1.178 2.615 2.578 2.615z" fill="#fff"/><rect x="16" y="105" width="314" height="36" rx="4" fill="#fff"/><path d="M97.422 124.685c-.078 1.071-.474 1.914-1.19 2.529-.71.615-1.65.923-2.816.923-1.276 0-2.28-.429-3.015-1.285-.729-.862-1.093-2.042-1.093-3.541v-.609c0-.957.168-1.8.505-2.529.338-.729.819-1.288 1.443-1.675.629-.392 1.358-.588 2.187-.588 1.149 0 2.074.308 2.776.923s1.107 1.479 1.217 2.591h-2.051c-.05-.643-.23-1.108-.54-1.395-.306-.291-.773-.437-1.402-.437-.683 0-1.196.246-1.538.738-.337.488-.51 1.246-.52 2.276v.752c0 1.076.162 1.862.486 2.359.328.497.843.745 1.545.745.633 0 1.105-.144 1.415-.431.314-.291.495-.74.54-1.346h2.05zm4.647 1.668h4.355V128h-6.405v-9.953h2.05v8.306zm8.968 1.647h-2.051v-9.953h2.051V128zm10.971-3.315c-.078 1.071-.474 1.914-1.19 2.529-.711.615-1.649.923-2.816.923-1.276 0-2.281-.429-3.015-1.285-.729-.862-1.093-2.042-1.093-3.541v-.609c0-.957.168-1.8.505-2.529.338-.729.818-1.288 1.443-1.675.629-.392 1.358-.588 2.187-.588 1.149 0 2.074.308 2.776.923s1.107 1.479 1.216 2.591h-2.05c-.05-.643-.23-1.108-.54-1.395-.306-.291-.773-.437-1.402-.437-.683 0-1.196.246-1.538.738-.337.488-.51 1.246-.519 2.276v.752c0 1.076.161 1.862.485 2.359.328.497.843.745 1.545.745.633 0 1.105-.144 1.415-.431.314-.291.494-.74.54-1.346h2.051zm5.714-.677l-1.067 1.148V128h-2.051v-9.953h2.051v4.512l.903-1.238 2.536-3.274h2.522l-3.534 4.423 3.637 5.53h-2.441l-2.556-3.992zM147.578 128h-2.051v-4.266h-3.999V128h-2.05v-9.953h2.05v4.033h3.999v-4.033h2.051V128zm9.036-4.313h-3.937v2.666h4.621V128h-6.672v-9.953h6.658v1.661h-4.607v2.372h3.937v1.607zm6.822.669h-1.634V128h-2.051v-9.953h3.698c1.176 0 2.083.262 2.721.786.638.524.957 1.265.957 2.222 0 .679-.148 1.246-.444 1.702-.292.451-.736.811-1.333 1.08l2.153 4.067V128h-2.201l-1.866-3.644zm-1.634-1.661h1.654c.515 0 .914-.13 1.196-.389.283-.265.424-.627.424-1.087 0-.47-.134-.839-.403-1.108-.264-.269-.672-.403-1.224-.403h-1.647v2.987zm14.129.992h-3.938v2.666h4.621V128h-6.672v-9.953h6.659v1.661h-4.608v2.372h3.938v1.607zm14.955-3.979h-3.049V128h-2.051v-8.292h-3.008v-1.661h8.108v1.661zm10.41 3.541c0 .98-.173 1.839-.52 2.577-.346.738-.843 1.308-1.49 1.709-.642.401-1.381.602-2.215.602-.825 0-1.561-.199-2.208-.595-.647-.396-1.148-.962-1.504-1.695-.355-.739-.535-1.586-.54-2.543v-.492c0-.98.176-1.842.527-2.584.355-.748.854-1.32 1.497-1.716.647-.401 1.385-.602 2.215-.602.829 0 1.565.201 2.208.602.647.396 1.146.968 1.497 1.716.355.742.533 1.601.533 2.577v.444zm-2.078-.451c0-1.044-.187-1.837-.561-2.379-.373-.542-.907-.814-1.599-.814-.689 0-1.219.269-1.593.807-.374.533-.563 1.317-.568 2.352v.485c0 1.016.187 1.805.561 2.365.374.561.911.841 1.613.841.688 0 1.217-.269 1.586-.807.369-.542.556-1.33.561-2.365v-.485zm11.605 3.555h4.355V128h-6.406v-9.953h2.051v8.306zm14.526-3.104c0 .98-.174 1.839-.52 2.577-.346.738-.843 1.308-1.49 1.709-.643.401-1.381.602-2.215.602-.825 0-1.561-.199-2.208-.595-.647-.396-1.148-.962-1.504-1.695-.355-.739-.535-1.586-.54-2.543v-.492c0-.98.176-1.842.526-2.584.356-.748.855-1.32 1.498-1.716.647-.401 1.385-.602 2.214-.602.83 0 1.566.201 2.208.602.647.396 1.147.968 1.497 1.716.356.742.534 1.601.534 2.577v.444zm-2.078-.451c0-1.044-.187-1.837-.561-2.379-.374-.542-.907-.814-1.6-.814-.688 0-1.219.269-1.592.807-.374.533-.563 1.317-.568 2.352v.485c0 1.016.187 1.805.561 2.365.373.561.911.841 1.613.841.688 0 1.217-.269 1.586-.807.369-.542.556-1.33.561-2.365v-.485zm12.693 3.944c-.369.442-.891.786-1.566 1.032-.674.242-1.421.363-2.242.363-.861 0-1.618-.187-2.269-.561-.647-.378-1.149-.925-1.504-1.64-.351-.716-.531-1.557-.54-2.523v-.677c0-.993.166-1.852.499-2.577.337-.729.82-1.285 1.449-1.668.633-.387 1.374-.581 2.222-.581 1.18 0 2.103.283 2.768.848.666.56 1.06 1.378 1.183 2.454h-1.996c-.091-.57-.294-.987-.609-1.251-.31-.264-.738-.397-1.285-.397-.697 0-1.228.262-1.593.787-.364.524-.549 1.303-.553 2.337v.636c0 1.044.198 1.832.594 2.365.397.534.978.8 1.744.8.77 0 1.319-.164 1.647-.492v-1.716h-1.866v-1.51h3.917v3.971zm5.098 1.258h-2.05v-9.953h2.05V128zm11.251 0h-2.05l-3.992-6.549V128h-2.051v-9.953h2.051l3.999 6.562v-6.562h2.043V128zm4.921-3.056h-1.64l-.233-6.897h2.106l-.233 6.897zm-.82 1.08c.333 0 .599.098.8.294a.995.995 0 01.307.752.986.986 0 01-.307.745c-.201.196-.467.294-.8.294-.328 0-.595-.098-.8-.294a1 1 0 01-.301-.745 1 1 0 01.301-.745c.205-.2.472-.301.8-.301z" fill="url(#paint1_linear)"/><path d="M101.353 27.784c-4.533 0-8.236 3.703-8.236 8.236 0 4.532 3.703 8.235 8.236 8.235 4.533 0 8.236-3.703 8.236-8.235 0-4.533-3.703-8.236-8.236-8.236zm0 4.214a4.006 4.006 0 014.022 4.022c0 2.234-1.788 4.054-4.022 4.054a4.06 4.06 0 01-4.054-4.054c0-2.235 1.82-4.022 4.054-4.022zm18.129-4.214c-1.436 0-2.745.447-3.894 1.277v-.287c0-.48-.256-.735-.703-.735h-1.755c-.511 0-.83.32-.83.83V43.17c0 .51.319.83.83.83h2.49c.51 0 .83-.32.83-.83v-8.491c0-1.5 1.245-2.745 2.745-2.745a2.745 2.745 0 012.745 2.745v8.491c0 .51.319.83.83.83h2.522c.511 0 .83-.32.83-.83v-8.491c0-3.799-2.937-6.895-6.64-6.895zm15.624 12.034h-.352c-.925 0-1.564-.638-1.564-1.723v-15.61c0-.51-.319-.83-.83-.83h-2.521c-.511 0-.83.32-.83.83v15.546c0 4.181 1.755 5.969 5.65 5.969h.287c.511 0 .83-.32.83-.83v-2.522c0-.542-.192-.83-.67-.83zm7.822-15.354c0 1.469-.989 2.458-2.458 2.458a2.411 2.411 0 01-2.426-2.458c0-1.245 1.149-2.394 2.426-2.394 1.469 0 2.458 1.15 2.458 2.394zM141.715 44h-2.458c-.51 0-.83-.32-.83-.83v-14.3c0-.511.32-.83.83-.83h2.458c.511 0 .83.319.83.83v14.3c0 .51-.319.83-.83.83zm11.216-16.216c-1.437 0-2.745.447-3.895 1.277v-.287c0-.48-.255-.735-.702-.735h-1.756c-.51 0-.829.32-.829.83V43.17c0 .51.319.83.829.83h2.49c.511 0 .83-.32.83-.83v-8.491c0-1.5 1.245-2.745 2.746-2.745a2.745 2.745 0 012.745 2.745v8.491c0 .51.319.83.83.83h2.521c.511 0 .83-.32.83-.83v-8.491c0-3.799-2.936-6.895-6.639-6.895zm25.391 8.715c-.319-5.363-3.671-8.715-8.108-8.715-4.597 0-8.204 3.543-8.204 8.076 0 4.565 3.639 8.395 8.491 8.395 1.884 0 4.118-.574 6.161-2.17.447-.32.479-.735.128-1.181l-1.405-1.66c-.319-.415-.702-.447-1.149-.192-.957.67-2.234 1.277-3.671 1.277-1.723 0-3.511-.958-4.277-3h11.204c.543 0 .862-.288.83-.83zm-12.002-2.363c.319-1.692 1.883-2.905 3.798-2.905 1.979 0 3.384 1.341 3.703 2.905h-7.501zm20.813 5.682h-.351c-.925 0-1.564-.638-1.564-1.723v-15.61c0-.51-.319-.83-.83-.83h-2.522c-.51 0-.83.32-.83.83v15.546c0 4.181 1.756 5.969 5.65 5.969h.288c.51 0 .83-.32.83-.83v-2.522c0-.542-.192-.83-.671-.83zm10.638-12.034c-4.533 0-8.236 3.703-8.236 8.236 0 4.532 3.703 8.235 8.236 8.235 4.533 0 8.236-3.703 8.236-8.235 0-4.533-3.703-8.236-8.236-8.236zm0 4.214a4.005 4.005 0 014.022 4.022c0 2.234-1.787 4.054-4.022 4.054a4.06 4.06 0 01-4.054-4.054c0-2.235 1.82-4.022 4.054-4.022zm19.055 7.82h-1.947c-1.149 0-1.979-.861-1.979-2.01v-6.13h4.086c.51 0 .798-.287.798-.798v-2.043c0-.51-.288-.798-.798-.798H212.9v-4.245c0-.51-.319-.83-.83-.83h-2.522c-.511 0-.83.32-.83.83v13.981c0 4.118 2.33 6.225 6.033 6.225h2.075c.543 0 .83-.32.83-.83v-2.522c0-.542-.287-.83-.83-.83zm11.472 0h-1.947c-1.15 0-1.98-.861-1.98-2.01v-6.13h4.086c.511 0 .798-.287.798-.798v-2.043c0-.51-.287-.798-.798-.798h-4.086v-4.245c0-.51-.319-.83-.83-.83h-2.521c-.511 0-.83.32-.83.83v13.981c0 4.118 2.33 6.225 6.033 6.225h2.075c.542 0 .83-.32.83-.83v-2.522c0-.542-.288-.83-.83-.83zm10.964-12.034c-4.532 0-8.235 3.703-8.235 8.236 0 4.532 3.703 8.235 8.235 8.235 4.533 0 8.236-3.703 8.236-8.235 0-4.533-3.703-8.236-8.236-8.236zm0 4.214a4.005 4.005 0 014.022 4.022c0 2.234-1.787 4.054-4.022 4.054a4.06 4.06 0 01-4.054-4.054c0-2.235 1.82-4.022 4.054-4.022zm14.346 9.768c0 1.212-1.022 2.234-2.266 2.234-1.213 0-2.235-1.022-2.235-2.234a2.241 2.241 0 012.235-2.235c1.244 0 2.266.99 2.266 2.235z" fill="#fff"/><defs><linearGradient id="paint0_linear" x1="0" y1="149" x2="345.956" y2="149.103" gradientUnits="userSpaceOnUse"><stop stop-color="#C71CB8"/><stop offset="1" stop-color="#FE139C"/></linearGradient><linearGradient id="paint1_linear" x1="31" y1="131" x2="315.962" y2="131.653" gradientUnits="userSpaceOnUse"><stop stop-color="#C71CB8"/><stop offset="1" stop-color="#FE139C"/></linearGradient></defs></svg>