<svg xmlns="http://www.w3.org/2000/svg" width="346" height="149" fill="none"><path fill="#fff" d="M0 0h346v149H0z"/><path fill="url(#A)" d="M0 0h346v149H0z"/><rect x="16" y="105" width="314" height="36" rx="4" fill="#fff"/><path d="M69.124 124.685c-.078 1.07-.474 1.914-1.19 2.53s-1.65.923-2.816.923c-1.276 0-2.28-.43-3.015-1.285C61.374 126 61 124.8 61 123.31v-.61c0-.957.17-1.8.506-2.53s.818-1.288 1.442-1.675c.63-.392 1.358-.588 2.188-.588 1.148 0 2.074.308 2.775.923s1.107 1.48 1.217 2.59h-2.05c-.05-.643-.23-1.108-.54-1.395s-.772-.437-1.4-.437c-.684 0-1.196.246-1.538.738s-.5 1.246-.52 2.276v.752c0 1.076.162 1.862.485 2.36s.843.745 1.545.745c.633 0 1.105-.144 1.415-.43s.495-.74.54-1.346h2.05zm4.648 1.668h4.355V128H71.72v-9.953h2.05v8.306zM82.74 128h-2.05v-9.953h2.05V128zm10.97-3.315c-.078 1.07-.474 1.914-1.19 2.53s-1.65.923-2.816.923c-1.276 0-2.28-.43-3.015-1.285-.73-.862-1.094-2.042-1.094-3.54v-.61c0-.957.17-1.8.506-2.53s.818-1.288 1.442-1.675c.63-.392 1.358-.588 2.188-.588 1.15 0 2.074.308 2.775.923s1.108 1.48 1.217 2.59h-2.05c-.05-.643-.23-1.108-.54-1.395s-.772-.437-1.4-.437c-.683 0-1.196.246-1.538.738s-.5 1.246-.52 2.276v.752c0 1.076.162 1.862.485 2.36s.843.745 1.545.745c.633 0 1.105-.144 1.415-.43s.495-.74.54-1.346h2.05zm5.714-.677l-1.066 1.148V128h-2.05v-9.953h2.05v4.512l.902-1.238 2.536-3.274h2.522l-3.534 4.423 3.637 5.53h-2.44l-2.556-3.992zM119.28 128h-2.05v-4.266h-4V128h-2.05v-9.953h2.05v4.033h4v-4.033h2.05V128zm9.036-4.313h-3.937v2.666H129V128h-6.672v-9.953h6.658v1.66h-4.607v2.372h3.937v1.607zm6.822.67h-1.634V128h-2.05v-9.953h3.698c1.176 0 2.083.262 2.72.786s.957 1.265.957 2.222c0 .68-.148 1.246-.444 1.702-.292.45-.736.81-1.333 1.08l2.153 4.067V128h-2.2l-1.866-3.644zm-1.634-1.66h1.654c.515 0 .914-.13 1.196-.39.283-.265.424-.627.424-1.087 0-.47-.134-.84-.403-1.108s-.672-.403-1.224-.403h-1.647v2.987zm14.13.992h-3.938v2.666h4.62V128h-6.67v-9.953h6.658v1.66h-4.608v2.372h3.938v1.607zm14.955-3.98h-3.05V128h-2.05v-8.292h-3.008v-1.66h8.108v1.66zm10.4 3.54c0 .98-.173 1.84-.52 2.577s-.844 1.308-1.49 1.71-1.38.602-2.215.602c-.824 0-1.56-.2-2.208-.595s-1.148-.962-1.503-1.695c-.356-.74-.536-1.586-.54-2.543v-.492c0-.98.176-1.842.527-2.584.355-.748.854-1.32 1.497-1.716s1.385-.602 2.215-.602 1.565.2 2.208.602 1.146.968 1.497 1.716c.355.742.533 1.6.533 2.577v.444zm-2.078-.45c0-1.044-.187-1.837-.56-2.38s-.907-.814-1.6-.814-1.22.27-1.593.807c-.374.533-.563 1.317-.567 2.352v.485c0 1.016.186 1.805.56 2.365s.912.84 1.613.84c.69 0 1.217-.27 1.586-.807s.556-1.33.56-2.365v-.485zm17.43 3.944c-.37.442-.89.786-1.566 1.032s-1.422.363-2.242.363c-.86 0-1.618-.187-2.27-.56-.647-.378-1.148-.925-1.503-1.64s-.53-1.557-.54-2.523v-.677c0-.993.166-1.852.5-2.577s.82-1.285 1.45-1.668 1.374-.58 2.22-.58c1.18 0 2.104.283 2.77.848s1.06 1.378 1.183 2.454h-1.996c-.092-.57-.294-.987-.61-1.25s-.738-.397-1.285-.397c-.697 0-1.228.262-1.593.787s-.55 1.303-.554 2.337v.636c0 1.044.2 1.832.595 2.365s.978.8 1.743.8c.77 0 1.32-.164 1.648-.492v-1.716h-1.866v-1.5h3.917v3.97zm8.906-3.055h-3.938v2.666h4.62V128h-6.67v-9.953h6.658v1.66h-4.608v2.372h3.938v1.607zm10.765-3.98h-3.048V128h-2.05v-8.292h-3.008v-1.66h8.107v1.66zm11.914 5.68c0-.388-.137-.684-.41-.89s-.765-.428-1.476-.656-1.274-.46-1.69-.684c-1.13-.61-1.695-1.433-1.695-2.468 0-.537.15-1.016.45-1.435.306-.424.74-.754 1.306-.99.57-.237 1.208-.356 1.914-.356s1.344.13 1.9.4.987.617 1.292 1.087c.3.47.465 1.002.465 1.6h-2.05c0-.455-.143-.81-.43-1.06-.287-.255-.69-.383-1.2-.383-.502 0-.89.107-1.17.32s-.417.488-.417.834c0 .324.162.595.485.814.328.218.81.424 1.443.615 1.166.35 2.016.786 2.55 1.306s.8 1.166.8 1.94c0 .86-.326 1.538-.977 2.03s-1.53.732-2.632.732c-.766 0-1.463-.14-2.092-.417s-1.1-.668-1.442-1.156-.493-1.052-.493-1.695h2.058c0 1.098.656 1.648 1.97 1.648.487 0 .868-.098 1.14-.294s.41-.48.41-.834zm12.194-5.68h-3.05V128h-2.05v-8.292h-3.008v-1.66h8.108v1.66zm7.225 6.24h-3.596l-.684 2.05h-2.18l3.705-9.953h1.9l3.726 9.953h-2.18l-.7-2.05zm-3.042-1.66h2.488l-1.25-3.726-1.237 3.726zm11.777.068h-1.634V128h-2.05v-9.953h3.7c1.175 0 2.082.262 2.72.786s.957 1.265.957 2.222c0 .68-.148 1.246-.444 1.702-.292.45-.736.81-1.333 1.08l2.153 4.067V128h-2.2l-1.866-3.644zm-1.634-1.66h1.654c.515 0 .914-.13 1.197-.39.282-.265.423-.627.423-1.087 0-.47-.134-.84-.403-1.108-.264-.27-.672-.403-1.223-.403h-1.648v2.987zm15.29-2.987h-3.05V128h-2.05v-8.292h-3.007v-1.66h8.107v1.66zm8.414 3.98h-3.937v2.666h4.62V128h-6.672v-9.953h6.658v1.66h-4.607v2.372h3.937v1.607zm3.137 4.313v-9.953h3.062c.875 0 1.657.198 2.345.595s1.233.952 1.62 1.68.58 1.55.58 2.475v.458c0 .925-.19 1.748-.574 2.468s-.914 1.278-1.606 1.674-1.475.597-2.345.602h-3.083zm2.05-8.292v6.645h.99c.802 0 1.415-.263 1.84-.787s.64-1.273.65-2.25v-.526c0-1.012-.21-1.777-.63-2.297s-1.032-.786-1.84-.786h-1.01zm10.184 5.236h-1.64l-.233-6.897h2.106l-.233 6.897zm-.82 1.08c.333 0 .6.098.8.294s.307.447.307.752-.102.55-.307.745-.467.294-.8.294c-.328 0-.595-.098-.8-.294a.998.998 0 01-.3-.745 1 1 0 01.301-.745c.205-.2.472-.3.8-.3z" fill="url(#B)"/><g fill="#fff"><path d="M50.395 66h-1.5V54.625h1.5V66zm4.634-10.5v2.047h1.578v1.117H55.03v5.242c0 .34.07.594.21.766.14.167.38.25.72.25.167 0 .396-.03.688-.094V66a4.19 4.19 0 01-1.109.156c-.646 0-1.133-.195-1.46-.586s-.492-.945-.492-1.664v-5.242h-1.54v-1.117h1.54V55.5h1.445zm4.798-1.5h1.75l-2.094 2.297H58.32L59.828 54zm8.712 9.758c0-.39-.148-.693-.445-.906-.292-.22-.805-.406-1.54-.562-.73-.156-1.3-.344-1.742-.562-.427-.22-.745-.48-.953-.78-.203-.302-.305-.66-.305-1.078 0-.693.292-1.28.875-1.758.59-.48 1.34-.72 2.25-.72.958 0 1.734.247 2.328.742a2.35 2.35 0 01.898 1.898h-1.453c0-.396-.17-.737-.508-1.023-.333-.286-.755-.43-1.266-.43-.526 0-.937.115-1.234.344a1.08 1.08 0 00-.445.898c0 .35.138.612.414.79s.773.346 1.492.508c.724.16 1.3.354 1.758.578s.78.495.992.813c.22.313.328.695.328 1.148a2.17 2.17 0 01-.906 1.82c-.604.453-1.388.68-2.352.68-.677 0-1.276-.12-1.797-.36s-.93-.573-1.227-1a2.448 2.448 0 01-.437-1.398h1.445c.026.484.22.87.578 1.156.365.28.844.422 1.438.422.547 0 .984-.11 1.313-.328.333-.224.5-.52.5-.89zM81.356 66c-.083-.167-.15-.463-.203-.89-.672.698-1.474 1.047-2.406 1.047-.833 0-1.518-.234-2.055-.703-.53-.474-.797-1.073-.797-1.797 0-.88.333-1.562 1-2.047.672-.5 1.615-.734 2.828-.734h1.406v-.664c0-.505-.15-.906-.453-1.203-.302-.302-.747-.453-1.336-.453-.516 0-.948.13-1.297.39s-.523.575-.523.945h-1.453c0-.422.148-.828.445-1.22.302-.396.708-.708 1.22-.937a4.112 4.112 0 011.695-.344c.974 0 1.737.245 2.29.734.552.484.84 1.154.86 2.008v3.89c0 .776.1 1.393.297 1.852V66h-1.516zm-2.398-1.102a2.54 2.54 0 001.289-.352c.406-.234.7-.54.883-.914v-1.734h-1.133c-1.77 0-2.656.518-2.656 1.555 0 .453.15.807.453 1.063s.7.383 1.164.383zM86.56 66h-1.445V54h1.445v12zm9.955-1.992l1.625-6.46h1.445L97.125 66h-1.172l-2.055-6.406-2 6.406h-1.172l-2.453-8.453h1.438l1.664 6.328 1.97-6.328h1.164l2.008 6.46zM106.43 66c-.083-.167-.15-.463-.203-.89-.672.698-1.474 1.047-2.406 1.047-.833 0-1.518-.234-2.055-.703-.53-.474-.797-1.073-.797-1.797 0-.88.334-1.562 1-2.047.672-.5 1.615-.734 2.828-.734h1.407v-.664c0-.505-.15-.906-.453-1.203-.303-.302-.748-.453-1.336-.453-.516 0-.948.13-1.297.39s-.524.575-.524.945h-1.453c0-.422.15-.828.445-1.22.303-.396.71-.708 1.22-.937a4.13 4.13 0 011.696-.344c.974 0 1.737.245 2.29.734.552.484.838 1.154.86 2.008v3.89c0 .776.1 1.393.297 1.852V66h-1.516zm-2.398-1.102a2.54 2.54 0 001.289-.352c.406-.234.7-.54.883-.914v-1.734h-1.133c-1.77 0-2.656.518-2.656 1.555 0 .453.15.807.453 1.063s.7.383 1.164.383zm8.673-1.016l1.97-6.336h1.547l-3.4 9.758c-.526 1.406-1.362 2.11-2.507 2.11l-.274-.023-.54-.102v-1.172l.39.03c.49 0 .87-.1 1.14-.297.276-.198.503-.56.68-1.086l.32-.86-3.015-8.36h1.578l2.11 6.336zm9.885-.125c0-.39-.15-.693-.446-.906-.29-.22-.804-.406-1.54-.562-.73-.156-1.3-.344-1.742-.562s-.745-.48-.953-.78-.305-.66-.305-1.078c0-.693.292-1.28.875-1.758.59-.48 1.34-.72 2.25-.72.96 0 1.735.247 2.328.742a2.35 2.35 0 01.899 1.898h-1.453c0-.396-.17-.737-.508-1.023s-.755-.43-1.266-.43c-.526 0-.937.115-1.234.344a1.08 1.08 0 00-.445.898c0 .35.138.612.414.79s.773.346 1.492.508c.724.16 1.3.354 1.758.578s.778.495.992.813c.22.313.328.695.328 1.148a2.17 2.17 0 01-.906 1.82c-.604.453-1.388.68-2.352.68-.677 0-1.276-.12-1.797-.36a2.96 2.96 0 01-1.226-1 2.45 2.45 0 01-.438-1.398h1.445c.027.484.22.87.58 1.156.364.28.843.422 1.437.422.547 0 .984-.11 1.313-.328.333-.224.5-.52.5-.89zm14.097-2.78h-4.774V66h-1.5V54.625h7.047v1.234h-5.547v3.89h4.774v1.227zm6.376-2.133a4.33 4.33 0 00-.711-.055c-.948 0-1.59.404-1.93 1.21v6h-1.445v-8.453h1.406l.024.977c.474-.755 1.146-1.133 2.015-1.133.282 0 .495.037.64.11v1.344zm4.838 7.312c-1.146 0-2.08-.375-2.797-1.125-.72-.755-1.078-1.763-1.078-3.023v-.266c0-.84.158-1.586.476-2.242.323-.66.77-1.177 1.344-1.547a3.38 3.38 0 011.875-.562c1.1 0 1.953.362 2.562 1.086s.914 1.76.914 3.11v.602h-5.726c.02.833.263 1.508.726 2.023.47.51 1.063.766 1.782.766.5 0 .942-.104 1.297-.312a3.25 3.25 0 00.929-.828l.883.687c-.708 1.09-1.77 1.633-3.187 1.633zm-.18-7.578a1.92 1.92 0 00-1.469.641c-.396.422-.64 1.016-.734 1.78h4.234v-.11c-.042-.734-.24-1.302-.594-1.703-.354-.406-.833-.61-1.437-.61zm8.814 7.578c-1.146 0-2.078-.375-2.797-1.125-.72-.755-1.078-1.763-1.078-3.023v-.266c0-.84.16-1.586.476-2.242.323-.66.77-1.177 1.344-1.547a3.38 3.38 0 011.875-.562c1.1 0 1.953.362 2.563 1.086s.914 1.76.914 3.11v.602h-5.727c.02.833.263 1.508.727 2.023.47.51 1.062.766 1.78.766.5 0 .943-.104 1.297-.312s.664-.484.93-.828l.882.687c-.708 1.09-1.77 1.633-3.187 1.633zm-.18-7.578a1.92 1.92 0 00-1.469.641c-.395.422-.64 1.016-.734 1.78h4.234v-.11c-.04-.734-.24-1.302-.593-1.703-.354-.406-.834-.61-1.438-.61zm11.386-3.078v2.047h1.578v1.117h-1.578v5.242c0 .34.07.594.21.766.14.167.38.25.72.25.167 0 .396-.03.687-.094V66c-.38.104-.75.156-1.11.156-.646 0-1.133-.195-1.46-.586s-.492-.945-.492-1.664v-5.242h-1.54v-1.117h1.54V55.5h1.445zm2.885 6.195c0-.828.16-1.573.484-2.234.328-.66.78-1.172 1.36-1.53.584-.36 1.248-.54 1.992-.54 1.152 0 2.08.398 2.8 1.195s1.07 1.857 1.07 3.18v.102c0 .823-.16 1.563-.477 2.22-.312.65-.763 1.16-1.35 1.523s-1.255.547-2.016.547c-1.146 0-2.075-.398-2.79-1.195-.708-.797-1.062-1.85-1.062-3.164v-.102zm1.453.172c0 .938.216 1.7.648 2.258.438.568 1.02.852 1.75.852s1.318-.287 1.75-.86c.432-.578.65-1.385.65-2.422 0-.927-.222-1.677-.665-2.25a2.08 2.08 0 00-1.75-.867 2.07 2.07 0 00-1.726.852c-.438.568-.656 1.38-.656 2.438zm14.05-.32V66h-1.5V54.625h4.195c1.245 0 2.22.318 2.922.953s1.062 1.477 1.062 2.523c0 1.104-.346 1.956-1.04 2.555-.687.594-1.674.89-2.96.89h-2.68zm0-1.227h2.695c.802 0 1.417-.187 1.844-.562.427-.38.64-.927.64-1.64 0-.677-.213-1.22-.64-1.625s-1.013-.617-1.758-.633h-2.78v4.46zM196.217 66h-1.445V54h1.445v12zm7.69 0c-.083-.167-.15-.463-.203-.89-.672.698-1.474 1.047-2.406 1.047-.833 0-1.518-.234-2.055-.703-.53-.474-.797-1.073-.797-1.797 0-.88.334-1.562 1-2.047.672-.5 1.615-.734 2.828-.734h1.407v-.664c0-.505-.15-.906-.453-1.203-.303-.302-.748-.453-1.336-.453-.516 0-.948.13-1.297.39s-.524.575-.524.945h-1.453c0-.422.15-.828.445-1.22.303-.396.71-.708 1.22-.937a4.13 4.13 0 011.696-.344c.974 0 1.737.245 2.29.734.552.484.838 1.154.86 2.008v3.89c0 .776.1 1.393.297 1.852V66h-1.516zm-2.398-1.102a2.54 2.54 0 001.289-.352c.406-.234.7-.54.883-.914v-1.734h-1.133c-1.77 0-2.656.518-2.656 1.555 0 .453.15.807.453 1.063s.7.383 1.164.383zm8.673-1.016l1.97-6.336h1.547l-3.4 9.758c-.526 1.406-1.362 2.11-2.507 2.11l-.274-.023-.54-.102v-1.172l.39.03c.49 0 .87-.1 1.14-.297.276-.198.503-.56.68-1.086l.32-.86-3.015-8.36h1.578l2.11 6.336zm8.7-2.187c0-.828.16-1.573.484-2.234s.78-1.172 1.36-1.53c.584-.36 1.248-.54 1.993-.54 1.15 0 2.08.398 2.79 1.195s1.07 1.857 1.07 3.18v.102c0 .823-.16 1.563-.477 2.22-.312.65-.763 1.16-1.35 1.523s-1.255.547-2.016.547c-1.146 0-2.075-.398-2.79-1.195-.708-.797-1.062-1.85-1.062-3.164v-.102zm1.453.172c0 .938.216 1.7.648 2.258.438.568 1.02.852 1.75.852.735 0 1.318-.287 1.75-.86.433-.578.65-1.385.65-2.422 0-.927-.222-1.677-.664-2.25-.438-.578-1.02-.867-1.75-.867-.714 0-1.29.284-1.727.852s-.656 1.38-.656 2.438zm13.423 3.297c-.562.66-1.388.992-2.476.992-.9 0-1.59-.26-2.063-.78-.47-.526-.706-1.302-.71-2.328v-5.5h1.446v5.46c0 1.28.52 1.922 1.562 1.922 1.104 0 1.84-.412 2.203-1.234v-6.148h1.445V66h-1.375l-.03-.836zm7.846-6.32a4.33 4.33 0 00-.711-.055c-.948 0-1.592.404-1.93 1.21v6h-1.445v-8.453h1.406l.023.977c.474-.755 1.146-1.133 2.016-1.133.28 0 .495.037.64.11v1.344zm5.26 2.86c0-1.318.304-2.365.914-3.14.61-.78 1.416-1.172 2.42-1.172 1.032 0 1.836.365 2.415 1.094l.07-.937h1.32v8.25c0 1.094-.325 1.956-.976 2.586-.646.63-1.516.945-2.6.945-.61 0-1.206-.13-1.79-.39s-1.03-.617-1.336-1.07l.75-.867c.62.766 1.378 1.148 2.274 1.148.703 0 1.25-.198 1.64-.594.396-.396.594-.953.594-1.672v-.727c-.578.667-1.367 1-2.367 1s-1.792-.398-2.406-1.195-.914-1.883-.914-3.258zm1.453.164c0 .953.195 1.703.586 2.25.4.542.937.813 1.64.813.912 0 1.58-.414 2.008-1.242v-3.86c-.443-.807-1.107-1.21-1.992-1.21-.703 0-1.253.273-1.65.82s-.593 1.357-.593 2.43zM261.56 66c-.083-.167-.15-.463-.203-.89-.672.698-1.474 1.047-2.406 1.047-.833 0-1.518-.234-2.055-.703-.53-.474-.797-1.073-.797-1.797 0-.88.334-1.562 1-2.047.672-.5 1.615-.734 2.83-.734h1.406v-.664c0-.505-.15-.906-.453-1.203-.302-.302-.748-.453-1.336-.453-.516 0-.948.13-1.297.39s-.524.575-.524.945h-1.453c0-.422.15-.828.446-1.22.302-.396.708-.708 1.218-.937a4.13 4.13 0 011.696-.344c.974 0 1.737.245 2.29.734.552.484.838 1.154.86 2.008v3.89c0 .776.1 1.393.297 1.852V66h-1.516zm-2.398-1.102a2.54 2.54 0 001.289-.352c.406-.234.7-.54.883-.914v-1.734H260.2c-1.77 0-2.656.518-2.656 1.555 0 .453.15.807.453 1.063s.7.383 1.164.383zm7.392-7.35l.04.938c.62-.73 1.456-1.094 2.508-1.094 1.182 0 1.987.453 2.414 1.36a3.21 3.21 0 011.094-.984c.453-.25.987-.375 1.6-.375 1.855 0 2.797.982 2.828 2.945V66h-1.445v-5.578c0-.604-.138-1.055-.414-1.352-.276-.302-.74-.453-1.39-.453-.536 0-.98.16-1.335.484-.355.318-.56.747-.618 1.29V66h-1.453v-5.54c0-1.23-.6-1.844-1.804-1.844-.948 0-1.597.404-1.946 1.21V66h-1.445v-8.453h1.367zm16.33 8.61c-1.146 0-2.078-.375-2.797-1.125-.72-.755-1.078-1.763-1.078-3.023v-.266c0-.84.16-1.586.476-2.242.323-.66.77-1.177 1.344-1.547a3.38 3.38 0 011.875-.562c1.1 0 1.953.362 2.563 1.086s.914 1.76.914 3.11v.602h-5.727c.02.833.263 1.508.727 2.023a2.31 2.31 0 001.781.766c.5 0 .943-.104 1.297-.312s.664-.484.93-.828l.882.687c-.708 1.09-1.77 1.633-3.187 1.633zm-.18-7.578a1.92 1.92 0 00-1.469.641c-.395.422-.64 1.016-.734 1.78h4.234v-.11c-.04-.734-.24-1.302-.593-1.703-.355-.406-.834-.61-1.438-.61zm10.228 5.18c0-.39-.148-.693-.445-.906-.292-.22-.805-.406-1.54-.562s-1.3-.344-1.742-.562c-.427-.22-.745-.48-.953-.78s-.305-.66-.305-1.078c0-.693.292-1.28.875-1.758s1.338-.72 2.25-.72c.958 0 1.734.247 2.328.742a2.35 2.35 0 01.898 1.898h-1.453c0-.396-.17-.737-.508-1.023-.333-.286-.755-.43-1.265-.43-.526 0-.938.115-1.235.344s-.445.53-.445.898c0 .35.138.612.414.79s.774.346 1.492.508c.724.16 1.3.354 1.758.578s.78.495.992.813c.22.313.33.695.33 1.148 0 .755-.303 1.362-.907 1.82-.604.453-1.388.68-2.35.68-.677 0-1.276-.12-1.797-.36s-.93-.573-1.227-1a2.463 2.463 0 01-.437-1.398h1.445c.026.484.22.87.578 1.156.365.28.844.422 1.438.422.547 0 .984-.11 1.312-.328.334-.224.5-.52.5-.89zm3.5 1.484c0-.25.073-.458.218-.625.15-.167.375-.25.672-.25s.52.083.672.25a.88.88 0 01.235.625c0 .24-.08.44-.235.602s-.375.242-.672.242-.52-.08-.672-.242a.869.869 0 01-.218-.602zM70.395 90h-1.508l-5.727-8.766V90h-1.508V78.625h1.508l5.742 8.805v-8.805h1.492V90zm2.205-4.305c0-.828.162-1.573.484-2.234.328-.66.78-1.172 1.36-1.53.583-.36 1.247-.54 1.992-.54 1.15 0 2.08.398 2.79 1.195.714.797 1.07 1.857 1.07 3.18v.102c0 .823-.16 1.563-.477 2.22a3.56 3.56 0 01-1.352 1.523c-.583.365-1.255.547-2.016.547-1.146 0-2.076-.398-2.79-1.195-.708-.797-1.062-1.852-1.062-3.164v-.102zm1.453.172c0 .938.216 1.7.648 2.258.438.568 1.02.852 1.75.852.734 0 1.318-.287 1.75-.86.432-.578.648-1.385.648-2.422 0-.927-.22-1.677-.664-2.25-.437-.578-1.02-.867-1.75-.867-.714 0-1.29.284-1.727.852s-.656 1.38-.656 2.438zm19.464 0c0 1.286-.294 2.323-.883 3.11s-1.385 1.18-2.39 1.18c-1.026 0-1.833-.326-2.422-.977v4.07h-1.445V81.547h1.32l.07.938c.588-.73 1.406-1.094 2.453-1.094 1.016 0 1.818.383 2.406 1.148.594.766.89 1.83.89 3.195v.133zm-1.445-.164c0-.953-.203-1.706-.61-2.258a1.96 1.96 0 00-1.672-.828 2.12 2.12 0 00-1.969 1.164v4.04c.432.77 1.094 1.156 1.984 1.156.693 0 1.242-.273 1.648-.82.41-.552.617-1.37.617-2.453zm8.658 3.46c-.563.66-1.388.992-2.477.992-.9 0-1.59-.26-2.062-.78-.47-.526-.706-1.302-.71-2.328v-5.5h1.445v5.46c0 1.28.52 1.922 1.563 1.922 1.104 0 1.838-.412 2.204-1.234v-6.148h1.445V90h-1.375l-.03-.836zm7.845-6.32a4.33 4.33 0 00-.711-.055c-.948 0-1.59.404-1.93 1.21v6h-1.445v-8.453h1.406l.024.977c.474-.755 1.146-1.133 2.015-1.133.282 0 .495.036.64.11v1.344zm4.72 6.133c.516 0 .966-.156 1.352-.47s.6-.703.64-1.172h1.368c-.026.484-.193.945-.5 1.383a3.29 3.29 0 01-1.235 1.047 3.5 3.5 0 01-1.625.39c-1.15 0-2.067-.383-2.75-1.148-.677-.77-1.015-1.823-1.015-3.156v-.242c0-.823.15-1.555.453-2.195s.734-1.138 1.297-1.492 1.237-.53 2.007-.53c.948 0 1.735.284 2.36.852s.966 1.305 1.008 2.21h-1.368c-.04-.547-.25-.995-.625-1.344-.37-.354-.828-.53-1.375-.53-.734 0-1.304.266-1.7.797-.4.526-.602 1.29-.602 2.29v.273c0 .974.2 1.724.602 2.25s.974.79 1.718.79zm6.58-6.406a3.07 3.07 0 012.5-1.18c1.786 0 2.687 1.008 2.703 3.023V90h-1.445v-5.594c-.005-.61-.146-1.06-.422-1.352s-.695-.437-1.273-.437c-.47 0-.88.125-1.235.375s-.63.578-.828.984V90h-1.445V78h1.445v4.57zM132.61 90c-.083-.167-.15-.463-.203-.89-.672.698-1.474 1.047-2.406 1.047-.834 0-1.52-.234-2.055-.703-.53-.474-.797-1.073-.797-1.797 0-.88.333-1.562 1-2.047.672-.5 1.615-.734 2.828-.734h1.406v-.664c0-.505-.15-.906-.453-1.203-.302-.302-.747-.453-1.336-.453-.515 0-.948.13-1.297.39s-.523.575-.523.945h-1.453c0-.422.148-.828.445-1.22.302-.396.71-.708 1.22-.937a4.112 4.112 0 011.695-.344c.974 0 1.737.245 2.29.734.552.484.84 1.154.86 2.008v3.89c0 .776.1 1.393.297 1.852V90h-1.516zm-2.4-1.102c.454 0 .883-.117 1.3-.352s.7-.54.882-.914v-1.734h-1.132c-1.77 0-2.657.518-2.657 1.555 0 .453.15.807.453 1.063s.69.383 1.164.383zm10.955-1.14c0-.39-.148-.693-.445-.906-.292-.22-.805-.406-1.54-.562-.73-.156-1.3-.344-1.742-.562s-.745-.48-.954-.78c-.203-.302-.304-.66-.304-1.078 0-.693.29-1.28.875-1.758s1.338-.72 2.25-.72c.958 0 1.734.247 2.328.742a2.35 2.35 0 01.898 1.898h-1.453c0-.396-.17-.737-.508-1.023-.333-.286-.755-.43-1.265-.43-.526 0-.938.115-1.235.344s-.445.53-.445.898c0 .35.138.612.414.79s.774.346 1.492.508c.724.16 1.3.354 1.758.578s.78.495.992.813c.22.313.328.695.328 1.148a2.17 2.17 0 01-.906 1.82c-.604.453-1.388.68-2.35.68-.677 0-1.276-.12-1.797-.36s-.93-.573-1.227-1a2.463 2.463 0 01-.437-1.398h1.445c.026.484.22.87.578 1.156.365.28.844.422 1.438.422.547 0 .984-.11 1.312-.328.334-.224.5-.52.5-.89zm6.986 2.398c-1.146 0-2.078-.375-2.797-1.125-.72-.755-1.078-1.763-1.078-3.023v-.266c0-.84.16-1.586.477-2.242.323-.662.77-1.177 1.343-1.547a3.386 3.386 0 011.875-.562c1.1 0 1.954.362 2.563 1.086s.914 1.76.914 3.11v.602h-5.727c.02.833.263 1.508.727 2.023.47.51 1.062.766 1.78.766.51 0 .943-.104 1.297-.312s.664-.484.93-.828l.883.688c-.71 1.09-1.77 1.633-3.188 1.633zm-.18-7.578a1.92 1.92 0 00-1.468.641c-.396.422-.64 1.016-.735 1.78h4.235v-.11c-.042-.734-.24-1.302-.594-1.703-.354-.406-.833-.61-1.438-.61zm10.793-1.03l.046 1.063a3.08 3.08 0 012.532-1.219c1.786 0 2.687 1.008 2.703 3.023V90H162.6v-5.594c-.006-.61-.146-1.06-.422-1.352s-.696-.437-1.274-.437c-.468 0-.88.125-1.234.375s-.63.578-.828.984V90h-1.446v-8.453h1.368zm11.118 8.61c-1.145 0-2.078-.375-2.797-1.125-.718-.755-1.078-1.763-1.078-3.023v-.266c0-.84.16-1.586.477-2.242.323-.662.77-1.177 1.344-1.547a3.38 3.38 0 011.875-.562c1.1 0 1.953.362 2.562 1.086s.914 1.76.914 3.11v.602h-5.726c.02.833.263 1.508.726 2.023.47.51 1.063.766 1.78.766.51 0 .943-.104 1.297-.312s.664-.484.93-.828l.883.688c-.708 1.09-1.77 1.633-3.188 1.633zm-.18-7.578a1.92 1.92 0 00-1.469.641c-.396.422-.64 1.016-.734 1.78h4.234v-.11c-.042-.734-.24-1.302-.594-1.703-.354-.406-.833-.61-1.437-.61zm8.697 6.398a2.08 2.08 0 001.351-.469c.386-.312.6-.703.64-1.172h1.367c-.026.484-.193.945-.5 1.383s-.72.786-1.234 1.047a3.53 3.53 0 01-1.625.391c-1.15 0-2.068-.383-2.75-1.148-.678-.77-1.016-1.823-1.016-3.156v-.242c0-.823.15-1.555.453-2.195s.734-1.138 1.297-1.492c.568-.354 1.237-.53 2.008-.53.948 0 1.734.284 2.36.852.63.568.966 1.305 1.008 2.21h-1.367a1.97 1.97 0 00-.625-1.344 1.91 1.91 0 00-1.375-.531c-.735 0-1.305.266-1.71.797-.4.526-.602 1.29-.602 2.29v.273c0 .974.2 1.724.602 2.25s.974.79 1.72.79zm8.642 1.18c-1.146 0-2.078-.375-2.797-1.125-.72-.755-1.078-1.763-1.078-3.023v-.266c0-.84.16-1.586.476-2.242.323-.662.77-1.177 1.344-1.547a3.38 3.38 0 011.875-.562c1.1 0 1.953.362 2.563 1.086s.914 1.76.914 3.11v.602h-5.727c.02.833.263 1.508.727 2.023a2.31 2.31 0 001.781.766c.5 0 .943-.104 1.297-.312a3.25 3.25 0 00.929-.828l.883.688c-.708 1.09-1.77 1.633-3.187 1.633zm-.18-7.578a1.92 1.92 0 00-1.469.641c-.396.422-.64 1.016-.734 1.78h4.234v-.11c-.04-.734-.24-1.302-.593-1.703-.355-.406-.834-.61-1.438-.61zm10.228 5.18c0-.39-.148-.693-.445-.906-.292-.22-.805-.406-1.54-.562s-1.3-.344-1.742-.562-.745-.48-.954-.78c-.203-.302-.304-.66-.304-1.078 0-.693.29-1.28.875-1.758s1.338-.72 2.25-.72c.958 0 1.734.247 2.328.742a2.35 2.35 0 01.898 1.898h-1.453c0-.396-.17-.737-.508-1.023-.333-.286-.755-.43-1.265-.43-.526 0-.938.115-1.235.344s-.445.53-.445.898c0 .35.138.612.414.79s.774.346 1.492.508c.724.16 1.3.354 1.758.578s.78.495.992.813c.22.313.328.695.328 1.148a2.17 2.17 0 01-.906 1.82c-.604.453-1.388.68-2.35.68-.677 0-1.276-.12-1.797-.36s-.93-.573-1.227-1a2.463 2.463 0 01-.437-1.398h1.445c.026.484.22.87.578 1.156.365.28.844.422 1.438.422.547 0 .984-.11 1.312-.328.334-.224.5-.52.5-.89zm8.4 0c0-.39-.148-.693-.445-.906-.292-.22-.805-.406-1.54-.562s-1.3-.344-1.742-.562c-.427-.22-.745-.48-.954-.78-.203-.302-.304-.66-.304-1.078 0-.693.29-1.28.875-1.758s1.338-.72 2.25-.72c.958 0 1.734.247 2.328.742a2.35 2.35 0 01.898 1.898h-1.453c0-.396-.17-.737-.508-1.023-.333-.286-.755-.43-1.265-.43-.526 0-.938.115-1.235.344s-.445.53-.445.898c0 .35.138.612.414.79s.774.346 1.492.508c.724.16 1.3.354 1.758.578s.78.495.992.813c.22.313.33.695.33 1.148 0 .755-.303 1.362-.907 1.82-.604.453-1.388.68-2.35.68-.677 0-1.276-.12-1.797-.36s-.93-.573-1.227-1a2.463 2.463 0 01-.437-1.398h1.445c.026.484.22.87.578 1.156.365.28.844.422 1.438.422.547 0 .984-.11 1.312-.328.334-.224.5-.52.5-.89zM214.19 90c-.083-.167-.15-.463-.203-.89-.672.698-1.474 1.047-2.406 1.047-.834 0-1.52-.234-2.055-.703-.53-.474-.797-1.073-.797-1.797 0-.88.333-1.562 1-2.047.672-.5 1.615-.734 2.828-.734h1.406v-.664c0-.505-.15-.906-.453-1.203-.302-.302-.747-.453-1.336-.453-.515 0-.947.13-1.296.39s-.524.575-.524.945H208.9c0-.422.148-.828.445-1.22.302-.396.71-.708 1.22-.937a4.112 4.112 0 011.695-.344c.974 0 1.737.245 2.29.734.553.484.84 1.154.86 2.008v3.89c0 .776.1 1.393.297 1.852V90h-1.516zm-2.398-1.102c.453 0 .882-.117 1.29-.352s.7-.54.882-.914v-1.734h-1.132c-1.77 0-2.657.518-2.657 1.555 0 .453.15.807.454 1.063s.7.383 1.164.383zm10.118-6.055a4.255 4.255 0 00-.71-.055c-.947 0-1.59.404-1.93 1.21v6h-1.446v-8.453h1.407l.023.977c.474-.755 1.146-1.133 2.016-1.133.28 0 .495.036.64.11v1.344zm4.393 5.04l1.968-6.336h1.547l-3.398 9.758c-.526 1.406-1.362 2.11-2.508 2.11l-.274-.023-.54-.102v-1.172l.39.03c.5 0 .87-.1 1.14-.297.276-.198.502-.56.68-1.086l.32-.86-3.016-8.36h1.578l2.1 6.336zm11.042-8.383v2.047h1.578v1.117h-1.578v5.242c0 .34.07.594.21.766.14.167.38.25.718.25.167 0 .396-.03.688-.094V90c-.38.104-.75.156-1.11.156-.646 0-1.133-.195-1.46-.586s-.493-.945-.493-1.664v-5.242h-1.54v-1.117h1.54V79.5h1.446zm2.884 6.195c0-.828.162-1.573.484-2.234.33-.66.782-1.172 1.36-1.53s1.247-.54 1.992-.54c1.15 0 2.08.398 2.79 1.195.714.797 1.07 1.857 1.07 3.18v.102c0 .823-.158 1.563-.476 2.22a3.56 3.56 0 01-1.352 1.523c-.583.365-1.255.547-2.015.547-1.146 0-2.076-.398-2.79-1.195s-1.063-1.852-1.063-3.164v-.102zm1.453.172c0 .938.216 1.7.65 2.258s1.02.852 1.75.852 1.317-.287 1.75-.86c.432-.578.648-1.385.648-2.422 0-.927-.22-1.677-.664-2.25a2.08 2.08 0 00-1.75-.867c-.713 0-1.29.284-1.727.852s-.656 1.38-.656 2.438zm19.464 0c0 1.286-.294 2.323-.883 3.11s-1.385 1.18-2.4 1.18c-1.026 0-1.833-.326-2.422-.977v4.07h-1.445V81.547h1.32l.07.938c.59-.73 1.407-1.094 2.453-1.094 1.016 0 1.818.383 2.407 1.148s.9 1.83.9 3.195v.133zm-1.445-.164c0-.953-.203-1.706-.61-2.258s-.964-.828-1.672-.828a2.12 2.12 0 00-1.969 1.164v4.04c.432.77 1.094 1.156 1.984 1.156.693 0 1.243-.273 1.65-.82.41-.552.617-1.37.617-2.453zM264.71 90h-1.445V78h1.445v12zm7.69 0c-.083-.167-.15-.463-.203-.89-.672.698-1.474 1.047-2.406 1.047-.833 0-1.518-.234-2.055-.703-.53-.474-.796-1.073-.796-1.797 0-.88.333-1.562 1-2.047.67-.5 1.614-.734 2.828-.734h1.406v-.664c0-.505-.15-.906-.453-1.203-.302-.302-.748-.453-1.336-.453-.516 0-.948.13-1.297.39s-.524.575-.524.945h-1.453c0-.422.15-.828.446-1.22.302-.396.708-.708 1.218-.937a4.13 4.13 0 011.696-.344c.974 0 1.737.245 2.29.734.552.484.838 1.154.86 2.008v3.89c0 .776.1 1.393.297 1.852V90h-1.516zm-2.4-1.102a2.54 2.54 0 001.289-.352c.406-.234.7-.54.883-.914v-1.734h-1.133c-1.77 0-2.656.518-2.656 1.555 0 .453.15.807.453 1.063s.7.383 1.164.383zm8.673-1.016l1.97-6.336h1.547l-3.398 9.758c-.526 1.406-1.362 2.11-2.508 2.11l-.274-.023-.54-.102v-1.172l.39.03c.5 0 .87-.1 1.14-.297s.502-.56.68-1.086l.32-.86-3.016-8.36h1.578l2.11 6.336zm6.58-1.094h-1.305l-.1-8.164h1.516l-.1 8.164zm-1.46 2.484c0-.234.07-.43.21-.586.146-.162.36-.242.64-.242s.495.08.64.242c.146.156.22.352.22.586s-.073.43-.22.586c-.145.15-.36.227-.64.227s-.495-.075-.64-.227a.846.846 0 01-.21-.586zM76.696 13.937h-6.17c-.5 0-.8.312-.8.8V36.2c0 .5.312.8.8.8h6.17a11.55 11.55 0 0011.532-11.532 11.55 11.55 0 00-11.532-11.532zm0 18.98h-2.898V18.02h2.898c4.083 0 7.418 3.335 7.418 7.45s-3.335 7.45-7.418 7.45zm19.05-14.99c0 1.434-.966 2.4-2.4 2.4a2.355 2.355 0 01-2.37-2.4c0-1.215 1.122-2.337 2.37-2.337 1.434 0 2.4 1.122 2.4 2.337zM94.56 37h-2.4c-.5 0-.8-.312-.8-.8V22.227c0-.5.312-.8.8-.8h2.4c.5 0 .8.312.8.8V36.2c0 .5-.312.8-.8.8zm19.04-21.817h-2.43c-.53 0-.84.312-.84.8v6.39c-1.06-.748-2.462-1.215-3.927-1.215-4.457 0-8.04 3.615-8.04 8.04s3.584 8.04 8.04 8.04c1.714 0 3.335-.592 4.613-1.527v.56c0 .468.25.717.716.717h1.87a.75.75 0 00.811-.81V15.994a.75.75 0 00-.811-.81zm-7.137 17.952c-2.15 0-3.927-1.777-3.927-3.927s1.777-3.927 3.927-3.927c2.12 0 3.927 1.776 3.927 3.927s-1.807 3.927-3.927 3.927zm34.867-11.72h-2.837c-.436 0-.716.187-.903.592l-3.148 7.76-3.148-7.76c-.156-.405-.5-.592-.935-.592h-2.774c-.592 0-.84.343-.623.904l5.298 12.934c-.78 2.244-2.244 3.74-4.27 4.426-.498.156-.717.467-.498.997l.716 2.12c.156.468.5.655.998.53 2.96-.8 5.298-2.898 6.67-6.264l6.11-14.742c.187-.56-.062-.904-.654-.904zm9.737-.25c-4.426 0-8.04 3.615-8.04 8.04s3.615 8.04 8.04 8.04 8.04-3.615 8.04-8.04-3.616-8.04-8.04-8.04zm0 4.114a3.91 3.91 0 013.927 3.927c0 2.182-1.746 3.958-3.927 3.958S147.1 31.4 147.1 29.208s1.776-3.927 3.958-3.927zm17.78 11.968a6.76 6.76 0 01-6.763-6.763v-8.26c0-.5.312-.8.8-.8h2.43a.75.75 0 01.811.81v8.26c0 1.465 1.215 2.71 2.71 2.71 1.465 0 2.68-1.247 2.68-2.71v-8.26c0-.5.31-.8.8-.8h2.43c.53 0 .84.312.84.8v8.26a6.78 6.78 0 01-6.763 6.763zm32.648-1.215l-5.9-7.854 5.08-5.797c.436-.5.218-.966-.467-.966h-2.992a1.22 1.22 0 00-.967.436l-3.927 4.52V15.994c0-.5-.31-.8-.8-.8h-2.462c-.5 0-.8.312-.8.8V36.2c0 .5.31.8.8.8h2.462c.5 0 .8-.312.8-.8v-4.24l.717-.873 3.896 5.423c.25.343.56.5.966.5h3.117c.623 0 .84-.436.467-.966zm10.563-14.866c-1.402 0-2.68.436-3.802 1.247v-.28c0-.468-.25-.717-.686-.717h-1.714c-.5 0-.8.312-.8.8V36.2c0 .5.31.8.8.8h2.43c.5 0 .8-.312.8-.8v-8.3a2.7 2.7 0 012.68-2.68 2.68 2.68 0 012.68 2.68v8.3a.75.75 0 00.81.81h2.462a.75.75 0 00.811-.81v-8.3c0-3.71-2.868-6.732-6.483-6.732zm17.205 0c-4.426 0-8.04 3.615-8.04 8.04s3.615 8.04 8.04 8.04 8.04-3.615 8.04-8.04-3.615-8.04-8.04-8.04zm0 4.114a3.91 3.91 0 013.927 3.927c0 2.182-1.745 3.958-3.927 3.958s-3.958-1.776-3.958-3.958 1.776-3.927 3.958-3.927zm19.987-2.836l-3.085 7.885-3.117-8.3c-.156-.436-.436-.623-.873-.623h-2.71c-.592 0-.81.343-.624.904l5.517 14.056c.156.405.467.623.904.623h1.402c.437 0 .748-.218.904-.623l3.086-8 3.054 8c.156.436.436.623.873.623h1.433c.437 0 .748-.218.904-.623l5.454-14.056c.218-.56-.03-.904-.592-.904h-2.68c-.437 0-.717.187-.873.623l-3.117 8.3-3.085-7.854c-.125-.343-.374-.5-.748-.5l-1.278-.03c-.343 0-.623.156-.748.5zm27.974-1.745c0 3.2-2.244 5.86-5.018 6.67v3.397c0 .5-.312.8-.84.8h-2.463a.75.75 0 01-.81-.81V24.41a.75.75 0 01.81-.81h1.278c1.6 0 2.93-1.31 2.93-2.96 0-2.836-3.802-3.834-5.298-1.683-.28.374-.53.5-.935.343l-2.4-1.03c-.468-.218-.686-.592-.405-1.09a6.94 6.94 0 016.077-3.522c3.896 0 7.075 3.148 7.075 7.044zm-4.675 14.087A2.2 2.2 0 01270.338 37c-1.215 0-2.182-.966-2.182-2.213a2.17 2.17 0 012.182-2.182c1.216 0 2.213.966 2.213 2.182z"/></g><defs><linearGradient id="A" x1="0" y1="149" x2="345.956" y2="149.103" gradientUnits="userSpaceOnUse"><stop stop-color="#c71cb8"/><stop offset="1" stop-color="#fe139c"/></linearGradient><linearGradient id="B" x1="31" y1="131" x2="315.962" y2="131.653" gradientUnits="userSpaceOnUse"><stop stop-color="#c71cb8"/><stop offset="1" stop-color="#fe139c"/></linearGradient></defs></svg>