<svg width="238" height="29" viewBox="0 0 238 29" fill="none" xmlns="http://www.w3.org/2000/svg">
<path d="M8.38279 0.743331H1.08979C0.500452 0.743331 0.132119 1.11166 0.132119 1.701V27.0423C0.132119 27.6317 0.500452 28 1.08979 28H8.38279C15.8968 28 22.0111 21.8857 22.0111 14.3717C22.0111 6.85767 15.8968 0.743331 8.38279 0.743331ZM8.38279 23.1748H4.95729V5.5685H8.38279C13.208 5.5685 17.1491 9.50966 17.1491 14.3717C17.1491 19.2337 13.208 23.1748 8.38279 23.1748ZM38.962 0.52233C31.3375 0.52233 25.1127 6.71033 25.1127 14.3717C25.1127 22.033 31.3375 28.221 38.962 28.221C46.6234 28.221 52.8114 22.033 52.8114 14.3717C52.8114 6.71033 46.6234 0.52233 38.962 0.52233ZM38.9252 5.31066C43.8609 5.31066 47.9862 9.436 47.9862 14.3717C47.9862 19.3073 43.8609 23.3958 38.9252 23.3958C33.9527 23.3958 29.9379 19.3442 29.9379 14.3717C29.9379 9.36233 33.9527 5.31066 38.9252 5.31066ZM73.0925 1.701V19.0127L60.7902 1.33266C60.4955 0.890663 60.1272 0.743331 59.6483 0.743331H57.6593C57.07 0.743331 56.7017 1.11166 56.7017 1.701V27.0423C56.7017 27.6317 57.07 28 57.6593 28H60.5692C61.1585 28 61.5268 27.6317 61.5268 27.0423V9.80433L73.7555 27.4107C74.0133 27.8527 74.3817 28 74.8605 28H76.9232C77.5493 28 77.9177 27.6317 77.9177 27.0423V1.701C77.9177 1.11166 77.5493 0.743331 76.9232 0.743331H74.0502C73.4608 0.743331 73.0925 1.11166 73.0925 1.701ZM85.5892 7.1155L86.952 1.8115C87.0993 1.1485 86.7678 0.743331 86.1048 0.743331H84.079C83.5265 0.743331 83.1582 1.038 83.0108 1.5905L81.6848 6.8945C81.5007 7.5575 81.8322 7.96266 82.4952 7.96266H84.5578C85.1103 7.96266 85.4787 7.70483 85.5892 7.1155ZM106.216 0.743331H91.1145C90.5252 0.743331 90.1569 1.11166 90.1569 1.701V4.61083C90.1569 5.237 90.5252 5.5685 91.1145 5.5685H96.2712V27.0423C96.2712 27.6317 96.6027 28 97.2289 28H100.102C100.728 28 101.06 27.6317 101.06 27.0423V5.5685H106.216C106.842 5.5685 107.174 5.237 107.174 4.61083V1.701C107.174 1.11166 106.842 0.743331 106.216 0.743331ZM147.827 0.743331H145.543C145.064 0.743331 144.696 0.96433 144.475 1.40633L135.267 20.1913L126.058 1.40633C125.837 0.96433 125.469 0.743331 124.99 0.743331H122.706C122.117 0.743331 121.749 1.11166 121.749 1.701V27.0423C121.749 27.6317 122.117 28 122.706 28H125.616C126.206 28 126.574 27.6317 126.574 27.0423V12.1248L133.683 26.4898C133.867 26.895 134.162 27.0792 134.567 27.0792H135.966C136.372 27.0792 136.666 26.895 136.85 26.4898L143.922 12.1248V27.0423C143.922 27.6317 144.291 28 144.88 28H147.827C148.453 28 148.784 27.6317 148.784 27.0423V1.701C148.784 1.11166 148.453 0.743331 147.827 0.743331ZM153.037 27.0423V1.701C153.037 1.11166 153.405 0.743331 153.995 0.743331H156.831C157.457 0.743331 157.789 1.11166 157.789 1.701V27.0423C157.789 27.6317 157.457 28 156.831 28H153.995C153.405 28 153.037 27.6317 153.037 27.0423ZM169.795 28.2947C167.253 28.2947 164.786 27.3002 162.355 25.4953C161.765 25.0902 161.655 24.6113 161.949 24.0957L163.423 21.5173C163.754 20.9648 164.196 20.8543 164.749 21.2227C166.517 22.475 168.174 23.0643 169.537 23.0643C171.452 23.0643 172.815 21.8857 172.815 20.2282C172.815 17.7972 169.832 16.7658 167.069 15.3293C163.865 13.5982 161.581 11.3145 161.765 7.74166C161.986 3.32166 165.633 0.374996 170.2 0.52233C172.152 0.559162 173.994 1.22216 175.394 2.06933C175.909 2.364 176.02 2.84283 175.688 3.32166L174.289 5.458C173.957 5.93683 173.552 6.04733 172.999 5.7895C172.079 5.27383 171.047 4.94233 170.016 4.94233C168.101 4.94233 166.701 6.15783 166.701 7.81533C166.701 9.80433 168.948 10.6515 171.195 11.7565C173.589 12.8615 178.009 15.2188 178.009 20.265C178.009 24.7587 174.546 28.2947 169.795 28.2947ZM189.573 28.2947C187.031 28.2947 184.563 27.3002 182.132 25.4953C181.543 25.0902 181.433 24.6113 181.727 24.0957L183.201 21.5173C183.532 20.9648 183.974 20.8543 184.527 21.2227C186.295 22.475 187.952 23.0643 189.315 23.0643C191.23 23.0643 192.593 21.8857 192.593 20.2282C192.593 17.7972 189.61 16.7658 186.847 15.3293C183.643 13.5982 181.359 11.3145 181.543 7.74166C181.764 3.32166 185.411 0.374996 189.978 0.52233C191.93 0.559162 193.772 1.22216 195.171 2.06933C195.687 2.364 195.798 2.84283 195.466 3.32166L194.066 5.458C193.735 5.93683 193.33 6.04733 192.777 5.7895C191.856 5.27383 190.825 4.94233 189.794 4.94233C187.878 4.94233 186.479 6.15783 186.479 7.81533C186.479 9.80433 188.726 10.6515 190.972 11.7565C193.367 12.8615 197.787 15.2188 197.787 20.265C197.787 24.7587 194.324 28.2947 189.573 28.2947ZM212.869 27.0423V1.701C212.869 1.11166 213.237 0.743331 213.826 0.743331H216.662C217.289 0.743331 217.62 1.11166 217.62 1.701V27.0423C217.62 27.6317 217.289 28 216.662 28H213.826C213.237 28 212.869 27.6317 212.869 27.0423ZM237.03 0.743331H221.928C221.339 0.743331 220.971 1.11166 220.971 1.701V4.61083C220.971 5.237 221.339 5.5685 221.928 5.5685H227.085V27.0423C227.085 27.6317 227.416 28 228.043 28H230.916C231.542 28 231.873 27.6317 231.873 27.0423V5.5685H237.03C237.656 5.5685 237.988 5.237 237.988 4.61083V1.701C237.988 1.11166 237.656 0.743331 237.03 0.743331Z" fill="url(#paint0_linear)"/>
<defs>
<linearGradient id="paint0_linear" x1="-2" y1="33" x2="238.969" y2="33.1907" gradientUnits="userSpaceOnUse">
<stop stop-color="#C71CB8"/>
<stop offset="1" stop-color="#FE139C"/>
</linearGradient>
</defs>
</svg>
