<svg width="78" height="52" viewBox="0 0 78 52" fill="none" xmlns="http://www.w3.org/2000/svg">
<path d="M18.5938 34.1406H8.32031L6.36719 40H0.136719L10.7227 11.5625H16.1523L26.7969 40H20.5664L18.5938 34.1406ZM9.90234 29.3945H17.0117L13.4375 18.75L9.90234 29.3945ZM29.4531 40V11.5625H38.2031C40.7031 11.5625 42.9362 12.1289 44.9023 13.2617C46.8815 14.3815 48.4245 15.9831 49.5312 18.0664C50.638 20.1367 51.1914 22.4935 51.1914 25.1367V26.4453C51.1914 29.0885 50.6445 31.4388 49.5508 33.4961C48.4701 35.5534 46.9401 37.1484 44.9609 38.2812C42.9818 39.4141 40.7487 39.987 38.2617 40H29.4531ZM35.3125 16.3086V35.293H38.1445C40.4362 35.293 42.1875 34.5443 43.3984 33.0469C44.6094 31.5495 45.2279 29.4076 45.2539 26.6211V25.1172C45.2539 22.2266 44.6549 20.0391 43.457 18.5547C42.2591 17.0573 40.5078 16.3086 38.2031 16.3086H35.3125ZM70.2148 32.5391C70.2148 31.4323 69.8242 30.5859 69.043 30C68.2617 29.401 66.8555 28.776 64.8242 28.125C62.793 27.4609 61.1849 26.8099 60 26.1719C56.7708 24.4271 55.1562 22.0768 55.1562 19.1211C55.1562 17.5846 55.5859 16.2174 56.4453 15.0195C57.3177 13.8086 58.5612 12.8646 60.1758 12.1875C61.8034 11.5104 63.6263 11.1719 65.6445 11.1719C67.6758 11.1719 69.4857 11.543 71.0742 12.2852C72.6628 13.0143 73.8932 14.0495 74.7656 15.3906C75.651 16.7318 76.0938 18.2552 76.0938 19.9609H70.2344C70.2344 18.6589 69.8242 17.6497 69.0039 16.9336C68.1836 16.2044 67.0312 15.8398 65.5469 15.8398C64.1146 15.8398 63.0013 16.1458 62.207 16.7578C61.4128 17.3568 61.0156 18.151 61.0156 19.1406C61.0156 20.0651 61.4779 20.8398 62.4023 21.4648C63.3398 22.0898 64.7135 22.6758 66.5234 23.2227C69.8568 24.2253 72.2852 25.4688 73.8086 26.9531C75.332 28.4375 76.0938 30.2865 76.0938 32.5C76.0938 34.9609 75.1628 36.8945 73.3008 38.3008C71.4388 39.694 68.9323 40.3906 65.7812 40.3906C63.5938 40.3906 61.6016 39.9935 59.8047 39.1992C58.0078 38.3919 56.6341 37.2917 55.6836 35.8984C54.7461 34.5052 54.2773 32.8906 54.2773 31.0547H60.1562C60.1562 34.1927 62.0312 35.7617 65.7812 35.7617C67.1745 35.7617 68.2617 35.4818 69.043 34.9219C69.8242 34.349 70.2148 33.5547 70.2148 32.5391Z" fill="url(#paint0_linear)"/>
<path d="M39 1C25.25 1 14 12.25 14 26C14 39.75 25.25 51 39 51C52.75 51 64 39.75 64 26C64 12.25 52.75 1 39 1ZM19 26C19 15 28 6 39 6C43.5 6 47.75 7.5 51.25 10.25L23.25 38.25C20.5 34.75 19 30.5 19 26ZM39 46C34.5 46 30.25 44.5 26.75 41.75L54.75 13.75C57.5 17.25 59 21.5 59 26C59 37 50 46 39 46Z" fill="#B00020" stroke="#B00020"/>
<defs>
<linearGradient id="paint0_linear" x1="78" y1="16" x2="17.291" y2="59.9075" gradientUnits="userSpaceOnUse">
<stop stop-color="#FFB300"/>
<stop offset="1" stop-color="#F57C00"/>
</linearGradient>
</defs>
</svg>
