<svg width="56" height="56" viewBox="0 0 56 56" fill="none" xmlns="http://www.w3.org/2000/svg">
<path fill-rule="evenodd" clip-rule="evenodd" d="M41.9999 18.6666H39.6666V14C39.6666 7.55998 34.4399 2.33331 27.9999 2.33331C21.5599 2.33331 16.3333 7.55998 16.3333 14H20.9999C20.9999 10.1266 24.1266 6.99998 27.9999 6.99998C31.8732 6.99998 34.9999 10.1266 34.9999 14V18.6666H13.9999C11.4333 18.6666 9.33325 20.7666 9.33325 23.3333V46.6666C9.33325 49.2333 11.4333 51.3333 13.9999 51.3333H41.9999C44.5666 51.3333 46.6666 49.2333 46.6666 46.6666V23.3333C46.6666 20.7666 44.5666 18.6666 41.9999 18.6666ZM42 46.6667H14V23.3333H42V46.6667ZM32.6666 35C32.6666 37.5667 30.5666 39.6667 27.9999 39.6667C25.4333 39.6667 23.3333 37.5667 23.3333 35C23.3333 32.4333 25.4333 30.3333 27.9999 30.3333C30.5666 30.3333 32.6666 32.4333 32.6666 35Z" fill="url(#paint0_linear)"/>
<path d="M53.9996 18.0002C50.0044 18.0002 46.0093 14.0096 46 10.0142V10.0002C46 10.0024 45.9998 10.0049 45.9998 10.0071C45.9998 10.0047 45.9996 10.0024 45.9996 10V10.014C45.9902 14.0096 41.9953 18.0002 38 18.0002C42 18.0002 46 22.0002 46 26.0002C46 22.0002 50 18.0002 54 18.0002H53.9996Z" fill="white"/>
<defs>
<linearGradient id="paint0_linear" x1="46.6666" y1="2.33331" x2="3.27611" y2="8.4641" gradientUnits="userSpaceOnUse">
<stop stop-color="#FFB300"/>
<stop offset="1" stop-color="#F57C00"/>
</linearGradient>
</defs>
</svg>
