<svg width="149" height="29" viewBox="0 0 149 29" fill="none" xmlns="http://www.w3.org/2000/svg">
<path d="M22.647 0.743331H19.332C18.8163 0.743331 18.4848 0.96433 18.3007 1.48L12.039 19.0863L5.7405 1.48C5.55633 0.96433 5.22483 0.743331 4.67233 0.743331H1.431C0.731167 0.743331 0.473334 1.1485 0.694334 1.8115L9.97633 27.2633C10.1605 27.779 10.5288 28 11.0445 28H13.0335C13.5492 28 13.9175 27.779 14.1017 27.2633L23.3837 1.8115C23.6047 1.1485 23.31 0.743331 22.647 0.743331ZM27.2783 27.0423V1.701C27.2783 1.11166 27.6466 0.743331 28.236 0.743331H31.0721C31.6983 0.743331 32.0298 1.11166 32.0298 1.701V27.0423C32.0298 27.6317 31.6983 28 31.0721 28H28.236C27.6466 28 27.2783 27.6317 27.2783 27.0423ZM44.6991 0.743331H37.2588C36.6695 0.743331 36.3011 1.11166 36.3011 1.701V27.0423C36.3011 27.6317 36.6695 28 37.2588 28H40.1686C40.758 28 41.1263 27.6317 41.1263 27.0423V17.171H44.6991C49.2665 17.171 52.9498 13.4508 52.9498 8.92033C52.9498 4.42666 49.2665 0.743331 44.6991 0.743331ZM44.6991 12.309H41.1263V5.5685H44.6991C46.6145 5.5685 48.0878 7.07866 48.0878 8.92033C48.0878 10.8357 46.6145 12.309 44.6991 12.309ZM75.9458 0.743331H68.5054C67.9161 0.743331 67.5478 1.11166 67.5478 1.701V27.0423C67.5478 27.6317 67.9161 28 68.5054 28H71.4153C72.0046 28 72.3729 27.6317 72.3729 27.0423V17.171H75.9458C80.5131 17.171 84.1964 13.4508 84.1964 8.92033C84.1964 4.42666 80.5131 0.743331 75.9458 0.743331ZM75.9458 12.309H72.3729V5.5685H75.9458C77.8611 5.5685 79.3344 7.07866 79.3344 8.92033C79.3344 10.8357 77.8611 12.309 75.9458 12.309ZM109.086 26.9318L98.8096 1.44316C98.6254 0.96433 98.2571 0.743331 97.7414 0.743331H95.4577C94.9421 0.743331 94.5737 0.96433 94.3896 1.44316L84.2604 26.9318C84.0394 27.5948 84.2972 28 84.9971 28H88.3121C88.8646 28 89.1961 27.779 89.3802 27.2633L91.0746 23.1012H102.309L103.966 27.2633C104.15 27.7422 104.519 27.9632 105.034 27.9632L108.349 28C109.049 28 109.344 27.5948 109.086 26.9318ZM92.9899 18.276L96.7101 8.95716L100.393 18.276H92.9899ZM120.306 28.2947C117.764 28.2947 115.297 27.3002 112.866 25.4953C112.276 25.0902 112.166 24.6113 112.46 24.0957L113.934 21.5173C114.265 20.9648 114.707 20.8543 115.26 21.2227C117.028 22.475 118.685 23.0643 120.048 23.0643C121.963 23.0643 123.326 21.8857 123.326 20.2282C123.326 17.7972 120.343 16.7658 117.58 15.3293C114.376 13.5982 112.092 11.3145 112.276 7.74166C112.497 3.32166 116.144 0.374996 120.711 0.52233C122.663 0.559162 124.505 1.22216 125.905 2.06933C126.42 2.364 126.531 2.84283 126.199 3.32166L124.8 5.458C124.468 5.93683 124.063 6.04733 123.51 5.7895C122.59 5.27383 121.558 4.94233 120.527 4.94233C118.612 4.94233 117.212 6.15783 117.212 7.81533C117.212 9.80433 119.459 10.6515 121.706 11.7565C124.1 12.8615 128.52 15.2188 128.52 20.265C128.52 24.7587 125.057 28.2947 120.306 28.2947ZM140.084 28.2947C137.542 28.2947 135.074 27.3002 132.643 25.4953C132.054 25.0902 131.944 24.6113 132.238 24.0957L133.712 21.5173C134.043 20.9648 134.485 20.8543 135.038 21.2227C136.806 22.475 138.463 23.0643 139.826 23.0643C141.741 23.0643 143.104 21.8857 143.104 20.2282C143.104 17.7972 140.121 16.7658 137.358 15.3293C134.154 13.5982 131.87 11.3145 132.054 7.74166C132.275 3.32166 135.922 0.374996 140.489 0.52233C142.441 0.559162 144.283 1.22216 145.682 2.06933C146.198 2.364 146.309 2.84283 145.977 3.32166L144.577 5.458C144.246 5.93683 143.841 6.04733 143.288 5.7895C142.367 5.27383 141.336 4.94233 140.305 4.94233C138.389 4.94233 136.99 6.15783 136.99 7.81533C136.99 9.80433 139.237 10.6515 141.483 11.7565C143.878 12.8615 148.298 15.2188 148.298 20.265C148.298 24.7587 144.835 28.2947 140.084 28.2947Z" fill="url(#paint0_linear)"/>
<defs>
<linearGradient id="paint0_linear" x1="150" y1="-6" x2="31.8891" y2="78.8055" gradientUnits="userSpaceOnUse">
<stop stop-color="#FFB300"/>
<stop offset="1" stop-color="#F57C00"/>
</linearGradient>
</defs>
</svg>
