<svg width="224" height="23" viewBox="0 0 224 23" fill="none" xmlns="http://www.w3.org/2000/svg">
<path d="M4.52 3.456H5.912C6.224 3.456 6.44 3.24 6.44 2.904V1.728C6.44 1.392 6.224 1.2 5.912 1.2H4.52C2.144 1.2 0.248 2.76 0.248 5.4V17.472C0.248 17.808 0.44 18 0.776 18H2.096C2.408 18 2.624 17.808 2.624 17.472V8.112H5.936C6.248 8.112 6.44 7.92 6.44 7.608V6.48C6.44 6.192 6.248 6 5.936 6H2.624V5.328C2.624 4.296 3.464 3.456 4.52 3.456ZM13.6286 5.808C10.2206 5.808 7.43656 8.592 7.43656 12C7.43656 15.408 10.2206 18.192 13.6286 18.192C17.0366 18.192 19.8206 15.408 19.8206 12C19.8206 8.592 17.0366 5.808 13.6286 5.808ZM13.6286 8.232C15.7166 8.232 17.3966 9.912 17.3966 12C17.3966 14.088 15.7166 15.768 13.6286 15.768C11.5406 15.768 9.86056 14.088 9.86056 12C9.86056 9.912 11.5406 8.232 13.6286 8.232ZM28.0214 6H26.9174C25.7654 6 24.7334 6.336 24.0854 6.984V6.48C24.0854 6.192 23.8934 6 23.5814 6H22.6214C22.2854 6 22.0934 6.192 22.0934 6.528V17.472C22.0934 17.808 22.2854 18 22.6214 18H23.9654C24.3014 18 24.4934 17.808 24.4934 17.472V10.776C24.4934 9.264 25.6934 8.304 27.1814 8.304H28.0214C28.3334 8.304 28.5494 8.088 28.5494 7.776V6.528C28.5494 6.192 28.3334 6 28.0214 6ZM48.3063 6H46.6983C46.4343 6 46.2183 6.12 46.1223 6.384L43.0983 13.824L40.0503 6.384C39.9543 6.12 39.7623 6 39.4983 6H37.8903C37.5543 6 37.3863 6.216 37.5063 6.552L41.8023 17.016C41.1303 18.864 40.1223 20.04 38.4423 20.664C38.1063 20.784 38.0103 21 38.1303 21.36L38.5623 22.512C38.6583 22.824 38.8983 22.968 39.2103 22.872C41.3463 22.152 42.9063 20.592 43.7943 18.432L48.6903 6.552C48.8343 6.216 48.6663 6 48.3063 6ZM55.5583 5.808C52.1503 5.808 49.3663 8.592 49.3663 12C49.3663 15.408 52.1503 18.192 55.5583 18.192C58.9663 18.192 61.7503 15.408 61.7503 12C61.7503 8.592 58.9663 5.808 55.5583 5.808ZM55.5583 8.232C57.6463 8.232 59.3263 9.912 59.3263 12C59.3263 14.088 57.6463 15.768 55.5583 15.768C53.4703 15.768 51.7903 14.088 51.7903 12C51.7903 9.912 53.4703 8.232 55.5583 8.232ZM69.1111 18.192C66.3031 18.192 64.0231 15.912 64.0231 13.104V6.528C64.0231 6.192 64.2151 6 64.5511 6H65.8711C66.2071 6 66.4231 6.192 66.4231 6.528V13.104C66.4231 14.568 67.6231 15.792 69.1111 15.792C70.5991 15.792 71.7991 14.568 71.7991 13.104V6.528C71.7991 6.192 72.0151 6 72.3511 6H73.6951C74.0071 6 74.2231 6.192 74.2231 6.528V13.104C74.2231 15.912 71.9191 18.192 69.1111 18.192ZM82.5605 6H81.4565C80.3045 6 79.2725 6.336 78.6245 6.984V6.48C78.6245 6.192 78.4325 6 78.1205 6H77.1605C76.8245 6 76.6325 6.192 76.6325 6.528V17.472C76.6325 17.808 76.8245 18 77.1605 18H78.5045C78.8405 18 79.0325 17.808 79.0325 17.472V10.776C79.0325 9.264 80.2325 8.304 81.7205 8.304H82.5605C82.8725 8.304 83.0885 8.088 83.0885 7.776V6.528C83.0885 6.192 82.8725 6 82.5605 6ZM97.2054 0.24H92.7174C92.4054 0.24 92.2134 0.431999 92.2134 0.719999V1.848C92.2134 2.16 92.4054 2.328 92.7174 2.328H95.3334V17.472C95.3334 17.808 95.5254 18 95.8614 18H97.2054C97.5414 18 97.7334 17.808 97.7334 17.472V0.767999C97.7334 0.431999 97.5414 0.24 97.2054 0.24ZM107.895 7.32L107.391 8.184C107.223 8.472 106.959 8.52 106.671 8.352C106.167 8.088 105.495 7.824 104.799 7.824C103.863 7.824 103.047 8.28 103.047 9.024C103.047 9.84 103.983 10.152 105.183 10.584C107.079 11.256 108.759 12.552 108.759 14.52C108.759 16.512 107.055 18.192 104.607 18.192C103.335 18.192 102.039 17.76 101.055 17.232C100.767 17.064 100.695 16.824 100.839 16.512L101.343 15.456C101.487 15.144 101.751 15.072 102.039 15.216C102.783 15.576 103.743 15.888 104.535 15.888C105.735 15.888 106.263 15.168 106.263 14.472C106.263 13.656 105.519 13.2 103.863 12.552C102.663 12.072 100.719 11.28 100.719 9.144C100.719 7.152 102.447 5.808 104.703 5.808C105.855 5.808 106.815 6.144 107.703 6.624C107.991 6.768 108.063 7.032 107.895 7.32ZM116.729 15.576H115.217C114.185 15.576 113.369 14.76 113.369 13.728V8.112H116.825C117.113 8.112 117.305 7.944 117.305 7.632V6.48C117.305 6.192 117.113 6 116.825 6H113.369V2.712C113.369 2.376 113.153 2.184 112.817 2.184H111.473C111.137 2.184 110.945 2.376 110.945 2.712V13.704C110.945 16.368 112.649 18 115.169 18H116.729C117.041 18 117.257 17.808 117.257 17.472V16.104C117.257 15.792 117.041 15.576 116.729 15.576ZM132.816 5.808C131.208 5.808 129.744 6.456 128.688 7.464V6.48C128.688 6.192 128.496 6 128.184 6H127.176C126.84 6 126.648 6.192 126.648 6.528V22.272C126.648 22.608 126.84 22.8 127.176 22.8H128.496C128.832 22.8 129.048 22.608 129.048 22.272V16.752C130.008 17.64 131.376 18.192 132.816 18.192C136.248 18.192 139.008 15.432 139.008 12C139.008 8.592 136.248 5.808 132.816 5.808ZM132.792 15.768C130.728 15.768 129.024 14.088 129.024 12C129.024 9.936 130.728 8.256 132.792 8.256C134.856 8.256 136.56 9.936 136.56 12C136.56 14.088 134.856 15.768 132.792 15.768ZM146.385 18.192C143.577 18.192 141.297 15.912 141.297 13.104V6.528C141.297 6.192 141.489 6 141.825 6H143.145C143.481 6 143.697 6.192 143.697 6.528V13.104C143.697 14.568 144.897 15.792 146.385 15.792C147.873 15.792 149.073 14.568 149.073 13.104V6.528C149.073 6.192 149.289 6 149.625 6H150.969C151.281 6 151.497 6.192 151.497 6.528V13.104C151.497 15.912 149.193 18.192 146.385 18.192ZM159.834 6H158.73C157.578 6 156.546 6.336 155.898 6.984V6.48C155.898 6.192 155.706 6 155.394 6H154.434C154.098 6 153.906 6.192 153.906 6.528V17.472C153.906 17.808 154.098 18 154.434 18H155.778C156.114 18 156.306 17.808 156.306 17.472V10.776C156.306 9.264 157.506 8.304 158.994 8.304H159.834C160.146 8.304 160.362 8.088 160.362 7.776V6.528C160.362 6.192 160.146 6 159.834 6ZM167.686 18.192C164.302 18.192 161.518 15.432 161.518 12C161.518 8.568 164.278 5.808 167.686 5.808C169.246 5.808 170.638 6.384 171.766 7.368C172.006 7.584 172.006 7.848 171.814 8.112L170.998 9.072C170.782 9.36 170.542 9.36 170.254 9.144C169.438 8.496 168.526 8.208 167.71 8.208C165.622 8.208 163.942 9.912 163.942 11.976C163.942 14.04 165.622 15.768 167.71 15.768C168.526 15.768 169.438 15.48 170.278 14.808C170.542 14.568 170.806 14.592 171.022 14.856L171.814 15.84C172.006 16.104 172.006 16.368 171.766 16.584C170.638 17.544 169.294 18.192 167.686 18.192ZM179.411 5.808C178.355 5.808 177.395 6.168 176.651 6.768V1.728C176.651 1.392 176.435 1.2 176.099 1.2H174.731C174.395 1.2 174.203 1.392 174.203 1.728V17.472C174.203 17.808 174.395 18 174.731 18H176.099C176.435 18 176.651 17.808 176.651 17.472V11.016C176.651 9.48 177.875 8.232 179.411 8.232C180.947 8.232 182.195 9.48 182.195 11.016V17.472C182.195 17.808 182.411 18 182.723 18H184.091C184.427 18 184.619 17.808 184.619 17.472V11.016C184.619 8.136 182.291 5.808 179.411 5.808ZM198.262 6H197.23C196.942 6 196.75 6.192 196.75 6.48V7.464C195.67 6.432 194.206 5.808 192.646 5.808C189.214 5.808 186.43 8.592 186.43 11.976C186.43 15.408 189.214 18.192 192.646 18.192C194.23 18.192 195.694 17.544 196.774 16.512V17.52C196.774 17.808 196.966 18 197.254 18H198.262C198.574 18 198.814 17.784 198.814 17.472V6.528C198.814 6.216 198.574 6 198.262 6ZM192.67 15.768C190.582 15.768 188.902 14.088 188.902 11.976C188.902 9.912 190.582 8.208 192.67 8.208C194.758 8.208 196.438 9.912 196.438 11.976C196.438 14.088 194.758 15.768 192.67 15.768ZM208.325 7.32L207.821 8.184C207.653 8.472 207.389 8.52 207.101 8.352C206.597 8.088 205.925 7.824 205.229 7.824C204.293 7.824 203.477 8.28 203.477 9.024C203.477 9.84 204.413 10.152 205.613 10.584C207.509 11.256 209.189 12.552 209.189 14.52C209.189 16.512 207.485 18.192 205.037 18.192C203.765 18.192 202.469 17.76 201.485 17.232C201.197 17.064 201.125 16.824 201.269 16.512L201.773 15.456C201.917 15.144 202.181 15.072 202.469 15.216C203.213 15.576 204.173 15.888 204.965 15.888C206.165 15.888 206.693 15.168 206.693 14.472C206.693 13.656 205.949 13.2 204.293 12.552C203.093 12.072 201.149 11.28 201.149 9.144C201.149 7.152 202.877 5.808 205.133 5.808C206.285 5.808 207.245 6.144 208.133 6.624C208.421 6.768 208.493 7.032 208.325 7.32ZM223.255 12.24C223.039 8.328 220.495 5.808 217.159 5.808C213.775 5.808 211.087 8.4 211.087 11.832C211.087 15.216 213.727 18.192 217.375 18.192C218.887 18.192 220.591 17.664 222.055 16.368C222.295 16.152 222.319 15.888 222.103 15.624L221.335 14.688C221.119 14.424 220.855 14.4 220.591 14.616C219.775 15.264 218.671 15.864 217.399 15.864C215.647 15.864 214.063 14.712 213.583 12.768H222.727C223.063 12.768 223.255 12.576 223.255 12.24ZM213.607 10.848C213.895 9.048 215.431 7.896 217.135 7.896C218.935 7.896 220.375 9.216 220.663 10.848H213.607Z" fill="white"/>
</svg>
