<svg width="232" height="73" viewBox="0 0 232 73" fill="none" xmlns="http://www.w3.org/2000/svg">
<path d="M39.424 65.28H9.952L34.624 35.328C41.728 26.784 41.344 12.576 31.936 4.8C22.432 -2.976 8.224 -1.056 0.64 9.024C-0.0319996 9.888 0.0640006 10.752 0.928 11.424L3.232 13.248C4.096 13.92 4.96 13.92 5.632 12.96C11.968 5.376 21.568 4.704 27.424 9.6C33.568 14.688 34.624 24.768 29.44 31.104L2.176 64.32C1.696 64.992 1.408 65.664 1.408 66.528V70.272C1.408 71.328 2.08 72 3.136 72H39.424C40.48 72 41.152 71.328 41.152 70.272V67.008C41.152 65.952 40.48 65.28 39.424 65.28ZM76.2198 72.576C64.0278 72.576 54.0438 62.592 54.0438 50.592V22.368C54.0438 10.368 64.0278 0.383995 76.2198 0.383995C88.3158 0.383995 98.2998 10.368 98.2998 22.368V50.592C98.2998 62.592 88.3158 72.576 76.2198 72.576ZM60.7638 22.368V50.592C60.7638 58.944 67.6758 65.856 76.2198 65.856C84.6678 65.856 91.5798 58.944 91.5798 50.592V22.368C91.5798 14.016 84.6678 7.10399 76.2198 7.10399C67.6758 7.10399 60.7638 14.016 60.7638 22.368ZM133.407 72.576C121.215 72.576 111.231 62.592 111.231 50.592V22.368C111.231 10.368 121.215 0.383995 133.407 0.383995C145.503 0.383995 155.487 10.368 155.487 22.368V50.592C155.487 62.592 145.503 72.576 133.407 72.576ZM117.951 22.368V50.592C117.951 58.944 124.863 65.856 133.407 65.856C141.855 65.856 148.767 58.944 148.767 50.592V22.368C148.767 14.016 141.855 7.10399 133.407 7.10399C124.863 7.10399 117.951 14.016 117.951 22.368ZM181.379 31.488C173.027 31.488 166.019 24.672 166.019 16.224C166.019 7.776 173.027 0.959999 181.379 0.959999C189.827 0.959999 196.835 7.776 196.835 16.224C196.835 24.672 189.827 31.488 181.379 31.488ZM182.435 72H178.499C177.155 72 176.675 71.136 177.251 69.984L212.771 2.20799C213.155 1.34399 213.923 0.959999 214.883 0.959999H218.819C220.163 0.959999 220.643 1.824 220.067 2.976L184.547 70.752C184.163 71.616 183.395 72 182.435 72ZM181.379 7.776C176.675 7.776 172.835 11.424 172.835 16.224C172.835 20.832 176.675 24.672 181.379 24.672C186.179 24.672 190.019 20.832 190.019 16.224C190.019 11.424 186.179 7.776 181.379 7.776ZM215.651 72.192C207.395 72.192 200.387 65.376 200.387 56.928C200.387 48.48 207.395 41.664 215.651 41.664C224.195 41.664 231.203 48.48 231.203 56.928C231.203 65.376 224.195 72.192 215.651 72.192ZM215.651 48.48C211.043 48.48 207.203 52.128 207.203 56.928C207.203 61.536 211.043 65.376 215.651 65.376C220.547 65.376 224.387 61.536 224.387 56.928C224.387 52.128 220.547 48.48 215.651 48.48Z" fill="white"/>
</svg>
