<svg width="142" height="36" viewBox="0 0 142 36" fill="none" xmlns="http://www.w3.org/2000/svg">
<path d="M18.688 31.152H5.728V20.352H17.824C18.448 20.352 18.784 19.968 18.784 19.392V17.04C18.784 16.464 18.448 16.08 17.824 16.08H5.728V5.328H18.688C19.312 5.328 19.744 4.896 19.744 4.272V1.536C19.744 0.863997 19.312 0.48 18.688 0.48H1.936C1.264 0.48 0.88 0.863997 0.88 1.536V34.944C0.88 35.616 1.264 36 1.936 36H18.688C19.312 36 19.744 35.616 19.744 34.944V32.208C19.744 31.584 19.312 31.152 18.688 31.152ZM41.9178 18.24L53.1018 1.632C53.5338 0.959999 53.2458 0.48 52.4778 0.48H48.9258C48.3978 0.48 47.9658 0.719999 47.7258 1.104L38.9898 14.016L30.2058 1.104C29.9178 0.719999 29.5338 0.48 29.0058 0.48H25.4538C24.6858 0.48 24.3978 0.959999 24.8298 1.632L36.0138 18.24L24.7818 34.848C24.3498 35.52 24.6858 36 25.4538 36H29.0058C29.5338 36 29.9178 35.808 30.2058 35.376L38.9898 22.416L47.7258 35.376C47.9658 35.808 48.3978 36 48.9258 36H52.4778C53.2458 36 53.5818 35.52 53.1498 34.848L41.9178 18.24ZM77.7854 0.48H58.3454C57.6734 0.48 57.2894 0.863997 57.2894 1.536V4.272C57.2894 4.896 57.6734 5.328 58.3454 5.328H65.6414V34.944C65.6414 35.616 66.0734 36 66.6974 36H69.4334C70.0574 36 70.4894 35.616 70.4894 34.944V5.328H77.7854C78.4574 5.328 78.8414 4.896 78.8414 4.272V1.536C78.8414 0.863997 78.4574 0.48 77.7854 0.48ZM105.498 34.848L97.1459 20.784C101.514 19.584 104.73 15.552 104.73 10.8C104.73 5.088 100.074 0.48 94.4099 0.48H84.8099C84.1859 0.48 83.7539 0.863997 83.7539 1.536V34.944C83.7539 35.616 84.1859 36 84.8099 36H87.5459C88.2179 36 88.6019 35.616 88.6019 34.944V21.168H92.1059L100.314 35.328C100.602 35.808 100.986 36 101.514 36H104.826C105.642 36 105.882 35.52 105.498 34.848ZM88.6019 5.328H94.4099C97.4339 5.328 99.9299 7.776 99.9299 10.8C99.9299 13.872 97.4339 16.32 94.4099 16.32H88.6019V5.328ZM141.244 34.896L127.708 1.248C127.516 0.719999 127.132 0.48 126.604 0.48H124.348C123.82 0.48 123.436 0.719999 123.244 1.248L109.852 34.896C109.564 35.568 109.9 36 110.572 36H113.836C114.364 36 114.796 35.76 114.988 35.232L117.388 29.28H133.708L136.108 35.232C136.3 35.76 136.684 36 137.212 36H140.476C141.148 36 141.484 35.568 141.244 34.896ZM119.26 24.48L125.548 8.64L131.836 24.48H119.26Z" fill="white"/>
</svg>
