<svg width="287" height="37" viewBox="0 0 287 37" fill="none" xmlns="http://www.w3.org/2000/svg">
<path d="M34.288 16.464H16.576C16 16.464 15.616 16.848 15.616 17.424V19.728C15.616 20.352 16 20.736 16.576 20.736H30.208C29.248 26.784 24.16 31.488 17.776 31.488C10.624 31.488 5.008 25.728 5.008 18.288C5.008 10.944 10.96 4.992 18.16 4.992C21.28 4.992 24.352 6.336 26.992 8.448C27.52 8.88 28.048 8.88 28.48 8.304L30.064 6.336C30.448 5.808 30.448 5.328 29.92 4.848C26.416 1.872 22.336 0.191998 18.16 0.191998C8.272 0.191998 0.16 8.352 0.16 18.288C0.16 28.128 7.648 36.288 17.776 36.288C27.328 36.288 34.96 28.704 35.344 18.96V17.52C35.344 16.848 34.96 16.464 34.288 16.464ZM58.006 0.143998C48.022 0.143998 39.91 8.256 39.91 18.192C39.91 28.176 48.022 36.288 58.006 36.288C67.942 36.288 76.054 28.176 76.054 18.192C76.054 8.256 67.942 0.143998 58.006 0.143998ZM57.958 4.992C65.206 4.992 71.206 10.944 71.206 18.192C71.206 25.488 65.206 31.488 57.958 31.488C50.662 31.488 44.758 25.536 44.758 18.192C44.758 10.944 50.662 4.992 57.958 4.992ZM97.9803 36H82.0923C81.4203 36 81.0363 35.616 81.0363 34.944V1.536C81.0363 0.863997 81.4203 0.48 82.0923 0.48H84.7803C85.4523 0.48 85.8843 0.863997 85.8843 1.536V31.152H97.9803C98.6523 31.152 99.0363 31.584 99.0363 32.208V34.944C99.0363 35.616 98.6523 36 97.9803 36ZM113.327 0.48H104.639C103.967 0.48 103.583 0.863997 103.583 1.536V34.944C103.583 35.616 103.967 36 104.639 36H113.327C123.119 36 131.087 28.032 131.087 18.24C131.087 8.448 123.119 0.48 113.327 0.48ZM113.327 31.152H108.431V5.328H113.327C120.431 5.328 126.239 11.136 126.239 18.24C126.239 25.344 120.431 31.152 113.327 31.152ZM167.641 36.288C157.609 36.288 149.545 28.176 149.545 18.24C149.545 8.304 157.705 0.191998 167.497 0.191998C171.961 0.191998 175.993 1.872 179.497 4.896C179.977 5.328 180.025 5.808 179.593 6.336L178.057 8.256C177.673 8.832 177.097 8.88 176.569 8.4C173.977 6.336 170.953 4.992 167.545 4.992C160.345 4.992 154.345 10.944 154.345 18.24C154.345 25.536 160.297 31.488 167.545 31.488C170.905 31.488 174.025 30.24 176.569 28.128C177.097 27.696 177.625 27.744 178.057 28.272L179.641 30.384C180.073 30.96 179.977 31.44 179.497 31.872C176.089 34.704 172.057 36.288 167.641 36.288ZM201.022 0.143998C191.038 0.143998 182.926 8.256 182.926 18.192C182.926 28.176 191.038 36.288 201.022 36.288C210.958 36.288 219.07 28.176 219.07 18.192C219.07 8.256 210.958 0.143998 201.022 0.143998ZM200.974 4.992C208.222 4.992 214.222 10.944 214.222 18.192C214.222 25.488 208.222 31.488 200.974 31.488C193.678 31.488 187.774 25.536 187.774 18.192C187.774 10.944 193.678 4.992 200.974 4.992ZM224.052 34.944V1.536C224.052 0.863997 224.436 0.48 225.108 0.48H227.748C228.42 0.48 228.804 0.863997 228.804 1.536V34.944C228.804 35.616 228.42 36 227.748 36H225.108C224.436 36 224.052 35.616 224.052 34.944ZM256.638 1.536V27.072L238.446 1.056C238.158 0.671997 237.773 0.48 237.246 0.48H235.374C234.702 0.48 234.318 0.863997 234.318 1.536V34.944C234.318 35.616 234.702 36 235.374 36H238.062C238.734 36 239.166 35.616 239.166 34.944V9.456L257.31 35.424C257.598 35.808 257.982 36 258.51 36H260.43C261.054 36 261.486 35.616 261.486 34.944V1.536C261.486 0.863997 261.054 0.48 260.43 0.48H257.742C257.07 0.48 256.638 0.863997 256.638 1.536ZM276.589 36.384C273.277 36.384 270.061 35.04 267.133 32.736C266.557 32.256 266.461 31.776 266.749 31.248L268.237 28.752C268.573 28.224 269.053 28.128 269.629 28.512C272.173 30.384 274.429 31.248 276.349 31.248C279.373 31.248 281.629 29.136 281.629 26.448C281.629 22.896 277.645 21.168 273.949 19.296C270.013 17.328 266.221 14.688 266.461 9.504C266.749 3.888 271.357 0.0959988 276.925 0.191998C279.469 0.239997 281.773 1.104 283.501 2.112C284.029 2.496 284.077 2.928 283.741 3.456L282.301 5.568C281.965 6.048 281.533 6.192 281.005 5.904C279.565 5.136 278.125 4.656 276.781 4.656C273.901 4.656 271.453 6.864 271.453 9.696C271.453 12.624 274.237 13.824 277.165 15.216C280.573 16.752 286.813 19.824 286.813 26.496C286.813 32.016 282.541 36.384 276.589 36.384Z" fill="white"/>
</svg>
