<svg width="183" height="23" viewBox="0 0 183 23" fill="none" xmlns="http://www.w3.org/2000/svg">
<path d="M9.12771 18.144C4.13571 18.144 0.10371 14.088 0.10371 9.12C0.10371 4.152 4.15971 0.0959988 9.07971 0.0959988C11.4077 0.0959988 13.4717 0.983999 15.2477 2.64C15.5597 2.904 15.5597 3.192 15.3197 3.528L14.2397 4.848C13.9757 5.16 13.6637 5.184 13.3517 4.92C12.1037 3.912 10.7357 3.24 9.10371 3.24C5.88771 3.24 3.22371 5.88 3.22371 9.12C3.22371 12.36 5.88771 15 9.10371 15C10.6637 15 12.1277 14.4 13.3517 13.392C13.6637 13.104 13.9757 13.128 14.2157 13.464L15.3437 14.928C15.5837 15.24 15.5597 15.528 15.2477 15.792C13.5917 17.256 11.4557 18.144 9.12771 18.144ZM23.6876 5.808C20.2796 5.808 17.4956 8.592 17.4956 12C17.4956 15.408 20.2796 18.192 23.6876 18.192C27.0956 18.192 29.8796 15.408 29.8796 12C29.8796 8.592 27.0956 5.808 23.6876 5.808ZM23.6876 8.976C25.3676 8.976 26.7116 10.32 26.7116 12C26.7116 13.68 25.3676 15.048 23.6876 15.048C22.0076 15.048 20.6396 13.68 20.6396 12C20.6396 10.32 22.0076 8.976 23.6876 8.976ZM37.6241 5.808C36.5441 5.808 35.5601 6.144 34.6961 6.768V6.552C34.6961 6.192 34.5041 6 34.1681 6H32.8481C32.4641 6 32.2241 6.24 32.2241 6.624V17.376C32.2241 17.76 32.4641 18 32.8481 18H34.7201C35.1041 18 35.3441 17.76 35.3441 17.376V10.992C35.3441 9.864 36.2801 8.928 37.4081 8.928C38.5601 8.928 39.4721 9.864 39.4721 10.992V17.376C39.4721 17.76 39.7121 18 40.0961 18H41.9921C42.3761 18 42.6161 17.76 42.6161 17.376V10.992C42.6161 8.136 40.4081 5.808 37.6241 5.808ZM56.5166 6H55.0286C54.6686 6 54.4766 6.192 54.4766 6.552V6.984C53.4686 6.24 52.2686 5.808 50.9486 5.808C47.5406 5.808 44.7806 8.568 44.7806 11.976C44.7806 15.408 47.5406 18.192 50.9486 18.192C52.1486 18.192 53.2046 17.808 54.1406 17.16C54.1406 19.008 53.0366 19.968 51.5246 19.968C50.9726 19.968 50.3966 19.848 49.7246 19.536C49.3406 19.368 49.0526 19.44 48.8846 19.8L48.2126 21.24C48.0206 21.6 48.0926 21.888 48.4286 22.08C49.5566 22.776 50.7566 22.992 51.7166 22.992C54.5006 22.992 57.1406 21.144 57.1406 17.088V6.624C57.1406 6.24 56.9006 6 56.5166 6ZM51.0206 15.048C49.3406 15.048 47.9966 13.68 47.9966 11.976C47.9966 10.32 49.3406 8.952 51.0206 8.952C52.7006 8.952 54.0446 10.32 54.0446 11.976C54.0446 13.68 52.7006 15.048 51.0206 15.048ZM65.8601 6H64.8041C63.8681 6 63.0041 6.216 62.3081 6.768V6.552C62.3081 6.192 62.1161 6 61.7801 6H60.4601C60.0761 6 59.8361 6.24 59.8361 6.624V17.376C59.8361 17.76 60.0761 18 60.4601 18H62.3321C62.7161 18 62.9561 17.76 62.9561 17.376V10.944C62.9561 9.792 63.8681 8.976 65.0201 8.976H65.8601C66.2681 8.976 66.5081 8.76 66.5081 8.352V6.624C66.5081 6.24 66.2681 6 65.8601 6ZM79.6749 6H78.2109C77.8989 6 77.6589 6.24 77.6589 6.552V6.984C76.6509 6.264 75.4509 5.808 74.1309 5.808C70.7229 5.808 67.9389 8.568 67.9389 11.976C67.9389 15.408 70.7229 18.192 74.1309 18.192C75.4989 18.192 76.6989 17.712 77.6829 16.992V17.448C77.6829 17.76 77.9229 18 78.2349 18H79.6749C80.0349 18 80.3229 17.712 80.3229 17.352V6.648C80.3229 6.288 80.0349 6 79.6749 6ZM74.2029 15.048C72.5229 15.048 71.1789 13.68 71.1789 11.976C71.1789 10.296 72.5229 8.952 74.2029 8.952C75.8829 8.952 77.2269 10.296 77.2269 11.976C77.2269 13.68 75.8829 15.048 74.2029 15.048ZM89.0909 14.856H87.6269C86.7629 14.856 86.1389 14.208 86.1389 13.344V8.736H89.2109C89.5949 8.736 89.8109 8.52 89.8109 8.136V6.6C89.8109 6.216 89.5949 6 89.2109 6H86.1389V2.808C86.1389 2.424 85.8989 2.184 85.5149 2.184H83.6189C83.2349 2.184 82.9949 2.424 82.9949 2.808V13.32C82.9949 16.416 84.7469 18 87.5309 18H89.0909C89.4989 18 89.7149 17.76 89.7149 17.376V15.48C89.7149 15.072 89.4989 14.856 89.0909 14.856ZM97.4855 18.192C94.6055 18.192 92.2775 15.864 92.2775 12.984V6.624C92.2775 6.24 92.5175 6 92.9015 6H94.7735C95.1575 6 95.3975 6.24 95.3975 6.624V12.984C95.3975 14.112 96.3335 15.072 97.4855 15.072C98.6135 15.072 99.5495 14.112 99.5495 12.984V6.624C99.5495 6.24 99.7895 6 100.173 6H102.045C102.453 6 102.693 6.24 102.693 6.624V12.984C102.693 15.864 100.341 18.192 97.4855 18.192ZM109.73 14.856H109.466C108.77 14.856 108.29 14.376 108.29 13.56V1.824C108.29 1.44 108.05 1.2 107.666 1.2H105.77C105.386 1.2 105.146 1.44 105.146 1.824V13.512C105.146 16.656 106.466 18 109.394 18H109.61C109.994 18 110.234 17.76 110.234 17.376V15.48C110.234 15.072 110.09 14.856 109.73 14.856ZM123.602 6H122.138C121.826 6 121.586 6.24 121.586 6.552V6.984C120.578 6.264 119.378 5.808 118.058 5.808C114.65 5.808 111.866 8.568 111.866 11.976C111.866 15.408 114.65 18.192 118.058 18.192C119.426 18.192 120.626 17.712 121.61 16.992V17.448C121.61 17.76 121.85 18 122.162 18H123.602C123.962 18 124.25 17.712 124.25 17.352V6.648C124.25 6.288 123.962 6 123.602 6ZM118.13 15.048C116.45 15.048 115.106 13.68 115.106 11.976C115.106 10.296 116.45 8.952 118.13 8.952C119.81 8.952 121.154 10.296 121.154 11.976C121.154 13.68 119.81 15.048 118.13 15.048ZM133.018 14.856H131.554C130.69 14.856 130.066 14.208 130.066 13.344V8.736H133.138C133.522 8.736 133.738 8.52 133.738 8.136V6.6C133.738 6.216 133.522 6 133.138 6H130.066V2.808C130.066 2.424 129.826 2.184 129.442 2.184H127.546C127.162 2.184 126.922 2.424 126.922 2.808V13.32C126.922 16.416 128.674 18 131.458 18H133.018C133.426 18 133.642 17.76 133.642 17.376V15.48C133.642 15.072 133.426 14.856 133.018 14.856ZM139.381 3.312C139.381 4.416 138.637 5.16 137.533 5.16C136.573 5.16 135.709 4.416 135.709 3.312C135.709 2.376 136.573 1.512 137.533 1.512C138.637 1.512 139.381 2.376 139.381 3.312ZM138.469 18H136.621C136.237 18 135.997 17.76 135.997 17.376V6.624C135.997 6.24 136.237 6 136.621 6H138.469C138.853 6 139.093 6.24 139.093 6.624V17.376C139.093 17.76 138.853 18 138.469 18ZM147.639 5.808C144.231 5.808 141.447 8.592 141.447 12C141.447 15.408 144.231 18.192 147.639 18.192C151.047 18.192 153.831 15.408 153.831 12C153.831 8.592 151.047 5.808 147.639 5.808ZM147.639 8.976C149.319 8.976 150.663 10.32 150.663 12C150.663 13.68 149.319 15.048 147.639 15.048C145.959 15.048 144.591 13.68 144.591 12C144.591 10.32 145.959 8.976 147.639 8.976ZM161.576 5.808C160.496 5.808 159.512 6.144 158.648 6.768V6.552C158.648 6.192 158.456 6 158.12 6H156.8C156.416 6 156.176 6.24 156.176 6.624V17.376C156.176 17.76 156.416 18 156.8 18H158.672C159.056 18 159.296 17.76 159.296 17.376V10.992C159.296 9.864 160.232 8.928 161.36 8.928C162.512 8.928 163.424 9.864 163.424 10.992V17.376C163.424 17.76 163.664 18 164.048 18H165.944C166.328 18 166.568 17.76 166.568 17.376V10.992C166.568 8.136 164.36 5.808 161.576 5.808ZM176.172 7.464L175.5 8.616C175.308 8.976 174.972 9.048 174.636 8.856C174.108 8.616 173.556 8.376 173.028 8.376C172.38 8.376 171.9 8.688 171.9 9.168C171.9 9.72 172.548 9.936 173.724 10.392C175.596 11.064 177.228 12.336 177.228 14.352C177.228 16.392 175.524 18.192 172.836 18.192C171.42 18.192 170.148 17.688 169.212 17.16C168.876 16.968 168.804 16.68 168.972 16.32L169.644 14.928C169.812 14.568 170.1 14.496 170.484 14.64C171.18 14.976 172.116 15.288 172.812 15.288C173.628 15.288 174.012 14.832 174.012 14.376C174.012 13.8 173.412 13.464 171.948 12.864C170.94 12.456 168.828 11.592 168.828 9.288C168.828 7.176 170.604 5.808 172.908 5.808C173.988 5.808 174.948 6.096 175.932 6.6C176.292 6.792 176.364 7.104 176.172 7.464ZM180.053 13.824H181.901C182.285 13.824 182.525 13.584 182.525 13.2V0.863999C182.525 0.48 182.285 0.24 181.901 0.24H180.053C179.645 0.24 179.405 0.48 179.405 0.863999V13.2C179.405 13.584 179.645 13.824 180.053 13.824ZM180.965 18C181.901 18 182.645 17.232 182.645 16.296C182.645 15.36 181.901 14.64 180.965 14.64C180.053 14.64 179.285 15.36 179.285 16.296C179.285 17.232 180.053 18 180.965 18Z" fill="url(#paint0_linear)"/>
<defs>
<linearGradient id="paint0_linear" x1="-1" y1="31" x2="183.976" y2="31.0974" gradientUnits="userSpaceOnUse">
<stop stop-color="#C71CB8"/>
<stop offset="1" stop-color="#FE139C"/>
</linearGradient>
</defs>
</svg>
