<svg width="100" height="39" viewBox="0 0 100 39" fill="none" xmlns="http://www.w3.org/2000/svg">
<path d="M8.60864 7.68374C6.00449 7.68374 3.87716 9.81108 3.87716 12.4152C3.87716 15.0194 6.00449 17.1467 8.60864 17.1467C11.2128 17.1467 13.3401 15.0194 13.3401 12.4152C13.3401 9.81108 11.2128 7.68374 8.60864 7.68374ZM8.60864 10.1045C9.89238 10.1045 10.9194 11.1315 10.9194 12.4152C10.9194 13.699 9.89238 14.7443 8.60864 14.7443C7.32491 14.7443 6.27958 13.699 6.27958 12.4152C6.27958 11.1315 7.32491 10.1045 8.60864 10.1045ZM19.0241 7.68374C18.1988 7.68374 17.4469 7.94049 16.7867 8.4173V8.25225C16.7867 7.97717 16.64 7.83045 16.3833 7.83045H15.3746C15.0812 7.83045 14.8978 8.01384 14.8978 8.30727V16.5232C14.8978 16.8166 15.0812 17 15.3746 17H16.8051C17.0985 17 17.2819 16.8166 17.2819 16.5232V11.645C17.2819 10.783 17.9971 10.0678 18.8591 10.0678C19.7393 10.0678 20.4362 10.783 20.4362 11.645V16.5232C20.4362 16.8166 20.6196 17 20.913 17H22.3618C22.6552 17 22.8386 16.8166 22.8386 16.5232V11.645C22.8386 9.46263 21.1514 7.68374 19.0241 7.68374ZM27.9999 14.5976H27.7982C27.2664 14.5976 26.8996 14.2308 26.8996 13.6073V4.63945C26.8996 4.34603 26.7162 4.16263 26.4228 4.16263H24.974C24.6806 4.16263 24.4972 4.34603 24.4972 4.63945V13.5706C24.4972 15.973 25.5058 17 27.7432 17H27.9082C28.2017 17 28.3851 16.8166 28.3851 16.5232V15.0744C28.3851 14.7626 28.275 14.5976 27.9999 14.5976ZM32.4942 5.77647C32.4942 6.62007 31.9257 7.18859 31.0821 7.18859C30.3485 7.18859 29.6883 6.62007 29.6883 5.77647C29.6883 5.06125 30.3485 4.40104 31.0821 4.40104C31.9257 4.40104 32.4942 5.06125 32.4942 5.77647ZM31.7973 17H30.3852C30.0917 17 29.9084 16.8166 29.9084 16.5232V8.30727C29.9084 8.01384 30.0917 7.83045 30.3852 7.83045H31.7973C32.0907 7.83045 32.2741 8.01384 32.2741 8.30727V16.5232C32.2741 16.8166 32.0907 17 31.7973 17ZM38.2407 7.68374C37.4155 7.68374 36.6636 7.94049 36.0034 8.4173V8.25225C36.0034 7.97717 35.8567 7.83045 35.5999 7.83045H34.5913C34.2978 7.83045 34.1145 8.01384 34.1145 8.30727V16.5232C34.1145 16.8166 34.2978 17 34.5913 17H36.0217C36.3151 17 36.4985 16.8166 36.4985 16.5232V11.645C36.4985 10.783 37.2138 10.0678 38.0757 10.0678C38.956 10.0678 39.6529 10.783 39.6529 11.645V16.5232C39.6529 16.8166 39.8363 17 40.1297 17H41.5785C41.8719 17 42.0553 16.8166 42.0553 16.5232V11.645C42.0553 9.46263 40.3681 7.68374 38.2407 7.68374ZM52.8284 12.6903C52.645 9.60935 50.7194 7.68374 48.1702 7.68374C45.5294 7.68374 43.4571 9.71938 43.4571 12.3235C43.4571 14.946 45.5477 17.1467 48.3353 17.1467C49.4173 17.1467 50.701 16.8166 51.8747 15.8997C52.1315 15.7163 52.1498 15.4779 51.9481 15.2211L51.1412 14.2675C50.9578 14.0291 50.7377 14.0107 50.4809 14.1574C49.9308 14.5426 49.1972 14.891 48.372 14.891C47.3816 14.891 46.3547 14.3408 45.9145 13.1671H52.3515C52.6633 13.1671 52.8467 13.0021 52.8284 12.6903ZM45.9329 11.3332C46.1162 10.3612 47.0149 9.66436 48.1152 9.66436C49.2522 9.66436 50.0591 10.4346 50.2425 11.3332H45.9329ZM57.8905 14.5976H57.6888C57.1569 14.5976 56.7902 14.2308 56.7902 13.6073V4.63945C56.7902 4.34603 56.6068 4.16263 56.3134 4.16263H54.8646C54.5711 4.16263 54.3877 4.34603 54.3877 4.63945V13.5706C54.3877 15.973 55.3964 17 57.6338 17H57.7988C58.0922 17 58.2756 16.8166 58.2756 16.5232V15.0744C58.2756 14.7626 58.1656 14.5976 57.8905 14.5976ZM64.002 7.68374C61.3979 7.68374 59.2705 9.81108 59.2705 12.4152C59.2705 15.0194 61.3979 17.1467 64.002 17.1467C66.6062 17.1467 68.7335 15.0194 68.7335 12.4152C68.7335 9.81108 66.6062 7.68374 64.002 7.68374ZM64.002 10.1045C65.2858 10.1045 66.3127 11.1315 66.3127 12.4152C66.3127 13.699 65.2858 14.7443 64.002 14.7443C62.7183 14.7443 61.673 13.699 61.673 12.4152C61.673 11.1315 62.7183 10.1045 64.002 10.1045ZM74.9493 14.5976H73.8306C73.1704 14.5976 72.6936 14.1024 72.6936 13.4422V9.92111H75.041C75.3344 9.92111 75.4995 9.75606 75.4995 9.46263V8.28893C75.4995 7.99551 75.3344 7.83045 75.041 7.83045H72.6936V5.39135C72.6936 5.09793 72.5102 4.91454 72.2168 4.91454H70.768C70.4746 4.91454 70.2912 5.09793 70.2912 5.39135V13.4239C70.2912 15.7896 71.6299 17 73.7573 17H74.9493C75.2611 17 75.4261 16.8166 75.4261 16.5232V15.0744C75.4261 14.7626 75.2611 14.5976 74.9493 14.5976ZM81.5399 14.5976H80.4212C79.761 14.5976 79.2842 14.1024 79.2842 13.4422V9.92111H81.6316C81.925 9.92111 82.0901 9.75606 82.0901 9.46263V8.28893C82.0901 7.99551 81.925 7.83045 81.6316 7.83045H79.2842V5.39135C79.2842 5.09793 79.1008 4.91454 78.8074 4.91454H77.3586C77.0652 4.91454 76.8818 5.09793 76.8818 5.39135V13.4239C76.8818 15.7896 78.2205 17 80.3479 17H81.5399C81.8517 17 82.0167 16.8166 82.0167 16.5232V15.0744C82.0167 14.7626 81.8517 14.5976 81.5399 14.5976ZM87.8393 7.68374C85.2351 7.68374 83.1078 9.81108 83.1078 12.4152C83.1078 15.0194 85.2351 17.1467 87.8393 17.1467C90.4434 17.1467 92.5707 15.0194 92.5707 12.4152C92.5707 9.81108 90.4434 7.68374 87.8393 7.68374ZM87.8393 10.1045C89.123 10.1045 90.15 11.1315 90.15 12.4152C90.15 13.699 89.123 14.7443 87.8393 14.7443C86.5555 14.7443 85.5102 13.699 85.5102 12.4152C85.5102 11.1315 86.5555 10.1045 87.8393 10.1045Z" fill="white"/>
<path d="M96.4391 15.7163C96.4391 16.4131 95.8523 17 95.1371 17C94.4402 17 93.8533 16.4131 93.8533 15.7163C93.8533 15.001 94.4402 14.4325 95.1371 14.4325C95.8523 14.4325 96.4391 15.001 96.4391 15.7163Z" fill="url(#paint0_linear)"/>
<path d="M1.76127 36.6326V18.6529C1.76127 18.2348 2.0226 17.9735 2.44073 17.9735H4.45299C4.89725 17.9735 5.13245 18.2348 5.13245 18.6529V36.6326C5.13245 37.0507 4.89725 37.312 4.45299 37.312H2.44073C2.0226 37.312 1.76127 37.0507 1.76127 36.6326ZM19.5155 18.6529V30.9355L10.787 18.3916C10.578 18.078 10.3166 17.9735 9.97689 17.9735H8.5657C8.14757 17.9735 7.88624 18.2348 7.88624 18.6529V36.6326C7.88624 37.0507 8.14757 37.312 8.5657 37.312H10.6302C11.0484 37.312 11.3097 37.0507 11.3097 36.6326V24.4022L19.9859 36.8939C20.1688 37.2075 20.4302 37.312 20.7699 37.312H22.2334C22.6776 37.312 22.939 37.0507 22.939 36.6326V18.6529C22.939 18.2348 22.6776 17.9735 22.2334 17.9735H20.195C19.7768 17.9735 19.5155 18.2348 19.5155 18.6529ZM31.1366 37.5211C29.3334 37.5211 27.5825 36.8155 25.8577 35.535C25.4396 35.2475 25.3612 34.9078 25.5702 34.5419L26.6156 32.7126C26.8508 32.3206 27.1644 32.2422 27.5564 32.5035C28.8108 33.3921 29.9868 33.8102 30.9537 33.8102C32.3126 33.8102 33.2795 32.9739 33.2795 31.7979C33.2795 30.0731 31.1628 29.3414 29.2028 28.3222C26.9292 27.094 25.3089 25.4737 25.4396 22.9388C25.5964 19.8028 28.1836 17.7121 31.4241 17.8167C32.8091 17.8428 34.1158 18.3132 35.1089 18.9143C35.4747 19.1233 35.5531 19.4631 35.3179 19.8028L34.3249 21.3185C34.0897 21.6583 33.8022 21.7367 33.4102 21.5537C32.7569 21.1879 32.0252 20.9527 31.2934 20.9527C29.9345 20.9527 28.9414 21.8151 28.9414 22.991C28.9414 24.4022 30.5356 25.0033 32.1297 25.7873C33.8283 26.5713 36.9643 28.2438 36.9643 31.8241C36.9643 35.0123 34.5078 37.5211 31.1366 37.5211ZM50.1451 17.9735H39.4304C39.0123 17.9735 38.751 18.2348 38.751 18.6529V20.7175C38.751 21.1617 39.0123 21.3969 39.4304 21.3969H43.0891V36.6326C43.0891 37.0507 43.3243 37.312 43.7686 37.312H45.8069C46.2512 37.312 46.4864 37.0507 46.4864 36.6326V21.3969H50.1451C50.5893 21.3969 50.8245 21.1617 50.8245 20.7175V18.6529C50.8245 18.2348 50.5893 17.9735 50.1451 17.9735ZM67.3229 36.5542L60.0318 18.47C59.9011 18.1303 59.6398 17.9735 59.2739 17.9735H57.6537C57.2878 17.9735 57.0265 18.1303 56.8958 18.47L49.7092 36.5542C49.5524 37.0246 49.7353 37.312 50.2318 37.312H52.5838C52.9758 37.312 53.211 37.1552 53.3417 36.7894L54.5438 33.8363H62.5144L63.6904 36.7894C63.8211 37.1291 64.0824 37.2859 64.4483 37.2859L66.8003 37.312C67.2968 37.312 67.5059 37.0246 67.3229 36.5542ZM55.9027 30.4129L58.5422 23.8012L61.1555 30.4129H55.9027ZM81.4798 18.6529V30.9355L72.7513 18.3916C72.5422 18.078 72.2809 17.9735 71.9412 17.9735H70.53C70.1119 17.9735 69.8505 18.2348 69.8505 18.6529V36.6326C69.8505 37.0507 70.1119 37.312 70.53 37.312H72.5945C73.0126 37.312 73.274 37.0507 73.274 36.6326V24.4022L81.9502 36.8939C82.1331 37.2075 82.3945 37.312 82.7342 37.312H84.1976C84.6419 37.312 84.9032 37.0507 84.9032 36.6326V18.6529C84.9032 18.2348 84.6419 17.9735 84.1976 17.9735H82.1593C81.7411 17.9735 81.4798 18.2348 81.4798 18.6529ZM98.3537 17.9735H87.6391C87.2209 17.9735 86.9596 18.2348 86.9596 18.6529V20.7175C86.9596 21.1617 87.2209 21.3969 87.6391 21.3969H91.2977V36.6326C91.2977 37.0507 91.5329 37.312 91.9772 37.312H94.0156C94.4598 37.312 94.695 37.0507 94.695 36.6326V21.3969H98.3537C98.7979 21.3969 99.0331 21.1617 99.0331 20.7175V18.6529C99.0331 18.2348 98.7979 17.9735 98.3537 17.9735Z" fill="url(#paint1_linear)"/>
<defs>
<linearGradient id="paint0_linear" x1="3.23529" y1="18.3391" x2="97.211" y2="18.4008" gradientUnits="userSpaceOnUse">
<stop stop-color="#C71CB8"/>
<stop offset="1" stop-color="#FE139C"/>
</linearGradient>
<linearGradient id="paint1_linear" x1="1.0089e-06" y1="36.7755" x2="100" y2="15.312" gradientUnits="userSpaceOnUse">
<stop stop-color="#FC00FF"/>
<stop offset="0.997615" stop-color="#00DBDE"/>
</linearGradient>
</defs>
</svg>
