<svg width="279" height="76" viewBox="0 0 279 76" fill="none" xmlns="http://www.w3.org/2000/svg">
<path d="M23.7201 40.5938V27.9853H33.0008C33.9382 27.9853 34.4538 27.4697 34.4538 26.5791V22.7356C34.4538 21.845 33.9382 21.3294 33.0008 21.3294H23.7201V14.908H33.8913C34.7819 14.908 35.2975 14.3924 35.2975 13.5018V8.72088C35.2975 7.83031 34.7819 7.31472 33.8913 7.31472H17.533C16.6424 7.31472 16.1269 7.83031 16.1269 8.72088V40.5938C16.1269 41.4844 16.6424 42 17.533 42H22.2671C23.2045 42 23.7201 41.4844 23.7201 40.5938ZM62.7308 40.3126L55.2313 27.5166C58.5592 25.6885 60.8091 22.1263 60.8091 18.0484C60.8091 12.1425 55.9812 7.31472 50.0285 7.31472H40.4197C39.5292 7.31472 39.0136 7.83031 39.0136 8.72088V40.5938C39.0136 41.4844 39.5292 42 40.4197 42H45.1538C46.0912 42 46.6068 41.4844 46.6068 40.5938V28.8758H47.638L54.5282 41.0157C54.9032 41.7188 55.4656 42 56.2625 42H61.7465C62.9183 42 63.3401 41.25 62.7308 40.3126ZM46.6068 14.908H50.0285C51.8096 14.908 53.2627 16.3141 53.2627 18.0484C53.2627 19.9233 51.8096 21.2826 50.0285 21.2826H46.6068V14.908ZM85.2678 34.4067H74.2998V27.9853H84.3772C85.3147 27.9853 85.8303 27.4697 85.8303 26.5791V22.7356C85.8303 21.845 85.3147 21.3294 84.3772 21.3294H74.2998V14.908H85.2678C86.1584 14.908 86.674 14.3924 86.674 13.5018V8.72088C86.674 7.83031 86.1584 7.31472 85.2678 7.31472H68.1127C67.2221 7.31472 66.7065 7.83031 66.7065 8.72088V40.5938C66.7065 41.4844 67.2221 42 68.1127 42H85.2678C86.1584 42 86.674 41.4844 86.674 40.5938V35.8129C86.674 34.9223 86.1584 34.4067 85.2678 34.4067ZM109.39 34.4067H98.4224V27.9853H108.5C109.437 27.9853 109.953 27.4697 109.953 26.5791V22.7356C109.953 21.845 109.437 21.3294 108.5 21.3294H98.4224V14.908H109.39C110.281 14.908 110.797 14.3924 110.797 13.5018V8.72088C110.797 7.83031 110.281 7.31472 109.39 7.31472H92.2353C91.3447 7.31472 90.8291 7.83031 90.8291 8.72088V40.5938C90.8291 41.4844 91.3447 42 92.2353 42H109.39C110.281 42 110.797 41.4844 110.797 40.5938V35.8129C110.797 34.9223 110.281 34.4067 109.39 34.4067ZM144.958 42.2812C135.256 42.2812 127.334 34.3599 127.334 24.6574C127.334 14.9549 135.256 7.03349 144.911 7.03349C149.645 7.03349 153.77 8.90837 157.286 12.4238C157.942 13.0331 157.942 13.6893 157.379 14.3924L154.661 17.6734C154.098 18.3765 153.348 18.4234 152.645 17.814C150.348 15.8923 147.911 14.5799 144.958 14.5799C139.38 14.5799 134.881 19.1265 134.881 24.6574C134.881 30.1883 139.38 34.7348 144.958 34.7348C147.677 34.7348 150.442 33.6099 152.645 31.6413C153.348 31.032 154.051 31.032 154.614 31.7819L157.426 35.4379C157.942 36.141 157.942 36.7972 157.286 37.4534C154.098 40.4064 149.692 42.2812 144.958 42.2812ZM177.005 7.03349C167.303 7.03349 159.381 14.908 159.381 24.6574C159.381 34.4067 167.303 42.2812 177.005 42.2812C186.754 42.2812 194.629 34.4067 194.629 24.6574C194.629 14.908 186.754 7.03349 177.005 7.03349ZM176.958 14.5799C182.395 14.5799 187.036 19.1733 187.036 24.6574C187.036 30.1414 182.395 34.7348 176.958 34.7348C171.38 34.7348 166.975 30.2351 166.975 24.6574C166.975 19.0796 171.38 14.5799 176.958 14.5799ZM198.58 40.5938V8.72088C198.58 7.83031 199.095 7.31472 199.986 7.31472H204.626C205.564 7.31472 206.079 7.83031 206.079 8.72088V40.5938C206.079 41.4844 205.564 42 204.626 42H199.986C199.095 42 198.58 41.4844 198.58 40.5938ZM230.355 8.72088V27.8447L216.809 8.20529C216.387 7.54908 215.871 7.31472 215.121 7.31472H211.887C210.996 7.31472 210.481 7.83031 210.481 8.72088V40.5938C210.481 41.4844 210.996 42 211.887 42H216.621C217.559 42 218.074 41.4844 218.074 40.5938V21.6107L231.433 41.1094C231.855 41.7656 232.37 42 233.12 42H236.495C237.385 42 237.901 41.4844 237.901 40.5938V8.72088C237.901 7.83031 237.385 7.31472 236.495 7.31472H231.808C230.87 7.31472 230.355 7.83031 230.355 8.72088ZM252.651 42.375C249.417 42.375 246.23 41.1563 242.995 38.8596C242.058 38.2034 241.87 37.5003 242.292 36.6566L244.589 32.5319C245.105 31.735 245.808 31.5475 246.605 32.11C248.667 33.4224 250.636 34.1255 252.229 34.1255C254.198 34.1255 255.463 33.1412 255.463 31.5944C255.463 28.8758 251.667 27.8915 248.292 26.0166C244.027 23.6262 241.917 20.2983 242.105 16.3141C242.386 10.5489 247.214 6.75226 253.401 7.03349C255.885 7.12723 258.276 7.97093 260.197 9.04899C260.994 9.5177 261.135 10.2208 260.666 11.0176L258.51 14.3455C257.994 15.1423 257.338 15.283 256.541 14.8611C255.557 14.3455 254.385 13.9237 253.073 13.9237C251.01 13.9237 249.792 14.908 249.792 16.3141C249.792 18.564 252.839 19.5014 255.651 20.9076C258.416 22.2669 263.572 25.2198 263.572 31.6413C263.572 37.6878 258.979 42.375 252.651 42.375Z" fill="url(#paint0_linear)"/>
<path d="M19.7168 54.5691V69.0325C19.7168 70.1842 18.7526 71.1216 17.6008 71.1216H16.0474C15.6724 71.1216 15.4581 71.3627 15.4581 71.7109V73.2108C15.4581 73.5858 15.6724 73.8 16.0474 73.8H17.6008C20.4667 73.8 22.3952 71.8716 22.3952 69.0057V54.5691C22.3952 54.1942 22.1541 53.9799 21.7791 53.9799H20.306C19.9311 53.9799 19.7168 54.1942 19.7168 54.5691ZM31.8575 73.9608C28.4023 73.9608 25.59 71.1484 25.59 67.6933V54.5691C25.59 54.1942 25.8043 53.9799 26.1793 53.9799H27.6792C28.0541 53.9799 28.2684 54.1942 28.2684 54.5691V67.6933C28.2684 69.6485 29.8755 71.2556 31.8575 71.2556C33.8395 71.2556 35.4733 69.6485 35.4733 67.6933V54.5691C35.4733 54.1942 35.6876 53.9799 36.0626 53.9799H37.5625C37.9107 53.9799 38.1517 54.1942 38.1517 54.5691V67.6933C38.1517 71.1484 35.3394 73.9608 31.8575 73.9608ZM46.5882 74.0143C44.7402 74.0143 42.9456 73.2644 41.3118 71.9787C40.9904 71.7109 40.9368 71.4431 41.0975 71.1484L41.9278 69.7557C42.1153 69.461 42.3832 69.4075 42.7046 69.6217C44.1241 70.6663 45.383 71.1484 46.4543 71.1484C48.1417 71.1484 49.4006 69.9699 49.4006 68.47C49.4006 66.488 47.1775 65.5238 45.1151 64.4792C42.9188 63.3811 40.8029 61.908 40.9368 59.0153C41.0975 55.8816 43.6688 53.7656 46.7757 53.8192C48.1953 53.846 49.4809 54.3281 50.4451 54.8905C50.7398 55.1048 50.7666 55.3459 50.5791 55.6405L49.7755 56.819C49.5881 57.0868 49.347 57.1672 49.0524 57.0065C48.2489 56.5779 47.4453 56.3101 46.6954 56.3101C45.0883 56.3101 43.7224 57.5422 43.7224 59.1224C43.7224 60.7562 45.2758 61.4258 46.9097 62.2026C48.8113 63.0597 52.2932 64.7738 52.2932 68.4968C52.2932 71.577 49.9095 74.0143 46.5882 74.0143ZM65.783 53.9799H54.9354C54.5605 53.9799 54.3462 54.1942 54.3462 54.5691V56.0958C54.3462 56.444 54.5605 56.6851 54.9354 56.6851H59.0066V73.2108C59.0066 73.5858 59.2477 73.8 59.5959 73.8H61.1225C61.4707 73.8 61.7118 73.5858 61.7118 73.2108V56.6851H65.783C66.1579 56.6851 66.3722 56.444 66.3722 56.0958V54.5691C66.3722 54.1942 66.1579 53.9799 65.783 53.9799ZM86.4966 73.9608C80.8988 73.9608 76.399 69.4343 76.399 63.89C76.399 58.3457 80.9523 53.8192 86.4163 53.8192C88.9072 53.8192 91.157 54.7566 93.1123 56.444C93.3801 56.6851 93.4069 56.9529 93.1658 57.2475L92.3087 58.3189C92.0945 58.6403 91.7731 58.6671 91.4784 58.3992C90.0321 57.2475 88.3447 56.4976 86.443 56.4976C82.4254 56.4976 79.0774 59.8188 79.0774 63.89C79.0774 67.9611 82.3987 71.2824 86.443 71.2824C88.3179 71.2824 90.0589 70.586 91.4784 69.4075C91.7731 69.1664 92.0677 69.1932 92.3087 69.4878L93.1926 70.6663C93.4337 70.9877 93.3801 71.2556 93.1123 71.4966C91.2106 73.0769 88.9607 73.9608 86.4966 73.9608ZM105.954 73.8H97.0889C96.7139 73.8 96.4996 73.5858 96.4996 73.2108V54.5691C96.4996 54.1942 96.7139 53.9799 97.0889 53.9799H98.5888C98.9637 53.9799 99.2048 54.1942 99.2048 54.5691V71.0949H105.954C106.329 71.0949 106.544 71.3359 106.544 71.6841V73.2108C106.544 73.5858 106.329 73.8 105.954 73.8ZM109.081 73.2108V54.5691C109.081 54.1942 109.295 53.9799 109.67 53.9799H111.143C111.518 53.9799 111.732 54.1942 111.732 54.5691V73.2108C111.732 73.5858 111.518 73.8 111.143 73.8H109.67C109.295 73.8 109.081 73.5858 109.081 73.2108ZM124.371 73.9608C118.773 73.9608 114.273 69.4343 114.273 63.89C114.273 58.3457 118.827 53.8192 124.291 53.8192C126.781 53.8192 129.031 54.7566 130.987 56.444C131.254 56.6851 131.281 56.9529 131.04 57.2475L130.183 58.3189C129.969 58.6403 129.647 58.6671 129.353 58.3992C127.906 57.2475 126.219 56.4976 124.317 56.4976C120.3 56.4976 116.952 59.8188 116.952 63.89C116.952 67.9611 120.273 71.2824 124.317 71.2824C126.192 71.2824 127.933 70.586 129.353 69.4075C129.647 69.1664 129.942 69.1932 130.183 69.4878L131.067 70.6663C131.308 70.9877 131.254 71.2556 130.987 71.4966C129.085 73.0769 126.835 73.9608 124.371 73.9608ZM146.561 73.1572L139.57 62.4972L145.489 54.6227C145.757 54.2745 145.623 53.9799 145.168 53.9799H143.346C143.052 53.9799 142.864 54.0602 142.677 54.3013L137.052 61.774V54.5691C137.052 54.1942 136.838 53.9799 136.463 53.9799H134.963C134.588 53.9799 134.374 54.1942 134.374 54.5691V73.2108C134.374 73.5858 134.588 73.8 134.963 73.8H136.463C136.838 73.8 137.052 73.5858 137.052 73.2108V65.8452L137.883 64.7471L143.507 73.4251C143.641 73.6661 143.882 73.8 144.177 73.8H146.212C146.641 73.8 146.775 73.5322 146.561 73.1572ZM159.149 58.9885H160.274C160.676 58.9885 160.89 58.7207 160.783 58.3189L159.845 54.4888C159.738 54.1406 159.524 53.9799 159.176 53.9799H158.078C157.676 53.9799 157.462 54.2209 157.569 54.6227L158.506 58.4528C158.587 58.801 158.828 58.9885 159.149 58.9885ZM176.097 54.5691V68.8182L165.946 54.3013C165.785 54.087 165.571 53.9799 165.277 53.9799H164.232C163.857 53.9799 163.643 54.1942 163.643 54.5691V73.2108C163.643 73.5858 163.857 73.8 164.232 73.8H165.732C166.107 73.8 166.348 73.5858 166.348 73.2108V58.9885L176.472 73.4786C176.633 73.6929 176.847 73.8 177.142 73.8H178.213C178.561 73.8 178.802 73.5858 178.802 73.2108V54.5691C178.802 54.1942 178.561 53.9799 178.213 53.9799H176.713C176.338 53.9799 176.097 54.1942 176.097 54.5691ZM199.596 73.9608C193.998 73.9608 189.499 69.4343 189.499 63.89C189.499 58.3457 194.052 53.8192 199.516 53.8192C202.007 53.8192 204.257 54.7566 206.212 56.444C206.48 56.6851 206.507 56.9529 206.265 57.2475L205.408 58.3189C205.194 58.6403 204.873 58.6671 204.578 58.3992C203.132 57.2475 201.444 56.4976 199.543 56.4976C195.525 56.4976 192.177 59.8188 192.177 63.89C192.177 67.9611 195.498 71.2824 199.543 71.2824C201.418 71.2824 203.159 70.586 204.578 69.4075C204.873 69.1664 205.167 69.1932 205.408 69.4878L206.292 70.6663C206.533 70.9877 206.48 71.2556 206.212 71.4966C204.31 73.0769 202.06 73.9608 199.596 73.9608ZM214.153 71.0949H213.831C212.867 71.0949 212.17 70.5056 212.17 69.2468V55.6405C212.17 55.2655 211.929 55.0512 211.554 55.0512H210.055C209.68 55.0512 209.465 55.2655 209.465 55.6405V69.2468C209.465 72.4876 211.019 73.8 213.778 73.8H214.019C214.394 73.8 214.608 73.5858 214.608 73.2108V71.6841C214.608 71.3359 214.474 71.0949 214.153 71.0949ZM234.197 73.184L226.644 54.4084C226.537 54.1138 226.323 53.9799 226.028 53.9799H224.769C224.475 53.9799 224.261 54.1138 224.153 54.4084L216.681 73.184C216.52 73.559 216.707 73.8 217.082 73.8H218.904C219.198 73.8 219.439 73.6661 219.547 73.3715L220.886 70.0503H229.992L231.332 73.3715C231.439 73.6661 231.653 73.8 231.948 73.8H233.769C234.144 73.8 234.331 73.559 234.197 73.184ZM221.93 67.3719L225.439 58.5332L228.948 67.3719H221.93ZM236.959 73.2108V54.5691C236.959 54.1942 237.173 53.9799 237.548 53.9799H239.021C239.396 53.9799 239.61 54.1942 239.61 54.5691V73.2108C239.61 73.5858 239.396 73.8 239.021 73.8H237.548C237.173 73.8 236.959 73.5858 236.959 73.2108ZM261.677 53.9799H260.471C260.177 53.9799 259.963 54.1138 259.829 54.3816L252.463 69.3539L245.097 54.3816C244.937 54.1138 244.749 53.9799 244.455 53.9799H243.276C242.901 53.9799 242.687 54.1942 242.687 54.5691V73.2108C242.687 73.5858 242.901 73.8 243.276 73.8H244.776C245.151 73.8 245.392 73.5858 245.392 73.2108V60.2741L251.579 72.809C251.686 73.0233 251.847 73.1304 252.088 73.1304H252.838C253.079 73.1304 253.24 73.0233 253.347 72.809L259.561 60.2741V73.2108C259.561 73.5858 259.775 73.8 260.15 73.8H261.677C262.025 73.8 262.266 73.5858 262.266 73.2108V54.5691C262.266 54.1942 262.025 53.9799 261.677 53.9799Z" fill="#FF9800"/>
<defs>
<linearGradient id="paint0_linear" x1="279" y1="-2.30675e-06" x2="129.917" y2="164.566" gradientUnits="userSpaceOnUse">
<stop stop-color="#FFB300"/>
<stop offset="1" stop-color="#F57C00"/>
</linearGradient>
</defs>
</svg>
