<svg width="279" height="77" viewBox="0 0 279 77" fill="none" xmlns="http://www.w3.org/2000/svg">
<path d="M10.3085 41.4178V28.8092H19.5892C20.5266 28.8092 21.0422 28.2937 21.0422 27.4031V23.5596C21.0422 22.669 20.5266 22.1534 19.5892 22.1534H10.3085V15.732H20.4797C21.3703 15.732 21.8859 15.2164 21.8859 14.3258V9.54485C21.8859 8.65429 21.3703 8.1387 20.4797 8.1387H4.1214C3.23084 8.1387 2.71524 8.65429 2.71524 9.54485V41.4178C2.71524 42.3084 3.23084 42.824 4.1214 42.824H8.85548C9.79291 42.824 10.3085 42.3084 10.3085 41.4178ZM49.3192 41.1366L41.8197 28.3405C45.1476 26.5125 47.3974 22.9502 47.3974 18.8724C47.3974 12.9665 42.5696 8.1387 36.6169 8.1387H27.0081C26.1176 8.1387 25.602 8.65429 25.602 9.54485V41.4178C25.602 42.3084 26.1176 42.824 27.0081 42.824H31.7422C32.6796 42.824 33.1952 42.3084 33.1952 41.4178V29.6998H34.2264L41.1166 41.8397C41.4916 42.5427 42.054 42.824 42.8509 42.824H48.3349C49.5067 42.824 49.9285 42.074 49.3192 41.1366ZM33.1952 15.732H36.6169C38.398 15.732 39.851 17.1381 39.851 18.8724C39.851 20.7473 38.398 22.1066 36.6169 22.1066H33.1952V15.732ZM71.8562 35.2307H60.8882V28.8092H70.9656C71.9031 28.8092 72.4187 28.2937 72.4187 27.4031V23.5596C72.4187 22.669 71.9031 22.1534 70.9656 22.1534H60.8882V15.732H71.8562C72.7468 15.732 73.2624 15.2164 73.2624 14.3258V9.54485C73.2624 8.65429 72.7468 8.1387 71.8562 8.1387H54.701C53.8105 8.1387 53.2949 8.65429 53.2949 9.54485V41.4178C53.2949 42.3084 53.8105 42.824 54.701 42.824H71.8562C72.7468 42.824 73.2624 42.3084 73.2624 41.4178V36.6369C73.2624 35.7463 72.7468 35.2307 71.8562 35.2307ZM95.9788 35.2307H85.0108V28.8092H95.0882C96.0257 28.8092 96.5413 28.2937 96.5413 27.4031V23.5596C96.5413 22.669 96.0257 22.1534 95.0882 22.1534H85.0108V15.732H95.9788C96.8694 15.732 97.385 15.2164 97.385 14.3258V9.54485C97.385 8.65429 96.8694 8.1387 95.9788 8.1387H78.8237C77.9331 8.1387 77.4175 8.65429 77.4175 9.54485V41.4178C77.4175 42.3084 77.9331 42.824 78.8237 42.824H95.9788C96.8694 42.824 97.385 42.3084 97.385 41.4178V36.6369C97.385 35.7463 96.8694 35.2307 95.9788 35.2307ZM125.172 43.199C121.938 43.199 118.751 41.9803 115.516 39.6836C114.579 39.0273 114.391 38.3243 114.813 37.4806L117.11 33.3558C117.626 32.559 118.329 32.3715 119.126 32.934C121.188 34.2464 123.156 34.9495 124.75 34.9495C126.719 34.9495 127.984 33.9652 127.984 32.4184C127.984 29.6998 124.188 28.7155 120.813 26.8406C116.548 24.4502 114.438 21.1222 114.626 17.1381C114.907 11.3729 119.735 7.57623 125.922 7.85746C128.406 7.95121 130.797 8.7949 132.718 9.87296C133.515 10.3417 133.656 11.0448 133.187 11.8416L131.031 15.1695C130.515 15.9663 129.859 16.1069 129.062 15.6851C128.078 15.1695 126.906 14.7476 125.594 14.7476C123.531 14.7476 122.313 15.732 122.313 17.1381C122.313 19.388 125.359 20.3254 128.172 21.7316C130.937 23.0909 136.093 26.0438 136.093 32.4653C136.093 38.5118 131.5 43.199 125.172 43.199ZM177.285 8.1387H171.801C170.957 8.1387 170.442 8.4668 170.207 9.31049L165.52 26.2313L161.161 9.77921C160.973 9.07613 160.552 8.7949 159.848 8.7949H156.849C156.146 8.7949 155.677 9.07613 155.489 9.77921L151.177 26.2313L146.396 9.31049C146.162 8.4668 145.646 8.1387 144.849 8.1387H139.365C138.381 8.1387 137.866 8.7949 138.147 9.73234L147.099 41.6522C147.334 42.4959 147.849 42.824 148.646 42.824H152.349C153.193 42.824 153.755 42.4021 153.989 41.6053L158.302 24.9657L162.708 41.6053C162.895 42.4021 163.458 42.824 164.301 42.824H168.004C168.848 42.824 169.364 42.4959 169.598 41.6522L178.55 9.73234C178.832 8.7949 178.316 8.1387 177.285 8.1387ZM200.983 35.2307H190.015V28.8092H200.092C201.03 28.8092 201.546 28.2937 201.546 27.4031V23.5596C201.546 22.669 201.03 22.1534 200.092 22.1534H190.015V15.732H200.983C201.874 15.732 202.389 15.2164 202.389 14.3258V9.54485C202.389 8.65429 201.874 8.1387 200.983 8.1387H183.828C182.937 8.1387 182.422 8.65429 182.422 9.54485V41.4178C182.422 42.3084 182.937 42.824 183.828 42.824H200.983C201.874 42.824 202.389 42.3084 202.389 41.4178V36.6369C202.389 35.7463 201.874 35.2307 200.983 35.2307ZM225.106 35.2307H214.138V28.8092H224.215C225.153 28.8092 225.668 28.2937 225.668 27.4031V23.5596C225.668 22.669 225.153 22.1534 224.215 22.1534H214.138V15.732H225.106C225.996 15.732 226.512 15.2164 226.512 14.3258V9.54485C226.512 8.65429 225.996 8.1387 225.106 8.1387H207.951C207.06 8.1387 206.544 8.65429 206.544 9.54485V41.4178C206.544 42.3084 207.06 42.824 207.951 42.824H225.106C225.996 42.824 226.512 42.3084 226.512 41.4178V36.6369C226.512 35.7463 225.996 35.2307 225.106 35.2307ZM241.682 8.1387H232.073C231.183 8.1387 230.667 8.65429 230.667 9.54485V41.4178C230.667 42.3084 231.183 42.824 232.073 42.824H236.807C237.745 42.824 238.26 42.3084 238.26 41.4178V29.6998H241.682C247.635 29.6998 252.509 24.872 252.509 18.8724C252.509 12.9665 247.635 8.1387 241.682 8.1387ZM241.682 22.1066H238.26V15.732H241.682C243.463 15.732 244.916 17.1381 244.916 18.8724C244.916 20.7473 243.463 22.1066 241.682 22.1066ZM266.063 43.199C262.828 43.199 259.641 41.9803 256.407 39.6836C255.47 39.0273 255.282 38.3243 255.704 37.4806L258.001 33.3558C258.516 32.559 259.219 32.3715 260.016 32.934C262.079 34.2464 264.047 34.9495 265.641 34.9495C267.609 34.9495 268.875 33.9652 268.875 32.4184C268.875 29.6998 265.078 28.7155 261.704 26.8406C257.438 24.4502 255.329 21.1222 255.516 17.1381C255.798 11.3729 260.625 7.57623 266.813 7.85746C269.297 7.95121 271.687 8.7949 273.609 9.87296C274.406 10.3417 274.546 11.0448 274.078 11.8416L271.922 15.1695C271.406 15.9663 270.75 16.1069 269.953 15.6851C268.969 15.1695 267.797 14.7476 266.484 14.7476C264.422 14.7476 263.203 15.732 263.203 17.1381C263.203 19.388 266.25 20.3254 269.062 21.7316C271.828 23.0909 276.984 26.0438 276.984 32.4653C276.984 38.5118 272.39 43.199 266.063 43.199Z" fill="url(#paint0_linear)"/>
<path d="M19.7168 55.3931V69.8565C19.7168 71.0082 18.7526 71.9456 17.6008 71.9456H16.0474C15.6724 71.9456 15.4581 72.1867 15.4581 72.5349V74.0348C15.4581 74.4098 15.6724 74.624 16.0474 74.624H17.6008C20.4667 74.624 22.3952 72.6956 22.3952 69.8297V55.3931C22.3952 55.0181 22.1541 54.8039 21.7791 54.8039H20.306C19.9311 54.8039 19.7168 55.0181 19.7168 55.3931ZM31.8575 74.7847C28.4023 74.7847 25.59 71.9724 25.59 68.5173V55.3931C25.59 55.0181 25.8043 54.8039 26.1793 54.8039H27.6792C28.0541 54.8039 28.2684 55.0181 28.2684 55.3931V68.5173C28.2684 70.4725 29.8755 72.0795 31.8575 72.0795C33.8395 72.0795 35.4733 70.4725 35.4733 68.5173V55.3931C35.4733 55.0181 35.6876 54.8039 36.0626 54.8039H37.5625C37.9107 54.8039 38.1517 55.0181 38.1517 55.3931V68.5173C38.1517 71.9724 35.3394 74.7847 31.8575 74.7847ZM46.5882 74.8383C44.7402 74.8383 42.9456 74.0883 41.3118 72.8027C40.9904 72.5349 40.9368 72.267 41.0975 71.9724L41.9278 70.5796C42.1153 70.285 42.3832 70.2314 42.7046 70.4457C44.1241 71.4903 45.383 71.9724 46.4543 71.9724C48.1417 71.9724 49.4006 70.7939 49.4006 69.294C49.4006 67.312 47.1775 66.3478 45.1151 65.3032C42.9188 64.205 40.8029 62.7319 40.9368 59.8393C41.0975 56.7055 43.6688 54.5896 46.7757 54.6432C48.1953 54.6699 49.4809 55.1521 50.4451 55.7145C50.7398 55.9288 50.7666 56.1698 50.5791 56.4645L49.7755 57.643C49.5881 57.9108 49.347 57.9912 49.0524 57.8305C48.2489 57.4019 47.4453 57.1341 46.6954 57.1341C45.0883 57.1341 43.7224 58.3661 43.7224 59.9464C43.7224 61.5802 45.2758 62.2498 46.9097 63.0266C48.8113 63.8836 52.2932 65.5978 52.2932 69.3208C52.2932 72.401 49.9095 74.8383 46.5882 74.8383ZM65.783 54.8039H54.9354C54.5605 54.8039 54.3462 55.0181 54.3462 55.3931V56.9198C54.3462 57.268 54.5605 57.509 54.9354 57.509H59.0066V74.0348C59.0066 74.4098 59.2477 74.624 59.5959 74.624H61.1225C61.4707 74.624 61.7118 74.4098 61.7118 74.0348V57.509H65.783C66.1579 57.509 66.3722 57.268 66.3722 56.9198V55.3931C66.3722 55.0181 66.1579 54.8039 65.783 54.8039ZM86.4966 74.7847C80.8988 74.7847 76.399 70.2582 76.399 64.7139C76.399 59.1697 80.9523 54.6432 86.4163 54.6432C88.9072 54.6432 91.157 55.5806 93.1123 57.268C93.3801 57.509 93.4069 57.7769 93.1658 58.0715L92.3087 59.1429C92.0945 59.4643 91.7731 59.4911 91.4784 59.2232C90.0321 58.0715 88.3447 57.3216 86.443 57.3216C82.4254 57.3216 79.0774 60.6428 79.0774 64.7139C79.0774 68.7851 82.3987 72.1063 86.443 72.1063C88.3179 72.1063 90.0589 71.4099 91.4784 70.2314C91.7731 69.9904 92.0677 70.0172 92.3087 70.3118L93.1926 71.4903C93.4337 71.8117 93.3801 72.0795 93.1123 72.3206C91.2106 73.9009 88.9607 74.7847 86.4966 74.7847ZM105.954 74.624H97.0889C96.7139 74.624 96.4996 74.4098 96.4996 74.0348V55.3931C96.4996 55.0181 96.7139 54.8039 97.0889 54.8039H98.5888C98.9637 54.8039 99.2048 55.0181 99.2048 55.3931V71.9188H105.954C106.329 71.9188 106.544 72.1599 106.544 72.5081V74.0348C106.544 74.4098 106.329 74.624 105.954 74.624ZM109.081 74.0348V55.3931C109.081 55.0181 109.295 54.8039 109.67 54.8039H111.143C111.518 54.8039 111.732 55.0181 111.732 55.3931V74.0348C111.732 74.4098 111.518 74.624 111.143 74.624H109.67C109.295 74.624 109.081 74.4098 109.081 74.0348ZM124.371 74.7847C118.773 74.7847 114.273 70.2582 114.273 64.7139C114.273 59.1697 118.827 54.6432 124.291 54.6432C126.781 54.6432 129.031 55.5806 130.987 57.268C131.254 57.509 131.281 57.7769 131.04 58.0715L130.183 59.1429C129.969 59.4643 129.647 59.4911 129.353 59.2232C127.906 58.0715 126.219 57.3216 124.317 57.3216C120.3 57.3216 116.952 60.6428 116.952 64.7139C116.952 68.7851 120.273 72.1063 124.317 72.1063C126.192 72.1063 127.933 71.4099 129.353 70.2314C129.647 69.9904 129.942 70.0172 130.183 70.3118L131.067 71.4903C131.308 71.8117 131.254 72.0795 130.987 72.3206C129.085 73.9009 126.835 74.7847 124.371 74.7847ZM146.561 73.9812L139.57 63.3212L145.489 55.4467C145.757 55.0985 145.623 54.8039 145.168 54.8039H143.346C143.052 54.8039 142.864 54.8842 142.677 55.1253L137.052 62.598V55.3931C137.052 55.0181 136.838 54.8039 136.463 54.8039H134.963C134.588 54.8039 134.374 55.0181 134.374 55.3931V74.0348C134.374 74.4098 134.588 74.624 134.963 74.624H136.463C136.838 74.624 137.052 74.4098 137.052 74.0348V66.6692L137.883 65.571L143.507 74.249C143.641 74.4901 143.882 74.624 144.177 74.624H146.212C146.641 74.624 146.775 74.3562 146.561 73.9812ZM159.149 59.8125H160.274C160.676 59.8125 160.89 59.5446 160.783 59.1429L159.845 55.3128C159.738 54.9646 159.524 54.8039 159.176 54.8039H158.078C157.676 54.8039 157.462 55.0449 157.569 55.4467L158.506 59.2768C158.587 59.625 158.828 59.8125 159.149 59.8125ZM176.097 55.3931V69.6422L165.946 55.1253C165.785 54.911 165.571 54.8039 165.277 54.8039H164.232C163.857 54.8039 163.643 55.0181 163.643 55.3931V74.0348C163.643 74.4098 163.857 74.624 164.232 74.624H165.732C166.107 74.624 166.348 74.4098 166.348 74.0348V59.8125L176.472 74.3026C176.633 74.5169 176.847 74.624 177.142 74.624H178.213C178.561 74.624 178.802 74.4098 178.802 74.0348V55.3931C178.802 55.0181 178.561 54.8039 178.213 54.8039H176.713C176.338 54.8039 176.097 55.0181 176.097 55.3931ZM199.596 74.7847C193.998 74.7847 189.499 70.2582 189.499 64.7139C189.499 59.1697 194.052 54.6432 199.516 54.6432C202.007 54.6432 204.257 55.5806 206.212 57.268C206.48 57.509 206.507 57.7769 206.265 58.0715L205.408 59.1429C205.194 59.4643 204.873 59.4911 204.578 59.2232C203.132 58.0715 201.444 57.3216 199.543 57.3216C195.525 57.3216 192.177 60.6428 192.177 64.7139C192.177 68.7851 195.498 72.1063 199.543 72.1063C201.418 72.1063 203.159 71.4099 204.578 70.2314C204.873 69.9904 205.167 70.0172 205.408 70.3118L206.292 71.4903C206.533 71.8117 206.48 72.0795 206.212 72.3206C204.31 73.9009 202.06 74.7847 199.596 74.7847ZM214.153 71.9188H213.831C212.867 71.9188 212.17 71.3296 212.17 70.0707V56.4645C212.17 56.0895 211.929 55.8752 211.554 55.8752H210.055C209.68 55.8752 209.465 56.0895 209.465 56.4645V70.0707C209.465 73.3116 211.019 74.624 213.778 74.624H214.019C214.394 74.624 214.608 74.4098 214.608 74.0348V72.5081C214.608 72.1599 214.474 71.9188 214.153 71.9188ZM234.197 74.008L226.644 55.2324C226.537 54.9378 226.323 54.8039 226.028 54.8039H224.769C224.475 54.8039 224.261 54.9378 224.153 55.2324L216.681 74.008C216.52 74.383 216.707 74.624 217.082 74.624H218.904C219.198 74.624 219.439 74.4901 219.547 74.1955L220.886 70.8743H229.992L231.332 74.1955C231.439 74.4901 231.653 74.624 231.948 74.624H233.769C234.144 74.624 234.331 74.383 234.197 74.008ZM221.93 68.1959L225.439 59.3571L228.948 68.1959H221.93ZM236.959 74.0348V55.3931C236.959 55.0181 237.173 54.8039 237.548 54.8039H239.021C239.396 54.8039 239.61 55.0181 239.61 55.3931V74.0348C239.61 74.4098 239.396 74.624 239.021 74.624H237.548C237.173 74.624 236.959 74.4098 236.959 74.0348ZM261.677 54.8039H260.471C260.177 54.8039 259.963 54.9378 259.829 55.2056L252.463 70.1779L245.097 55.2056C244.937 54.9378 244.749 54.8039 244.455 54.8039H243.276C242.901 54.8039 242.687 55.0181 242.687 55.3931V74.0348C242.687 74.4098 242.901 74.624 243.276 74.624H244.776C245.151 74.624 245.392 74.4098 245.392 74.0348V61.0981L251.579 73.633C251.686 73.8473 251.847 73.9544 252.088 73.9544H252.838C253.079 73.9544 253.24 73.8473 253.347 73.633L259.561 61.0981V74.0348C259.561 74.4098 259.775 74.624 260.15 74.624H261.677C262.025 74.624 262.266 74.4098 262.266 74.0348V55.3931C262.266 55.0181 262.025 54.8039 261.677 54.8039Z" fill="url(#paint1_linear)"/>
<defs>
<linearGradient id="paint0_linear" x1="279" y1="0.823979" x2="103.58" y2="161.078" gradientUnits="userSpaceOnUse">
<stop stop-color="#1BEE02"/>
<stop offset="1" stop-color="#00AD45"/>
</linearGradient>
<linearGradient id="paint1_linear" x1="263.984" y1="51.624" x2="180.207" y2="182.538" gradientUnits="userSpaceOnUse">
<stop stop-color="#1BEE02"/>
<stop offset="1" stop-color="#00AD45"/>
</linearGradient>
</defs>
</svg>
