<?xml version="1.0" encoding="UTF-8" standalone="no"?>
<svg
   xmlns:dc="http://purl.org/dc/elements/1.1/"
   xmlns:cc="http://creativecommons.org/ns#"
   xmlns:rdf="http://www.w3.org/1999/02/22-rdf-syntax-ns#"
   xmlns:svg="http://www.w3.org/2000/svg"
   xmlns="http://www.w3.org/2000/svg"
   xmlns:sodipodi="http://sodipodi.sourceforge.net/DTD/sodipodi-0.dtd"
   xmlns:inkscape="http://www.inkscape.org/namespaces/inkscape"
   width="840px"
   height="600px"
   viewBox="0 0 840 600"
   version="1.1"
   id="svg42"
   sodipodi:docname="amex.svg"
   inkscape:version="0.92.4 (5da689c313, 2019-01-14)">
  <metadata
     id="metadata46">
    <rdf:RDF>
      <cc:Work
         rdf:about="">
        <dc:format>image/svg+xml</dc:format>
        <dc:type
           rdf:resource="http://purl.org/dc/dcmitype/StillImage" />
        <dc:title>Visa-Alt</dc:title>
      </cc:Work>
    </rdf:RDF>
  </metadata>
  <sodipodi:namedview
     pagecolor="#ffffff"
     bordercolor="#666666"
     borderopacity="1"
     objecttolerance="10"
     gridtolerance="10"
     guidetolerance="10"
     inkscape:pageopacity="0"
     inkscape:pageshadow="2"
     inkscape:window-width="1858"
     inkscape:window-height="1057"
     id="namedview44"
     showgrid="false"
     inkscape:zoom="1.4133333"
     inkscape:cx="441.93396"
     inkscape:cy="300"
     inkscape:window-x="1974"
     inkscape:window-y="-8"
     inkscape:window-maximized="1"
     inkscape:current-layer="svg42" />
  <!-- Generator: Sketch 39.1 (31720) - http://www.bohemiancoding.com/sketch -->
  <title
     id="title29">Visa-Alt</title>
  <desc
     id="desc31">Created with Sketch.</desc>
  <defs
     id="defs33" />
  <g
     transform="matrix(2.8778854,0,0,2.8582096,0.5378325,-117.31257)"
     id="g95">
    <path
       inkscape:connector-curvature="0"
       style="fill:#26a6d1"
       d="m 18.235,41.025 h 255.294 c 10.066,0 18.235,8.169 18.235,18.244 v 173.235 c 0,10.066 -8.169,18.235 -18.235,18.235 H 18.235 C 8.16,250.74 0,242.57 0,232.505 V 59.269 C 0,49.194 8.169,41.025 18.235,41.025 Z"
       id="path91" />
    <path
       inkscape:connector-curvature="0"
       style="fill:#ffffff"
       d="m 47.047,113.966 -28.812,63.76 h 34.492 l 4.276,-10.166 h 9.774 l 4.276,10.166 h 37.966 v -7.759 l 3.383,7.759 h 19.639 l 3.383,-7.923 v 7.923 h 78.959 l 9.601,-9.902 8.99,9.902 40.555,0.082 -28.903,-31.784 28.903,-32.058 h -39.926 l -9.346,9.719 -8.707,-9.719 h -85.897 l -7.376,16.457 -7.549,-16.457 h -34.42 v 7.495 l -3.829,-7.495 c 0,0 -29.432,0 -29.432,0 z m 6.674,9.054 h 16.813 l 19.111,43.236 V 123.02 h 18.418 l 14.761,31 13.604,-31 h 18.326 v 45.752 h -11.151 l -0.091,-35.851 -16.257,35.851 h -9.975 l -16.348,-35.851 v 35.851 H 77.992 L 73.643,158.515 H 50.147 l -4.34,10.248 H 33.516 c 0,0 20.205,-45.743 20.205,-45.743 z m 111.235,0 h 45.342 l 13.868,14.98 14.315,-14.98 h 13.868 l -21.071,22.995 21.071,22.73 h -14.497 l -13.868,-15.154 -14.388,15.154 h -44.64 z M 61.9,130.761 54.159,149.033 h 15.473 z m 114.253,1.732 v 8.352 h 24.736 v 9.309 h -24.736 v 9.118 h 27.745 l 12.892,-13.43 -12.345,-13.357 h -28.292 z"
       id="path93" />
  </g>
</svg>
