<svg width="102" height="15" viewBox="0 0 102 15" fill="none" xmlns="http://www.w3.org/2000/svg">
<path d="M5.86 3.84C3.02 3.84 0.7 6.16 0.7 9C0.7 11.84 3.02 14.16 5.86 14.16C8.7 14.16 11.02 11.84 11.02 9C11.02 6.16 8.7 3.84 5.86 3.84ZM5.86 6.48C7.26 6.48 8.38 7.6 8.38 9C8.38 10.4 7.26 11.54 5.86 11.54C4.46 11.54 3.32 10.4 3.32 9C3.32 7.6 4.46 6.48 5.86 6.48ZM17.2188 3.84C16.3188 3.84 15.4988 4.12 14.7788 4.64V4.46C14.7788 4.16 14.6188 4 14.3388 4H13.2388C12.9188 4 12.7188 4.2 12.7188 4.52V13.48C12.7188 13.8 12.9188 14 13.2388 14H14.7988C15.1188 14 15.3188 13.8 15.3188 13.48V8.16C15.3188 7.22 16.0988 6.44 17.0388 6.44C17.9988 6.44 18.7588 7.22 18.7588 8.16V13.48C18.7588 13.8 18.9588 14 19.2788 14H20.8588C21.1788 14 21.3788 13.8 21.3788 13.48V8.16C21.3788 5.78 19.5388 3.84 17.2188 3.84ZM27.0075 11.38H26.7875C26.2075 11.38 25.8075 10.98 25.8075 10.3V0.52C25.8075 0.199999 25.6075 -9.53674e-07 25.2875 -9.53674e-07H23.7075C23.3875 -9.53674e-07 23.1875 0.199999 23.1875 0.52V10.26C23.1875 12.88 24.2875 14 26.7275 14H26.9075C27.2275 14 27.4275 13.8 27.4275 13.48V11.9C27.4275 11.56 27.3075 11.38 27.0075 11.38ZM31.9088 1.76C31.9088 2.68 31.2888 3.3 30.3688 3.3C29.5688 3.3 28.8488 2.68 28.8488 1.76C28.8488 0.98 29.5688 0.259999 30.3688 0.259999C31.2888 0.259999 31.9088 0.98 31.9088 1.76ZM31.1488 14H29.6088C29.2887 14 29.0888 13.8 29.0888 13.48V4.52C29.0888 4.2 29.2887 4 29.6088 4H31.1488C31.4688 4 31.6688 4.2 31.6688 4.52V13.48C31.6688 13.8 31.4688 14 31.1488 14ZM38.1758 3.84C37.2758 3.84 36.4558 4.12 35.7358 4.64V4.46C35.7358 4.16 35.5758 4 35.2958 4H34.1958C33.8758 4 33.6758 4.2 33.6758 4.52V13.48C33.6758 13.8 33.8758 14 34.1958 14H35.7558C36.0758 14 36.2758 13.8 36.2758 13.48V8.16C36.2758 7.22 37.0558 6.44 37.9958 6.44C38.9558 6.44 39.7158 7.22 39.7158 8.16V13.48C39.7158 13.8 39.9158 14 40.2358 14H41.8158C42.1358 14 42.3358 13.8 42.3358 13.48V8.16C42.3358 5.78 40.4958 3.84 38.1758 3.84ZM54.0845 9.3C53.8845 5.94 51.7845 3.84 49.0045 3.84C46.1245 3.84 43.8645 6.06 43.8645 8.9C43.8645 11.76 46.1445 14.16 49.1845 14.16C50.3645 14.16 51.7645 13.8 53.0445 12.8C53.3245 12.6 53.3445 12.34 53.1245 12.06L52.2445 11.02C52.0445 10.76 51.8045 10.74 51.5245 10.9C50.9245 11.32 50.1245 11.7 49.2245 11.7C48.1445 11.7 47.0245 11.1 46.5445 9.82H53.5645C53.9045 9.82 54.1045 9.64 54.0845 9.3ZM46.5645 7.82C46.7645 6.76 47.7445 6 48.9445 6C50.1845 6 51.0645 6.84 51.2645 7.82H46.5645ZM59.6052 11.38H59.3852C58.8052 11.38 58.4052 10.98 58.4052 10.3V0.52C58.4052 0.199999 58.2052 -9.53674e-07 57.8852 -9.53674e-07H56.3052C55.9852 -9.53674e-07 55.7852 0.199999 55.7852 0.52V10.26C55.7852 12.88 56.8852 14 59.3252 14H59.5052C59.8252 14 60.0252 13.8 60.0252 13.48V11.9C60.0252 11.56 59.9052 11.38 59.6052 11.38ZM66.2702 3.84C63.4302 3.84 61.1102 6.16 61.1102 9C61.1102 11.84 63.4302 14.16 66.2702 14.16C69.1102 14.16 71.4302 11.84 71.4302 9C71.4302 6.16 69.1102 3.84 66.2702 3.84ZM66.2702 6.48C67.6702 6.48 68.7902 7.6 68.7902 9C68.7902 10.4 67.6702 11.54 66.2702 11.54C64.8702 11.54 63.7302 10.4 63.7302 9C63.7302 7.6 64.8702 6.48 66.2702 6.48ZM78.2089 11.38H76.9889C76.2689 11.38 75.7489 10.84 75.7489 10.12V6.28H78.3089C78.6289 6.28 78.8089 6.1 78.8089 5.78V4.5C78.8089 4.18 78.6289 4 78.3089 4H75.7489V1.34C75.7489 1.02 75.5489 0.819999 75.2289 0.819999H73.6489C73.3289 0.819999 73.1289 1.02 73.1289 1.34V10.1C73.1289 12.68 74.5889 14 76.9089 14H78.2089C78.5489 14 78.7289 13.8 78.7289 13.48V11.9C78.7289 11.56 78.5489 11.38 78.2089 11.38ZM85.3964 11.38H84.1764C83.4564 11.38 82.9364 10.84 82.9364 10.12V6.28H85.4964C85.8164 6.28 85.9964 6.1 85.9964 5.78V4.5C85.9964 4.18 85.8164 4 85.4964 4H82.9364V1.34C82.9364 1.02 82.7364 0.819999 82.4164 0.819999H80.8364C80.5164 0.819999 80.3164 1.02 80.3164 1.34V10.1C80.3164 12.68 81.7764 14 84.0964 14H85.3964C85.7364 14 85.9164 13.8 85.9164 13.48V11.9C85.9164 11.56 85.7364 11.38 85.3964 11.38ZM92.2663 3.84C89.4263 3.84 87.1063 6.16 87.1063 9C87.1063 11.84 89.4263 14.16 92.2663 14.16C95.1063 14.16 97.4262 11.84 97.4262 9C97.4262 6.16 95.1063 3.84 92.2663 3.84ZM92.2663 6.48C93.6663 6.48 94.7863 7.6 94.7863 9C94.7863 10.4 93.6663 11.54 92.2663 11.54C90.8663 11.54 89.7263 10.4 89.7263 9C89.7263 7.6 90.8663 6.48 92.2663 6.48Z" fill="black" fill-opacity="0.87"/>
<path d="M101.645 12.6C101.645 13.36 101.005 14 100.225 14C99.465 14 98.825 13.36 98.825 12.6C98.825 11.82 99.465 11.2 100.225 11.2C101.005 11.2 101.645 11.82 101.645 12.6Z" fill="url(#paint0_linear)"/>
<defs>
<linearGradient id="paint0_linear" x1="-4.7002e-07" y1="18" x2="82.9508" y2="-36.51" gradientUnits="userSpaceOnUse">
<stop stop-color="#FE139C"/>
<stop offset="1" stop-color="#C71CB8"/>
</linearGradient>
</defs>
</svg>
