<svg width="291" height="72" viewBox="0 0 291 72" fill="none" xmlns="http://www.w3.org/2000/svg">
<path d="M20.56 15.36C16.16 15.36 11.92 16.88 8.72 19.28V17.84C8.72 16.64 8 16 6.88 16H2.08C0.8 16 5.96046e-08 16.8 5.96046e-08 18.08V69.92C5.96046e-08 71.2 0.8 72 2.08 72H8.32C9.6 72 10.4 71.2 10.4 69.92V53.52C13.2 55.44 16.8 56.64 20.56 56.64C31.92 56.64 41.2 47.36 41.2 36C41.2 24.64 31.92 15.36 20.56 15.36ZM20.4 46.08C14.96 46.08 10.32 41.52 10.32 36C10.32 30.48 14.96 25.92 20.4 25.92C25.84 25.92 30.48 30.48 30.48 36C30.48 41.52 25.84 46.08 20.4 46.08ZM65.3288 56.64C55.7287 56.64 47.9688 48.88 47.9688 39.28V18.08C47.9688 16.8 48.7688 16 50.0488 16H56.2888C57.5688 16 58.3688 16.8 58.3688 18.08V39.28C58.3688 43.04 61.4888 46.24 65.3288 46.24C69.0888 46.24 72.2088 43.04 72.2088 39.28V18.08C72.2088 16.8 73.0088 16 74.2888 16H80.5288C81.8888 16 82.6888 16.8 82.6888 18.08V39.28C82.6888 48.88 74.8488 56.64 65.3288 56.64ZM105.124 45.52H104.244C101.924 45.52 100.324 43.92 100.324 41.2V2.08C100.324 0.799995 99.5238 -3.8147e-06 98.2438 -3.8147e-06H91.9238C90.6438 -3.8147e-06 89.8438 0.799995 89.8438 2.08V41.04C89.8438 51.52 94.2438 56 104.004 56H104.724C106.004 56 106.804 55.2 106.804 53.92V47.6C106.804 46.24 106.324 45.52 105.124 45.52ZM136.729 20.88L134.489 24.72C133.849 25.92 132.729 26.16 131.609 25.52C129.849 24.72 128.009 23.92 126.249 23.92C124.089 23.92 122.489 24.96 122.489 26.56C122.489 28.4 124.649 29.12 128.569 30.64C134.809 32.88 140.249 37.12 140.249 43.84C140.249 50.64 134.569 56.64 125.609 56.64C120.889 56.64 116.649 54.96 113.529 53.2C112.409 52.56 112.169 51.6 112.729 50.4L114.969 45.76C115.529 44.56 116.489 44.32 117.769 44.8C120.089 45.92 123.209 46.96 125.529 46.96C128.249 46.96 129.529 45.44 129.529 43.92C129.529 42 127.529 40.88 122.649 38.88C119.289 37.52 112.249 34.64 112.249 26.96C112.249 19.92 118.169 15.36 125.849 15.36C129.449 15.36 132.649 16.32 135.929 18C137.129 18.64 137.369 19.68 136.729 20.88ZM176.244 45.6H158.884L176.484 26.48C177.284 25.76 177.524 24.96 177.524 23.92V18.08C177.524 16.8 176.724 16 175.444 16H147.284C146.004 16 145.284 16.72 145.284 18V23.36C145.284 24.64 146.004 25.36 147.284 25.36H164.964L146.644 44.56C145.844 45.28 145.524 46.08 145.524 47.12V53.92C145.524 55.2 146.324 56 147.604 56H176.244C177.604 56 178.324 55.2 178.324 53.92V47.68C178.324 46.4 177.604 45.6 176.244 45.6ZM212.268 56.384C205.452 56.384 199.884 50.864 199.884 44C199.884 37.136 205.452 31.616 212.268 31.616C215.388 31.616 218.172 32.768 220.332 34.592C220.764 34.928 220.764 35.36 220.476 35.792L219.516 37.088C219.18 37.568 218.748 37.616 218.316 37.232C216.396 35.648 214.236 34.976 212.268 34.976C207.324 34.976 203.244 39.056 203.244 44C203.244 48.944 207.324 53.024 212.268 53.024C214.236 53.024 216.396 52.352 218.316 50.768C218.748 50.384 219.18 50.432 219.516 50.864L220.476 52.16C220.764 52.592 220.764 53.024 220.332 53.36C218.172 55.184 215.388 56.384 212.268 56.384ZM236.732 31.616C229.916 31.616 224.348 37.184 224.348 44C224.348 50.816 229.916 56.384 236.732 56.384C243.548 56.384 249.116 50.816 249.116 44C249.116 37.184 243.548 31.616 236.732 31.616ZM236.732 35.024C241.724 35.024 245.708 39.008 245.708 44C245.708 48.992 241.724 53.024 236.732 53.024C231.74 53.024 227.708 48.992 227.708 44C227.708 39.008 231.74 35.024 236.732 35.024ZM280.865 31.616C277.361 31.616 274.289 33.392 272.513 36.08C270.737 33.392 267.713 31.616 264.209 31.616C261.041 31.616 258.497 33.056 257.201 34.88V32.864C257.201 32.336 256.865 32 256.337 32H255.041C254.513 32 254.177 32.336 254.177 32.864V55.136C254.177 55.664 254.513 56 255.041 56H256.673C257.201 56 257.537 55.664 257.537 55.136V41.6C257.537 37.952 260.513 34.928 264.209 34.928C267.905 34.928 270.881 37.952 270.881 41.6V55.136C270.881 55.664 271.217 56 271.745 56H273.329C273.857 56 274.193 55.664 274.193 55.136V41.6C274.193 37.952 277.169 34.928 280.865 34.928C284.513 34.928 287.489 37.952 287.489 41.6V55.136C287.489 55.664 287.825 56 288.353 56H289.985C290.513 56 290.849 55.664 290.849 55.136V41.6C290.849 36.08 286.337 31.616 280.865 31.616Z" fill="white"/>
<path d="M194.768 50.4C194.768 53.44 192.208 56 189.088 56C186.048 56 183.488 53.44 183.488 50.4C183.488 47.28 186.048 44.8 189.088 44.8C192.208 44.8 194.768 47.28 194.768 50.4Z" fill="url(#paint0_linear)"/>
<defs>
<linearGradient id="paint0_linear" x1="-4" y1="64" x2="293.962" y2="64.1422" gradientUnits="userSpaceOnUse">
<stop stop-color="#C71CB8"/>
<stop offset="1" stop-color="#FE139C"/>
</linearGradient>
</defs>
</svg>
