<svg width="410" height="169" viewBox="0 0 410 169" fill="none" xmlns="http://www.w3.org/2000/svg">
<path d="M23.44 31.36C12.08 31.36 2.8 40.64 2.8 52C2.8 63.36 12.08 72.64 23.44 72.64C34.8 72.64 44.08 63.36 44.08 52C44.08 40.64 34.8 31.36 23.44 31.36ZM23.44 41.92C29.04 41.92 33.52 46.4 33.52 52C33.52 57.6 29.04 62.16 23.44 62.16C17.84 62.16 13.28 57.6 13.28 52C13.28 46.4 17.84 41.92 23.44 41.92ZM68.875 31.36C65.275 31.36 61.995 32.48 59.115 34.56V33.84C59.115 32.64 58.475 32 57.355 32H52.955C51.675 32 50.875 32.8 50.875 34.08V69.92C50.875 71.2 51.675 72 52.955 72H59.195C60.475 72 61.275 71.2 61.275 69.92V48.64C61.275 44.88 64.395 41.76 68.155 41.76C71.995 41.76 75.035 44.88 75.035 48.64V69.92C75.035 71.2 75.835 72 77.115 72H83.435C84.715 72 85.515 71.2 85.515 69.92V48.64C85.515 39.12 78.155 31.36 68.875 31.36ZM108.03 61.52H107.15C104.83 61.52 103.23 59.92 103.23 57.2V18.08C103.23 16.8 102.43 16 101.15 16H94.83C93.55 16 92.75 16.8 92.75 18.08V57.04C92.75 67.52 97.15 72 106.91 72H107.63C108.91 72 109.71 71.2 109.71 69.92V63.6C109.71 62.24 109.23 61.52 108.03 61.52ZM127.635 23.04C127.635 26.72 125.155 29.2 121.475 29.2C118.275 29.2 115.395 26.72 115.395 23.04C115.395 19.92 118.275 17.04 121.475 17.04C125.155 17.04 127.635 19.92 127.635 23.04ZM124.595 72H118.435C117.155 72 116.355 71.2 116.355 69.92V34.08C116.355 32.8 117.155 32 118.435 32H124.595C125.875 32 126.675 32.8 126.675 34.08V69.92C126.675 71.2 125.875 72 124.595 72ZM152.703 31.36C149.103 31.36 145.823 32.48 142.943 34.56V33.84C142.943 32.64 142.303 32 141.183 32H136.783C135.503 32 134.703 32.8 134.703 34.08V69.92C134.703 71.2 135.503 72 136.783 72H143.023C144.303 72 145.103 71.2 145.103 69.92V48.64C145.103 44.88 148.223 41.76 151.983 41.76C155.823 41.76 158.863 44.88 158.863 48.64V69.92C158.863 71.2 159.663 72 160.943 72H167.263C168.543 72 169.343 71.2 169.343 69.92V48.64C169.343 39.12 161.983 31.36 152.703 31.36ZM216.338 53.2C215.538 39.76 207.138 31.36 196.018 31.36C184.498 31.36 175.458 40.24 175.458 51.6C175.458 63.04 184.578 72.64 196.738 72.64C201.458 72.64 207.058 71.2 212.178 67.2C213.298 66.4 213.378 65.36 212.498 64.24L208.978 60.08C208.178 59.04 207.218 58.96 206.098 59.6C203.698 61.28 200.498 62.8 196.898 62.8C192.578 62.8 188.098 60.4 186.178 55.28H214.258C215.618 55.28 216.418 54.56 216.338 53.2ZM186.258 47.28C187.058 43.04 190.978 40 195.778 40C200.738 40 204.258 43.36 205.058 47.28H186.258ZM238.421 61.52H237.541C235.221 61.52 233.621 59.92 233.621 57.2V18.08C233.621 16.8 232.821 16 231.541 16H225.221C223.941 16 223.141 16.8 223.141 18.08V57.04C223.141 67.52 227.541 72 237.301 72H238.021C239.301 72 240.101 71.2 240.101 69.92V63.6C240.101 62.24 239.621 61.52 238.421 61.52ZM265.081 31.36C253.721 31.36 244.441 40.64 244.441 52C244.441 63.36 253.721 72.64 265.081 72.64C276.441 72.64 285.721 63.36 285.721 52C285.721 40.64 276.441 31.36 265.081 31.36ZM265.081 41.92C270.681 41.92 275.161 46.4 275.161 52C275.161 57.6 270.681 62.16 265.081 62.16C259.481 62.16 254.921 57.6 254.921 52C254.921 46.4 259.481 41.92 265.081 41.92ZM312.836 61.52H307.956C305.076 61.52 302.996 59.36 302.996 56.48V41.12H313.236C314.516 41.12 315.236 40.4 315.236 39.12V34C315.236 32.72 314.516 32 313.236 32H302.996V21.36C302.996 20.08 302.196 19.28 300.916 19.28H294.596C293.316 19.28 292.516 20.08 292.516 21.36V56.4C292.516 66.72 298.356 72 307.636 72H312.836C314.196 72 314.916 71.2 314.916 69.92V63.6C314.916 62.24 314.196 61.52 312.836 61.52ZM341.586 61.52H336.706C333.826 61.52 331.746 59.36 331.746 56.48V41.12H341.986C343.266 41.12 343.986 40.4 343.986 39.12V34C343.986 32.72 343.266 32 341.986 32H331.746V21.36C331.746 20.08 330.946 19.28 329.666 19.28H323.346C322.066 19.28 321.266 20.08 321.266 21.36V56.4C321.266 66.72 327.106 72 336.386 72H341.586C342.946 72 343.666 71.2 343.666 69.92V63.6C343.666 62.24 342.946 61.52 341.586 61.52ZM369.065 31.36C357.705 31.36 348.425 40.64 348.425 52C348.425 63.36 357.705 72.64 369.065 72.64C380.425 72.64 389.705 63.36 389.705 52C389.705 40.64 380.425 31.36 369.065 31.36ZM369.065 41.92C374.665 41.92 379.145 46.4 379.145 52C379.145 57.6 374.665 62.16 369.065 62.16C363.465 62.16 358.905 57.6 358.905 52C358.905 46.4 363.465 41.92 369.065 41.92Z" fill="#212121"/>
<path d="M406.58 66.4C406.58 69.44 404.02 72 400.9 72C397.86 72 395.3 69.44 395.3 66.4C395.3 63.28 397.86 60.8 400.9 60.8C404.02 60.8 406.58 63.28 406.58 66.4Z" fill="url(#paint0_linear)"/>
<path d="M34.3941 104.48H30.0741C29.4021 104.48 28.9701 104.768 28.7301 105.44L20.5701 128.384L12.3621 105.44C12.1221 104.768 11.6901 104.48 10.9701 104.48H6.74612C5.83413 104.48 5.49813 105.008 5.78613 105.872L17.8821 139.04C18.1221 139.712 18.6021 140 19.2741 140H21.8661C22.5381 140 23.0181 139.712 23.2581 139.04L35.3541 105.872C35.6421 105.008 35.2581 104.48 34.3941 104.48ZM39.9213 138.752V105.728C39.9213 104.96 40.4013 104.48 41.1693 104.48H44.8653C45.6813 104.48 46.1133 104.96 46.1133 105.728V138.752C46.1133 139.52 45.6813 140 44.8653 140H41.1693C40.4013 140 39.9213 139.52 39.9213 138.752ZM74.1633 138.56L66.1953 125.024C70.0833 123.44 72.7712 119.6 72.7712 115.136C72.7712 109.28 68.0193 104.48 62.1153 104.48H52.4193C51.6033 104.48 51.1233 104.96 51.1233 105.728V138.752C51.1233 139.52 51.6033 140 52.4193 140H56.2113C56.9793 140 57.4593 139.52 57.4593 138.752V125.84H59.7633L67.3953 139.136C67.7313 139.76 68.2113 140 68.8353 140H73.3473C74.3073 140 74.6433 139.376 74.1633 138.56ZM57.4593 110.768H62.1153C64.5633 110.768 66.5313 112.736 66.5313 115.136C66.5313 117.632 64.5633 119.552 62.1153 119.552H57.4593V110.768ZM98.4149 104.48H78.7349C77.9669 104.48 77.4869 104.96 77.4869 105.728V109.52C77.4869 110.336 77.9669 110.768 78.7349 110.768H85.4549V138.752C85.4549 139.52 85.8869 140 86.7029 140H90.4469C91.2629 140 91.6949 139.52 91.6949 138.752V110.768H98.4149C99.2309 110.768 99.6629 110.336 99.6629 109.52V105.728C99.6629 104.96 99.2309 104.48 98.4149 104.48ZM115.052 140.288C108.668 140.288 103.484 135.104 103.484 128.72V105.728C103.484 104.96 103.964 104.48 104.732 104.48H108.476C109.292 104.48 109.724 104.96 109.724 105.728V128.72C109.724 131.6 112.124 134 115.052 134C117.98 134 120.332 131.6 120.332 128.72V105.728C120.332 104.96 120.812 104.48 121.58 104.48H125.372C126.14 104.48 126.62 104.96 126.62 105.728V128.72C126.62 135.104 121.436 140.288 115.052 140.288ZM161.044 138.608L147.652 105.392C147.412 104.768 146.932 104.48 146.26 104.48H143.284C142.612 104.48 142.132 104.768 141.892 105.392L128.692 138.608C128.404 139.472 128.74 140 129.652 140H133.972C134.692 140 135.124 139.712 135.364 139.04L137.572 133.616H152.212L154.372 139.04C154.612 139.664 155.092 139.952 155.764 139.952L160.084 140C160.996 140 161.38 139.472 161.044 138.608ZM140.068 127.328L144.916 115.184L149.716 127.328H140.068ZM183.255 140H166.935C166.167 140 165.687 139.52 165.687 138.752V105.728C165.687 104.96 166.167 104.48 166.935 104.48H170.727C171.495 104.48 171.975 104.96 171.975 105.728V133.712H183.255C184.071 133.712 184.551 134.144 184.551 134.96V138.752C184.551 139.52 184.071 140 183.255 140ZM236.702 104.48H233.726C233.102 104.48 232.622 104.768 232.334 105.344L220.334 129.824L208.334 105.344C208.046 104.768 207.566 104.48 206.942 104.48H203.966C203.198 104.48 202.718 104.96 202.718 105.728V138.752C202.718 139.52 203.198 140 203.966 140H207.758C208.526 140 209.006 139.52 209.006 138.752V119.312L218.27 138.032C218.51 138.56 218.894 138.8 219.422 138.8H221.246C221.774 138.8 222.158 138.56 222.398 138.032L231.614 119.312V138.752C231.614 139.52 232.094 140 232.862 140H236.702C237.518 140 237.95 139.52 237.95 138.752V105.728C237.95 104.96 237.518 104.48 236.702 104.48ZM242.984 138.752V105.728C242.984 104.96 243.464 104.48 244.232 104.48H247.928C248.744 104.48 249.176 104.96 249.176 105.728V138.752C249.176 139.52 248.744 140 247.928 140H244.232C243.464 140 242.984 139.52 242.984 138.752ZM271.802 140H255.482C254.714 140 254.234 139.52 254.234 138.752V105.728C254.234 104.96 254.714 104.48 255.482 104.48H259.274C260.042 104.48 260.522 104.96 260.522 105.728V133.712H271.802C272.618 133.712 273.098 134.144 273.098 134.96V138.752C273.098 139.52 272.618 140 271.802 140ZM294.677 140H278.357C277.589 140 277.109 139.52 277.109 138.752V105.728C277.109 104.96 277.589 104.48 278.357 104.48H282.149C282.917 104.48 283.397 104.96 283.397 105.728V133.712H294.677C295.493 133.712 295.973 134.144 295.973 134.96V138.752C295.973 139.52 295.493 140 294.677 140ZM299.984 138.752V105.728C299.984 104.96 300.464 104.48 301.232 104.48H304.928C305.744 104.48 306.176 104.96 306.176 105.728V138.752C306.176 139.52 305.744 140 304.928 140H301.232C300.464 140 299.984 139.52 299.984 138.752ZM328.562 104.192C318.626 104.192 310.514 112.256 310.514 122.24C310.514 132.224 318.626 140.288 328.562 140.288C338.546 140.288 346.61 132.224 346.61 122.24C346.61 112.256 338.546 104.192 328.562 104.192ZM328.514 110.432C334.946 110.432 340.322 115.808 340.322 122.24C340.322 128.672 334.946 134 328.514 134C322.034 134 316.802 128.72 316.802 122.24C316.802 115.712 322.034 110.432 328.514 110.432ZM372.531 105.728V128.288L356.499 105.248C356.115 104.672 355.635 104.48 355.011 104.48H352.419C351.651 104.48 351.171 104.96 351.171 105.728V138.752C351.171 139.52 351.651 140 352.419 140H356.211C356.979 140 357.459 139.52 357.459 138.752V116.288L373.395 139.232C373.731 139.808 374.211 140 374.835 140H377.523C378.339 140 378.819 139.52 378.819 138.752V105.728C378.819 104.96 378.339 104.48 377.523 104.48H373.779C373.011 104.48 372.531 104.96 372.531 105.728ZM393.876 140.384C390.564 140.384 387.348 139.088 384.18 136.736C383.412 136.208 383.268 135.584 383.652 134.912L385.572 131.552C386.004 130.832 386.58 130.688 387.3 131.168C389.604 132.8 391.764 133.568 393.54 133.568C396.036 133.568 397.812 132.032 397.812 129.872C397.812 126.704 393.924 125.36 390.324 123.488C386.148 121.232 383.172 118.256 383.412 113.6C383.7 107.84 388.452 104 394.404 104.192C396.948 104.24 399.348 105.104 401.172 106.208C401.844 106.592 401.988 107.216 401.556 107.84L399.732 110.624C399.3 111.248 398.772 111.392 398.052 111.056C396.852 110.384 395.508 109.952 394.164 109.952C391.668 109.952 389.844 111.536 389.844 113.696C389.844 116.288 392.772 117.392 395.7 118.832C398.82 120.272 404.58 123.344 404.58 129.92C404.58 135.776 400.068 140.384 393.876 140.384Z" fill="url(#paint1_linear)"/>
<path d="M23.44 31.36C12.08 31.36 2.8 40.64 2.8 52C2.8 63.36 12.08 72.64 23.44 72.64C34.8 72.64 44.08 63.36 44.08 52C44.08 40.64 34.8 31.36 23.44 31.36ZM23.44 41.92C29.04 41.92 33.52 46.4 33.52 52C33.52 57.6 29.04 62.16 23.44 62.16C17.84 62.16 13.28 57.6 13.28 52C13.28 46.4 17.84 41.92 23.44 41.92ZM68.875 31.36C65.275 31.36 61.995 32.48 59.115 34.56V33.84C59.115 32.64 58.475 32 57.355 32H52.955C51.675 32 50.875 32.8 50.875 34.08V69.92C50.875 71.2 51.675 72 52.955 72H59.195C60.475 72 61.275 71.2 61.275 69.92V48.64C61.275 44.88 64.395 41.76 68.155 41.76C71.995 41.76 75.035 44.88 75.035 48.64V69.92C75.035 71.2 75.835 72 77.115 72H83.435C84.715 72 85.515 71.2 85.515 69.92V48.64C85.515 39.12 78.155 31.36 68.875 31.36ZM108.03 61.52H107.15C104.83 61.52 103.23 59.92 103.23 57.2V18.08C103.23 16.8 102.43 16 101.15 16H94.83C93.55 16 92.75 16.8 92.75 18.08V57.04C92.75 67.52 97.15 72 106.91 72H107.63C108.91 72 109.71 71.2 109.71 69.92V63.6C109.71 62.24 109.23 61.52 108.03 61.52ZM127.635 23.04C127.635 26.72 125.155 29.2 121.475 29.2C118.275 29.2 115.395 26.72 115.395 23.04C115.395 19.92 118.275 17.04 121.475 17.04C125.155 17.04 127.635 19.92 127.635 23.04ZM124.595 72H118.435C117.155 72 116.355 71.2 116.355 69.92V34.08C116.355 32.8 117.155 32 118.435 32H124.595C125.875 32 126.675 32.8 126.675 34.08V69.92C126.675 71.2 125.875 72 124.595 72ZM152.703 31.36C149.103 31.36 145.823 32.48 142.943 34.56V33.84C142.943 32.64 142.303 32 141.183 32H136.783C135.503 32 134.703 32.8 134.703 34.08V69.92C134.703 71.2 135.503 72 136.783 72H143.023C144.303 72 145.103 71.2 145.103 69.92V48.64C145.103 44.88 148.223 41.76 151.983 41.76C155.823 41.76 158.863 44.88 158.863 48.64V69.92C158.863 71.2 159.663 72 160.943 72H167.263C168.543 72 169.343 71.2 169.343 69.92V48.64C169.343 39.12 161.983 31.36 152.703 31.36ZM216.338 53.2C215.538 39.76 207.138 31.36 196.018 31.36C184.498 31.36 175.458 40.24 175.458 51.6C175.458 63.04 184.578 72.64 196.738 72.64C201.458 72.64 207.058 71.2 212.178 67.2C213.298 66.4 213.378 65.36 212.498 64.24L208.978 60.08C208.178 59.04 207.218 58.96 206.098 59.6C203.698 61.28 200.498 62.8 196.898 62.8C192.578 62.8 188.098 60.4 186.178 55.28H214.258C215.618 55.28 216.418 54.56 216.338 53.2ZM186.258 47.28C187.058 43.04 190.978 40 195.778 40C200.738 40 204.258 43.36 205.058 47.28H186.258ZM238.421 61.52H237.541C235.221 61.52 233.621 59.92 233.621 57.2V18.08C233.621 16.8 232.821 16 231.541 16H225.221C223.941 16 223.141 16.8 223.141 18.08V57.04C223.141 67.52 227.541 72 237.301 72H238.021C239.301 72 240.101 71.2 240.101 69.92V63.6C240.101 62.24 239.621 61.52 238.421 61.52ZM265.081 31.36C253.721 31.36 244.441 40.64 244.441 52C244.441 63.36 253.721 72.64 265.081 72.64C276.441 72.64 285.721 63.36 285.721 52C285.721 40.64 276.441 31.36 265.081 31.36ZM265.081 41.92C270.681 41.92 275.161 46.4 275.161 52C275.161 57.6 270.681 62.16 265.081 62.16C259.481 62.16 254.921 57.6 254.921 52C254.921 46.4 259.481 41.92 265.081 41.92ZM312.836 61.52H307.956C305.076 61.52 302.996 59.36 302.996 56.48V41.12H313.236C314.516 41.12 315.236 40.4 315.236 39.12V34C315.236 32.72 314.516 32 313.236 32H302.996V21.36C302.996 20.08 302.196 19.28 300.916 19.28H294.596C293.316 19.28 292.516 20.08 292.516 21.36V56.4C292.516 66.72 298.356 72 307.636 72H312.836C314.196 72 314.916 71.2 314.916 69.92V63.6C314.916 62.24 314.196 61.52 312.836 61.52ZM341.586 61.52H336.706C333.826 61.52 331.746 59.36 331.746 56.48V41.12H341.986C343.266 41.12 343.986 40.4 343.986 39.12V34C343.986 32.72 343.266 32 341.986 32H331.746V21.36C331.746 20.08 330.946 19.28 329.666 19.28H323.346C322.066 19.28 321.266 20.08 321.266 21.36V56.4C321.266 66.72 327.106 72 336.386 72H341.586C342.946 72 343.666 71.2 343.666 69.92V63.6C343.666 62.24 342.946 61.52 341.586 61.52ZM369.065 31.36C357.705 31.36 348.425 40.64 348.425 52C348.425 63.36 357.705 72.64 369.065 72.64C380.425 72.64 389.705 63.36 389.705 52C389.705 40.64 380.425 31.36 369.065 31.36ZM369.065 41.92C374.665 41.92 379.145 46.4 379.145 52C379.145 57.6 374.665 62.16 369.065 62.16C363.465 62.16 358.905 57.6 358.905 52C358.905 46.4 363.465 41.92 369.065 41.92Z" fill="#212121"/>
<path d="M406.58 66.4C406.58 69.44 404.02 72 400.9 72C397.86 72 395.3 69.44 395.3 66.4C395.3 63.28 397.86 60.8 400.9 60.8C404.02 60.8 406.58 63.28 406.58 66.4Z" fill="url(#paint2_linear)"/>
<defs>
<linearGradient id="paint0_linear" x1="0" y1="80" x2="409.947" y2="80.2692" gradientUnits="userSpaceOnUse">
<stop stop-color="#C71CB8"/>
<stop offset="1" stop-color="#FE139C"/>
</linearGradient>
<linearGradient id="paint1_linear" x1="410" y1="72" x2="77.1476" y2="287.925" gradientUnits="userSpaceOnUse">
<stop stop-color="#1BEE02"/>
<stop offset="1" stop-color="#00AD45"/>
</linearGradient>
<linearGradient id="paint2_linear" x1="0" y1="80" x2="409.947" y2="80.2692" gradientUnits="userSpaceOnUse">
<stop stop-color="#C71CB8"/>
<stop offset="1" stop-color="#FE139C"/>
</linearGradient>
</defs>
</svg>
