<svg width="410" height="231" viewBox="0 0 410 231" fill="none" xmlns="http://www.w3.org/2000/svg">
<g clip-path="url(#clip0)">
<path d="M23.44 62.36C12.08 62.36 2.8 71.64 2.8 83C2.8 94.36 12.08 103.64 23.44 103.64C34.8 103.64 44.08 94.36 44.08 83C44.08 71.64 34.8 62.36 23.44 62.36ZM23.44 72.92C29.04 72.92 33.52 77.4 33.52 83C33.52 88.6 29.04 93.16 23.44 93.16C17.84 93.16 13.28 88.6 13.28 83C13.28 77.4 17.84 72.92 23.44 72.92ZM68.875 62.36C65.275 62.36 61.995 63.48 59.115 65.56V64.84C59.115 63.64 58.475 63 57.355 63H52.955C51.675 63 50.875 63.8 50.875 65.08V100.92C50.875 102.2 51.675 103 52.955 103H59.195C60.475 103 61.275 102.2 61.275 100.92V79.64C61.275 75.88 64.395 72.76 68.155 72.76C71.995 72.76 75.035 75.88 75.035 79.64V100.92C75.035 102.2 75.835 103 77.115 103H83.435C84.715 103 85.515 102.2 85.515 100.92V79.64C85.515 70.12 78.155 62.36 68.875 62.36ZM108.03 92.52H107.15C104.83 92.52 103.23 90.92 103.23 88.2V49.08C103.23 47.8 102.43 47 101.15 47H94.83C93.55 47 92.75 47.8 92.75 49.08V88.04C92.75 98.52 97.15 103 106.91 103H107.63C108.91 103 109.71 102.2 109.71 100.92V94.6C109.71 93.24 109.23 92.52 108.03 92.52ZM127.635 54.04C127.635 57.72 125.155 60.2 121.475 60.2C118.275 60.2 115.395 57.72 115.395 54.04C115.395 50.92 118.275 48.04 121.475 48.04C125.155 48.04 127.635 50.92 127.635 54.04ZM124.595 103H118.435C117.155 103 116.355 102.2 116.355 100.92V65.08C116.355 63.8 117.155 63 118.435 63H124.595C125.875 63 126.675 63.8 126.675 65.08V100.92C126.675 102.2 125.875 103 124.595 103ZM152.703 62.36C149.103 62.36 145.823 63.48 142.943 65.56V64.84C142.943 63.64 142.303 63 141.183 63H136.783C135.503 63 134.703 63.8 134.703 65.08V100.92C134.703 102.2 135.503 103 136.783 103H143.023C144.303 103 145.103 102.2 145.103 100.92V79.64C145.103 75.88 148.223 72.76 151.983 72.76C155.823 72.76 158.863 75.88 158.863 79.64V100.92C158.863 102.2 159.663 103 160.943 103H167.263C168.543 103 169.343 102.2 169.343 100.92V79.64C169.343 70.12 161.983 62.36 152.703 62.36ZM216.338 84.2C215.538 70.76 207.138 62.36 196.018 62.36C184.498 62.36 175.458 71.24 175.458 82.6C175.458 94.04 184.578 103.64 196.738 103.64C201.458 103.64 207.058 102.2 212.178 98.2C213.298 97.4 213.378 96.36 212.498 95.24L208.978 91.08C208.178 90.04 207.218 89.96 206.098 90.6C203.698 92.28 200.498 93.8 196.898 93.8C192.578 93.8 188.098 91.4 186.178 86.28H214.258C215.618 86.28 216.418 85.56 216.338 84.2ZM186.258 78.28C187.058 74.04 190.978 71 195.778 71C200.738 71 204.258 74.36 205.058 78.28H186.258ZM238.421 92.52H237.541C235.221 92.52 233.621 90.92 233.621 88.2V49.08C233.621 47.8 232.821 47 231.541 47H225.221C223.941 47 223.141 47.8 223.141 49.08V88.04C223.141 98.52 227.541 103 237.301 103H238.021C239.301 103 240.101 102.2 240.101 100.92V94.6C240.101 93.24 239.621 92.52 238.421 92.52ZM265.081 62.36C253.721 62.36 244.441 71.64 244.441 83C244.441 94.36 253.721 103.64 265.081 103.64C276.441 103.64 285.721 94.36 285.721 83C285.721 71.64 276.441 62.36 265.081 62.36ZM265.081 72.92C270.681 72.92 275.161 77.4 275.161 83C275.161 88.6 270.681 93.16 265.081 93.16C259.481 93.16 254.921 88.6 254.921 83C254.921 77.4 259.481 72.92 265.081 72.92ZM312.836 92.52H307.956C305.076 92.52 302.996 90.36 302.996 87.48V72.12H313.236C314.516 72.12 315.236 71.4 315.236 70.12V65C315.236 63.72 314.516 63 313.236 63H302.996V52.36C302.996 51.08 302.196 50.28 300.916 50.28H294.596C293.316 50.28 292.516 51.08 292.516 52.36V87.4C292.516 97.72 298.356 103 307.636 103H312.836C314.196 103 314.916 102.2 314.916 100.92V94.6C314.916 93.24 314.196 92.52 312.836 92.52ZM341.586 92.52H336.706C333.826 92.52 331.746 90.36 331.746 87.48V72.12H341.986C343.266 72.12 343.986 71.4 343.986 70.12V65C343.986 63.72 343.266 63 341.986 63H331.746V52.36C331.746 51.08 330.946 50.28 329.666 50.28H323.346C322.066 50.28 321.266 51.08 321.266 52.36V87.4C321.266 97.72 327.106 103 336.386 103H341.586C342.946 103 343.666 102.2 343.666 100.92V94.6C343.666 93.24 342.946 92.52 341.586 92.52ZM369.065 62.36C357.705 62.36 348.425 71.64 348.425 83C348.425 94.36 357.705 103.64 369.065 103.64C380.425 103.64 389.705 94.36 389.705 83C389.705 71.64 380.425 62.36 369.065 62.36ZM369.065 72.92C374.665 72.92 379.145 77.4 379.145 83C379.145 88.6 374.665 93.16 369.065 93.16C363.465 93.16 358.905 88.6 358.905 83C358.905 77.4 363.465 72.92 369.065 72.92Z" fill="#212121"/>
<path d="M406.58 97.4C406.58 100.44 404.02 103 400.9 103C397.86 103 395.3 100.44 395.3 97.4C395.3 94.28 397.86 91.8 400.9 91.8C404.02 91.8 406.58 94.28 406.58 97.4Z" fill="url(#paint0_linear)"/>
<path d="M18.7123 120.742L18.6153 171.182C18.6153 174.674 15.8023 177.39 12.4073 177.39H7.26626C5.71426 177.39 4.74426 178.263 4.74426 179.912V187.478C4.74426 189.03 5.71426 190 7.26626 190H12.5043C24.6293 190 31.3223 183.113 31.3223 171.085V120.742C31.3223 119.19 30.3523 118.22 28.8003 118.22H21.2343C19.6823 118.22 18.7123 119.093 18.7123 120.742ZM103.669 187.187L76.6061 120.063C76.1211 118.802 75.1511 118.22 73.7931 118.22H67.7791C66.4211 118.22 65.4511 118.802 64.9661 120.063L38.2911 187.187C37.7091 188.933 38.3881 190 40.2311 190H48.9611C50.4161 190 51.2891 189.418 51.7741 188.06L56.2361 177.099H85.8211L90.1861 188.06C90.6711 189.321 91.6411 189.903 92.9991 189.903L101.729 190C103.572 190 104.348 188.933 103.669 187.187ZM61.2801 164.392L71.0771 139.851L80.7771 164.392H61.2801ZM141.236 190.582C121.06 190.582 104.764 174.189 104.764 154.11C104.764 134.031 121.157 117.638 141.042 117.638C150.451 117.638 158.793 121.227 165.971 127.92C167.232 128.987 167.232 130.151 166.262 131.509L161.897 136.844C160.83 138.105 159.569 138.202 158.308 137.135C153.264 133.061 147.735 130.345 141.139 130.345C128.141 130.345 117.374 141.015 117.374 154.11C117.374 167.205 128.141 177.875 141.139 177.875C147.444 177.875 153.361 175.45 158.308 171.376C159.569 170.212 160.83 170.309 161.8 171.667L166.359 177.584C167.329 178.845 167.232 180.009 165.971 181.076C159.278 186.993 150.645 190.582 141.236 190.582ZM224.512 187.09L200.65 148.193L220.535 121.227C221.796 119.481 221.117 118.22 219.08 118.22H209.962C208.701 118.22 207.828 118.705 207.052 119.772L189.98 142.664V120.742C189.98 119.19 189.107 118.22 187.458 118.22H179.892C178.34 118.22 177.37 119.19 177.37 120.742V187.478C177.37 189.03 178.34 190 179.892 190H187.458C189.107 190 189.98 189.03 189.98 187.478V162.549L192.405 159.348L209.962 188.254C210.641 189.515 211.611 190 212.969 190H222.863C224.803 190 225.579 188.739 224.512 187.09ZM257.08 118.22H237.486C235.934 118.22 234.964 119.19 234.964 120.742V187.478C234.964 189.03 235.934 190 237.486 190H245.149C246.701 190 247.671 189.03 247.671 187.478V161.482H257.08C269.108 161.482 278.808 151.685 278.808 139.754C278.808 127.92 269.108 118.22 257.08 118.22ZM257.08 148.678H247.671V130.927H257.08C262.124 130.927 266.004 134.904 266.004 139.754C266.004 144.798 262.124 148.678 257.08 148.678ZM321.607 117.638C301.528 117.638 285.135 133.934 285.135 154.11C285.135 174.286 301.528 190.582 321.607 190.582C341.783 190.582 358.079 174.286 358.079 154.11C358.079 133.934 341.783 117.638 321.607 117.638ZM321.51 130.248C334.508 130.248 345.372 141.112 345.372 154.11C345.372 167.108 334.508 177.875 321.51 177.875C308.415 177.875 297.842 167.205 297.842 154.11C297.842 140.918 308.415 130.248 321.51 130.248ZM404.227 118.22H364.457C362.905 118.22 361.935 119.19 361.935 120.742V128.405C361.935 130.054 362.905 130.927 364.457 130.927H378.037V187.478C378.037 189.03 378.91 190 380.559 190H388.125C389.774 190 390.647 189.03 390.647 187.478V130.927H404.227C405.876 130.927 406.749 130.054 406.749 128.405V120.742C406.749 119.19 405.876 118.22 404.227 118.22Z" fill="url(#paint1_linear)"/>
<path d="M145.427 194.5V207.95H134.777V194.5C134.777 193.55 134.227 193 133.227 193H128.277C127.327 193 126.777 193.55 126.777 194.5V228.5C126.777 229.45 127.327 230 128.277 230H133.227C134.227 230 134.777 229.45 134.777 228.5V215.05H145.427V228.5C145.427 229.45 145.977 230 146.977 230H151.927C152.877 230 153.427 229.45 153.427 228.5V194.5C153.427 193.55 152.877 193 151.927 193H146.977C145.977 193 145.427 193.55 145.427 194.5ZM186.224 192.7C175.874 192.7 167.424 201.1 167.424 211.5C167.424 221.9 175.874 230.3 186.224 230.3C196.624 230.3 205.024 221.9 205.024 211.5C205.024 201.1 196.624 192.7 186.224 192.7ZM186.174 200.75C191.974 200.75 196.924 205.65 196.924 211.5C196.924 217.35 191.974 222.25 186.174 222.25C180.224 222.25 175.524 217.45 175.524 211.5C175.524 205.55 180.224 200.75 186.174 200.75ZM231.588 230.3C224.788 230.3 219.238 224.75 219.238 217.95V194.5C219.238 193.55 219.788 193 220.738 193H225.738C226.738 193 227.288 193.55 227.288 194.5V217.95C227.288 220.3 229.188 222.2 231.588 222.2C233.988 222.2 235.938 220.3 235.938 217.95V194.5C235.938 193.55 236.488 193 237.438 193H242.438C243.388 193 243.988 193.55 243.988 194.5V217.95C243.988 224.75 238.388 230.3 231.588 230.3ZM283.982 228.2L275.982 214.55C279.532 212.6 281.932 208.8 281.932 204.45C281.932 198.15 276.782 193 270.432 193H260.182C259.232 193 258.682 193.55 258.682 194.5V228.5C258.682 229.45 259.232 230 260.182 230H265.232C266.232 230 266.782 229.45 266.782 228.5V216H267.882L275.232 228.95C275.632 229.7 276.232 230 277.082 230H282.932C284.182 230 284.632 229.2 283.982 228.2ZM266.782 201.1H270.432C272.332 201.1 273.882 202.6 273.882 204.45C273.882 206.45 272.332 207.9 270.432 207.9H266.782V201.1Z" fill="url(#paint2_linear)"/>
</g>
<defs>
<linearGradient id="paint0_linear" x1="0" y1="111" x2="409.947" y2="111.269" gradientUnits="userSpaceOnUse">
<stop stop-color="#C71CB8"/>
<stop offset="1" stop-color="#FE139C"/>
</linearGradient>
<linearGradient id="paint1_linear" x1="410" y1="103" x2="108.943" y2="338.984" gradientUnits="userSpaceOnUse">
<stop stop-color="#FFB300"/>
<stop offset="1" stop-color="#F57C00"/>
</linearGradient>
<linearGradient id="paint2_linear" x1="286" y1="186" x2="148.012" y2="272.365" gradientUnits="userSpaceOnUse">
<stop stop-color="#FFB300"/>
<stop offset="1" stop-color="#F57C00"/>
</linearGradient>
<clipPath id="clip0">
<rect width="410" height="230.63" fill="white"/>
</clipPath>
</defs>
</svg>
