<svg width="410" height="169" viewBox="0 0 410 169" fill="none" xmlns="http://www.w3.org/2000/svg">
<path d="M23.44 31.36C12.08 31.36 2.8 40.64 2.8 52C2.8 63.36 12.08 72.64 23.44 72.64C34.8 72.64 44.08 63.36 44.08 52C44.08 40.64 34.8 31.36 23.44 31.36ZM23.44 41.92C29.04 41.92 33.52 46.4 33.52 52C33.52 57.6 29.04 62.16 23.44 62.16C17.84 62.16 13.28 57.6 13.28 52C13.28 46.4 17.84 41.92 23.44 41.92ZM68.875 31.36C65.275 31.36 61.995 32.48 59.115 34.56V33.84C59.115 32.64 58.475 32 57.355 32H52.955C51.675 32 50.875 32.8 50.875 34.08V69.92C50.875 71.2 51.675 72 52.955 72H59.195C60.475 72 61.275 71.2 61.275 69.92V48.64C61.275 44.88 64.395 41.76 68.155 41.76C71.995 41.76 75.035 44.88 75.035 48.64V69.92C75.035 71.2 75.835 72 77.115 72H83.435C84.715 72 85.515 71.2 85.515 69.92V48.64C85.515 39.12 78.155 31.36 68.875 31.36ZM108.03 61.52H107.15C104.83 61.52 103.23 59.92 103.23 57.2V18.08C103.23 16.8 102.43 16 101.15 16H94.83C93.55 16 92.75 16.8 92.75 18.08V57.04C92.75 67.52 97.15 72 106.91 72H107.63C108.91 72 109.71 71.2 109.71 69.92V63.6C109.71 62.24 109.23 61.52 108.03 61.52ZM127.635 23.04C127.635 26.72 125.155 29.2 121.475 29.2C118.275 29.2 115.395 26.72 115.395 23.04C115.395 19.92 118.275 17.04 121.475 17.04C125.155 17.04 127.635 19.92 127.635 23.04ZM124.595 72H118.435C117.155 72 116.355 71.2 116.355 69.92V34.08C116.355 32.8 117.155 32 118.435 32H124.595C125.875 32 126.675 32.8 126.675 34.08V69.92C126.675 71.2 125.875 72 124.595 72ZM152.703 31.36C149.103 31.36 145.823 32.48 142.943 34.56V33.84C142.943 32.64 142.303 32 141.183 32H136.783C135.503 32 134.703 32.8 134.703 34.08V69.92C134.703 71.2 135.503 72 136.783 72H143.023C144.303 72 145.103 71.2 145.103 69.92V48.64C145.103 44.88 148.223 41.76 151.983 41.76C155.823 41.76 158.863 44.88 158.863 48.64V69.92C158.863 71.2 159.663 72 160.943 72H167.263C168.543 72 169.343 71.2 169.343 69.92V48.64C169.343 39.12 161.983 31.36 152.703 31.36ZM216.338 53.2C215.538 39.76 207.138 31.36 196.018 31.36C184.498 31.36 175.458 40.24 175.458 51.6C175.458 63.04 184.578 72.64 196.738 72.64C201.458 72.64 207.058 71.2 212.178 67.2C213.298 66.4 213.378 65.36 212.498 64.24L208.978 60.08C208.178 59.04 207.218 58.96 206.098 59.6C203.698 61.28 200.498 62.8 196.898 62.8C192.578 62.8 188.098 60.4 186.178 55.28H214.258C215.618 55.28 216.418 54.56 216.338 53.2ZM186.258 47.28C187.058 43.04 190.978 40 195.778 40C200.738 40 204.258 43.36 205.058 47.28H186.258ZM238.421 61.52H237.541C235.221 61.52 233.621 59.92 233.621 57.2V18.08C233.621 16.8 232.821 16 231.541 16H225.221C223.941 16 223.141 16.8 223.141 18.08V57.04C223.141 67.52 227.541 72 237.301 72H238.021C239.301 72 240.101 71.2 240.101 69.92V63.6C240.101 62.24 239.621 61.52 238.421 61.52ZM265.081 31.36C253.721 31.36 244.441 40.64 244.441 52C244.441 63.36 253.721 72.64 265.081 72.64C276.441 72.64 285.721 63.36 285.721 52C285.721 40.64 276.441 31.36 265.081 31.36ZM265.081 41.92C270.681 41.92 275.161 46.4 275.161 52C275.161 57.6 270.681 62.16 265.081 62.16C259.481 62.16 254.921 57.6 254.921 52C254.921 46.4 259.481 41.92 265.081 41.92ZM312.836 61.52H307.956C305.076 61.52 302.996 59.36 302.996 56.48V41.12H313.236C314.516 41.12 315.236 40.4 315.236 39.12V34C315.236 32.72 314.516 32 313.236 32H302.996V21.36C302.996 20.08 302.196 19.28 300.916 19.28H294.596C293.316 19.28 292.516 20.08 292.516 21.36V56.4C292.516 66.72 298.356 72 307.636 72H312.836C314.196 72 314.916 71.2 314.916 69.92V63.6C314.916 62.24 314.196 61.52 312.836 61.52ZM341.586 61.52H336.706C333.826 61.52 331.746 59.36 331.746 56.48V41.12H341.986C343.266 41.12 343.986 40.4 343.986 39.12V34C343.986 32.72 343.266 32 341.986 32H331.746V21.36C331.746 20.08 330.946 19.28 329.666 19.28H323.346C322.066 19.28 321.266 20.08 321.266 21.36V56.4C321.266 66.72 327.106 72 336.386 72H341.586C342.946 72 343.666 71.2 343.666 69.92V63.6C343.666 62.24 342.946 61.52 341.586 61.52ZM369.065 31.36C357.705 31.36 348.425 40.64 348.425 52C348.425 63.36 357.705 72.64 369.065 72.64C380.425 72.64 389.705 63.36 389.705 52C389.705 40.64 380.425 31.36 369.065 31.36ZM369.065 41.92C374.665 41.92 379.145 46.4 379.145 52C379.145 57.6 374.665 62.16 369.065 62.16C363.465 62.16 358.905 57.6 358.905 52C358.905 46.4 363.465 41.92 369.065 41.92Z" fill="#212121"/>
<path d="M406.58 66.4C406.58 69.44 404.02 72 400.9 72C397.86 72 395.3 69.44 395.3 66.4C395.3 63.28 397.86 60.8 400.9 60.8C404.02 60.8 406.58 63.28 406.58 66.4Z" fill="url(#paint0_linear)"/>
<path d="M112.768 89.314V135.844L79.7016 88.324C78.9096 87.136 77.9196 86.74 76.6326 86.74H71.2866C69.7026 86.74 68.7126 87.73 68.7126 89.314V157.426C68.7126 159.01 69.7026 160 71.2866 160H79.1076C80.6916 160 81.6816 159.01 81.6816 157.426V111.094L114.55 158.416C115.243 159.604 116.233 160 117.52 160H123.064C124.747 160 125.737 159.01 125.737 157.426V89.314C125.737 87.73 124.747 86.74 123.064 86.74H115.342C113.758 86.74 112.768 87.73 112.768 89.314ZM136.002 157.426V89.314C136.002 87.73 136.992 86.74 138.576 86.74H146.199C147.882 86.74 148.773 87.73 148.773 89.314V157.426C148.773 159.01 147.882 160 146.199 160H138.576C136.992 160 136.002 159.01 136.002 157.426ZM227.713 118.123H191.479C189.994 118.123 189.004 119.014 189.004 120.598V127.033C189.004 128.617 189.994 129.508 191.479 129.508H216.427C214.15 139.903 205.141 147.625 194.053 147.625C180.985 147.625 170.689 137.131 170.689 123.37C170.689 110.005 181.579 99.115 194.845 99.115C201.28 99.115 206.824 101.887 211.873 106.045C213.16 107.134 214.546 107.035 215.536 105.748L219.991 100.303C221.08 99.016 221.08 97.729 219.793 96.541C212.467 89.809 204.151 86.146 194.845 86.146C174.352 86.146 157.72 102.877 157.72 123.37C157.72 143.764 173.164 160.594 194.053 160.594C213.655 160.594 229.495 145.051 230.287 124.954V120.697C230.287 119.113 229.396 118.123 227.713 118.123ZM277.743 89.314V117.628H253.092V89.314C253.092 87.73 252.102 86.74 250.518 86.74H242.796C241.212 86.74 240.222 87.73 240.222 89.314V157.426C240.222 159.01 241.212 160 242.796 160H250.518C252.102 160 253.092 159.01 253.092 157.426V129.112H277.743V157.426C277.743 159.01 278.733 160 280.317 160H288.039C289.623 160 290.613 159.01 290.613 157.426V89.314C290.613 87.73 289.623 86.74 288.039 86.74H280.317C278.733 86.74 277.743 87.73 277.743 89.314ZM341.723 86.74H301.133C299.549 86.74 298.559 87.73 298.559 89.314V97.135C298.559 98.818 299.549 99.709 301.133 99.709H314.993V157.426C314.993 159.01 315.884 160 317.567 160H325.289C326.972 160 327.863 159.01 327.863 157.426V99.709H341.723C343.406 99.709 344.297 98.818 344.297 97.135V89.314C344.297 87.73 343.406 86.74 341.723 86.74Z" fill="url(#paint1_linear)"/>
<defs>
<linearGradient id="paint0_linear" x1="0" y1="80" x2="409.947" y2="80.2692" gradientUnits="userSpaceOnUse">
<stop stop-color="#C71CB8"/>
<stop offset="1" stop-color="#FE139C"/>
</linearGradient>
<linearGradient id="paint1_linear" x1="4.13651e-06" y1="160" x2="410" y2="72" gradientUnits="userSpaceOnUse">
<stop stop-color="#02000E"/>
<stop offset="0.997615" stop-color="#0D4B9B"/>
</linearGradient>
</defs>
</svg>
