<svg width="410" height="169" viewBox="0 0 410 169" fill="none" xmlns="http://www.w3.org/2000/svg">
<path d="M23.44 31.36C12.08 31.36 2.8 40.64 2.8 52C2.8 63.36 12.08 72.64 23.44 72.64C34.8 72.64 44.08 63.36 44.08 52C44.08 40.64 34.8 31.36 23.44 31.36ZM23.44 41.92C29.04 41.92 33.52 46.4 33.52 52C33.52 57.6 29.04 62.16 23.44 62.16C17.84 62.16 13.28 57.6 13.28 52C13.28 46.4 17.84 41.92 23.44 41.92ZM68.875 31.36C65.275 31.36 61.995 32.48 59.115 34.56V33.84C59.115 32.64 58.475 32 57.355 32H52.955C51.675 32 50.875 32.8 50.875 34.08V69.92C50.875 71.2 51.675 72 52.955 72H59.195C60.475 72 61.275 71.2 61.275 69.92V48.64C61.275 44.88 64.395 41.76 68.155 41.76C71.995 41.76 75.035 44.88 75.035 48.64V69.92C75.035 71.2 75.835 72 77.115 72H83.435C84.715 72 85.515 71.2 85.515 69.92V48.64C85.515 39.12 78.155 31.36 68.875 31.36ZM108.03 61.52H107.15C104.83 61.52 103.23 59.92 103.23 57.2V18.08C103.23 16.8 102.43 16 101.15 16H94.83C93.55 16 92.75 16.8 92.75 18.08V57.04C92.75 67.52 97.15 72 106.91 72H107.63C108.91 72 109.71 71.2 109.71 69.92V63.6C109.71 62.24 109.23 61.52 108.03 61.52ZM127.635 23.04C127.635 26.72 125.155 29.2 121.475 29.2C118.275 29.2 115.395 26.72 115.395 23.04C115.395 19.92 118.275 17.04 121.475 17.04C125.155 17.04 127.635 19.92 127.635 23.04ZM124.595 72H118.435C117.155 72 116.355 71.2 116.355 69.92V34.08C116.355 32.8 117.155 32 118.435 32H124.595C125.875 32 126.675 32.8 126.675 34.08V69.92C126.675 71.2 125.875 72 124.595 72ZM152.703 31.36C149.103 31.36 145.823 32.48 142.943 34.56V33.84C142.943 32.64 142.303 32 141.183 32H136.783C135.503 32 134.703 32.8 134.703 34.08V69.92C134.703 71.2 135.503 72 136.783 72H143.023C144.303 72 145.103 71.2 145.103 69.92V48.64C145.103 44.88 148.223 41.76 151.983 41.76C155.823 41.76 158.863 44.88 158.863 48.64V69.92C158.863 71.2 159.663 72 160.943 72H167.263C168.543 72 169.343 71.2 169.343 69.92V48.64C169.343 39.12 161.983 31.36 152.703 31.36ZM216.338 53.2C215.538 39.76 207.138 31.36 196.018 31.36C184.498 31.36 175.458 40.24 175.458 51.6C175.458 63.04 184.578 72.64 196.738 72.64C201.458 72.64 207.058 71.2 212.178 67.2C213.298 66.4 213.378 65.36 212.498 64.24L208.978 60.08C208.178 59.04 207.218 58.96 206.098 59.6C203.698 61.28 200.498 62.8 196.898 62.8C192.578 62.8 188.098 60.4 186.178 55.28H214.258C215.618 55.28 216.418 54.56 216.338 53.2ZM186.258 47.28C187.058 43.04 190.978 40 195.778 40C200.738 40 204.258 43.36 205.058 47.28H186.258ZM238.421 61.52H237.541C235.221 61.52 233.621 59.92 233.621 57.2V18.08C233.621 16.8 232.821 16 231.541 16H225.221C223.941 16 223.141 16.8 223.141 18.08V57.04C223.141 67.52 227.541 72 237.301 72H238.021C239.301 72 240.101 71.2 240.101 69.92V63.6C240.101 62.24 239.621 61.52 238.421 61.52ZM265.081 31.36C253.721 31.36 244.441 40.64 244.441 52C244.441 63.36 253.721 72.64 265.081 72.64C276.441 72.64 285.721 63.36 285.721 52C285.721 40.64 276.441 31.36 265.081 31.36ZM265.081 41.92C270.681 41.92 275.161 46.4 275.161 52C275.161 57.6 270.681 62.16 265.081 62.16C259.481 62.16 254.921 57.6 254.921 52C254.921 46.4 259.481 41.92 265.081 41.92ZM312.836 61.52H307.956C305.076 61.52 302.996 59.36 302.996 56.48V41.12H313.236C314.516 41.12 315.236 40.4 315.236 39.12V34C315.236 32.72 314.516 32 313.236 32H302.996V21.36C302.996 20.08 302.196 19.28 300.916 19.28H294.596C293.316 19.28 292.516 20.08 292.516 21.36V56.4C292.516 66.72 298.356 72 307.636 72H312.836C314.196 72 314.916 71.2 314.916 69.92V63.6C314.916 62.24 314.196 61.52 312.836 61.52ZM341.586 61.52H336.706C333.826 61.52 331.746 59.36 331.746 56.48V41.12H341.986C343.266 41.12 343.986 40.4 343.986 39.12V34C343.986 32.72 343.266 32 341.986 32H331.746V21.36C331.746 20.08 330.946 19.28 329.666 19.28H323.346C322.066 19.28 321.266 20.08 321.266 21.36V56.4C321.266 66.72 327.106 72 336.386 72H341.586C342.946 72 343.666 71.2 343.666 69.92V63.6C343.666 62.24 342.946 61.52 341.586 61.52ZM369.065 31.36C357.705 31.36 348.425 40.64 348.425 52C348.425 63.36 357.705 72.64 369.065 72.64C380.425 72.64 389.705 63.36 389.705 52C389.705 40.64 380.425 31.36 369.065 31.36ZM369.065 41.92C374.665 41.92 379.145 46.4 379.145 52C379.145 57.6 374.665 62.16 369.065 62.16C363.465 62.16 358.905 57.6 358.905 52C358.905 46.4 363.465 41.92 369.065 41.92Z" fill="#212121"/>
<path d="M406.58 66.4C406.58 69.44 404.02 72 400.9 72C397.86 72 395.3 69.44 395.3 66.4C395.3 63.28 397.86 60.8 400.9 60.8C404.02 60.8 406.58 63.28 406.58 66.4Z" fill="url(#paint0_linear)"/>
<path d="M43.8361 147.031H18.8881V129.013H42.0541C43.6381 129.013 44.6281 128.122 44.6281 126.538V120.103C44.6281 118.519 43.6381 117.628 42.0541 117.628H18.8881V99.709H43.8361C45.4201 99.709 46.4101 98.818 46.4101 97.135V89.314C46.4101 87.73 45.4201 86.74 43.8361 86.74H8.49312C6.90912 86.74 5.91912 87.73 5.91912 89.314V157.426C5.91912 159.01 6.90912 160 8.49312 160H43.8361C45.4201 160 46.4101 159.01 46.4101 157.426V149.605C46.4101 147.922 45.4201 147.031 43.8361 147.031ZM114.402 86.74H105.492C104.106 86.74 103.215 87.334 102.72 88.72L85.8902 136.042L68.9612 88.72C68.4662 87.334 67.5752 86.74 66.0902 86.74H57.3782C55.4972 86.74 54.8042 87.829 55.3982 89.611L80.3462 158.02C80.8412 159.406 81.8312 160 83.2172 160H88.5632C89.9492 160 90.9392 159.406 91.4342 158.02L116.382 89.611C116.976 87.829 116.184 86.74 114.402 86.74ZM163.719 147.031H138.771V129.013H161.937C163.521 129.013 164.511 128.122 164.511 126.538V120.103C164.511 118.519 163.521 117.628 161.937 117.628H138.771V99.709H163.719C165.303 99.709 166.293 98.818 166.293 97.135V89.314C166.293 87.73 165.303 86.74 163.719 86.74H128.376C126.792 86.74 125.802 87.73 125.802 89.314V157.426C125.802 159.01 126.792 160 128.376 160H163.719C165.303 160 166.293 159.01 166.293 157.426V149.605C166.293 147.922 165.303 147.031 163.719 147.031ZM220.227 89.314V135.844L187.161 88.324C186.369 87.136 185.379 86.74 184.092 86.74H178.746C177.162 86.74 176.172 87.73 176.172 89.314V157.426C176.172 159.01 177.162 160 178.746 160H186.567C188.151 160 189.141 159.01 189.141 157.426V111.094L222.009 158.416C222.702 159.604 223.692 160 224.979 160H230.523C232.206 160 233.196 159.01 233.196 157.426V89.314C233.196 87.73 232.206 86.74 230.523 86.74H222.801C221.217 86.74 220.227 87.73 220.227 89.314ZM243.461 157.426V89.314C243.461 87.73 244.451 86.74 246.035 86.74H253.658C255.341 86.74 256.232 87.73 256.232 89.314V157.426C256.232 159.01 255.341 160 253.658 160H246.035C244.451 160 243.461 159.01 243.461 157.426ZM310.719 89.314V135.844L277.653 88.324C276.861 87.136 275.871 86.74 274.584 86.74H269.238C267.654 86.74 266.664 87.73 266.664 89.314V157.426C266.664 159.01 267.654 160 269.238 160H277.059C278.643 160 279.633 159.01 279.633 157.426V111.094L312.501 158.416C313.194 159.604 314.184 160 315.471 160H321.015C322.698 160 323.688 159.01 323.688 157.426V89.314C323.688 87.73 322.698 86.74 321.015 86.74H313.293C311.709 86.74 310.719 87.73 310.719 89.314ZM402.461 118.123H366.227C364.742 118.123 363.752 119.014 363.752 120.598V127.033C363.752 128.617 364.742 129.508 366.227 129.508H391.175C388.898 139.903 379.889 147.625 368.801 147.625C355.733 147.625 345.437 137.131 345.437 123.37C345.437 110.005 356.327 99.115 369.593 99.115C376.028 99.115 381.572 101.887 386.621 106.045C387.908 107.134 389.294 107.035 390.284 105.748L394.739 100.303C395.828 99.016 395.828 97.729 394.541 96.541C387.215 89.809 378.899 86.146 369.593 86.146C349.1 86.146 332.468 102.877 332.468 123.37C332.468 143.764 347.912 160.594 368.801 160.594C388.403 160.594 404.243 145.051 405.035 124.954V120.697C405.035 119.113 404.144 118.123 402.461 118.123Z" fill="url(#paint1_linear)"/>
<defs>
<linearGradient id="paint0_linear" x1="0" y1="80" x2="409.947" y2="80.2692" gradientUnits="userSpaceOnUse">
<stop stop-color="#C71CB8"/>
<stop offset="1" stop-color="#FE139C"/>
</linearGradient>
<linearGradient id="paint1_linear" x1="4.13651e-06" y1="160" x2="410" y2="72" gradientUnits="userSpaceOnUse">
<stop stop-color="#CA243E"/>
<stop offset="0.997615" stop-color="#FFBA45"/>
</linearGradient>
</defs>
</svg>
