<svg width="384" height="158" viewBox="0 0 384 158" fill="none" xmlns="http://www.w3.org/2000/svg">
<path d="M21.9143 29.0052C11.2937 29.0052 2.61775 37.6812 2.61775 48.3018C2.61775 58.9224 11.2937 67.5983 21.9143 67.5983C32.5349 67.5983 41.2109 58.9224 41.2109 48.3018C41.2109 37.6812 32.5349 29.0052 21.9143 29.0052ZM21.9143 38.8779C27.1498 38.8779 31.3382 43.0663 31.3382 48.3018C31.3382 53.5373 27.1498 57.8005 21.9143 57.8005C16.6788 57.8005 12.4156 53.5373 12.4156 48.3018C12.4156 43.0663 16.6788 38.8779 21.9143 38.8779ZM64.392 29.0052C61.0263 29.0052 57.9598 30.0523 55.2673 31.9969V31.3238C55.2673 30.2019 54.6689 29.6035 53.6218 29.6035H49.5082C48.3115 29.6035 47.5636 30.3515 47.5636 31.5482V65.0554C47.5636 66.2521 48.3115 67 49.5082 67H55.3421C56.5388 67 57.2867 66.2521 57.2867 65.0554V45.1605C57.2867 41.6452 60.2036 38.7283 63.7189 38.7283C67.3089 38.7283 70.1511 41.6452 70.1511 45.1605V65.0554C70.1511 66.2521 70.899 67 72.0957 67H78.0043C79.201 67 79.9489 66.2521 79.9489 65.0554V45.1605C79.9489 36.2601 73.068 29.0052 64.392 29.0052ZM100.998 57.2021H100.176C98.0067 57.2021 96.5109 55.7063 96.5109 53.1633V16.5896C96.5109 15.3929 95.763 14.645 94.5663 14.645H88.6576C87.4609 14.645 86.713 15.3929 86.713 16.5896V53.0137C86.713 62.8116 90.8266 67 99.9514 67H100.624C101.821 67 102.569 66.2521 102.569 65.0554V59.1467C102.569 57.8753 102.12 57.2021 100.998 57.2021ZM119.327 21.2267C119.327 24.6672 117.009 26.9858 113.568 26.9858C110.577 26.9858 107.884 24.6672 107.884 21.2267C107.884 18.3098 110.577 15.6173 113.568 15.6173C117.009 15.6173 119.327 18.3098 119.327 21.2267ZM116.485 67H110.726C109.53 67 108.782 66.2521 108.782 65.0554V31.5482C108.782 30.3515 109.53 29.6035 110.726 29.6035H116.485C117.682 29.6035 118.43 30.3515 118.43 31.5482V65.0554C118.43 66.2521 117.682 67 116.485 67ZM142.764 29.0052C139.398 29.0052 136.332 30.0523 133.639 31.9969V31.3238C133.639 30.2019 133.041 29.6035 131.994 29.6035H127.88C126.683 29.6035 125.935 30.3515 125.935 31.5482V65.0554C125.935 66.2521 126.683 67 127.88 67H133.714C134.911 67 135.659 66.2521 135.659 65.0554V45.1605C135.659 41.6452 138.575 38.7283 142.091 38.7283C145.681 38.7283 148.523 41.6452 148.523 45.1605V65.0554C148.523 66.2521 149.271 67 150.468 67H156.376C157.573 67 158.321 66.2521 158.321 65.0554V45.1605C158.321 36.2601 151.44 29.0052 142.764 29.0052ZM202.257 49.4237C201.509 36.8585 193.656 29.0052 183.26 29.0052C172.489 29.0052 164.038 37.3072 164.038 47.9278C164.038 58.6232 172.564 67.5983 183.933 67.5983C188.345 67.5983 193.581 66.2521 198.368 62.5124C199.415 61.7645 199.49 60.7922 198.667 59.7451L195.376 55.8559C194.628 54.8836 193.731 54.8088 192.683 55.4071C190.44 56.9778 187.448 58.3988 184.082 58.3988C180.043 58.3988 175.855 56.155 174.06 51.3683H200.312C201.584 51.3683 202.332 50.6951 202.257 49.4237ZM174.135 43.889C174.883 39.925 178.548 37.0828 183.035 37.0828C187.672 37.0828 190.963 40.2241 191.711 43.889H174.135ZM222.902 57.2021H222.079C219.91 57.2021 218.415 55.7063 218.415 53.1633V16.5896C218.415 15.3929 217.667 14.645 216.47 14.645H210.561C209.365 14.645 208.617 15.3929 208.617 16.5896V53.0137C208.617 62.8116 212.73 67 221.855 67H222.528C223.725 67 224.473 66.2521 224.473 65.0554V59.1467C224.473 57.8753 224.024 57.2021 222.902 57.2021ZM247.827 29.0052C237.206 29.0052 228.53 37.6812 228.53 48.3018C228.53 58.9224 237.206 67.5983 247.827 67.5983C258.447 67.5983 267.123 58.9224 267.123 48.3018C267.123 37.6812 258.447 29.0052 247.827 29.0052ZM247.827 38.8779C253.062 38.8779 257.251 43.0663 257.251 48.3018C257.251 53.5373 253.062 57.8005 247.827 57.8005C242.591 57.8005 238.328 53.5373 238.328 48.3018C238.328 43.0663 242.591 38.8779 247.827 38.8779ZM292.474 57.2021H287.911C285.219 57.2021 283.274 55.1827 283.274 52.4902V38.1299H292.848C294.044 38.1299 294.717 37.4568 294.717 36.2601V31.4734C294.717 30.2767 294.044 29.6035 292.848 29.6035H283.274V19.6561C283.274 18.4594 282.526 17.7115 281.329 17.7115H275.421C274.224 17.7115 273.476 18.4594 273.476 19.6561V52.4154C273.476 62.0637 278.936 67 287.612 67H292.474C293.745 67 294.418 66.2521 294.418 65.0554V59.1467C294.418 57.8753 293.745 57.2021 292.474 57.2021ZM319.352 57.2021H314.79C312.097 57.2021 310.153 55.1827 310.153 52.4902V38.1299H319.726C320.923 38.1299 321.596 37.4568 321.596 36.2601V31.4734C321.596 30.2767 320.923 29.6035 319.726 29.6035H310.153V19.6561C310.153 18.4594 309.405 17.7115 308.208 17.7115H302.299C301.103 17.7115 300.355 18.4594 300.355 19.6561V52.4154C300.355 62.0637 305.815 67 314.491 67H319.352C320.624 67 321.297 66.2521 321.297 65.0554V59.1467C321.297 57.8753 320.624 57.2021 319.352 57.2021ZM345.043 29.0052C334.422 29.0052 325.746 37.6812 325.746 48.3018C325.746 58.9224 334.422 67.5983 345.043 67.5983C355.664 67.5983 364.34 58.9224 364.34 48.3018C364.34 37.6812 355.664 29.0052 345.043 29.0052ZM345.043 38.8779C350.279 38.8779 354.467 43.0663 354.467 48.3018C354.467 53.5373 350.279 57.8005 345.043 57.8005C339.808 57.8005 335.544 53.5373 335.544 48.3018C335.544 43.0663 339.808 38.8779 345.043 38.8779Z" fill="#212121"/>
<path d="M380.116 61.7645C380.116 64.6066 377.723 67 374.806 67C371.964 67 369.57 64.6066 369.57 61.7645C369.57 58.8476 371.964 56.529 374.806 56.529C377.723 56.529 380.116 58.8476 380.116 61.7645Z" fill="url(#paint0_linear)"/>
<path d="M46.0185 80.2181V109.898H20.1785V80.2181C20.1785 78.5577 19.1408 77.52 17.4804 77.52H9.38589C7.72549 77.52 6.68774 78.5577 6.68774 80.2181V151.615C6.68774 153.276 7.72549 154.314 9.38589 154.314H17.4804C19.1408 154.314 20.1785 153.276 20.1785 151.615V121.936H46.0185V151.615C46.0185 153.276 47.0563 154.314 48.7167 154.314H56.8111C58.4715 154.314 59.5093 153.276 59.5093 151.615V80.2181C59.5093 78.5577 58.4715 77.52 56.8111 77.52H48.7167C47.0563 77.52 46.0185 78.5577 46.0185 80.2181ZM107.895 76.8973C86.4138 76.8973 68.8758 94.3316 68.8758 115.917C68.8758 137.502 86.4138 154.936 107.895 154.936C129.48 154.936 146.915 137.502 146.915 115.917C146.915 94.3316 129.48 76.8973 107.895 76.8973ZM107.791 90.3881C121.697 90.3881 133.32 102.011 133.32 115.917C133.32 129.823 121.697 141.342 107.791 141.342C93.7818 141.342 82.4703 129.926 82.4703 115.917C82.4703 101.803 93.7818 90.3881 107.791 90.3881ZM181.786 154.936C167.984 154.936 156.777 143.729 156.777 129.926V80.2181C156.777 78.5577 157.814 77.52 159.475 77.52H167.569C169.333 77.52 170.267 78.5577 170.267 80.2181V129.926C170.267 136.153 175.456 141.342 181.786 141.342C188.117 141.342 193.202 136.153 193.202 129.926V80.2181C193.202 78.5577 194.239 77.52 195.9 77.52H204.098C205.758 77.52 206.796 78.5577 206.796 80.2181V129.926C206.796 143.729 195.588 154.936 181.786 154.936ZM267.291 151.2L250.064 121.936C258.47 118.511 264.281 110.209 264.281 100.558C264.281 87.8975 254.007 77.52 241.243 77.52H220.281C218.516 77.52 217.479 78.5577 217.479 80.2181V151.615C217.479 153.276 218.516 154.314 220.281 154.314H228.479C230.139 154.314 231.177 153.276 231.177 151.615V123.7H236.158L252.658 152.446C253.385 153.795 254.423 154.314 255.772 154.314H265.526C267.602 154.314 268.328 152.965 267.291 151.2ZM231.177 91.1145H241.243C246.536 91.1145 250.79 95.3693 250.79 100.558C250.79 105.954 246.536 110.105 241.243 110.105H231.177V91.1145ZM315.052 154.314H279.769C278.108 154.314 277.071 153.276 277.071 151.615V80.2181C277.071 78.5577 278.108 77.52 279.769 77.52H287.967C289.627 77.52 290.665 78.5577 290.665 80.2181V140.719H315.052C316.817 140.719 317.854 141.653 317.854 143.417V151.615C317.854 153.276 316.817 154.314 315.052 154.314ZM375.584 77.52H364.791C363.442 77.52 362.405 78.1426 361.678 79.2842L348.084 103.464L334.489 79.2842C333.763 78.1426 332.725 77.52 331.272 77.52H320.583C318.508 77.52 317.781 78.8691 318.819 80.6332L341.338 119.445V151.615C341.338 153.276 342.376 154.314 344.036 154.314H352.131C353.895 154.314 354.829 153.276 354.829 151.615V119.445L377.452 80.6332C378.49 78.8691 377.66 77.52 375.584 77.52Z" fill="url(#paint1_linear)"/>
<defs>
<linearGradient id="paint0_linear" x1="0" y1="74.7929" x2="383.264" y2="75.0445" gradientUnits="userSpaceOnUse">
<stop stop-color="#C71CB8"/>
<stop offset="1" stop-color="#FE139C"/>
</linearGradient>
<linearGradient id="paint1_linear" x1="383.314" y1="67.3136" x2="72.1262" y2="269.184" gradientUnits="userSpaceOnUse">
<stop stop-color="#7B20A4"/>
<stop offset="1" stop-color="#FC00FF"/>
</linearGradient>
</defs>
</svg>
