<svg width="410" height="169" viewBox="0 0 410 169" fill="none" xmlns="http://www.w3.org/2000/svg">
<path d="M23.44 31.36C12.08 31.36 2.8 40.64 2.8 52C2.8 63.36 12.08 72.64 23.44 72.64C34.8 72.64 44.08 63.36 44.08 52C44.08 40.64 34.8 31.36 23.44 31.36ZM23.44 41.92C29.04 41.92 33.52 46.4 33.52 52C33.52 57.6 29.04 62.16 23.44 62.16C17.84 62.16 13.28 57.6 13.28 52C13.28 46.4 17.84 41.92 23.44 41.92ZM68.875 31.36C65.275 31.36 61.995 32.48 59.115 34.56V33.84C59.115 32.64 58.475 32 57.355 32H52.955C51.675 32 50.875 32.8 50.875 34.08V69.92C50.875 71.2 51.675 72 52.955 72H59.195C60.475 72 61.275 71.2 61.275 69.92V48.64C61.275 44.88 64.395 41.76 68.155 41.76C71.995 41.76 75.035 44.88 75.035 48.64V69.92C75.035 71.2 75.835 72 77.115 72H83.435C84.715 72 85.515 71.2 85.515 69.92V48.64C85.515 39.12 78.155 31.36 68.875 31.36ZM108.03 61.52H107.15C104.83 61.52 103.23 59.92 103.23 57.2V18.08C103.23 16.8 102.43 16 101.15 16H94.83C93.55 16 92.75 16.8 92.75 18.08V57.04C92.75 67.52 97.15 72 106.91 72H107.63C108.91 72 109.71 71.2 109.71 69.92V63.6C109.71 62.24 109.23 61.52 108.03 61.52ZM127.635 23.04C127.635 26.72 125.155 29.2 121.475 29.2C118.275 29.2 115.395 26.72 115.395 23.04C115.395 19.92 118.275 17.04 121.475 17.04C125.155 17.04 127.635 19.92 127.635 23.04ZM124.595 72H118.435C117.155 72 116.355 71.2 116.355 69.92V34.08C116.355 32.8 117.155 32 118.435 32H124.595C125.875 32 126.675 32.8 126.675 34.08V69.92C126.675 71.2 125.875 72 124.595 72ZM152.703 31.36C149.103 31.36 145.823 32.48 142.943 34.56V33.84C142.943 32.64 142.303 32 141.183 32H136.783C135.503 32 134.703 32.8 134.703 34.08V69.92C134.703 71.2 135.503 72 136.783 72H143.023C144.303 72 145.103 71.2 145.103 69.92V48.64C145.103 44.88 148.223 41.76 151.983 41.76C155.823 41.76 158.863 44.88 158.863 48.64V69.92C158.863 71.2 159.663 72 160.943 72H167.263C168.543 72 169.343 71.2 169.343 69.92V48.64C169.343 39.12 161.983 31.36 152.703 31.36ZM216.338 53.2C215.538 39.76 207.138 31.36 196.018 31.36C184.498 31.36 175.458 40.24 175.458 51.6C175.458 63.04 184.578 72.64 196.738 72.64C201.458 72.64 207.058 71.2 212.178 67.2C213.298 66.4 213.378 65.36 212.498 64.24L208.978 60.08C208.178 59.04 207.218 58.96 206.098 59.6C203.698 61.28 200.498 62.8 196.898 62.8C192.578 62.8 188.098 60.4 186.178 55.28H214.258C215.618 55.28 216.418 54.56 216.338 53.2ZM186.258 47.28C187.058 43.04 190.978 40 195.778 40C200.738 40 204.258 43.36 205.058 47.28H186.258ZM238.421 61.52H237.541C235.221 61.52 233.621 59.92 233.621 57.2V18.08C233.621 16.8 232.821 16 231.541 16H225.221C223.941 16 223.141 16.8 223.141 18.08V57.04C223.141 67.52 227.541 72 237.301 72H238.021C239.301 72 240.101 71.2 240.101 69.92V63.6C240.101 62.24 239.621 61.52 238.421 61.52ZM265.081 31.36C253.721 31.36 244.441 40.64 244.441 52C244.441 63.36 253.721 72.64 265.081 72.64C276.441 72.64 285.721 63.36 285.721 52C285.721 40.64 276.441 31.36 265.081 31.36ZM265.081 41.92C270.681 41.92 275.161 46.4 275.161 52C275.161 57.6 270.681 62.16 265.081 62.16C259.481 62.16 254.921 57.6 254.921 52C254.921 46.4 259.481 41.92 265.081 41.92ZM312.836 61.52H307.956C305.076 61.52 302.996 59.36 302.996 56.48V41.12H313.236C314.516 41.12 315.236 40.4 315.236 39.12V34C315.236 32.72 314.516 32 313.236 32H302.996V21.36C302.996 20.08 302.196 19.28 300.916 19.28H294.596C293.316 19.28 292.516 20.08 292.516 21.36V56.4C292.516 66.72 298.356 72 307.636 72H312.836C314.196 72 314.916 71.2 314.916 69.92V63.6C314.916 62.24 314.196 61.52 312.836 61.52ZM341.586 61.52H336.706C333.826 61.52 331.746 59.36 331.746 56.48V41.12H341.986C343.266 41.12 343.986 40.4 343.986 39.12V34C343.986 32.72 343.266 32 341.986 32H331.746V21.36C331.746 20.08 330.946 19.28 329.666 19.28H323.346C322.066 19.28 321.266 20.08 321.266 21.36V56.4C321.266 66.72 327.106 72 336.386 72H341.586C342.946 72 343.666 71.2 343.666 69.92V63.6C343.666 62.24 342.946 61.52 341.586 61.52ZM369.065 31.36C357.705 31.36 348.425 40.64 348.425 52C348.425 63.36 357.705 72.64 369.065 72.64C380.425 72.64 389.705 63.36 389.705 52C389.705 40.64 380.425 31.36 369.065 31.36ZM369.065 41.92C374.665 41.92 379.145 46.4 379.145 52C379.145 57.6 374.665 62.16 369.065 62.16C363.465 62.16 358.905 57.6 358.905 52C358.905 46.4 363.465 41.92 369.065 41.92Z" fill="#212121"/>
<path d="M406.58 66.4C406.58 69.44 404.02 72 400.9 72C397.86 72 395.3 69.44 395.3 66.4C395.3 63.28 397.86 60.8 400.9 60.8C404.02 60.8 406.58 63.28 406.58 66.4Z" fill="url(#paint0_linear)"/>
<path d="M73.2907 88.7H67.4007C66.1657 88.7 65.2157 89.27 64.6457 90.41L40.8957 138.86L17.1457 90.41C16.5757 89.27 15.6257 88.7 14.3907 88.7H8.50066C6.98066 88.7 6.03066 89.65 6.03066 91.17V156.53C6.03066 158.05 6.98066 159 8.50066 159H16.0057C17.5257 159 18.4757 158.05 18.4757 156.53V118.055L36.8107 155.105C37.2857 156.15 38.0457 156.625 39.0907 156.625H42.7007C43.7457 156.625 44.5057 156.15 44.9807 155.105L63.2207 118.055V156.53C63.2207 158.05 64.1707 159 65.6907 159H73.2907C74.9057 159 75.7607 158.05 75.7607 156.53V91.17C75.7607 89.65 74.9057 88.7 73.2907 88.7ZM85.723 156.53V91.17C85.723 89.65 86.673 88.7 88.193 88.7H95.508C97.123 88.7 97.978 89.65 97.978 91.17V156.53C97.978 158.05 97.123 159 95.508 159H88.193C86.673 159 85.723 158.05 85.723 156.53ZM142.759 159H110.459C108.939 159 107.989 158.05 107.989 156.53V91.17C107.989 89.65 108.939 88.7 110.459 88.7H117.964C119.484 88.7 120.434 89.65 120.434 91.17V146.555H142.759C144.374 146.555 145.324 147.41 145.324 149.025V156.53C145.324 158.05 144.374 159 142.759 159ZM188.032 159H155.732C154.212 159 153.262 158.05 153.262 156.53V91.17C153.262 89.65 154.212 88.7 155.732 88.7H163.237C164.757 88.7 165.707 89.65 165.707 91.17V146.555H188.032C189.647 146.555 190.597 147.41 190.597 149.025V156.53C190.597 158.05 189.647 159 188.032 159ZM198.536 156.53V91.17C198.536 89.65 199.486 88.7 201.006 88.7H208.321C209.936 88.7 210.791 89.65 210.791 91.17V156.53C210.791 158.05 209.936 159 208.321 159H201.006C199.486 159 198.536 158.05 198.536 156.53ZM255.096 88.13C235.431 88.13 219.376 104.09 219.376 123.85C219.376 143.61 235.431 159.57 255.096 159.57C274.856 159.57 290.816 143.61 290.816 123.85C290.816 104.09 274.856 88.13 255.096 88.13ZM255.001 100.48C267.731 100.48 278.371 111.12 278.371 123.85C278.371 136.58 267.731 147.125 255.001 147.125C242.176 147.125 231.821 136.675 231.821 123.85C231.821 110.93 242.176 100.48 255.001 100.48ZM342.119 91.17V135.82L310.389 90.22C309.629 89.08 308.679 88.7 307.444 88.7H302.314C300.794 88.7 299.844 89.65 299.844 91.17V156.53C299.844 158.05 300.794 159 302.314 159H309.819C311.339 159 312.289 158.05 312.289 156.53V112.07L343.829 157.48C344.494 158.62 345.444 159 346.679 159H351.999C353.614 159 354.564 158.05 354.564 156.53V91.17C354.564 89.65 353.614 88.7 351.999 88.7H344.589C343.069 88.7 342.119 89.65 342.119 91.17ZM384.364 159.76C377.809 159.76 371.444 157.195 365.174 152.54C363.654 151.495 363.369 150.26 364.129 148.93L367.929 142.28C368.784 140.855 369.924 140.57 371.349 141.52C375.909 144.75 380.184 146.27 383.699 146.27C388.639 146.27 392.154 143.23 392.154 138.955C392.154 132.685 384.459 130.025 377.334 126.32C369.069 121.855 363.179 115.965 363.654 106.75C364.224 95.35 373.629 87.75 385.409 88.13C390.444 88.225 395.194 89.935 398.804 92.12C400.134 92.88 400.419 94.115 399.564 95.35L395.954 100.86C395.099 102.095 394.054 102.38 392.629 101.715C390.254 100.385 387.594 99.53 384.934 99.53C379.994 99.53 376.384 102.665 376.384 106.94C376.384 112.07 382.179 114.255 387.974 117.105C394.149 119.955 405.549 126.035 405.549 139.05C405.549 150.64 396.619 159.76 384.364 159.76Z" fill="url(#paint1_linear)"/>
<defs>
<linearGradient id="paint0_linear" x1="0" y1="80" x2="409.947" y2="80.2692" gradientUnits="userSpaceOnUse">
<stop stop-color="#C71CB8"/>
<stop offset="1" stop-color="#FE139C"/>
</linearGradient>
<linearGradient id="paint1_linear" x1="410" y1="72" x2="77.1476" y2="287.925" gradientUnits="userSpaceOnUse">
<stop stop-color="#1BEE02"/>
<stop offset="1" stop-color="#00AD45"/>
</linearGradient>
</defs>
</svg>
