<svg width="410" height="169" viewBox="0 0 410 169" fill="none" xmlns="http://www.w3.org/2000/svg">
<path d="M23.44 31.36C12.08 31.36 2.8 40.64 2.8 52C2.8 63.36 12.08 72.64 23.44 72.64C34.8 72.64 44.08 63.36 44.08 52C44.08 40.64 34.8 31.36 23.44 31.36ZM23.44 41.92C29.04 41.92 33.52 46.4 33.52 52C33.52 57.6 29.04 62.16 23.44 62.16C17.84 62.16 13.28 57.6 13.28 52C13.28 46.4 17.84 41.92 23.44 41.92ZM68.875 31.36C65.275 31.36 61.995 32.48 59.115 34.56V33.84C59.115 32.64 58.475 32 57.355 32H52.955C51.675 32 50.875 32.8 50.875 34.08V69.92C50.875 71.2 51.675 72 52.955 72H59.195C60.475 72 61.275 71.2 61.275 69.92V48.64C61.275 44.88 64.395 41.76 68.155 41.76C71.995 41.76 75.035 44.88 75.035 48.64V69.92C75.035 71.2 75.835 72 77.115 72H83.435C84.715 72 85.515 71.2 85.515 69.92V48.64C85.515 39.12 78.155 31.36 68.875 31.36ZM108.03 61.52H107.15C104.83 61.52 103.23 59.92 103.23 57.2V18.08C103.23 16.8 102.43 16 101.15 16H94.83C93.55 16 92.75 16.8 92.75 18.08V57.04C92.75 67.52 97.15 72 106.91 72H107.63C108.91 72 109.71 71.2 109.71 69.92V63.6C109.71 62.24 109.23 61.52 108.03 61.52ZM127.635 23.04C127.635 26.72 125.155 29.2 121.475 29.2C118.275 29.2 115.395 26.72 115.395 23.04C115.395 19.92 118.275 17.04 121.475 17.04C125.155 17.04 127.635 19.92 127.635 23.04ZM124.595 72H118.435C117.155 72 116.355 71.2 116.355 69.92V34.08C116.355 32.8 117.155 32 118.435 32H124.595C125.875 32 126.675 32.8 126.675 34.08V69.92C126.675 71.2 125.875 72 124.595 72ZM152.703 31.36C149.103 31.36 145.823 32.48 142.943 34.56V33.84C142.943 32.64 142.303 32 141.183 32H136.783C135.503 32 134.703 32.8 134.703 34.08V69.92C134.703 71.2 135.503 72 136.783 72H143.023C144.303 72 145.103 71.2 145.103 69.92V48.64C145.103 44.88 148.223 41.76 151.983 41.76C155.823 41.76 158.863 44.88 158.863 48.64V69.92C158.863 71.2 159.663 72 160.943 72H167.263C168.543 72 169.343 71.2 169.343 69.92V48.64C169.343 39.12 161.983 31.36 152.703 31.36ZM216.338 53.2C215.538 39.76 207.138 31.36 196.018 31.36C184.498 31.36 175.458 40.24 175.458 51.6C175.458 63.04 184.578 72.64 196.738 72.64C201.458 72.64 207.058 71.2 212.178 67.2C213.298 66.4 213.378 65.36 212.498 64.24L208.978 60.08C208.178 59.04 207.218 58.96 206.098 59.6C203.698 61.28 200.498 62.8 196.898 62.8C192.578 62.8 188.098 60.4 186.178 55.28H214.258C215.618 55.28 216.418 54.56 216.338 53.2ZM186.258 47.28C187.058 43.04 190.978 40 195.778 40C200.738 40 204.258 43.36 205.058 47.28H186.258ZM238.421 61.52H237.541C235.221 61.52 233.621 59.92 233.621 57.2V18.08C233.621 16.8 232.821 16 231.541 16H225.221C223.941 16 223.141 16.8 223.141 18.08V57.04C223.141 67.52 227.541 72 237.301 72H238.021C239.301 72 240.101 71.2 240.101 69.92V63.6C240.101 62.24 239.621 61.52 238.421 61.52ZM265.081 31.36C253.721 31.36 244.441 40.64 244.441 52C244.441 63.36 253.721 72.64 265.081 72.64C276.441 72.64 285.721 63.36 285.721 52C285.721 40.64 276.441 31.36 265.081 31.36ZM265.081 41.92C270.681 41.92 275.161 46.4 275.161 52C275.161 57.6 270.681 62.16 265.081 62.16C259.481 62.16 254.921 57.6 254.921 52C254.921 46.4 259.481 41.92 265.081 41.92ZM312.836 61.52H307.956C305.076 61.52 302.996 59.36 302.996 56.48V41.12H313.236C314.516 41.12 315.236 40.4 315.236 39.12V34C315.236 32.72 314.516 32 313.236 32H302.996V21.36C302.996 20.08 302.196 19.28 300.916 19.28H294.596C293.316 19.28 292.516 20.08 292.516 21.36V56.4C292.516 66.72 298.356 72 307.636 72H312.836C314.196 72 314.916 71.2 314.916 69.92V63.6C314.916 62.24 314.196 61.52 312.836 61.52ZM341.586 61.52H336.706C333.826 61.52 331.746 59.36 331.746 56.48V41.12H341.986C343.266 41.12 343.986 40.4 343.986 39.12V34C343.986 32.72 343.266 32 341.986 32H331.746V21.36C331.746 20.08 330.946 19.28 329.666 19.28H323.346C322.066 19.28 321.266 20.08 321.266 21.36V56.4C321.266 66.72 327.106 72 336.386 72H341.586C342.946 72 343.666 71.2 343.666 69.92V63.6C343.666 62.24 342.946 61.52 341.586 61.52ZM369.065 31.36C357.705 31.36 348.425 40.64 348.425 52C348.425 63.36 357.705 72.64 369.065 72.64C380.425 72.64 389.705 63.36 389.705 52C389.705 40.64 380.425 31.36 369.065 31.36ZM369.065 41.92C374.665 41.92 379.145 46.4 379.145 52C379.145 57.6 374.665 62.16 369.065 62.16C363.465 62.16 358.905 57.6 358.905 52C358.905 46.4 363.465 41.92 369.065 41.92Z" fill="#212121"/>
<path d="M406.58 66.4C406.58 69.44 404.02 72 400.9 72C397.86 72 395.3 69.44 395.3 66.4C395.3 63.28 397.86 60.8 400.9 60.8C404.02 60.8 406.58 63.28 406.58 66.4Z" fill="url(#paint0_linear)"/>
<path d="M51.723 145.999L32.472 98.251C32.127 97.354 31.437 96.94 30.471 96.94H26.193C25.227 96.94 24.537 97.354 24.192 98.251L5.21697 145.999C4.80297 147.241 5.28597 148 6.59697 148H12.807C13.842 148 14.463 147.586 14.808 146.62L17.982 138.823H39.027L42.132 146.62C42.477 147.517 43.167 147.931 44.133 147.931L50.343 148C51.654 148 52.206 147.241 51.723 145.999ZM21.57 129.784L28.539 112.327L35.439 129.784H21.57ZM67.4356 146.206V126.403H82.4086C83.5126 126.403 84.2026 125.782 84.2026 124.678V120.193C84.2026 119.089 83.5126 118.468 82.4086 118.468H67.4356V105.979H83.6506C84.7546 105.979 85.4446 105.358 85.4446 104.185V98.734C85.4446 97.63 84.7546 96.94 83.6506 96.94H60.1906C59.0866 96.94 58.3966 97.63 58.3966 98.734V146.206C58.3966 147.31 59.0866 148 60.1906 148H65.6416C66.7456 148 67.4356 147.31 67.4356 146.206ZM120.043 96.94H91.7527C90.6487 96.94 89.9587 97.63 89.9587 98.734V104.185C89.9587 105.358 90.6487 105.979 91.7527 105.979H101.413V146.206C101.413 147.31 102.034 148 103.207 148H108.589C109.762 148 110.383 147.31 110.383 146.206V105.979H120.043C121.216 105.979 121.837 105.358 121.837 104.185V98.734C121.837 97.63 121.216 96.94 120.043 96.94ZM154.902 138.961H137.514V126.403H153.66C154.764 126.403 155.454 125.782 155.454 124.678V120.193C155.454 119.089 154.764 118.468 153.66 118.468H137.514V105.979H154.902C156.006 105.979 156.696 105.358 156.696 104.185V98.734C156.696 97.63 156.006 96.94 154.902 96.94H130.269C129.165 96.94 128.475 97.63 128.475 98.734V146.206C128.475 147.31 129.165 148 130.269 148H154.902C156.006 148 156.696 147.31 156.696 146.206V140.755C156.696 139.582 156.006 138.961 154.902 138.961ZM196.632 145.93L185.178 126.472C190.767 124.195 194.631 118.675 194.631 112.258C194.631 103.84 187.8 96.94 179.313 96.94H165.375C164.202 96.94 163.512 97.63 163.512 98.734V146.206C163.512 147.31 164.202 148 165.375 148H170.826C171.93 148 172.62 147.31 172.62 146.206V127.645H175.932L186.903 146.758C187.386 147.655 188.076 148 188.973 148H195.459C196.839 148 197.322 147.103 196.632 145.93ZM172.62 105.979H179.313C182.832 105.979 185.661 108.808 185.661 112.258C185.661 115.846 182.832 118.606 179.313 118.606H172.62V105.979ZM233.84 98.734V131.164L210.794 98.044C210.242 97.216 209.552 96.94 208.655 96.94H204.929C203.825 96.94 203.135 97.63 203.135 98.734V146.206C203.135 147.31 203.825 148 204.929 148H210.38C211.484 148 212.174 147.31 212.174 146.206V113.914L235.082 146.896C235.565 147.724 236.255 148 237.152 148H241.016C242.189 148 242.879 147.31 242.879 146.206V98.734C242.879 97.63 242.189 96.94 241.016 96.94H235.634C234.53 96.94 233.84 97.63 233.84 98.734ZM274.942 96.526C260.659 96.526 248.998 108.118 248.998 122.47C248.998 136.822 260.659 148.414 274.942 148.414C289.294 148.414 300.886 136.822 300.886 122.47C300.886 108.118 289.294 96.526 274.942 96.526ZM274.873 105.496C284.119 105.496 291.847 113.224 291.847 122.47C291.847 131.716 284.119 139.375 274.873 139.375C265.558 139.375 258.037 131.785 258.037 122.47C258.037 113.086 265.558 105.496 274.873 105.496ZM332.352 96.526C318.069 96.526 306.408 108.118 306.408 122.47C306.408 136.822 318.069 148.414 332.352 148.414C346.704 148.414 358.296 136.822 358.296 122.47C358.296 108.118 346.704 96.526 332.352 96.526ZM332.283 105.496C341.529 105.496 349.257 113.224 349.257 122.47C349.257 131.716 341.529 139.375 332.283 139.375C322.968 139.375 315.447 131.785 315.447 122.47C315.447 113.086 322.968 105.496 332.283 105.496ZM395.559 98.734V131.164L372.513 98.044C371.961 97.216 371.271 96.94 370.374 96.94H366.648C365.544 96.94 364.854 97.63 364.854 98.734V146.206C364.854 147.31 365.544 148 366.648 148H372.099C373.203 148 373.893 147.31 373.893 146.206V113.914L396.801 146.896C397.284 147.724 397.974 148 398.871 148H402.735C403.908 148 404.598 147.31 404.598 146.206V98.734C404.598 97.63 403.908 96.94 402.735 96.94H397.353C396.249 96.94 395.559 97.63 395.559 98.734Z" fill="url(#paint1_linear)"/>
<defs>
<linearGradient id="paint0_linear" x1="0" y1="80" x2="409.947" y2="80.2692" gradientUnits="userSpaceOnUse">
<stop stop-color="#C71CB8"/>
<stop offset="1" stop-color="#FE139C"/>
</linearGradient>
<linearGradient id="paint1_linear" x1="1.38598e-06" y1="148" x2="410" y2="72" gradientUnits="userSpaceOnUse">
<stop stop-color="#0069CA"/>
<stop offset="1" stop-color="#41C7FE"/>
</linearGradient>
</defs>
</svg>
