<svg width="410" height="169" viewBox="0 0 410 169" fill="none" xmlns="http://www.w3.org/2000/svg">
<path d="M23.44 31.36C12.08 31.36 2.8 40.64 2.8 52C2.8 63.36 12.08 72.64 23.44 72.64C34.8 72.64 44.08 63.36 44.08 52C44.08 40.64 34.8 31.36 23.44 31.36ZM23.44 41.92C29.04 41.92 33.52 46.4 33.52 52C33.52 57.6 29.04 62.16 23.44 62.16C17.84 62.16 13.28 57.6 13.28 52C13.28 46.4 17.84 41.92 23.44 41.92ZM68.875 31.36C65.275 31.36 61.995 32.48 59.115 34.56V33.84C59.115 32.64 58.475 32 57.355 32H52.955C51.675 32 50.875 32.8 50.875 34.08V69.92C50.875 71.2 51.675 72 52.955 72H59.195C60.475 72 61.275 71.2 61.275 69.92V48.64C61.275 44.88 64.395 41.76 68.155 41.76C71.995 41.76 75.035 44.88 75.035 48.64V69.92C75.035 71.2 75.835 72 77.115 72H83.435C84.715 72 85.515 71.2 85.515 69.92V48.64C85.515 39.12 78.155 31.36 68.875 31.36ZM108.03 61.52H107.15C104.83 61.52 103.23 59.92 103.23 57.2V18.08C103.23 16.8 102.43 16 101.15 16H94.83C93.55 16 92.75 16.8 92.75 18.08V57.04C92.75 67.52 97.15 72 106.91 72H107.63C108.91 72 109.71 71.2 109.71 69.92V63.6C109.71 62.24 109.23 61.52 108.03 61.52ZM127.635 23.04C127.635 26.72 125.155 29.2 121.475 29.2C118.275 29.2 115.395 26.72 115.395 23.04C115.395 19.92 118.275 17.04 121.475 17.04C125.155 17.04 127.635 19.92 127.635 23.04ZM124.595 72H118.435C117.155 72 116.355 71.2 116.355 69.92V34.08C116.355 32.8 117.155 32 118.435 32H124.595C125.875 32 126.675 32.8 126.675 34.08V69.92C126.675 71.2 125.875 72 124.595 72ZM152.703 31.36C149.103 31.36 145.823 32.48 142.943 34.56V33.84C142.943 32.64 142.303 32 141.183 32H136.783C135.503 32 134.703 32.8 134.703 34.08V69.92C134.703 71.2 135.503 72 136.783 72H143.023C144.303 72 145.103 71.2 145.103 69.92V48.64C145.103 44.88 148.223 41.76 151.983 41.76C155.823 41.76 158.863 44.88 158.863 48.64V69.92C158.863 71.2 159.663 72 160.943 72H167.263C168.543 72 169.343 71.2 169.343 69.92V48.64C169.343 39.12 161.983 31.36 152.703 31.36ZM216.338 53.2C215.538 39.76 207.138 31.36 196.018 31.36C184.498 31.36 175.458 40.24 175.458 51.6C175.458 63.04 184.578 72.64 196.738 72.64C201.458 72.64 207.058 71.2 212.178 67.2C213.298 66.4 213.378 65.36 212.498 64.24L208.978 60.08C208.178 59.04 207.218 58.96 206.098 59.6C203.698 61.28 200.498 62.8 196.898 62.8C192.578 62.8 188.098 60.4 186.178 55.28H214.258C215.618 55.28 216.418 54.56 216.338 53.2ZM186.258 47.28C187.058 43.04 190.978 40 195.778 40C200.738 40 204.258 43.36 205.058 47.28H186.258ZM238.421 61.52H237.541C235.221 61.52 233.621 59.92 233.621 57.2V18.08C233.621 16.8 232.821 16 231.541 16H225.221C223.941 16 223.141 16.8 223.141 18.08V57.04C223.141 67.52 227.541 72 237.301 72H238.021C239.301 72 240.101 71.2 240.101 69.92V63.6C240.101 62.24 239.621 61.52 238.421 61.52ZM265.081 31.36C253.721 31.36 244.441 40.64 244.441 52C244.441 63.36 253.721 72.64 265.081 72.64C276.441 72.64 285.721 63.36 285.721 52C285.721 40.64 276.441 31.36 265.081 31.36ZM265.081 41.92C270.681 41.92 275.161 46.4 275.161 52C275.161 57.6 270.681 62.16 265.081 62.16C259.481 62.16 254.921 57.6 254.921 52C254.921 46.4 259.481 41.92 265.081 41.92ZM312.836 61.52H307.956C305.076 61.52 302.996 59.36 302.996 56.48V41.12H313.236C314.516 41.12 315.236 40.4 315.236 39.12V34C315.236 32.72 314.516 32 313.236 32H302.996V21.36C302.996 20.08 302.196 19.28 300.916 19.28H294.596C293.316 19.28 292.516 20.08 292.516 21.36V56.4C292.516 66.72 298.356 72 307.636 72H312.836C314.196 72 314.916 71.2 314.916 69.92V63.6C314.916 62.24 314.196 61.52 312.836 61.52ZM341.586 61.52H336.706C333.826 61.52 331.746 59.36 331.746 56.48V41.12H341.986C343.266 41.12 343.986 40.4 343.986 39.12V34C343.986 32.72 343.266 32 341.986 32H331.746V21.36C331.746 20.08 330.946 19.28 329.666 19.28H323.346C322.066 19.28 321.266 20.08 321.266 21.36V56.4C321.266 66.72 327.106 72 336.386 72H341.586C342.946 72 343.666 71.2 343.666 69.92V63.6C343.666 62.24 342.946 61.52 341.586 61.52ZM369.065 31.36C357.705 31.36 348.425 40.64 348.425 52C348.425 63.36 357.705 72.64 369.065 72.64C380.425 72.64 389.705 63.36 389.705 52C389.705 40.64 380.425 31.36 369.065 31.36ZM369.065 41.92C374.665 41.92 379.145 46.4 379.145 52C379.145 57.6 374.665 62.16 369.065 62.16C363.465 62.16 358.905 57.6 358.905 52C358.905 46.4 363.465 41.92 369.065 41.92Z" fill="#212121"/>
<path d="M406.58 66.4C406.58 69.44 404.02 72 400.9 72C397.86 72 395.3 69.44 395.3 66.4C395.3 63.28 397.86 60.8 400.9 60.8C404.02 60.8 406.58 63.28 406.58 66.4Z" fill="url(#paint0_linear)"/>
<path d="M67.269 90.88H61.813C60.669 90.88 59.789 91.408 59.261 92.464L37.261 137.344L15.261 92.464C14.733 91.408 13.853 90.88 12.709 90.88H7.253C5.845 90.88 4.965 91.76 4.965 93.168V153.712C4.965 155.12 5.845 156 7.253 156H14.205C15.613 156 16.493 155.12 16.493 153.712V118.072L33.477 152.392C33.917 153.36 34.621 153.8 35.589 153.8H38.933C39.901 153.8 40.605 153.36 41.045 152.392L57.941 118.072V153.712C57.941 155.12 58.821 156 60.229 156H67.269C68.765 156 69.557 155.12 69.557 153.712V93.168C69.557 91.76 68.765 90.88 67.269 90.88ZM110.553 90.352C92.3373 90.352 77.4653 105.136 77.4653 123.44C77.4653 141.744 92.3373 156.528 110.553 156.528C128.857 156.528 143.641 141.744 143.641 123.44C143.641 105.136 128.857 90.352 110.553 90.352ZM110.465 101.792C122.257 101.792 132.113 111.648 132.113 123.44C132.113 135.232 122.257 145 110.465 145C98.5853 145 88.9933 135.32 88.9933 123.44C88.9933 111.472 98.5853 101.792 110.465 101.792ZM194.156 153.36L179.548 128.544C186.676 125.64 191.604 118.6 191.604 110.416C191.604 99.68 182.892 90.88 172.068 90.88H154.292C152.796 90.88 151.916 91.76 151.916 93.168V153.712C151.916 155.12 152.796 156 154.292 156H161.244C162.652 156 163.532 155.12 163.532 153.712V130.04H167.756L181.748 154.416C182.364 155.56 183.244 156 184.388 156H192.66C194.42 156 195.036 154.856 194.156 153.36ZM163.532 102.408H172.068C176.556 102.408 180.164 106.016 180.164 110.416C180.164 114.992 176.556 118.512 172.068 118.512H163.532V102.408ZM241.609 93.168V134.528L212.217 92.288C211.513 91.232 210.633 90.88 209.489 90.88H204.737C203.329 90.88 202.449 91.76 202.449 93.168V153.712C202.449 155.12 203.329 156 204.737 156H211.689C213.097 156 213.977 155.12 213.977 153.712V112.528L243.193 154.592C243.809 155.648 244.689 156 245.833 156H250.761C252.257 156 253.137 155.12 253.137 153.712V93.168C253.137 91.76 252.257 90.88 250.761 90.88H243.897C242.489 90.88 241.609 91.76 241.609 93.168ZM262.262 153.712V93.168C262.262 91.76 263.142 90.88 264.55 90.88H271.326C272.822 90.88 273.614 91.76 273.614 93.168V153.712C273.614 155.12 272.822 156 271.326 156H264.55C263.142 156 262.262 155.12 262.262 153.712ZM322.047 93.168V134.528L292.655 92.288C291.951 91.232 291.071 90.88 289.927 90.88H285.175C283.767 90.88 282.887 91.76 282.887 93.168V153.712C282.887 155.12 283.767 156 285.175 156H292.127C293.535 156 294.415 155.12 294.415 153.712V112.528L323.631 154.592C324.247 155.648 325.127 156 326.271 156H331.199C332.695 156 333.575 155.12 333.575 153.712V93.168C333.575 91.76 332.695 90.88 331.199 90.88H324.335C322.927 90.88 322.047 91.76 322.047 93.168ZM403.595 118.776H371.387C370.067 118.776 369.187 119.568 369.187 120.976V126.696C369.187 128.104 370.067 128.896 371.387 128.896H393.563C391.539 138.136 383.531 145 373.675 145C362.059 145 352.907 135.672 352.907 123.44C352.907 111.56 362.587 101.88 374.379 101.88C380.099 101.88 385.027 104.344 389.515 108.04C390.659 109.008 391.891 108.92 392.771 107.776L396.731 102.936C397.699 101.792 397.699 100.648 396.555 99.592C390.043 93.608 382.651 90.352 374.379 90.352C356.163 90.352 341.379 105.224 341.379 123.44C341.379 141.568 355.107 156.528 373.675 156.528C391.099 156.528 405.179 142.712 405.883 124.848V121.064C405.883 119.656 405.091 118.776 403.595 118.776Z" fill="url(#paint1_linear)"/>
<defs>
<linearGradient id="paint0_linear" x1="0" y1="80" x2="409.947" y2="80.2692" gradientUnits="userSpaceOnUse">
<stop stop-color="#C71CB8"/>
<stop offset="1" stop-color="#FE139C"/>
</linearGradient>
<linearGradient id="paint1_linear" x1="410" y1="72" x2="108.943" y2="307.984" gradientUnits="userSpaceOnUse">
<stop stop-color="#A0BBBD"/>
<stop offset="1" stop-color="#3F6770"/>
</linearGradient>
</defs>
</svg>
