<svg width="410" height="169" viewBox="0 0 410 169" fill="none" xmlns="http://www.w3.org/2000/svg">
<path d="M23.44 31.36C12.08 31.36 2.8 40.64 2.8 52C2.8 63.36 12.08 72.64 23.44 72.64C34.8 72.64 44.08 63.36 44.08 52C44.08 40.64 34.8 31.36 23.44 31.36ZM23.44 41.92C29.04 41.92 33.52 46.4 33.52 52C33.52 57.6 29.04 62.16 23.44 62.16C17.84 62.16 13.28 57.6 13.28 52C13.28 46.4 17.84 41.92 23.44 41.92ZM68.875 31.36C65.275 31.36 61.995 32.48 59.115 34.56V33.84C59.115 32.64 58.475 32 57.355 32H52.955C51.675 32 50.875 32.8 50.875 34.08V69.92C50.875 71.2 51.675 72 52.955 72H59.195C60.475 72 61.275 71.2 61.275 69.92V48.64C61.275 44.88 64.395 41.76 68.155 41.76C71.995 41.76 75.035 44.88 75.035 48.64V69.92C75.035 71.2 75.835 72 77.115 72H83.435C84.715 72 85.515 71.2 85.515 69.92V48.64C85.515 39.12 78.155 31.36 68.875 31.36ZM108.03 61.52H107.15C104.83 61.52 103.23 59.92 103.23 57.2V18.08C103.23 16.8 102.43 16 101.15 16H94.83C93.55 16 92.75 16.8 92.75 18.08V57.04C92.75 67.52 97.15 72 106.91 72H107.63C108.91 72 109.71 71.2 109.71 69.92V63.6C109.71 62.24 109.23 61.52 108.03 61.52ZM127.635 23.04C127.635 26.72 125.155 29.2 121.475 29.2C118.275 29.2 115.395 26.72 115.395 23.04C115.395 19.92 118.275 17.04 121.475 17.04C125.155 17.04 127.635 19.92 127.635 23.04ZM124.595 72H118.435C117.155 72 116.355 71.2 116.355 69.92V34.08C116.355 32.8 117.155 32 118.435 32H124.595C125.875 32 126.675 32.8 126.675 34.08V69.92C126.675 71.2 125.875 72 124.595 72ZM152.703 31.36C149.103 31.36 145.823 32.48 142.943 34.56V33.84C142.943 32.64 142.303 32 141.183 32H136.783C135.503 32 134.703 32.8 134.703 34.08V69.92C134.703 71.2 135.503 72 136.783 72H143.023C144.303 72 145.103 71.2 145.103 69.92V48.64C145.103 44.88 148.223 41.76 151.983 41.76C155.823 41.76 158.863 44.88 158.863 48.64V69.92C158.863 71.2 159.663 72 160.943 72H167.263C168.543 72 169.343 71.2 169.343 69.92V48.64C169.343 39.12 161.983 31.36 152.703 31.36ZM216.338 53.2C215.538 39.76 207.138 31.36 196.018 31.36C184.498 31.36 175.458 40.24 175.458 51.6C175.458 63.04 184.578 72.64 196.738 72.64C201.458 72.64 207.058 71.2 212.178 67.2C213.298 66.4 213.378 65.36 212.498 64.24L208.978 60.08C208.178 59.04 207.218 58.96 206.098 59.6C203.698 61.28 200.498 62.8 196.898 62.8C192.578 62.8 188.098 60.4 186.178 55.28H214.258C215.618 55.28 216.418 54.56 216.338 53.2ZM186.258 47.28C187.058 43.04 190.978 40 195.778 40C200.738 40 204.258 43.36 205.058 47.28H186.258ZM238.421 61.52H237.541C235.221 61.52 233.621 59.92 233.621 57.2V18.08C233.621 16.8 232.821 16 231.541 16H225.221C223.941 16 223.141 16.8 223.141 18.08V57.04C223.141 67.52 227.541 72 237.301 72H238.021C239.301 72 240.101 71.2 240.101 69.92V63.6C240.101 62.24 239.621 61.52 238.421 61.52ZM265.081 31.36C253.721 31.36 244.441 40.64 244.441 52C244.441 63.36 253.721 72.64 265.081 72.64C276.441 72.64 285.721 63.36 285.721 52C285.721 40.64 276.441 31.36 265.081 31.36ZM265.081 41.92C270.681 41.92 275.161 46.4 275.161 52C275.161 57.6 270.681 62.16 265.081 62.16C259.481 62.16 254.921 57.6 254.921 52C254.921 46.4 259.481 41.92 265.081 41.92ZM312.836 61.52H307.956C305.076 61.52 302.996 59.36 302.996 56.48V41.12H313.236C314.516 41.12 315.236 40.4 315.236 39.12V34C315.236 32.72 314.516 32 313.236 32H302.996V21.36C302.996 20.08 302.196 19.28 300.916 19.28H294.596C293.316 19.28 292.516 20.08 292.516 21.36V56.4C292.516 66.72 298.356 72 307.636 72H312.836C314.196 72 314.916 71.2 314.916 69.92V63.6C314.916 62.24 314.196 61.52 312.836 61.52ZM341.586 61.52H336.706C333.826 61.52 331.746 59.36 331.746 56.48V41.12H341.986C343.266 41.12 343.986 40.4 343.986 39.12V34C343.986 32.72 343.266 32 341.986 32H331.746V21.36C331.746 20.08 330.946 19.28 329.666 19.28H323.346C322.066 19.28 321.266 20.08 321.266 21.36V56.4C321.266 66.72 327.106 72 336.386 72H341.586C342.946 72 343.666 71.2 343.666 69.92V63.6C343.666 62.24 342.946 61.52 341.586 61.52ZM369.065 31.36C357.705 31.36 348.425 40.64 348.425 52C348.425 63.36 357.705 72.64 369.065 72.64C380.425 72.64 389.705 63.36 389.705 52C389.705 40.64 380.425 31.36 369.065 31.36ZM369.065 41.92C374.665 41.92 379.145 46.4 379.145 52C379.145 57.6 374.665 62.16 369.065 62.16C363.465 62.16 358.905 57.6 358.905 52C358.905 46.4 363.465 41.92 369.065 41.92Z" fill="#212121"/>
<path d="M406.58 66.4C406.58 69.44 404.02 72 400.9 72C397.86 72 395.3 69.44 395.3 66.4C395.3 63.28 397.86 60.8 400.9 60.8C404.02 60.8 406.58 63.28 406.58 66.4Z" fill="url(#paint0_linear)"/>
<path d="M70.4567 83.82H60.8267C59.3287 83.82 58.3657 84.462 57.8307 85.96L39.6407 137.106L21.3437 85.96C20.8087 84.462 19.8457 83.82 18.2407 83.82H8.8247C6.7917 83.82 6.0427 84.997 6.6847 86.923L33.6487 160.86C34.1837 162.358 35.2537 163 36.7517 163H42.5297C44.0277 163 45.0977 162.358 45.6327 160.86L72.5967 86.923C73.2387 84.997 72.3827 83.82 70.4567 83.82ZM82.7776 160.218V86.602C82.7776 84.89 83.8476 83.82 85.5596 83.82H93.7986C95.6176 83.82 96.5806 84.89 96.5806 86.602V160.218C96.5806 161.93 95.6176 163 93.7986 163H85.5596C83.8476 163 82.7776 161.93 82.7776 160.218ZM159.109 159.79L141.347 129.616C150.014 126.085 156.006 117.525 156.006 107.574C156.006 94.52 145.413 83.82 132.252 83.82H110.638C108.819 83.82 107.749 84.89 107.749 86.602V160.218C107.749 161.93 108.819 163 110.638 163H119.091C120.803 163 121.873 161.93 121.873 160.218V131.435H127.009L144.022 161.074C144.771 162.465 145.841 163 147.232 163H157.29C159.43 163 160.179 161.609 159.109 159.79ZM121.873 97.837H132.252C137.709 97.837 142.096 102.224 142.096 107.574C142.096 113.138 137.709 117.418 132.252 117.418H121.873V97.837ZM213.17 83.82H169.3C167.588 83.82 166.518 84.89 166.518 86.602V95.055C166.518 96.874 167.588 97.837 169.3 97.837H184.28V160.218C184.28 161.93 185.243 163 187.062 163H195.408C197.227 163 198.19 161.93 198.19 160.218V97.837H213.17C214.989 97.837 215.952 96.874 215.952 95.055V86.602C215.952 84.89 214.989 83.82 213.17 83.82ZM250.256 163.642C236.025 163.642 224.469 152.086 224.469 137.855V86.602C224.469 84.89 225.539 83.82 227.251 83.82H235.597C237.416 83.82 238.379 84.89 238.379 86.602V137.855C238.379 144.275 243.729 149.625 250.256 149.625C256.783 149.625 262.026 144.275 262.026 137.855V86.602C262.026 84.89 263.096 83.82 264.808 83.82H273.261C274.973 83.82 276.043 84.89 276.043 86.602V137.855C276.043 152.086 264.487 163.642 250.256 163.642ZM352.781 159.897L322.928 85.853C322.393 84.462 321.323 83.82 319.825 83.82H313.191C311.693 83.82 310.623 84.462 310.088 85.853L280.663 159.897C280.021 161.823 280.77 163 282.803 163H292.433C294.038 163 295.001 162.358 295.536 160.86L300.458 148.769H333.093L337.908 160.86C338.443 162.251 339.513 162.893 341.011 162.893L350.641 163C352.674 163 353.53 161.823 352.781 159.897ZM306.022 134.752L316.829 107.681L327.529 134.752H306.022ZM402.292 163H365.912C364.2 163 363.13 161.93 363.13 160.218V86.602C363.13 84.89 364.2 83.82 365.912 83.82H374.365C376.077 83.82 377.147 84.89 377.147 86.602V148.983H402.292C404.111 148.983 405.181 149.946 405.181 151.765V160.218C405.181 161.93 404.111 163 402.292 163Z" fill="url(#paint1_linear)"/>
<path d="M23.44 31.36C12.08 31.36 2.8 40.64 2.8 52C2.8 63.36 12.08 72.64 23.44 72.64C34.8 72.64 44.08 63.36 44.08 52C44.08 40.64 34.8 31.36 23.44 31.36ZM23.44 41.92C29.04 41.92 33.52 46.4 33.52 52C33.52 57.6 29.04 62.16 23.44 62.16C17.84 62.16 13.28 57.6 13.28 52C13.28 46.4 17.84 41.92 23.44 41.92ZM68.875 31.36C65.275 31.36 61.995 32.48 59.115 34.56V33.84C59.115 32.64 58.475 32 57.355 32H52.955C51.675 32 50.875 32.8 50.875 34.08V69.92C50.875 71.2 51.675 72 52.955 72H59.195C60.475 72 61.275 71.2 61.275 69.92V48.64C61.275 44.88 64.395 41.76 68.155 41.76C71.995 41.76 75.035 44.88 75.035 48.64V69.92C75.035 71.2 75.835 72 77.115 72H83.435C84.715 72 85.515 71.2 85.515 69.92V48.64C85.515 39.12 78.155 31.36 68.875 31.36ZM108.03 61.52H107.15C104.83 61.52 103.23 59.92 103.23 57.2V18.08C103.23 16.8 102.43 16 101.15 16H94.83C93.55 16 92.75 16.8 92.75 18.08V57.04C92.75 67.52 97.15 72 106.91 72H107.63C108.91 72 109.71 71.2 109.71 69.92V63.6C109.71 62.24 109.23 61.52 108.03 61.52ZM127.635 23.04C127.635 26.72 125.155 29.2 121.475 29.2C118.275 29.2 115.395 26.72 115.395 23.04C115.395 19.92 118.275 17.04 121.475 17.04C125.155 17.04 127.635 19.92 127.635 23.04ZM124.595 72H118.435C117.155 72 116.355 71.2 116.355 69.92V34.08C116.355 32.8 117.155 32 118.435 32H124.595C125.875 32 126.675 32.8 126.675 34.08V69.92C126.675 71.2 125.875 72 124.595 72ZM152.703 31.36C149.103 31.36 145.823 32.48 142.943 34.56V33.84C142.943 32.64 142.303 32 141.183 32H136.783C135.503 32 134.703 32.8 134.703 34.08V69.92C134.703 71.2 135.503 72 136.783 72H143.023C144.303 72 145.103 71.2 145.103 69.92V48.64C145.103 44.88 148.223 41.76 151.983 41.76C155.823 41.76 158.863 44.88 158.863 48.64V69.92C158.863 71.2 159.663 72 160.943 72H167.263C168.543 72 169.343 71.2 169.343 69.92V48.64C169.343 39.12 161.983 31.36 152.703 31.36ZM216.338 53.2C215.538 39.76 207.138 31.36 196.018 31.36C184.498 31.36 175.458 40.24 175.458 51.6C175.458 63.04 184.578 72.64 196.738 72.64C201.458 72.64 207.058 71.2 212.178 67.2C213.298 66.4 213.378 65.36 212.498 64.24L208.978 60.08C208.178 59.04 207.218 58.96 206.098 59.6C203.698 61.28 200.498 62.8 196.898 62.8C192.578 62.8 188.098 60.4 186.178 55.28H214.258C215.618 55.28 216.418 54.56 216.338 53.2ZM186.258 47.28C187.058 43.04 190.978 40 195.778 40C200.738 40 204.258 43.36 205.058 47.28H186.258ZM238.421 61.52H237.541C235.221 61.52 233.621 59.92 233.621 57.2V18.08C233.621 16.8 232.821 16 231.541 16H225.221C223.941 16 223.141 16.8 223.141 18.08V57.04C223.141 67.52 227.541 72 237.301 72H238.021C239.301 72 240.101 71.2 240.101 69.92V63.6C240.101 62.24 239.621 61.52 238.421 61.52ZM265.081 31.36C253.721 31.36 244.441 40.64 244.441 52C244.441 63.36 253.721 72.64 265.081 72.64C276.441 72.64 285.721 63.36 285.721 52C285.721 40.64 276.441 31.36 265.081 31.36ZM265.081 41.92C270.681 41.92 275.161 46.4 275.161 52C275.161 57.6 270.681 62.16 265.081 62.16C259.481 62.16 254.921 57.6 254.921 52C254.921 46.4 259.481 41.92 265.081 41.92ZM312.836 61.52H307.956C305.076 61.52 302.996 59.36 302.996 56.48V41.12H313.236C314.516 41.12 315.236 40.4 315.236 39.12V34C315.236 32.72 314.516 32 313.236 32H302.996V21.36C302.996 20.08 302.196 19.28 300.916 19.28H294.596C293.316 19.28 292.516 20.08 292.516 21.36V56.4C292.516 66.72 298.356 72 307.636 72H312.836C314.196 72 314.916 71.2 314.916 69.92V63.6C314.916 62.24 314.196 61.52 312.836 61.52ZM341.586 61.52H336.706C333.826 61.52 331.746 59.36 331.746 56.48V41.12H341.986C343.266 41.12 343.986 40.4 343.986 39.12V34C343.986 32.72 343.266 32 341.986 32H331.746V21.36C331.746 20.08 330.946 19.28 329.666 19.28H323.346C322.066 19.28 321.266 20.08 321.266 21.36V56.4C321.266 66.72 327.106 72 336.386 72H341.586C342.946 72 343.666 71.2 343.666 69.92V63.6C343.666 62.24 342.946 61.52 341.586 61.52ZM369.065 31.36C357.705 31.36 348.425 40.64 348.425 52C348.425 63.36 357.705 72.64 369.065 72.64C380.425 72.64 389.705 63.36 389.705 52C389.705 40.64 380.425 31.36 369.065 31.36ZM369.065 41.92C374.665 41.92 379.145 46.4 379.145 52C379.145 57.6 374.665 62.16 369.065 62.16C363.465 62.16 358.905 57.6 358.905 52C358.905 46.4 363.465 41.92 369.065 41.92Z" fill="#212121"/>
<path d="M406.58 66.4C406.58 69.44 404.02 72 400.9 72C397.86 72 395.3 69.44 395.3 66.4C395.3 63.28 397.86 60.8 400.9 60.8C404.02 60.8 406.58 63.28 406.58 66.4Z" fill="url(#paint2_linear)"/>
<defs>
<linearGradient id="paint0_linear" x1="0" y1="80" x2="409.947" y2="80.2692" gradientUnits="userSpaceOnUse">
<stop stop-color="#C71CB8"/>
<stop offset="1" stop-color="#FE139C"/>
</linearGradient>
<linearGradient id="paint1_linear" x1="410" y1="72" x2="77.1476" y2="287.925" gradientUnits="userSpaceOnUse">
<stop stop-color="#1BEE02"/>
<stop offset="1" stop-color="#00AD45"/>
</linearGradient>
<linearGradient id="paint2_linear" x1="0" y1="80" x2="409.947" y2="80.2692" gradientUnits="userSpaceOnUse">
<stop stop-color="#C71CB8"/>
<stop offset="1" stop-color="#FE139C"/>
</linearGradient>
</defs>
</svg>
