<svg width="410" height="169" viewBox="0 0 410 169" fill="none" xmlns="http://www.w3.org/2000/svg">
<path d="M23.44 31.36C12.08 31.36 2.8 40.64 2.8 52C2.8 63.36 12.08 72.64 23.44 72.64C34.8 72.64 44.08 63.36 44.08 52C44.08 40.64 34.8 31.36 23.44 31.36ZM23.44 41.92C29.04 41.92 33.52 46.4 33.52 52C33.52 57.6 29.04 62.16 23.44 62.16C17.84 62.16 13.28 57.6 13.28 52C13.28 46.4 17.84 41.92 23.44 41.92ZM68.875 31.36C65.275 31.36 61.995 32.48 59.115 34.56V33.84C59.115 32.64 58.475 32 57.355 32H52.955C51.675 32 50.875 32.8 50.875 34.08V69.92C50.875 71.2 51.675 72 52.955 72H59.195C60.475 72 61.275 71.2 61.275 69.92V48.64C61.275 44.88 64.395 41.76 68.155 41.76C71.995 41.76 75.035 44.88 75.035 48.64V69.92C75.035 71.2 75.835 72 77.115 72H83.435C84.715 72 85.515 71.2 85.515 69.92V48.64C85.515 39.12 78.155 31.36 68.875 31.36ZM108.03 61.52H107.15C104.83 61.52 103.23 59.92 103.23 57.2V18.08C103.23 16.8 102.43 16 101.15 16H94.83C93.55 16 92.75 16.8 92.75 18.08V57.04C92.75 67.52 97.15 72 106.91 72H107.63C108.91 72 109.71 71.2 109.71 69.92V63.6C109.71 62.24 109.23 61.52 108.03 61.52ZM127.635 23.04C127.635 26.72 125.155 29.2 121.475 29.2C118.275 29.2 115.395 26.72 115.395 23.04C115.395 19.92 118.275 17.04 121.475 17.04C125.155 17.04 127.635 19.92 127.635 23.04ZM124.595 72H118.435C117.155 72 116.355 71.2 116.355 69.92V34.08C116.355 32.8 117.155 32 118.435 32H124.595C125.875 32 126.675 32.8 126.675 34.08V69.92C126.675 71.2 125.875 72 124.595 72ZM152.703 31.36C149.103 31.36 145.823 32.48 142.943 34.56V33.84C142.943 32.64 142.303 32 141.183 32H136.783C135.503 32 134.703 32.8 134.703 34.08V69.92C134.703 71.2 135.503 72 136.783 72H143.023C144.303 72 145.103 71.2 145.103 69.92V48.64C145.103 44.88 148.223 41.76 151.983 41.76C155.823 41.76 158.863 44.88 158.863 48.64V69.92C158.863 71.2 159.663 72 160.943 72H167.263C168.543 72 169.343 71.2 169.343 69.92V48.64C169.343 39.12 161.983 31.36 152.703 31.36ZM216.338 53.2C215.538 39.76 207.138 31.36 196.018 31.36C184.498 31.36 175.458 40.24 175.458 51.6C175.458 63.04 184.578 72.64 196.738 72.64C201.458 72.64 207.058 71.2 212.178 67.2C213.298 66.4 213.378 65.36 212.498 64.24L208.978 60.08C208.178 59.04 207.218 58.96 206.098 59.6C203.698 61.28 200.498 62.8 196.898 62.8C192.578 62.8 188.098 60.4 186.178 55.28H214.258C215.618 55.28 216.418 54.56 216.338 53.2ZM186.258 47.28C187.058 43.04 190.978 40 195.778 40C200.738 40 204.258 43.36 205.058 47.28H186.258ZM238.421 61.52H237.541C235.221 61.52 233.621 59.92 233.621 57.2V18.08C233.621 16.8 232.821 16 231.541 16H225.221C223.941 16 223.141 16.8 223.141 18.08V57.04C223.141 67.52 227.541 72 237.301 72H238.021C239.301 72 240.101 71.2 240.101 69.92V63.6C240.101 62.24 239.621 61.52 238.421 61.52ZM265.081 31.36C253.721 31.36 244.441 40.64 244.441 52C244.441 63.36 253.721 72.64 265.081 72.64C276.441 72.64 285.721 63.36 285.721 52C285.721 40.64 276.441 31.36 265.081 31.36ZM265.081 41.92C270.681 41.92 275.161 46.4 275.161 52C275.161 57.6 270.681 62.16 265.081 62.16C259.481 62.16 254.921 57.6 254.921 52C254.921 46.4 259.481 41.92 265.081 41.92ZM312.836 61.52H307.956C305.076 61.52 302.996 59.36 302.996 56.48V41.12H313.236C314.516 41.12 315.236 40.4 315.236 39.12V34C315.236 32.72 314.516 32 313.236 32H302.996V21.36C302.996 20.08 302.196 19.28 300.916 19.28H294.596C293.316 19.28 292.516 20.08 292.516 21.36V56.4C292.516 66.72 298.356 72 307.636 72H312.836C314.196 72 314.916 71.2 314.916 69.92V63.6C314.916 62.24 314.196 61.52 312.836 61.52ZM341.586 61.52H336.706C333.826 61.52 331.746 59.36 331.746 56.48V41.12H341.986C343.266 41.12 343.986 40.4 343.986 39.12V34C343.986 32.72 343.266 32 341.986 32H331.746V21.36C331.746 20.08 330.946 19.28 329.666 19.28H323.346C322.066 19.28 321.266 20.08 321.266 21.36V56.4C321.266 66.72 327.106 72 336.386 72H341.586C342.946 72 343.666 71.2 343.666 69.92V63.6C343.666 62.24 342.946 61.52 341.586 61.52ZM369.065 31.36C357.705 31.36 348.425 40.64 348.425 52C348.425 63.36 357.705 72.64 369.065 72.64C380.425 72.64 389.705 63.36 389.705 52C389.705 40.64 380.425 31.36 369.065 31.36ZM369.065 41.92C374.665 41.92 379.145 46.4 379.145 52C379.145 57.6 374.665 62.16 369.065 62.16C363.465 62.16 358.905 57.6 358.905 52C358.905 46.4 363.465 41.92 369.065 41.92Z" fill="#212121"/>
<path d="M406.58 66.4C406.58 69.44 404.02 72 400.9 72C397.86 72 395.3 69.44 395.3 66.4C395.3 63.28 397.86 60.8 400.9 60.8C404.02 60.8 406.58 63.28 406.58 66.4Z" fill="url(#paint0_linear)"/>
<path d="M70.487 88.92H64.783C63.587 88.92 62.667 89.472 62.115 90.576L39.115 137.496L16.115 90.576C15.563 89.472 14.643 88.92 13.447 88.92H7.74302C6.27102 88.92 5.35102 89.84 5.35102 91.312V154.608C5.35102 156.08 6.27102 157 7.74302 157H15.011C16.483 157 17.403 156.08 17.403 154.608V117.348L35.159 153.228C35.619 154.24 36.355 154.7 37.367 154.7H40.863C41.875 154.7 42.611 154.24 43.071 153.228L60.735 117.348V154.608C60.735 156.08 61.655 157 63.127 157H70.487C72.051 157 72.879 156.08 72.879 154.608V91.312C72.879 89.84 72.051 88.92 70.487 88.92ZM82.5268 154.608V91.312C82.5268 89.84 83.4468 88.92 84.9188 88.92H92.0028C93.5668 88.92 94.3948 89.84 94.3948 91.312V154.608C94.3948 156.08 93.5668 157 92.0028 157H84.9188C83.4468 157 82.5268 156.08 82.5268 154.608ZM145.029 91.312V134.552L114.301 90.392C113.565 89.288 112.645 88.92 111.449 88.92H106.481C105.009 88.92 104.089 89.84 104.089 91.312V154.608C104.089 156.08 105.009 157 106.481 157H113.749C115.221 157 116.141 156.08 116.141 154.608V111.552L146.685 155.528C147.329 156.632 148.249 157 149.445 157H154.597C156.161 157 157.081 156.08 157.081 154.608V91.312C157.081 89.84 156.161 88.92 154.597 88.92H147.421C145.949 88.92 145.029 89.84 145.029 91.312ZM188.793 157.552C176.557 157.552 166.621 147.616 166.621 135.38V91.312C166.621 89.84 167.541 88.92 169.013 88.92H176.189C177.753 88.92 178.581 89.84 178.581 91.312V135.38C178.581 140.9 183.181 145.5 188.793 145.5C194.405 145.5 198.913 140.9 198.913 135.38V91.312C198.913 89.84 199.833 88.92 201.305 88.92H208.573C210.045 88.92 210.965 89.84 210.965 91.312V135.38C210.965 147.616 201.029 157.552 188.793 157.552ZM258.339 88.92H220.619C219.147 88.92 218.227 89.84 218.227 91.312V98.58C218.227 100.144 219.147 100.972 220.619 100.972H233.499V154.608C233.499 156.08 234.327 157 235.891 157H243.067C244.631 157 245.459 156.08 245.459 154.608V100.972H258.339C259.903 100.972 260.731 100.144 260.731 98.58V91.312C260.731 89.84 259.903 88.92 258.339 88.92ZM304.817 144.948H281.633V128.204H303.161C304.633 128.204 305.553 127.376 305.553 125.904V119.924C305.553 118.452 304.633 117.624 303.161 117.624H281.633V100.972H304.817C306.289 100.972 307.209 100.144 307.209 98.58V91.312C307.209 89.84 306.289 88.92 304.817 88.92H271.973C270.501 88.92 269.581 89.84 269.581 91.312V154.608C269.581 156.08 270.501 157 271.973 157H304.817C306.289 157 307.209 156.08 307.209 154.608V147.34C307.209 145.776 306.289 144.948 304.817 144.948ZM350.062 157H318.782C317.31 157 316.39 156.08 316.39 154.608V91.312C316.39 89.84 317.31 88.92 318.782 88.92H326.05C327.522 88.92 328.442 89.84 328.442 91.312V144.948H350.062C351.626 144.948 352.546 145.776 352.546 147.34V154.608C352.546 156.08 351.626 157 350.062 157ZM403.725 88.92H394.157C392.961 88.92 392.041 89.472 391.397 90.484L379.345 111.92L367.293 90.484C366.649 89.472 365.729 88.92 364.441 88.92H354.965C353.125 88.92 352.481 90.116 353.401 91.68L373.365 126.088V154.608C373.365 156.08 374.285 157 375.757 157H382.933C384.497 157 385.325 156.08 385.325 154.608V126.088L405.381 91.68C406.301 90.116 405.565 88.92 403.725 88.92Z" fill="url(#paint1_linear)"/>
<path d="M23.44 31.36C12.08 31.36 2.8 40.64 2.8 52C2.8 63.36 12.08 72.64 23.44 72.64C34.8 72.64 44.08 63.36 44.08 52C44.08 40.64 34.8 31.36 23.44 31.36ZM23.44 41.92C29.04 41.92 33.52 46.4 33.52 52C33.52 57.6 29.04 62.16 23.44 62.16C17.84 62.16 13.28 57.6 13.28 52C13.28 46.4 17.84 41.92 23.44 41.92ZM68.875 31.36C65.275 31.36 61.995 32.48 59.115 34.56V33.84C59.115 32.64 58.475 32 57.355 32H52.955C51.675 32 50.875 32.8 50.875 34.08V69.92C50.875 71.2 51.675 72 52.955 72H59.195C60.475 72 61.275 71.2 61.275 69.92V48.64C61.275 44.88 64.395 41.76 68.155 41.76C71.995 41.76 75.035 44.88 75.035 48.64V69.92C75.035 71.2 75.835 72 77.115 72H83.435C84.715 72 85.515 71.2 85.515 69.92V48.64C85.515 39.12 78.155 31.36 68.875 31.36ZM108.03 61.52H107.15C104.83 61.52 103.23 59.92 103.23 57.2V18.08C103.23 16.8 102.43 16 101.15 16H94.83C93.55 16 92.75 16.8 92.75 18.08V57.04C92.75 67.52 97.15 72 106.91 72H107.63C108.91 72 109.71 71.2 109.71 69.92V63.6C109.71 62.24 109.23 61.52 108.03 61.52ZM127.635 23.04C127.635 26.72 125.155 29.2 121.475 29.2C118.275 29.2 115.395 26.72 115.395 23.04C115.395 19.92 118.275 17.04 121.475 17.04C125.155 17.04 127.635 19.92 127.635 23.04ZM124.595 72H118.435C117.155 72 116.355 71.2 116.355 69.92V34.08C116.355 32.8 117.155 32 118.435 32H124.595C125.875 32 126.675 32.8 126.675 34.08V69.92C126.675 71.2 125.875 72 124.595 72ZM152.703 31.36C149.103 31.36 145.823 32.48 142.943 34.56V33.84C142.943 32.64 142.303 32 141.183 32H136.783C135.503 32 134.703 32.8 134.703 34.08V69.92C134.703 71.2 135.503 72 136.783 72H143.023C144.303 72 145.103 71.2 145.103 69.92V48.64C145.103 44.88 148.223 41.76 151.983 41.76C155.823 41.76 158.863 44.88 158.863 48.64V69.92C158.863 71.2 159.663 72 160.943 72H167.263C168.543 72 169.343 71.2 169.343 69.92V48.64C169.343 39.12 161.983 31.36 152.703 31.36ZM216.338 53.2C215.538 39.76 207.138 31.36 196.018 31.36C184.498 31.36 175.458 40.24 175.458 51.6C175.458 63.04 184.578 72.64 196.738 72.64C201.458 72.64 207.058 71.2 212.178 67.2C213.298 66.4 213.378 65.36 212.498 64.24L208.978 60.08C208.178 59.04 207.218 58.96 206.098 59.6C203.698 61.28 200.498 62.8 196.898 62.8C192.578 62.8 188.098 60.4 186.178 55.28H214.258C215.618 55.28 216.418 54.56 216.338 53.2ZM186.258 47.28C187.058 43.04 190.978 40 195.778 40C200.738 40 204.258 43.36 205.058 47.28H186.258ZM238.421 61.52H237.541C235.221 61.52 233.621 59.92 233.621 57.2V18.08C233.621 16.8 232.821 16 231.541 16H225.221C223.941 16 223.141 16.8 223.141 18.08V57.04C223.141 67.52 227.541 72 237.301 72H238.021C239.301 72 240.101 71.2 240.101 69.92V63.6C240.101 62.24 239.621 61.52 238.421 61.52ZM265.081 31.36C253.721 31.36 244.441 40.64 244.441 52C244.441 63.36 253.721 72.64 265.081 72.64C276.441 72.64 285.721 63.36 285.721 52C285.721 40.64 276.441 31.36 265.081 31.36ZM265.081 41.92C270.681 41.92 275.161 46.4 275.161 52C275.161 57.6 270.681 62.16 265.081 62.16C259.481 62.16 254.921 57.6 254.921 52C254.921 46.4 259.481 41.92 265.081 41.92ZM312.836 61.52H307.956C305.076 61.52 302.996 59.36 302.996 56.48V41.12H313.236C314.516 41.12 315.236 40.4 315.236 39.12V34C315.236 32.72 314.516 32 313.236 32H302.996V21.36C302.996 20.08 302.196 19.28 300.916 19.28H294.596C293.316 19.28 292.516 20.08 292.516 21.36V56.4C292.516 66.72 298.356 72 307.636 72H312.836C314.196 72 314.916 71.2 314.916 69.92V63.6C314.916 62.24 314.196 61.52 312.836 61.52ZM341.586 61.52H336.706C333.826 61.52 331.746 59.36 331.746 56.48V41.12H341.986C343.266 41.12 343.986 40.4 343.986 39.12V34C343.986 32.72 343.266 32 341.986 32H331.746V21.36C331.746 20.08 330.946 19.28 329.666 19.28H323.346C322.066 19.28 321.266 20.08 321.266 21.36V56.4C321.266 66.72 327.106 72 336.386 72H341.586C342.946 72 343.666 71.2 343.666 69.92V63.6C343.666 62.24 342.946 61.52 341.586 61.52ZM369.065 31.36C357.705 31.36 348.425 40.64 348.425 52C348.425 63.36 357.705 72.64 369.065 72.64C380.425 72.64 389.705 63.36 389.705 52C389.705 40.64 380.425 31.36 369.065 31.36ZM369.065 41.92C374.665 41.92 379.145 46.4 379.145 52C379.145 57.6 374.665 62.16 369.065 62.16C363.465 62.16 358.905 57.6 358.905 52C358.905 46.4 363.465 41.92 369.065 41.92Z" fill="#212121"/>
<path d="M406.58 66.4C406.58 69.44 404.02 72 400.9 72C397.86 72 395.3 69.44 395.3 66.4C395.3 63.28 397.86 60.8 400.9 60.8C404.02 60.8 406.58 63.28 406.58 66.4Z" fill="url(#paint2_linear)"/>
<defs>
<linearGradient id="paint0_linear" x1="0" y1="80" x2="409.947" y2="80.2692" gradientUnits="userSpaceOnUse">
<stop stop-color="#C71CB8"/>
<stop offset="1" stop-color="#FE139C"/>
</linearGradient>
<linearGradient id="paint1_linear" x1="410" y1="72" x2="108.943" y2="307.984" gradientUnits="userSpaceOnUse">
<stop stop-color="#FFB300"/>
<stop offset="1" stop-color="#F57C00"/>
</linearGradient>
<linearGradient id="paint2_linear" x1="0" y1="80" x2="409.947" y2="80.2692" gradientUnits="userSpaceOnUse">
<stop stop-color="#C71CB8"/>
<stop offset="1" stop-color="#FE139C"/>
</linearGradient>
</defs>
</svg>
