<?xml version="1.0" encoding="UTF-8" standalone="no"?>
<!-- Created with Inkscape (http://www.inkscape.org/) -->

<svg
   xmlns:dc="http://purl.org/dc/elements/1.1/"
   xmlns:cc="http://creativecommons.org/ns#"
   xmlns:rdf="http://www.w3.org/1999/02/22-rdf-syntax-ns#"
   xmlns:svg="http://www.w3.org/2000/svg"
   xmlns="http://www.w3.org/2000/svg"
   xmlns:xlink="http://www.w3.org/1999/xlink"
   xmlns:sodipodi="http://sodipodi.sourceforge.net/DTD/sodipodi-0.dtd"
   xmlns:inkscape="http://www.inkscape.org/namespaces/inkscape"
   width="13.731875mm"
   height="8.6783333mm"
   viewBox="0 0 13.731875 8.6783333"
   version="1.1"
   id="svg5128"
   inkscape:version="0.92.4 (5da689c313, 2019-01-14)"
   sodipodi:docname="mastercard.svg">
  <defs
     id="defs5122">
    <clipPath
       id="SVGID_2_">
      <use
         id="use5036"
         style="overflow:visible"
         xlink:href="#SVGID_1_"
         x="0"
         y="0"
         width="100%"
         height="100%" />
    </clipPath>
    <rect
       id="rect5075"
       x="1000.6"
       y="364.39999"
       width="51.900002"
       height="32.799999" />
    <clipPath
       id="SVGID_2_-6">
      <use
         height="100%"
         width="100%"
         y="0"
         x="0"
         xlink:href="#SVGID_1_"
         style="overflow:visible"
         id="use5036-7" />
    </clipPath>
    <rect
       id="SVGID_1_"
       x="1000.6"
       y="364.39999"
       width="51.900002"
       height="32.799999" />
  </defs>
  <sodipodi:namedview
     id="base"
     pagecolor="#ffffff"
     bordercolor="#666666"
     borderopacity="1.0"
     inkscape:pageopacity="0.0"
     inkscape:pageshadow="2"
     inkscape:zoom="7.9195959"
     inkscape:cx="76.354083"
     inkscape:cy="16.892708"
     inkscape:document-units="mm"
     inkscape:current-layer="g5097"
     showgrid="false"
     inkscape:window-width="1858"
     inkscape:window-height="1057"
     inkscape:window-x="1974"
     inkscape:window-y="-8"
     inkscape:window-maximized="1" />
  <metadata
     id="metadata5125">
    <rdf:RDF>
      <cc:Work
         rdf:about="">
        <dc:format>image/svg+xml</dc:format>
        <dc:type
           rdf:resource="http://purl.org/dc/dcmitype/StillImage" />
        <dc:title></dc:title>
      </cc:Work>
    </rdf:RDF>
  </metadata>
  <g
     inkscape:label="Layer 1"
     inkscape:groupmode="layer"
     id="layer1"
     transform="translate(-62.681681,-115.01201)">
    <g
       transform="matrix(3.7603168,0,0,5.4041377,-3846.546,-1906.4164)"
       id="g5097">
      <g
         id="g5179"
         transform="matrix(0.07036198,0,0,0.0489594,979.43523,366.48736)">
        <g
           transform="translate(-145.51615,-209.89196)"
           id="g5071">
          <rect
             id="_Clipping_Path_2"
             x="1000.6"
             y="364.39999"
             width="51.900002"
             height="32.799999" />
          <g
             id="g5050">
            <defs
               id="defs5034">
              <rect
                 id="rect5231"
                 x="1000.6"
                 y="364.39999"
                 width="51.900002"
                 height="32.799999" />
            </defs>
            <clipPath
               id="clipPath5196">
              <use
                 height="100%"
                 width="100%"
                 y="0"
                 x="0"
                 xlink:href="#SVGID_1_"
                 style="overflow:visible"
                 id="use5194" />
            </clipPath>
            <g
               class="st19"
               clip-path="url(#SVGID_2_-6)"
               id="g5048">
              <g
                 id="Circles_only">
                <rect
                   style="fill:#ff5f00"
                   x="1021.4"
                   y="370.29999"
                   class="st15"
                   width="10.3"
                   height="20.9"
                   id="rect5039" />
                <path
                   style="fill:#eb001b"
                   inkscape:connector-curvature="0"
                   class="st16"
                   d="m 1021.5,380.8 c 0,-4.1 1.9,-7.9 5.1,-10.4 -5.8,-4.5 -14.1,-3.5 -18.7,2.2 -4.5,5.8 -3.5,14.1 2.2,18.7 4.8,3.8 11.6,3.8 16.4,0 -3.1,-2.6 -5,-6.5 -5,-10.5"
                   id="path5041" />
                <path
                   style="fill:#f79e1b"
                   inkscape:connector-curvature="0"
                   class="st17"
                   d="m 1046.8,389 v -0.4 h 0.2 v -0.1 h -0.4 v 0.1 h 0.2 z m 0.8,0 v -0.5 h -0.1 l -0.2,0.4 -0.2,-0.4 h -0.1 v 0.5 h 0.1 v -0.4 l 0.2,0.3 h 0.1 l 0.2,-0.3 z"
                   id="path5043" />
                <path
                   style="fill:#f79e1b"
                   inkscape:connector-curvature="0"
                   class="st17"
                   d="m 1034.8,367.5 c -3,0 -5.9,1 -8.2,2.8 5.8,4.5 6.8,12.9 2.2,18.6 -0.7,0.8 -1.4,1.6 -2.2,2.2 5.8,4.5 14.1,3.5 18.6,-2.3 4.5,-5.8 3.5,-14.1 -2.3,-18.6 -2.3,-1.7 -5.2,-2.7 -8.1,-2.7"
                   id="path5045" />
              </g>
            </g>
          </g>
        </g>
      </g>
    </g>
  </g>
</svg>
