<svg id="Layer_1" data-name="Layer 1" xmlns="http://www.w3.org/2000/svg" viewBox="0 0 392 64"><defs><style>.cls-1{fill:#d21f32;}.cls-2{fill:#fbb714;}.cls-3{fill:#e31837;}.cls-4{fill:#012169;}.cls-5{fill:#0367b4;}.cls-6{fill:#fff;}.cls-7{fill:#f68026;}.cls-8{fill:#056dae;}.cls-9{fill:#fe0001;}.cls-10{font-size:23px;fill:#6b6b6b;font-family:OpenSans-Bold, Open Sans;font-weight:700;}</style></defs><rect class="cls-1" x="139.09" y="13.61" width="39.07" height="39.07"/><path class="cls-2" d="M142.48,29.73a1.82,1.82,0,0,1,2.09,1.32c.61,1.65,3.48,8.77,3.48,8.77h2.28l2.47-6.41,2.7,6.41h2.1l3.64-9.63a.93.93,0,0,1,.82-.56h2.26a.6.6,0,0,1,.64.64V37.9a.63.63,0,0,1-.67.66H162.9v1.26h7.18V38.57h-1.8a.74.74,0,0,1-.8-.8V34.44h1.87a.85.85,0,0,1,.87.87v1.48h1V31.13h-1v1.19a.91.91,0,0,1-.95,1h-1.82V29.63h4.09a1.84,1.84,0,0,1,2,2v1.18h1.3V28.41H157.35v1.21h1.27s.76-.14.71.71a65.31,65.31,0,0,1-2.53,6.52s-.1.19-.29,0-2.39-6.14-2.39-6.14-.65-1,.38-1a12.35,12.35,0,0,0,1.3,0V28.41h-6.12v1.25h1.41s.79-.06.79,1.14a2.17,2.17,0,0,1-.25,1l-2,4.92s-.25.49-.42,0-2.36-6.09-2.36-6.09-.4-.88.46-.88h1.07V28.41h-5.93Z"/><path class="cls-3" d="M92.84,52.16c11-9.44,26.3-18.47,34.93-21.88-1.41-.81-3.41-2-5.62-3.42C111.31,30.48,98.46,38.51,87,47.54,89,49.15,91,50.55,92.84,52.16Z"/><path class="cls-4" d="M87.82,26.66c-1.61-.8-3.42-1.6-4.82-2.21a116.48,116.48,0,0,0-16.26,10c1.4.8,3,1.81,4.61,2.61A141.76,141.76,0,0,1,87.82,26.66Z"/><path class="cls-3" d="M97.65,22A91.55,91.55,0,0,0,84,17.23,46.27,46.27,0,0,1,79.18,19a66.36,66.36,0,0,1,13.66,5C94.24,23.45,96.25,22.65,97.65,22Z"/><path class="cls-4" d="M74.37,21.44a135,135,0,0,0-16.07,9c1.21.6,2.41,1,4.22,1.8a117.33,117.33,0,0,1,16.26-9.43C77,22.24,75.37,21.84,74.37,21.44Z"/><path class="cls-3" d="M102.27,20.44A37.69,37.69,0,0,0,106.69,19a76.06,76.06,0,0,0-13.85-4.62c-.81.21-3,.81-4.42,1.21A131.78,131.78,0,0,1,102.27,20.44Z"/><path class="cls-3" d="M76.57,40.11c1.61,1,3.42,2.41,5.22,3.42,11.45-8.84,22.69-15.66,35.14-19.68-1.81-.8-3.21-1.61-5.22-2.61C104.08,23.25,91.43,28.47,76.57,40.11Z"/><path class="cls-5" d="M18.55,14.8V39.4c0,.72,0,.72-.73.72H9.23c-1.08,0-1.57-.49-1.57-1.55,0-3.93,0-7.86,0-11.79A1.45,1.45,0,0,1,8,25.89c3.44-3.66,6.91-7.31,10.37-11C18.4,14.9,18.43,14.89,18.55,14.8Z"/><path class="cls-5" d="M8.75,41.82H33.31c.72,0,.72,0,.72.69v8.64c0,1.17-.4,1.59-1.55,1.59-3.93,0-7.86,0-11.79,0a1.37,1.37,0,0,1-.84-.32Q14.48,47.33,9.14,42.23C9,42.13,8.93,42,8.75,41.82Z"/><path class="cls-5" d="M35.81,51.51V27.12c0-.77,0-.77.79-.77,2.85,0,5.69,0,8.53,0,1.1,0,1.58.48,1.58,1.6,0,3.91,0,7.81,0,11.72a1.27,1.27,0,0,1-.29.8c-3.38,3.6-6.79,7.18-10.18,10.76-.1.11-.18.23-.27.34Z"/><path class="cls-5" d="M45.42,24.59H21.13c-.82,0-.82,0-.82-.83,0-2.77,0-5.54,0-8.31,0-1.37.42-1.79,1.77-1.79H33.54a1.3,1.3,0,0,1,1,.4l10.54,10c.13.12.28.22.41.33Z"/><circle class="cls-6" cx="211.72" cy="33.52" r="17.82"/><path class="cls-7" d="M230.66,34.51a18,18,0,0,1-5.49,12.1A18.11,18.11,0,0,1,213.93,52a18.86,18.86,0,0,1-21-19.47,18.26,18.26,0,0,1,5.35-12.48A18.22,18.22,0,0,1,211,14.43C222.42,14.05,230.69,23.11,230.66,34.51Zm-29.19,7.55h0c0,.43.05.86.09,1.29a.58.58,0,0,0,.11.18,1.92,1.92,0,0,0,.13-.17c.26-.68.47-1.38.79-2,.4-.85.87-1.66,1.33-2.47q1.4-2.43,2.8-4.85l1.65-2.86c.58-1,1.14-2,1.73-3a1.82,1.82,0,0,1,1.07-.85c.22-.06.25-.12.14-.31-.45-.77-.89-1.54-1.34-2.3s-.72-1.29-1.13-1.91-1-1.36-1.48-2a6.76,6.76,0,0,0-2.14-1.84,1.94,1.94,0,0,0-2.56.35,4.55,4.55,0,0,0-1.09,2.55,18.49,18.49,0,0,0-.12,2.47c0,3.68,0,7.37,0,11.05Zm1.08,3.76a7.28,7.28,0,0,0,.22,1.13,2.22,2.22,0,0,0,2.58,1.26.57.57,0,0,1,.18,0,4.28,4.28,0,0,0,1.86-.55c1.2-.63,2.37-1.34,3.55-2L215.5,43l3.44-2,3.25-1.91,3.35-2a1.53,1.53,0,0,0,.18-.18c-.09,0-.18-.1-.26-.09-.32,0-.62.12-.94.15a17.21,17.21,0,0,1-2.15.22c-4.61,0-9.22,0-13.84,0a2.3,2.3,0,0,1-1.67-.52c-.13-.12-.26-.1-.31.09a.61.61,0,0,1-.07.14l-1.78,3.08A19.2,19.2,0,0,0,203,43.77,8.7,8.7,0,0,0,202.55,45.82ZM220.29,36h0c.27,0,.53,0,.8,0,1,0,2-.07,3-.13a4.12,4.12,0,0,0,.84-.15c.42-.1.84-.22,1.26-.34a4.2,4.2,0,0,0,1.66-.9,1.8,1.8,0,0,0,.61-1.93,4.23,4.23,0,0,0-1.73-2.35c-.93-.63-1.91-1.2-2.87-1.78l-3.09-1.8c-.87-.51-1.73-1-2.6-1.53-1.22-.71-2.45-1.4-3.67-2.1l-3.2-1.84c-1-.59-2.07-1.17-3.12-1.75a.82.82,0,0,0-.23,0,.57.57,0,0,0,.08.24,19,19,0,0,1,2.35,3.29c.84,1.43,1.65,2.88,2.48,4.31L215,30.91l1.58,2.72a3,3,0,0,1,.64,2.07c-.05.27.09.32.32.32Z"/><rect class="cls-8" x="245.04" y="13.96" width="38.65" height="38.65" rx="5.51"/><rect class="cls-6" x="274.49" y="30.59" width="2.48" height="11.88"/><rect class="cls-6" x="260.56" y="30.59" width="2.48" height="11.88"/><path class="cls-6" d="M271.74,40.15c-2,.87-2.13-.71-2.13-.71V32.86h2.52V30.59h-2.52V26.9l-2.44,1.33v2.36h-2v2.27h2c0,3,0,6.47,0,7.1a2.61,2.61,0,0,0,2.74,2.51c1.83,0,2.22-.51,2.22-.51l.51-2.24Z"/><path class="cls-9" d="M258.83,28.67h3s2-3,6.87-3a8.72,8.72,0,0,1,7.06,3h2.81a11.92,11.92,0,0,0-19.75,0Z"/><path class="cls-6" d="M257.77,39a3.44,3.44,0,0,1-2.91,1.38,3.82,3.82,0,0,1-.08-7.63,4,4,0,0,1,3,1.37l1.46-1.65s-1.14-2-4.45-2a6,6,0,0,0-6.12,6.11,6,6,0,0,0,6.12,6.2c3.46,0,4.45-2.09,4.45-2.09Z"/><text class="cls-10" transform="translate(299.63 41.49)">&amp; more</text></svg>