<svg width="114" height="19" viewBox="0 0 114 19" fill="none" xmlns="http://www.w3.org/2000/svg">
<path d="M9.344 15.576H2.864V10.176H8.912C9.224 10.176 9.392 9.984 9.392 9.696V8.52C9.392 8.232 9.224 8.04 8.912 8.04H2.864V2.664H9.344C9.656 2.664 9.872 2.448 9.872 2.136V0.767999C9.872 0.431999 9.656 0.24 9.344 0.24H0.968C0.632 0.24 0.44 0.431999 0.44 0.767999V17.472C0.44 17.808 0.632 18 0.968 18H9.344C9.656 18 9.872 17.808 9.872 17.472V16.104C9.872 15.792 9.656 15.576 9.344 15.576ZM20.9589 9.12L26.5509 0.816C26.7669 0.48 26.6229 0.24 26.2389 0.24H24.4629C24.1989 0.24 23.9829 0.36 23.8629 0.551999L19.4949 7.008L15.1029 0.551999C14.9589 0.36 14.7669 0.24 14.5029 0.24H12.7269C12.3429 0.24 12.1989 0.48 12.4149 0.816L18.0069 9.12L12.3909 17.424C12.1749 17.76 12.3429 18 12.7269 18H14.5029C14.7669 18 14.9589 17.904 15.1029 17.688L19.4949 11.208L23.8629 17.688C23.9829 17.904 24.1989 18 24.4629 18H26.2389C26.6229 18 26.7909 17.76 26.5749 17.424L20.9589 9.12ZM36.1721 18.144C31.1561 18.144 27.1241 14.088 27.1241 9.12C27.1241 4.152 31.2041 0.0959988 36.1001 0.0959988C38.3321 0.0959988 40.3481 0.935999 42.1001 2.448C42.3401 2.664 42.3641 2.904 42.1481 3.168L41.3801 4.128C41.1881 4.416 40.9001 4.44 40.6361 4.2C39.3401 3.168 37.8281 2.496 36.1241 2.496C32.5241 2.496 29.5241 5.472 29.5241 9.12C29.5241 12.768 32.5001 15.744 36.1241 15.744C37.8041 15.744 39.3641 15.12 40.6361 14.064C40.9001 13.848 41.1641 13.872 41.3801 14.136L42.1721 15.192C42.3881 15.48 42.3401 15.72 42.1001 15.936C40.3961 17.352 38.3801 18.144 36.1721 18.144ZM53.6073 18H45.6633C45.3273 18 45.1353 17.808 45.1353 17.472V0.767999C45.1353 0.431999 45.3273 0.24 45.6633 0.24H47.0073C47.3433 0.24 47.5593 0.431999 47.5593 0.767999V15.576H53.6073C53.9433 15.576 54.1353 15.792 54.1353 16.104V17.472C54.1353 17.808 53.9433 18 53.6073 18ZM61.3451 18.144C58.2491 18.144 55.7291 15.624 55.7291 12.528V0.767999C55.7291 0.431999 55.9211 0.24 56.2571 0.24H57.6011C57.9371 0.24 58.1291 0.431999 58.1291 0.767999V12.528C58.1291 14.28 59.5691 15.72 61.3451 15.72C63.1211 15.72 64.5851 14.28 64.5851 12.528V0.767999C64.5851 0.431999 64.7771 0.24 65.1131 0.24H66.4571C66.7691 0.24 66.9851 0.431999 66.9851 0.767999V12.528C66.9851 15.624 64.4651 18.144 61.3451 18.144ZM74.5447 18.192C72.8887 18.192 71.2807 17.52 69.8167 16.368C69.5287 16.128 69.4807 15.888 69.6247 15.624L70.3687 14.376C70.5367 14.112 70.7767 14.064 71.0647 14.256C72.3367 15.192 73.4647 15.624 74.4247 15.624C75.9367 15.624 77.0647 14.568 77.0647 13.224C77.0647 11.448 75.0727 10.584 73.2247 9.648C71.2567 8.664 69.3607 7.344 69.4807 4.752C69.6247 1.944 71.9287 0.0479994 74.7127 0.0959988C75.9847 0.119998 77.1367 0.551999 78.0007 1.056C78.2647 1.248 78.2887 1.464 78.1207 1.728L77.4007 2.784C77.2327 3.024 77.0167 3.096 76.7527 2.952C76.0327 2.568 75.3127 2.328 74.6407 2.328C73.2007 2.328 71.9767 3.432 71.9767 4.848C71.9767 6.312 73.3687 6.912 74.8327 7.608C76.5367 8.376 79.6567 9.912 79.6567 13.248C79.6567 16.008 77.5207 18.192 74.5447 18.192ZM82.0963 17.472V0.767999C82.0963 0.431999 82.2883 0.24 82.6243 0.24H83.9443C84.2803 0.24 84.4723 0.431999 84.4723 0.767999V17.472C84.4723 17.808 84.2803 18 83.9443 18H82.6243C82.2883 18 82.0963 17.808 82.0963 17.472ZM100.981 0.24H99.3731C99.1091 0.24 98.9171 0.335999 98.8211 0.623999L94.1651 13.536L89.4851 0.623999C89.3891 0.335999 89.1971 0.24 88.9331 0.24H87.3251C86.9891 0.24 86.8211 0.431999 86.9411 0.792L93.1091 17.616C93.2051 17.904 93.3971 18 93.6611 18H94.6451C94.9091 18 95.1011 17.904 95.1971 17.616L101.365 0.792C101.485 0.431999 101.341 0.24 100.981 0.24ZM112.75 15.576H106.27V10.176H112.318C112.63 10.176 112.798 9.984 112.798 9.696V8.52C112.798 8.232 112.63 8.04 112.318 8.04H106.27V2.664H112.75C113.062 2.664 113.278 2.448 113.278 2.136V0.767999C113.278 0.431999 113.062 0.24 112.75 0.24H104.374C104.038 0.24 103.846 0.431999 103.846 0.767999V17.472C103.846 17.808 104.038 18 104.374 18H112.75C113.062 18 113.278 17.808 113.278 17.472V16.104C113.278 15.792 113.062 15.576 112.75 15.576Z" fill="url(#paint0_linear)"/>
<defs>
<linearGradient id="paint0_linear" x1="115" y1="-4" x2="38.7489" y2="64.3462" gradientUnits="userSpaceOnUse">
<stop stop-color="#FFB300"/>
<stop offset="1" stop-color="#F57C00"/>
</linearGradient>
</defs>
</svg>
