<svg width="135" height="99" viewBox="0 0 135 99" fill="none" xmlns="http://www.w3.org/2000/svg">
<path d="M38.6013 71.9908C35.9216 72.4633 33.1027 71.9192 30.0875 70.4888C29.2149 70.082 28.9569 69.5269 29.1831 68.7662L30.4835 65.0131C30.7943 64.2776 31.3494 64.0195 32.0918 64.3691C33.9923 65.1552 35.7261 65.4502 37.0466 65.2173C38.6777 64.9297 39.5824 63.9293 39.3565 62.6477C38.9593 60.3952 35.6698 60.1343 32.5997 59.0739C28.7164 57.7164 26.4826 55.2672 26.0558 51.9388C25.4466 47.1209 28.892 43.2698 34.0594 42.5989C36.1314 42.3137 38.2353 42.6635 39.9851 43.276C40.7138 43.5479 40.933 44.1099 40.6611 44.8386L39.3608 47.9109C39.05 48.6465 38.5269 48.8589 37.805 48.6257C36.9141 48.3424 35.8816 48.164 34.7942 48.3558C33.0854 48.6571 32.2195 49.6507 32.4249 50.8157C32.7536 52.6799 35.4149 53.0115 37.9505 53.7657C40.4404 54.4879 45.1438 56.1813 46.0819 61.5018C46.9653 66.5117 43.8442 71.0664 38.6013 71.9908ZM64.3084 67.3779C56.2694 68.7954 48.5488 63.3894 47.1313 55.3503C45.7138 47.3113 51.1198 39.5907 59.12 38.1801C63.0424 37.4885 66.7339 38.4393 70.1602 40.8384C70.7929 41.2474 70.8888 41.7911 70.5255 42.4558L68.7523 45.5715C68.389 46.2362 67.7745 46.3846 67.1029 45.9825C64.9192 44.7257 62.708 43.9944 60.2613 44.4258C55.6399 45.2407 52.5759 49.6652 53.3839 54.2478C54.1919 58.8305 58.5844 61.9402 63.2059 61.1253C65.4584 60.7281 67.5854 59.392 69.1231 57.4391C69.6166 56.8315 70.1991 56.7288 70.7747 57.268L73.639 59.8863C74.1689 60.3935 74.2648 60.9372 73.8169 61.5768C71.6075 64.4891 68.2308 66.6862 64.3084 67.3779ZM82.4131 34.3132L73.5973 35.8676C72.8594 35.9977 72.4687 36.5071 72.5988 37.245L73.1535 40.3907C73.2905 41.1674 73.8318 41.5124 74.5697 41.3823L78.2591 40.7318L82.1487 62.7906C82.2788 63.5285 82.7813 63.8803 83.558 63.7434L87.4805 63.0518C88.2184 62.9217 88.5702 62.4191 88.4401 61.6812L83.7836 35.2728C83.6535 34.5349 83.151 34.183 82.4131 34.3132ZM97.6624 40.3938C97.4682 40.428 97.2032 40.5148 97.0159 40.5879L96.9225 38.2418L103.991 36.9955C104.729 36.8654 105.119 36.356 104.989 35.6181L104.291 31.6568C104.161 30.919 103.619 30.5739 102.881 30.7041L91.6577 32.6831C90.9587 32.8063 90.5931 33.2312 90.6067 33.9896L90.8337 44.3609C90.8451 44.8794 91.0301 45.2472 91.5577 45.5146L95.6031 47.5643C96.0851 47.7996 96.5123 47.7243 96.9692 47.3634C97.4718 47.0346 98.1047 46.7628 98.726 46.6532C100.901 46.2698 102.826 47.6521 103.21 49.8269C103.587 51.9629 102.243 53.8816 100.107 54.2582C98.942 54.4637 97.8432 54.1368 96.9364 53.5359C96.3037 53.1269 95.7783 53.0994 95.2847 53.707L92.6435 56.8957C92.15 57.5033 92.1819 58.1383 92.8283 58.625C95.1719 60.3341 98.2031 61.4013 101.31 60.8535C106.669 59.9085 110.476 54.4721 109.469 48.7632C108.483 43.1709 103.294 39.4009 97.6624 40.3938Z" fill="url(#paint0_linear)"/>
<path d="M30.3005 87.0086C29.6268 87.1274 28.9181 86.9906 28.1601 86.631C27.9407 86.5287 27.8758 86.3891 27.9327 86.1979L28.2596 85.2544C28.3378 85.0694 28.4773 85.0046 28.664 85.0925C29.1418 85.2901 29.5777 85.3642 29.9096 85.3057C30.3197 85.2334 30.5472 84.9819 30.4903 84.6597C30.3905 84.0934 29.5635 84.0278 28.7917 83.7612C27.8154 83.4199 27.2538 82.8042 27.1465 81.9674C26.9933 80.7562 27.8595 79.788 29.1586 79.6193C29.6796 79.5476 30.2085 79.6355 30.6484 79.7895C30.8316 79.8579 30.8867 79.9992 30.8183 80.1824L30.4914 80.9548C30.4133 81.1397 30.2818 81.1931 30.1003 81.1345C29.8763 81.0632 29.6167 81.0184 29.3434 81.0666C28.9138 81.1424 28.6961 81.3922 28.7477 81.6851C28.8304 82.1537 29.4994 82.2371 30.1369 82.4267C30.7629 82.6083 31.9453 83.034 32.1812 84.3716C32.4032 85.6311 31.6186 86.7762 30.3005 87.0086ZM40.0145 77.7656L38.8721 77.967C38.6964 77.998 38.601 78.0852 38.5832 78.2696L38.2283 81.9664L36.716 78.6995C36.6512 78.5599 36.553 78.5168 36.4065 78.5427L35.7816 78.6529C35.6352 78.6787 35.5479 78.7545 35.5347 78.9078L35.2407 82.4932L33.6233 79.1442C33.5435 78.977 33.4241 78.9276 33.2581 78.9569L32.1157 79.1583C31.9107 79.1945 31.8274 79.3501 31.9204 79.535L34.9576 85.8552C35.0375 86.0223 35.1569 86.0717 35.3229 86.0425L36.0942 85.9065C36.27 85.8755 36.3716 85.7669 36.3912 85.5924L36.6783 81.9679L38.2072 85.2721C38.2755 85.4312 38.4082 85.4984 38.5839 85.4675L39.3552 85.3315C39.531 85.3005 39.6263 85.2132 39.6442 85.0288L40.3366 78.051C40.3608 77.8454 40.2292 77.7277 40.0145 77.7656ZM46.0924 82.5126L43.8077 82.9155L43.5718 81.5779L45.671 81.2077C45.8663 81.1733 45.9547 81.047 45.922 80.8615L45.7809 80.0609C45.7481 79.8754 45.6218 79.7869 45.4265 79.8213L43.3274 80.1915L43.0915 78.8539L45.3762 78.451C45.5617 78.4183 45.6502 78.292 45.6175 78.1065L45.4418 77.1106C45.4091 76.9251 45.2828 76.8366 45.0973 76.8693L41.5238 77.4994C41.3383 77.5321 41.2499 77.6585 41.2826 77.844L42.4532 84.4832C42.486 84.6687 42.6123 84.7571 42.7978 84.7244L46.3713 84.0943C46.5568 84.0616 46.6452 83.9353 46.6125 83.7498L46.4369 82.7539C46.4042 82.5684 46.2779 82.4799 46.0924 82.5126ZM51.2636 81.6008L48.9789 82.0037L48.7431 80.6661L50.8423 80.2959C51.0375 80.2615 51.126 80.1351 51.0933 79.9496L50.9521 79.149C50.9194 78.9635 50.7931 78.8751 50.5978 78.9095L48.4986 79.2796L48.2628 77.942L50.5474 77.5392C50.733 77.5065 50.8214 77.3801 50.7887 77.1946L50.6131 76.1987C50.5804 76.0132 50.4541 75.9248 50.2685 75.9575L46.6951 76.5876C46.5096 76.6203 46.4211 76.7466 46.4538 76.9321L47.6245 83.5713C47.6572 83.7569 47.7835 83.8453 47.9691 83.8126L51.5425 83.1825C51.728 83.1498 51.8165 83.0235 51.7838 82.838L51.6082 81.8421C51.5755 81.6566 51.4491 81.5681 51.2636 81.6008ZM53.8679 75.3228L51.8663 75.6757C51.6808 75.7085 51.5924 75.8348 51.6251 76.0203L52.7958 82.6595C52.8285 82.845 52.9548 82.9335 53.1403 82.9008L54.1264 82.7269C54.3217 82.6925 54.4102 82.5661 54.3774 82.3806L53.9471 79.9397L54.6598 79.8141C55.8998 79.5954 56.7379 78.4107 56.5175 77.161C56.3006 75.9308 55.1078 75.1042 53.8679 75.3228ZM54.3809 78.2324L53.6682 78.358L53.434 77.0302L54.1468 76.9045C54.5178 76.8391 54.8721 77.0786 54.9358 77.4399C55.0047 77.8304 54.7519 78.1669 54.3809 78.2324ZM60.3806 81.7046C59.7069 81.8234 58.9983 81.6867 58.2402 81.327C58.0208 81.2248 57.956 81.0852 58.0129 80.894L58.3398 79.9504C58.4179 79.7655 58.5575 79.7006 58.7441 79.7885C59.2219 79.9861 59.6578 80.0603 59.9898 80.0018C60.3998 79.9295 60.6273 79.6779 60.5705 79.3557C60.4706 78.7894 59.6436 78.7239 58.8718 78.4573C57.8955 78.116 57.3339 77.5003 57.2266 76.6635C57.0735 75.4522 57.9397 74.484 59.2388 74.3154C59.7597 74.2437 60.2886 74.3316 60.7285 74.4856C60.9117 74.554 60.9668 74.6952 60.8985 74.8784L60.5716 75.6508C60.4934 75.8358 60.3619 75.8892 60.1804 75.8306C59.9565 75.7593 59.6969 75.7145 59.4235 75.7627C58.9939 75.8384 58.7762 76.0882 58.8279 76.3811C58.9105 76.8498 59.5796 76.9331 60.217 77.1228C60.843 77.3043 62.0254 77.7301 62.2613 79.0677C62.4834 80.3272 61.6987 81.4722 60.3806 81.7046ZM66.4457 73.105L62.3938 73.8195C62.2083 73.8522 62.1198 73.9785 62.1526 74.164L62.3282 75.1599C62.3609 75.3454 62.4872 75.4339 62.6727 75.4012L63.9127 75.1825L64.8561 80.533C64.8888 80.7185 65.0152 80.8069 65.2007 80.7742L66.1868 80.6003C66.3723 80.5676 66.4607 80.4413 66.428 80.2558L65.4846 74.9053L66.7246 74.6867C66.9101 74.654 67.0083 74.5259 66.9756 74.3404L66.8 73.3446C66.7673 73.159 66.6312 73.0723 66.4457 73.105ZM74.4843 78.7849L70.5959 72.6048C70.5098 72.4589 70.3903 72.4095 70.2243 72.4387L69.4725 72.5713C69.3066 72.6006 69.2112 72.6878 69.1802 72.8544L67.7084 79.9797C67.6664 80.1985 67.7784 80.3197 67.9932 80.2818L69.1062 80.0856C69.2722 80.0563 69.3676 79.969 69.3986 79.8025L69.6296 78.7147L72.256 78.2516L72.8336 79.1867C72.9198 79.3326 73.0392 79.382 73.2052 79.3527L74.3102 79.168C74.525 79.1301 74.5985 78.9762 74.4843 78.7849ZM69.9871 77.0309L70.3658 75.1822L71.3442 76.7916L69.9871 77.0309ZM80.5588 77.7037L77.5884 74.1604L79.0005 71.2637C79.1108 71.0329 79.0051 70.8904 78.7513 70.9352L77.5894 71.1401C77.4332 71.1676 77.3264 71.2469 77.2609 71.3893L76.2262 73.5147L75.9129 71.7377C75.8802 71.5522 75.7539 71.4637 75.5586 71.4982L74.5822 71.6703C74.3967 71.703 74.3083 71.8294 74.341 72.0149L75.5117 78.6541C75.5444 78.8396 75.6707 78.9281 75.8562 78.8954L76.8326 78.7232C77.0278 78.6888 77.1163 78.5624 77.0836 78.3769L76.6704 76.0337L76.8031 75.7586L78.7589 78.1721C78.8628 78.3048 79.0001 78.341 79.1563 78.3135L80.4158 78.0914C80.6501 78.0501 80.7104 77.8783 80.5588 77.7037ZM85.3422 75.5918L83.0576 75.9947L82.8217 74.6571L84.9209 74.2869C85.1161 74.2525 85.2046 74.1262 85.1719 73.9407L85.0307 73.1401C84.998 72.9545 84.8717 72.8661 84.6764 72.9005L82.5772 73.2707L82.3414 71.933L84.6261 71.5302C84.8116 71.4975 84.9 71.3711 84.8673 71.1856L84.6917 70.1898C84.659 70.0043 84.5327 69.9158 84.3472 69.9485L80.7737 70.5786C80.5882 70.6113 80.4997 70.7376 80.5324 70.9232L81.7031 77.5624C81.7358 77.7479 81.8622 77.8363 82.0477 77.8036L85.6211 77.1735C85.8066 77.1408 85.8951 77.0145 85.8624 76.829L85.6868 75.8331C85.6541 75.6476 85.5277 75.5591 85.3422 75.5918ZM93.3332 75.8741C91.3122 76.2304 89.3712 74.8714 89.0148 72.8503C88.6585 70.8292 90.0175 68.8883 92.0288 68.5336C93.015 68.3597 93.943 68.5988 94.8044 69.2019C94.9635 69.3047 94.9876 69.4414 94.8962 69.6085L94.4505 70.3918C94.3591 70.559 94.2046 70.5963 94.0358 70.4952C93.4868 70.1792 92.9309 69.9954 92.3158 70.1038C91.1539 70.3087 90.3836 71.421 90.5868 72.5731C90.7899 73.7252 91.8942 74.507 93.0561 74.3021C93.6223 74.2023 94.1571 73.8664 94.5437 73.3754C94.6677 73.2227 94.8142 73.1968 94.9589 73.3324L95.679 73.9907C95.8122 74.1182 95.8363 74.2549 95.7237 74.4157C95.1683 75.1478 94.3193 75.7002 93.3332 75.8741ZM98.8605 67.329C96.8395 67.6854 95.4786 69.6166 95.8367 71.6474C96.1948 73.6782 98.1341 75.0276 100.155 74.6712C102.186 74.3131 103.537 72.3836 103.179 70.3528C102.821 68.322 100.891 66.9709 98.8605 67.329ZM99.1279 68.9027C100.26 68.703 101.396 69.4893 101.597 70.6317C101.799 71.774 101.001 72.9013 99.8682 73.101C98.7063 73.3059 97.6233 72.5304 97.4184 71.3685C97.2136 70.2067 97.9661 69.1075 99.1279 68.9027ZM104.734 73.5015L103.563 66.8622C103.53 66.6767 103.619 66.5504 103.804 66.5177L104.771 66.3473C104.966 66.3128 105.092 66.4013 105.125 66.5868L106.296 73.226C106.329 73.4115 106.24 73.5379 106.045 73.5723L105.078 73.7427C104.893 73.7754 104.766 73.687 104.734 73.5015ZM110.328 65.6694L111.031 69.6529L107.488 66.0595C107.376 65.9383 107.26 65.9084 107.103 65.936L106.43 66.0547C106.244 66.0875 106.156 66.2138 106.188 66.3993L107.359 73.0385C107.392 73.224 107.518 73.3125 107.704 73.2798L108.69 73.1059C108.885 73.0715 108.974 72.9451 108.941 72.7596L108.244 68.8054L111.742 72.3764C111.854 72.4976 111.97 72.5274 112.127 72.4999L112.83 72.3759C113.015 72.3432 113.104 72.2169 113.071 72.0314L111.9 65.3922C111.867 65.2067 111.741 65.1182 111.556 65.1509L110.579 65.3231C110.384 65.3575 110.296 65.4838 110.328 65.6694ZM116.355 71.8348C115.681 71.9536 114.973 71.8168 114.215 71.4572C113.995 71.3549 113.931 71.2154 113.987 71.0241L114.314 70.0806C114.392 69.8957 114.532 69.8308 114.719 69.9187C115.196 70.1163 115.632 70.1905 115.964 70.1319C116.374 70.0596 116.602 69.8081 116.545 69.4859C116.445 68.9196 115.618 68.854 114.846 68.5875C113.87 68.2462 113.308 67.6304 113.201 66.7936C113.048 65.5824 113.914 64.6142 115.213 64.4456C115.734 64.3738 116.263 64.4618 116.703 64.6158C116.886 64.6841 116.941 64.8254 116.873 65.0086L116.546 65.781C116.468 65.9659 116.336 66.0193 116.155 65.9607C115.931 65.8895 115.671 65.8447 115.398 65.8929C114.968 65.9686 114.751 66.2184 114.802 66.5113C114.885 66.98 115.554 67.0633 116.192 67.2529C116.818 67.4345 118 67.8602 118.236 69.1978C118.458 70.4573 117.673 71.6024 116.355 71.8348Z" fill="url(#paint1_linear)"/>
<path d="M40.65 30.0952L35.378 31.0248C35.0868 31.0761 34.9548 31.2646 35.0036 31.5413L35.2116 32.7209C35.263 33.0122 35.4514 33.1441 35.7427 33.0928L38.9321 32.5304C38.752 33.8085 37.8113 34.8603 36.5005 35.0915C34.8257 35.3868 33.2616 34.266 32.9484 32.4893C32.6453 30.7708 33.7943 29.1116 35.5128 28.8086C36.4449 28.6443 37.2013 28.9313 38.0056 29.4052C38.2575 29.556 38.4879 29.5003 38.6241 29.2511L39.2891 28.0827C39.4253 27.8334 39.3894 27.6295 39.1495 27.4616C37.8818 26.5739 36.5703 26.2045 35.0994 26.4639C32.0702 26.998 30.0575 29.8907 30.5891 32.9053C31.1181 35.9054 33.8411 37.978 36.914 37.4362C39.783 36.9303 41.7271 34.245 41.3198 31.2535L41.1785 30.4525C41.1297 30.1758 40.9413 30.0438 40.65 30.0952ZM49.0526 32.7731L45.6447 33.374L45.2929 31.3788L48.424 30.8267C48.7153 30.7753 48.8473 30.5869 48.7985 30.3102L48.5879 29.116C48.5391 28.8393 48.3507 28.7073 48.0594 28.7587L44.9282 29.3108L44.5764 27.3156L47.9843 26.7147C48.261 26.6659 48.393 26.4774 48.3442 26.2007L48.0822 24.7153C48.0334 24.4385 47.845 24.3066 47.5683 24.3554L42.2381 25.2953C41.9613 25.344 41.8294 25.5325 41.8782 25.8092L43.6244 35.7124C43.6732 35.9891 43.8616 36.121 44.1383 36.0722L49.4686 35.1324C49.7453 35.0836 49.8772 34.8951 49.8284 34.6184L49.5665 33.1329C49.5177 32.8562 49.3293 32.7243 49.0526 32.7731ZM55.5949 22.9401L49.5511 24.0058C49.2744 24.0546 49.1424 24.243 49.1912 24.5197L49.4531 26.0052C49.5019 26.2819 49.6904 26.4138 49.9671 26.3651L51.8167 26.0389L53.2239 34.0197C53.2727 34.2964 53.4611 34.4284 53.7378 34.3796L55.2087 34.1202C55.4854 34.0714 55.6174 33.883 55.5686 33.6063L54.1614 25.6255L56.0109 25.2994C56.2876 25.2506 56.4342 25.0596 56.3854 24.7828L56.1234 23.2974C56.0746 23.0207 55.8716 22.8913 55.5949 22.9401ZM65.7297 31.8146L65.0389 27.897L67.9225 27.3886C68.2138 27.3372 68.3457 27.1488 68.2969 26.8721L68.0864 25.6779C68.0376 25.4011 67.8491 25.2692 67.5579 25.3206L64.6743 25.829L64.3225 23.8338L67.4828 23.2766C67.7595 23.2278 67.8914 23.0393 67.8426 22.7626L67.5807 21.2771C67.5319 21.0004 67.3435 20.8685 67.0667 20.9173L61.9841 21.8135C61.7074 21.8623 61.5754 22.0507 61.6242 22.3274L63.3704 32.2306C63.4192 32.5073 63.6077 32.6393 63.8844 32.5905L65.3553 32.3311C65.6465 32.2798 65.7785 32.0913 65.7297 31.8146ZM78.0173 29.5579L74.986 25.9929C75.9199 25.2426 76.4238 24.0125 76.2004 22.7455C75.8768 20.9105 74.1123 19.675 72.2627 20.0011L69.2772 20.5275C69.0005 20.5763 68.8686 20.7648 68.9173 21.0415L70.6635 30.9446C70.7123 31.2213 70.9008 31.3533 71.1775 31.3045L72.6484 31.0451C72.9397 30.9938 73.0716 30.8053 73.0228 30.5286L72.3808 26.8878L72.7012 26.8313L75.5072 30.2257C75.6622 30.4236 75.8524 30.4802 76.0999 30.4365L77.8039 30.1361C78.168 30.0719 78.2579 29.8158 78.0173 29.5579ZM71.6156 22.5478L72.6787 22.3604C73.2321 22.2628 73.7606 22.6201 73.8557 23.1589C73.9584 23.7415 73.5814 24.2434 73.028 24.341L71.9648 24.5285L71.6156 22.5478ZM84.8782 26.4561L81.4703 27.057L81.1185 25.0618L84.2496 24.5097C84.5409 24.4583 84.6729 24.2699 84.6241 23.9931L84.4135 22.7989C84.3647 22.5222 84.1763 22.3903 83.885 22.4416L80.7538 22.9937L80.402 20.9985L83.8099 20.3977C84.0866 20.3489 84.2186 20.1604 84.1698 19.8837L83.9078 18.3982C83.859 18.1215 83.6706 17.9896 83.3939 18.0384L78.0637 18.9782C77.7869 19.027 77.655 19.2155 77.7038 19.4922L79.45 29.3953C79.4988 29.6721 79.6872 29.804 79.9639 29.7552L85.2942 28.8153C85.5709 28.7666 85.7028 28.5781 85.654 28.3014L85.3921 26.8159C85.3433 26.5392 85.1549 26.4073 84.8782 26.4561ZM92.5553 25.1024L89.1474 25.7033L88.7956 23.7081L91.9268 23.156C92.218 23.1046 92.35 22.9162 92.3012 22.6395L92.0906 21.4453C92.0418 21.1685 91.8534 21.0366 91.5621 21.088L88.431 21.6401L88.0792 19.6449L91.487 19.044C91.7637 18.9952 91.8957 18.8067 91.8469 18.53L91.585 17.0446C91.5362 16.7678 91.3477 16.6359 91.071 16.6847L85.7408 17.6245C85.4641 17.6733 85.3321 17.8618 85.3809 18.1385L87.1271 28.0417C87.1759 28.3184 87.3643 28.4503 87.641 28.4015L92.9713 27.4617C93.248 27.4129 93.3799 27.2244 93.3311 26.9477L93.0692 25.4622C93.0204 25.1855 92.832 25.0536 92.5553 25.1024Z" fill="url(#paint2_linear)"/>
<rect x="0.713809" y="21.8993" width="122.002" height="77.3036" rx="9.24259" transform="rotate(-10 0.713809 21.8993)" stroke="url(#paint3_linear)" stroke-width="1.23235"/>
<defs>
<linearGradient id="paint0_linear" x1="109.451" y1="9.42191" x2="9.19962" y2="50.4955" gradientUnits="userSpaceOnUse">
<stop stop-color="#1BEE02"/>
<stop offset="1" stop-color="#00AD45"/>
</linearGradient>
<linearGradient id="paint1_linear" x1="116.65" y1="55.4556" x2="47.1279" y2="115.912" gradientUnits="userSpaceOnUse">
<stop stop-color="#1BEE02"/>
<stop offset="1" stop-color="#00AD45"/>
</linearGradient>
<linearGradient id="paint2_linear" x1="90.4079" y1="6.58971" x2="28.7049" y2="39.9433" gradientUnits="userSpaceOnUse">
<stop stop-color="#1BEE02"/>
<stop offset="1" stop-color="#00AD45"/>
</linearGradient>
<linearGradient id="paint3_linear" x1="123.235" y1="21.3994" x2="-11.1212" y2="53.7557" gradientUnits="userSpaceOnUse">
<stop stop-color="#1BEE02"/>
<stop offset="1" stop-color="#00AD45"/>
</linearGradient>
</defs>
</svg>
