<svg width="259" height="154" viewBox="0 0 259 154" fill="none" xmlns="http://www.w3.org/2000/svg">
<path d="M31.4068 127.318H16.0013C15.1502 127.318 14.6821 127.786 14.6821 128.594V132.041C14.6821 132.893 15.1502 133.361 16.0013 133.361H25.3212C24.1722 136.893 20.9805 139.404 17.1504 139.404C12.2563 139.404 8.38367 135.446 8.38367 130.254C8.38367 125.232 12.4691 121.104 17.4908 121.104C20.2144 121.104 22.2146 122.296 24.2573 124.041C24.8957 124.594 25.5766 124.551 26.0873 123.913L28.5555 120.934C29.0662 120.296 29.0662 119.7 28.4704 119.104C25.3212 115.955 21.789 114.253 17.4908 114.253C8.63901 114.253 1.48948 121.445 1.48948 130.254C1.48948 139.021 8.17089 146.255 17.1504 146.255C25.534 146.255 32.3857 139.616 32.7261 130.935V128.594C32.7261 127.786 32.258 127.318 31.4068 127.318ZM51.8603 114.253C43.0511 114.253 35.859 121.402 35.859 130.254C35.859 139.106 43.0511 146.255 51.8603 146.255C60.7121 146.255 67.8616 139.106 67.8616 130.254C67.8616 121.402 60.7121 114.253 51.8603 114.253ZM51.8178 121.104C56.7543 121.104 60.9675 125.275 60.9675 130.254C60.9675 135.233 56.7543 139.404 51.8178 139.404C46.7535 139.404 42.7532 135.318 42.7532 130.254C42.7532 125.19 46.7535 121.104 51.8178 121.104ZM87.6203 146H72.7254C71.9168 146 71.4487 145.532 71.4487 144.723V115.785C71.4487 114.976 71.9168 114.508 72.7254 114.508H77.0236C77.8748 114.508 78.3429 114.976 78.3429 115.785V139.106H87.6203C88.4288 139.106 88.897 139.574 88.897 140.383V144.723C88.897 145.532 88.4288 146 87.6203 146ZM102.446 114.508H93.3388C92.5302 114.508 92.0621 114.976 92.0621 115.785V144.723C92.0621 145.532 92.5302 146 93.3388 146H102.446C111.128 146 118.192 138.936 118.192 130.254C118.192 121.572 111.128 114.508 102.446 114.508ZM102.446 139.106H98.9563V121.402H102.446C107.297 121.402 111.255 125.36 111.255 130.254C111.255 135.148 107.297 139.106 102.446 139.106ZM148.855 146.255C140.045 146.255 132.853 139.063 132.853 130.254C132.853 121.445 140.045 114.253 148.812 114.253C153.11 114.253 156.855 115.955 160.047 119.147C160.643 119.7 160.643 120.296 160.132 120.934L157.664 123.913C157.153 124.551 156.472 124.594 155.834 124.041C153.749 122.296 151.536 121.104 148.855 121.104C143.79 121.104 139.705 125.232 139.705 130.254C139.705 135.276 143.79 139.404 148.855 139.404C151.323 139.404 153.834 138.382 155.834 136.595C156.472 136.042 157.111 136.042 157.621 136.723L160.175 140.042C160.643 140.68 160.643 141.276 160.047 141.872C157.153 144.553 153.153 146.255 148.855 146.255ZM177.951 114.253C169.142 114.253 161.95 121.402 161.95 130.254C161.95 139.106 169.142 146.255 177.951 146.255C186.803 146.255 193.952 139.106 193.952 130.254C193.952 121.402 186.803 114.253 177.951 114.253ZM177.909 121.104C182.845 121.104 187.058 125.275 187.058 130.254C187.058 135.233 182.845 139.404 177.909 139.404C172.844 139.404 168.844 135.318 168.844 130.254C168.844 125.19 172.844 121.104 177.909 121.104ZM197.54 144.723V115.785C197.54 114.976 198.008 114.508 198.816 114.508H203.029C203.881 114.508 204.349 114.976 204.349 115.785V144.723C204.349 145.532 203.881 146 203.029 146H198.816C198.008 146 197.54 145.532 197.54 144.723ZM226.389 115.785V133.148L214.09 115.317C213.707 114.721 213.239 114.508 212.558 114.508H209.622C208.813 114.508 208.345 114.976 208.345 115.785V144.723C208.345 145.532 208.813 146 209.622 146H213.92C214.771 146 215.239 145.532 215.239 144.723V127.488L227.368 145.191C227.751 145.787 228.219 146 228.9 146H231.964C232.773 146 233.241 145.532 233.241 144.723V115.785C233.241 114.976 232.773 114.508 231.964 114.508H227.708C226.857 114.508 226.389 114.976 226.389 115.785ZM246.633 146.34C243.696 146.34 240.802 145.234 237.866 143.149C237.015 142.553 236.845 141.915 237.228 141.149L239.313 137.404C239.781 136.68 240.419 136.51 241.143 137.021C243.015 138.212 244.803 138.85 246.25 138.85C248.037 138.85 249.186 137.957 249.186 136.552C249.186 134.084 245.739 133.19 242.675 131.488C238.802 129.318 236.887 126.296 237.057 122.679C237.313 117.444 241.696 113.997 247.314 114.253C249.569 114.338 251.74 115.104 253.484 116.083C254.208 116.508 254.335 117.147 253.91 117.87L251.952 120.892C251.484 121.615 250.888 121.743 250.165 121.36C249.271 120.892 248.207 120.509 247.016 120.509C245.143 120.509 244.037 121.402 244.037 122.679C244.037 124.722 246.803 125.573 249.356 126.849C251.867 128.084 256.548 130.765 256.548 136.595C256.548 142.085 252.378 146.34 246.633 146.34Z" fill="url(#paint0_linear)"/>
<path d="M27.552 22.96H5.76C3.936 22.96 2.784 24.016 2.784 25.84V33.616C2.784 35.536 3.936 36.592 5.76 36.592H14.88V91.12C14.88 92.944 15.936 94 17.856 94H27.552C29.376 94 30.432 92.944 30.432 91.12V25.84C30.432 24.016 29.376 22.96 27.552 22.96ZM69.6203 44.272L76.3403 33.232C77.3003 31.696 77.0123 30.256 75.3803 29.296L67.0283 24.4C65.3963 23.44 63.9563 23.92 62.9963 25.456L43.7963 57.616C41.9723 60.976 40.9163 65.2 40.9163 69.328C40.9163 83.248 52.3403 94.576 66.1643 94.576C80.0843 94.576 91.4123 83.248 91.4123 69.328C91.4123 56.56 81.9083 45.904 69.6203 44.272ZM66.1643 79.12C60.7883 79.12 56.4683 74.704 56.4683 69.328C56.4683 64.048 60.7883 59.44 66.1643 59.44C71.6363 59.44 75.9563 64.048 75.9563 69.328C75.9563 74.704 71.6363 79.12 66.1643 79.12ZM106.134 102.928H99.414C97.398 102.928 96.534 101.584 97.014 99.664L100.566 85.648C100.95 84.016 102.102 83.152 103.83 83.152H110.358C112.374 83.152 113.334 84.4 112.854 86.32L109.302 100.336C108.918 102.16 107.862 102.928 106.134 102.928ZM143.052 22.96H121.26C119.436 22.96 118.284 24.016 118.284 25.84V33.616C118.284 35.536 119.436 36.592 121.26 36.592H130.38V91.12C130.38 92.944 131.436 94 133.356 94H143.052C144.876 94 145.932 92.944 145.932 91.12V25.84C145.932 24.016 144.876 22.96 143.052 22.96ZM196.064 78.352H177.44L191.936 61.648C200.864 51.376 200.288 35.92 190.112 27.376C180.512 19.408 166.016 20.752 157.664 30.832C156.32 32.272 156.704 33.808 158.144 34.96L163.808 39.664C165.248 40.816 166.592 40.72 167.936 39.376C171.776 36.016 176.48 35.728 180.032 38.32C184.352 41.488 184.544 47.728 180.512 52.24L158.912 76.816C157.856 77.968 157.472 78.832 157.472 80.368L157.568 91.12C157.568 93.04 158.72 94 160.544 94H196.064C197.888 94 198.944 92.944 198.944 91.12V81.232C198.944 79.408 197.888 78.352 196.064 78.352ZM228.047 43.984C227.567 43.984 226.895 44.08 226.415 44.176L227.183 38.512H244.655C246.479 38.512 247.631 37.456 247.631 35.632V25.84C247.631 24.016 246.479 22.96 244.655 22.96H216.911C215.183 22.96 214.127 23.824 213.839 25.648L209.999 50.608C209.807 51.856 210.095 52.816 211.247 53.68L220.079 60.304C221.135 61.072 222.191 61.072 223.439 60.4C224.783 59.824 226.415 59.44 227.951 59.44C233.327 59.44 237.359 63.568 237.359 68.944C237.359 74.224 233.327 78.256 228.047 78.256C225.167 78.256 222.671 77.008 220.751 75.184C219.407 73.936 218.159 73.648 216.719 74.896L209.039 81.424C207.599 82.672 207.407 84.208 208.751 85.648C213.647 90.736 220.463 94.576 228.143 94.576C241.391 94.576 252.815 83.152 252.815 69.04C252.815 55.216 241.967 43.984 228.047 43.984Z" fill="url(#paint1_linear)"/>
<defs>
<linearGradient id="paint0_linear" x1="259" y1="104" x2="99.32" y2="257.392" gradientUnits="userSpaceOnUse">
<stop stop-color="#FFB300"/>
<stop offset="1" stop-color="#F57C00"/>
</linearGradient>
<linearGradient id="paint1_linear" x1="258" y1="-5.51196e-06" x2="-0.644651" y2="110.491" gradientUnits="userSpaceOnUse">
<stop stop-color="#FFB300"/>
<stop offset="1" stop-color="#F57C00"/>
</linearGradient>
</defs>
</svg>
