<svg width="252" height="33" viewBox="0 0 252 33" fill="none" xmlns="http://www.w3.org/2000/svg">
<path d="M9.29207 32.336C6.39407 32.336 3.58007 31.16 1.01807 29.144C0.51407 28.724 0.43007 28.304 0.68207 27.842L1.98407 25.658C2.27807 25.196 2.69807 25.112 3.20207 25.448C5.42807 27.086 7.40207 27.842 9.08207 27.842C11.7281 27.842 13.7021 25.994 13.7021 23.642C13.7021 20.534 10.2161 19.022 6.98207 17.384C3.53807 15.662 0.22007 13.352 0.43007 8.816C0.68207 3.902 4.71407 0.583999 9.58607 0.667998C11.8121 0.709997 13.8281 1.466 15.3401 2.348C15.8021 2.684 15.8441 3.062 15.5501 3.524L14.2901 5.372C13.9961 5.792 13.6181 5.918 13.1561 5.666C11.8961 4.994 10.6361 4.574 9.46007 4.574C6.94007 4.574 4.79807 6.506 4.79807 8.984C4.79807 11.546 7.23407 12.596 9.79607 13.814C12.7781 15.158 18.2381 17.846 18.2381 23.684C18.2381 28.514 14.5001 32.336 9.29207 32.336ZM39.3913 0.92H22.3813C21.7933 0.92 21.4573 1.256 21.4573 1.844V4.238C21.4573 4.784 21.7933 5.162 22.3813 5.162H28.7653V31.076C28.7653 31.664 29.1433 32 29.6893 32H32.0833C32.6293 32 33.0073 31.664 33.0073 31.076V5.162H39.3913C39.9793 5.162 40.3153 4.784 40.3153 4.238V1.844C40.3153 1.256 39.9793 0.92 39.3913 0.92ZM58.3011 0.625998C49.5651 0.625998 42.4671 7.724 42.4671 16.418C42.4671 25.154 49.5651 32.252 58.3011 32.252C66.9951 32.252 74.0932 25.154 74.0932 16.418C74.0932 7.724 66.9951 0.625998 58.3011 0.625998ZM58.2591 4.868C64.6011 4.868 69.8511 10.076 69.8511 16.418C69.8511 22.802 64.6011 28.052 58.2591 28.052C51.8751 28.052 46.7091 22.844 46.7091 16.418C46.7091 10.076 51.8751 4.868 58.2591 4.868ZM97.4366 30.992L90.1286 18.686C93.9506 17.636 96.7646 14.108 96.7646 9.95C96.7646 4.952 92.6906 0.92 87.7346 0.92H79.3346C78.7886 0.92 78.4106 1.256 78.4106 1.844V31.076C78.4106 31.664 78.7886 32 79.3346 32H81.7286C82.3166 32 82.6526 31.664 82.6526 31.076V19.022H85.7186L92.9006 31.412C93.1526 31.832 93.4886 32 93.9506 32H96.8486C97.5626 32 97.7726 31.58 97.4366 30.992ZM82.6526 5.162H87.7346C90.3806 5.162 92.5646 7.304 92.5646 9.95C92.5646 12.638 90.3806 14.78 87.7346 14.78H82.6526V5.162ZM117.29 27.758H105.95V18.308H116.534C117.08 18.308 117.374 17.972 117.374 17.468V15.41C117.374 14.906 117.08 14.57 116.534 14.57H105.95V5.162H117.29C117.836 5.162 118.214 4.784 118.214 4.238V1.844C118.214 1.256 117.836 0.92 117.29 0.92H102.632C102.044 0.92 101.708 1.256 101.708 1.844V31.076C101.708 31.664 102.044 32 102.632 32H117.29C117.836 32 118.214 31.664 118.214 31.076V28.682C118.214 28.136 117.836 27.758 117.29 27.758ZM150.791 0.625998C142.055 0.625998 134.957 7.724 134.957 16.418C134.957 25.154 142.055 32.252 150.791 32.252C159.485 32.252 166.583 25.154 166.583 16.418C166.583 7.724 159.485 0.625998 150.791 0.625998ZM150.749 4.868C157.091 4.868 162.341 10.076 162.341 16.418C162.341 22.802 157.091 28.052 150.749 28.052C144.365 28.052 139.199 22.844 139.199 16.418C139.199 10.076 144.365 4.868 150.749 4.868ZM175.185 31.076V18.308H185.055C185.601 18.308 185.895 17.972 185.895 17.468V15.41C185.895 14.906 185.601 14.57 185.055 14.57H175.185V5.162H185.811C186.357 5.162 186.735 4.784 186.735 4.238V1.844C186.735 1.256 186.357 0.92 185.811 0.92H171.867C171.279 0.92 170.943 1.256 170.943 1.844V31.076C170.943 31.664 171.279 32 171.867 32H174.219C174.807 32 175.185 31.664 175.185 31.076ZM195.118 31.076V18.308H204.988C205.534 18.308 205.828 17.972 205.828 17.468V15.41C205.828 14.906 205.534 14.57 204.988 14.57H195.118V5.162H205.744C206.29 5.162 206.668 4.784 206.668 4.238V1.844C206.668 1.256 206.29 0.92 205.744 0.92H191.8C191.212 0.92 190.876 1.256 190.876 1.844V31.076C190.876 31.664 191.212 32 191.8 32H194.152C194.74 32 195.118 31.664 195.118 31.076ZM226.392 27.758H215.052V18.308H225.636C226.182 18.308 226.476 17.972 226.476 17.468V15.41C226.476 14.906 226.182 14.57 225.636 14.57H215.052V5.162H226.392C226.938 5.162 227.316 4.784 227.316 4.238V1.844C227.316 1.256 226.938 0.92 226.392 0.92H211.734C211.146 0.92 210.81 1.256 210.81 1.844V31.076C210.81 31.664 211.146 32 211.734 32H226.392C226.938 32 227.316 31.664 227.316 31.076V28.682C227.316 28.136 226.938 27.758 226.392 27.758ZM250.876 30.992L243.568 18.686C247.39 17.636 250.204 14.108 250.204 9.95C250.204 4.952 246.13 0.92 241.174 0.92H232.774C232.228 0.92 231.85 1.256 231.85 1.844V31.076C231.85 31.664 232.228 32 232.774 32H235.168C235.756 32 236.092 31.664 236.092 31.076V19.022H239.158L246.34 31.412C246.592 31.832 246.928 32 247.39 32H250.288C251.002 32 251.212 31.58 250.876 30.992ZM236.092 5.162H241.174C243.82 5.162 246.004 7.304 246.004 9.95C246.004 12.638 243.82 14.78 241.174 14.78H236.092V5.162Z" fill="url(#paint0_linear)"/>
<defs>
<linearGradient id="paint0_linear" x1="253" y1="-6" x2="119.699" y2="144.088" gradientUnits="userSpaceOnUse">
<stop stop-color="#FFB300"/>
<stop offset="1" stop-color="#F57C00"/>
</linearGradient>
</defs>
</svg>
